<?xml version="1.0" encoding="utf-8"?>
<!-- Generator: Adobe Illustrator 24.0.2, SVG Export Plug-In . SVG Version: 6.00 Build 0)  -->
<svg version="1.1" id="icon_x5F_Deleat" xmlns="http://www.w3.org/2000/svg" xmlns:xlink="http://www.w3.org/1999/xlink" x="0px"
	 y="0px" viewBox="0 0 34 34" style="enable-background:new 0 0 34 34;" xml:space="preserve">
<style type="text/css">
	.st0{fill:none;stroke:#1D4F95;stroke-width:0.9755;stroke-miterlimit:10;}
	.st1{fill:none;stroke:#1D4F95;stroke-width:1.5;stroke-miterlimit:10;}
</style>
<g>
	<circle class="st0" cx="17" cy="17" r="16.6"/>
	<polyline class="st1" points="24.7,24.3 25.4,28.2 17,23.9 8.7,28.3 10.3,19 3.5,12.4 12.8,11 17,2.6 21.2,11 30.5,12.3 25.3,17.4 
			"/>
	<g>
		<polyline class="st1" points="22,20.6 18.3,20.6 18.3,17.4 22,17.4 		"/>
		<path class="st1" d="M22,20.6"/>
		<path class="st1" d="M25.5,20.6"/>
		<polyline class="st1" points="25.2,17.4 29,17.4 29,20.6 25.2,20.6 		"/>
		<path class="st1" d="M25.2,17.4"/>
		<path class="st1" d="M22,17.4"/>
		<path class="st1" d="M22,17.4"/>
		<path class="st1" d="M22,21.1"/>
		<polyline class="st1" points="25.2,20.2 25.2,24.3 22,24.3 22,20.2 		"/>
		<path class="st1" d="M25.2,17.4"/>
		<polyline class="st1" points="22,17.8 22,13.6 25.2,13.6 25.2,17.8 		"/>
	</g>
</g>
</svg>
