<?xml version="1.0" encoding="utf-8"?>
<!-- Generator: Adobe Illustrator 26.2.1, SVG Export Plug-In . SVG Version: 6.00 Build 0)  -->
<svg version="1.1" id="icon_x5F_favorit" xmlns="http://www.w3.org/2000/svg" xmlns:xlink="http://www.w3.org/1999/xlink" x="0px"
	 y="0px" viewBox="0 0 34 34" style="enable-background:new 0 0 34 34;" xml:space="preserve">
<style type="text/css">
	.st0{fill:#C6C6C6;}
	.st1{fill:#FFFFFF;}
	.st2{fill:none;stroke:#FFFFFF;stroke-miterlimit:10;}
</style>
<g>
	<circle class="st0" cx="17" cy="17" r="17"/>
</g>
<g>
	<path class="st1" d="M14,16.4h-1.4c-0.4,0-0.7,0.3-0.7,0.7c0,0.4,0.3,0.7,0.7,0.7h1.5c0.4,0,0.7-0.3,0.7-0.7
		C14.8,16.7,14.5,16.4,14,16.4z"/>
	<path class="st1" d="M17.7,16.4h-1.5c-0.4,0-0.7,0.3-0.7,0.7c0,0.4,0.3,0.7,0.7,0.7h1.5c0.4,0,0.7-0.3,0.7-0.7
		C18.5,16.7,18.2,16.4,17.7,16.4z"/>
	<path class="st1" d="M14,19.3h-1.4c-0.4,0-0.7,0.3-0.7,0.7c0,0.4,0.3,0.7,0.7,0.7h1.5c0.4,0,0.7-0.3,0.7-0.7
		C14.8,19.7,14.5,19.3,14,19.3z"/>
	<path class="st1" d="M21.4,19.3h-1.5c-0.4,0-0.7,0.3-0.7,0.7c0,0.4,0.3,0.7,0.7,0.7h1.5c0.4,0,0.7-0.3,0.7-0.7
		C22.2,19.7,21.8,19.3,21.4,19.3z"/>
	<path class="st1" d="M14,22.3h-1.4c-0.4,0-0.7,0.3-0.7,0.7c0,0.4,0.3,0.7,0.7,0.7h1.5c0.4,0,0.7-0.3,0.7-0.7S14.5,22.3,14,22.3z"/>
	<g>
		<path class="st2" d="M22.9,6.7H11.1c-1.2,0-2.2,1-2.2,2.2v16.2c0,1.2,1,2.2,2.2,2.2h11.8c1.2,0,2.2-1,2.2-2.2V9
			C25.1,7.8,24.1,6.7,22.9,6.7z"/>
		<path class="st2" d="M21.4,10.4h-8.8c-0.4,0-0.7,0.3-0.7,0.7v3c0,0.4,0.3,0.7,0.7,0.7h8.9c0.4,0,0.7-0.3,0.7-0.7v-2.9
			C22.2,10.8,21.8,10.4,21.4,10.4z"/>
		<path class="st1" d="M21.4,16.4h-1.5c-0.4,0-0.7,0.3-0.7,0.7c0,0.4,0.3,0.7,0.7,0.7h1.5c0.4,0,0.7-0.3,0.7-0.7
			C22.2,16.7,21.8,16.4,21.4,16.4z"/>
		<path class="st1" d="M17.7,19.3h-1.5c-0.4,0-0.7,0.3-0.7,0.7c0,0.4,0.3,0.7,0.7,0.7h1.5c0.4,0,0.7-0.3,0.7-0.7
			C18.5,19.7,18.2,19.3,17.7,19.3z"/>
		<path class="st1" d="M17.7,22.3h-1.5c-0.4,0-0.7,0.3-0.7,0.7c0,0.4,0.3,0.7,0.7,0.7h1.5c0.4,0,0.7-0.3,0.7-0.7
			C18.5,22.6,18.2,22.3,17.7,22.3z"/>
	</g>
	<path class="st1" d="M21.4,22.3h-1.5c-0.4,0-0.7,0.3-0.7,0.7c0,0.4,0.3,0.7,0.7,0.7h1.5c0.4,0,0.7-0.3,0.7-0.7
		C22.2,22.6,21.8,22.3,21.4,22.3z"/>
</g>
</svg>
