<?xml version="1.0" encoding="utf-8"?>
<!-- Generator: Adobe Illustrator 21.0.1, SVG Export Plug-In . SVG Version: 6.00 Build 0)  -->
<svg version="1.1" id="Layer_1" xmlns="http://www.w3.org/2000/svg" xmlns:xlink="http://www.w3.org/1999/xlink" x="0px" y="0px"
	 viewBox="0 0 100 100" style="enable-background:new 0 0 100 100;" xml:space="preserve">
<style type="text/css">
	.st0{fill:#1F5096;}
</style>
<path class="st0" d="M76.5,3.5H23.5c-5.5,0-10,4.5-10,10v73c0,5.5,4.5,10,10,10h53.1c5.5,0,10-4.5,10-10v-73C86.5,8,82,3.5,76.5,3.5
	z M79.9,86.5c0,1.8-1.5,3.3-3.3,3.3H23.5c-1.8,0-3.3-1.5-3.3-3.3v-73c0-1.8,1.5-3.3,3.3-3.3h53.1c1.8,0,3.3,1.5,3.3,3.3V86.5z"/>
<path class="st0" d="M69.9,20.1H30.1c-1.8,0-3.3,1.5-3.3,3.3v13.3c0,1.8,1.5,3.3,3.3,3.3h39.8c1.8,0,3.3-1.5,3.3-3.3V23.5
	C73.2,21.6,71.7,20.1,69.9,20.1z M66.6,33.4H33.4v-6.6h33.2V33.4z"/>
<path class="st0" d="M36.7,46.7h-6.6c-1.8,0-3.3,1.5-3.3,3.3c0,1.8,1.5,3.3,3.3,3.3h6.6c1.8,0,3.3-1.5,3.3-3.3
	C40,48.2,38.6,46.7,36.7,46.7z"/>
<path class="st0" d="M53.3,46.7h-6.6c-1.8,0-3.3,1.5-3.3,3.3c0,1.8,1.5,3.3,3.3,3.3h6.6c1.8,0,3.3-1.5,3.3-3.3
	C56.6,48.2,55.2,46.7,53.3,46.7z"/>
<path class="st0" d="M69.9,46.7h-6.6c-1.8,0-3.3,1.5-3.3,3.3c0,1.8,1.5,3.3,3.3,3.3h6.6c1.8,0,3.3-1.5,3.3-3.3
	C73.2,48.2,71.7,46.7,69.9,46.7z"/>
<path class="st0" d="M36.7,60h-6.6c-1.8,0-3.3,1.5-3.3,3.3s1.5,3.3,3.3,3.3h6.6c1.8,0,3.3-1.5,3.3-3.3S38.6,60,36.7,60z"/>
<path class="st0" d="M53.3,60h-6.6c-1.8,0-3.3,1.5-3.3,3.3s1.5,3.3,3.3,3.3h6.6c1.8,0,3.3-1.5,3.3-3.3S55.2,60,53.3,60z"/>
<path class="st0" d="M69.9,60h-6.6c-1.8,0-3.3,1.5-3.3,3.3s1.5,3.3,3.3,3.3h6.6c1.8,0,3.3-1.5,3.3-3.3S71.7,60,69.9,60z"/>
<path class="st0" d="M36.7,73.2h-6.6c-1.8,0-3.3,1.5-3.3,3.3s1.5,3.3,3.3,3.3h6.6c1.8,0,3.3-1.5,3.3-3.3S38.6,73.2,36.7,73.2z"/>
<path class="st0" d="M53.3,73.2h-6.6c-1.8,0-3.3,1.5-3.3,3.3s1.5,3.3,3.3,3.3h6.6c1.8,0,3.3-1.5,3.3-3.3S55.2,73.2,53.3,73.2z"/>
<path class="st0" d="M69.9,73.2h-6.6c-1.8,0-3.3,1.5-3.3,3.3s1.5,3.3,3.3,3.3h6.6c1.8,0,3.3-1.5,3.3-3.3S71.7,73.2,69.9,73.2z"/>
</svg>
