<?xml version="1.0" encoding="utf-8"?>
<!-- Generator: Adobe Illustrator 24.0.2, SVG Export Plug-In . SVG Version: 6.00 Build 0)  -->
<svg version="1.1" id="icon_x5F_favorit" xmlns="http://www.w3.org/2000/svg" xmlns:xlink="http://www.w3.org/1999/xlink" x="0px"
	 y="0px" viewBox="0 0 34 34" style="enable-background:new 0 0 34 34;" xml:space="preserve">
<style type="text/css">
	.st0{fill:#1D4F95;}
	.st1{fill:none;stroke:#FFFFFF;stroke-miterlimit:10;}
	.st2{fill:#FFFFFF;}
</style>
<g id="icon_x5F_favorit_1_">
	<g>
		<circle class="st0" cx="17" cy="17" r="17"/>
	</g>
</g>
<path class="st1" d="M22.3,6.6H10.5c-1.2,0-2.2,1-2.2,2.2v16.2c0,1.2,1,2.2,2.2,2.2h11.8c1.2,0,2.2-1,2.2-2.2V8.9
	C24.5,7.7,23.5,6.6,22.3,6.6z"/>
<path class="st1" d="M20.8,10.3H12c-0.4,0-0.7,0.3-0.7,0.7v3c0,0.4,0.3,0.7,0.7,0.7h8.9c0.4,0,0.7-0.3,0.7-0.7v-2.9
	C21.6,10.7,21.2,10.3,20.8,10.3z"/>
<path class="st2" d="M13.4,16.3H12c-0.4,0-0.7,0.3-0.7,0.7c0,0.4,0.3,0.7,0.7,0.7h1.5c0.4,0,0.7-0.3,0.7-0.7
	C14.2,16.6,13.9,16.3,13.4,16.3z"/>
<path class="st2" d="M17.1,16.3h-1.5c-0.4,0-0.7,0.3-0.7,0.7c0,0.4,0.3,0.7,0.7,0.7h1.5c0.4,0,0.7-0.3,0.7-0.7
	C17.9,16.6,17.6,16.3,17.1,16.3z"/>
<path class="st2" d="M20.8,16.3h-1.5c-0.4,0-0.7,0.3-0.7,0.7c0,0.4,0.3,0.7,0.7,0.7h1.5c0.4,0,0.7-0.3,0.7-0.7
	C21.6,16.6,21.2,16.3,20.8,16.3z"/>
<path class="st2" d="M13.4,19.2H12c-0.4,0-0.7,0.3-0.7,0.7c0,0.4,0.3,0.7,0.7,0.7h1.5c0.4,0,0.7-0.3,0.7-0.7
	C14.2,19.6,13.9,19.2,13.4,19.2z"/>
<path class="st2" d="M17.1,19.2h-1.5c-0.4,0-0.7,0.3-0.7,0.7c0,0.4,0.3,0.7,0.7,0.7h1.5c0.4,0,0.7-0.3,0.7-0.7
	C17.9,19.6,17.6,19.2,17.1,19.2z"/>
<path class="st2" d="M20.8,19.2h-1.5c-0.4,0-0.7,0.3-0.7,0.7c0,0.4,0.3,0.7,0.7,0.7h1.5c0.4,0,0.7-0.3,0.7-0.7
	C21.6,19.6,21.2,19.2,20.8,19.2z"/>
<path class="st2" d="M13.4,22.2H12c-0.4,0-0.7,0.3-0.7,0.7c0,0.4,0.3,0.7,0.7,0.7h1.5c0.4,0,0.7-0.3,0.7-0.7
	C14.2,22.5,13.9,22.2,13.4,22.2z"/>
<path class="st2" d="M17.1,22.2h-1.5c-0.4,0-0.7,0.3-0.7,0.7c0,0.4,0.3,0.7,0.7,0.7h1.5c0.4,0,0.7-0.3,0.7-0.7
	C17.9,22.5,17.6,22.2,17.1,22.2z"/>
<path class="st2" d="M20.8,22.2h-1.5c-0.4,0-0.7,0.3-0.7,0.7c0,0.4,0.3,0.7,0.7,0.7h1.5c0.4,0,0.7-0.3,0.7-0.7
	C21.6,22.5,21.2,22.2,20.8,22.2z"/>
</svg>
