<?xml version="1.0" encoding="utf-8"?>
<!-- Generator: Adobe Illustrator 24.0.0, SVG Export Plug-In . SVG Version: 6.00 Build 0)  -->
<svg version="1.1" id="icon_x5F_Deleat" xmlns="http://www.w3.org/2000/svg" xmlns:xlink="http://www.w3.org/1999/xlink" x="0px"
	 y="0px" viewBox="0 0 34 34" style="enable-background:new 0 0 34 34;" xml:space="preserve">
<style type="text/css">
	.st0{fill:#ED1C24;}
</style>
<path class="st0" d="M33.36,1.08c-6.32,1.08-11.8,4.14-16.27,7.7c-4.92-4.4-9.21-6.8-9.21-6.8c-2.06-1.28-4.63-0.93-6.61,0
	c-1.98,0.92-1.98,3.83,0,4.23c4.35,1.7,8.18,3.96,11.52,6.42c-5.91,5.88-9.18,11.72-9.18,11.72c-1.28,2.06-0.93,4.63,0,6.61
	c0.93,1.98,3.84,1.98,4.23,0c2.31-5.91,5.64-10.86,9.14-14.93C27.13,25.1,31.46,35,31.16,31.73c-1.37-7.97-5.87-14.59-10.56-19.55
	C28.7,4.22,36.28,0.81,33.36,1.08z"/>
</svg>
