<?xml version="1.0" encoding="utf-8"?>
<!-- Generator: Adobe Illustrator 26.2.1, SVG Export Plug-In . SVG Version: 6.00 Build 0)  -->
<svg version="1.1" id="Objects" xmlns="http://www.w3.org/2000/svg" xmlns:xlink="http://www.w3.org/1999/xlink" x="0px" y="0px"
	 viewBox="0 0 115 115" style="enable-background:new 0 0 115 115;" xml:space="preserve">
<style type="text/css">
	.st0{fill:#0097C3;}
</style>
<g id="XMLID_158_">
	<g id="XMLID_210_">
		<path class="st0" d="M57.5,110.9C28,110.9,4.1,87,4.1,57.5S28,4.1,57.5,4.1s53.4,24,53.4,53.4C110.9,87,87,110.9,57.5,110.9z
			 M57.5,9.7C31.1,9.7,9.7,31.1,9.7,57.5s21.5,47.8,47.8,47.8c26.4,0,47.8-21.5,47.8-47.8C105.3,31.1,83.9,9.7,57.5,9.7z"/>
		<path class="st0" d="M57.5,112.3c-30.2,0-54.8-24.6-54.8-54.8S27.3,2.7,57.5,2.7s54.8,24.6,54.8,54.8S87.7,112.3,57.5,112.3z
			 M57.5,5.5c-28.7,0-52,23.3-52,52s23.3,52,52,52s52-23.3,52-52S86.2,5.5,57.5,5.5z M57.5,106.7c-27.1,0-49.2-22.1-49.2-49.2
			S30.4,8.3,57.5,8.3s49.2,22.1,49.2,49.2S84.6,106.7,57.5,106.7z M57.5,11.1c-25.6,0-46.4,20.8-46.4,46.4s20.8,46.4,46.4,46.4
			s46.4-20.8,46.4-46.4S83.1,11.1,57.5,11.1z"/>
	</g>
	<g id="XMLID_159_">
		<path class="st0" d="M46.1,43.6c0,2.7-2.2,4.8-4.8,4.8c-2.7,0-4.8-2.2-4.8-4.8c0-2.7,2.2-4.8,4.8-4.8C43.9,38.8,46.1,41,46.1,43.6
			z"/>
		<path class="st0" d="M41.3,49.9c-3.4,0-6.2-2.8-6.2-6.2s2.8-6.2,6.2-6.2s6.2,2.8,6.2,6.2S44.7,49.9,41.3,49.9z M41.3,40.2
			c-1.9,0-3.4,1.5-3.4,3.4s1.5,3.4,3.4,3.4s3.4-1.5,3.4-3.4S43.2,40.2,41.3,40.2z"/>
	</g>
	<g id="XMLID_157_">
		<path class="st0" d="M78.1,43.6c0,2.7-2.2,4.8-4.8,4.8c-2.7,0-4.8-2.2-4.8-4.8c0-2.7,2.2-4.8,4.8-4.8S78.1,41,78.1,43.6z"/>
		<path class="st0" d="M73.3,49.9c-3.4,0-6.2-2.8-6.2-6.2s2.8-6.2,6.2-6.2c3.4,0,6.2,2.8,6.2,6.2S76.7,49.9,73.3,49.9z M73.3,40.2
			c-1.9,0-3.4,1.5-3.4,3.4s1.5,3.4,3.4,3.4s3.4-1.5,3.4-3.4C76.7,41.7,75.2,40.2,73.3,40.2z"/>
	</g>
	<g id="XMLID_381_">
		<path class="st0" d="M68.4,74.4H46.1c-1.1,0-2-0.9-2-2s0.9-2,2-2h22.3c1.1,0,2,0.9,2,2C70.4,73.5,69.5,74.4,68.4,74.4z"/>
		<path class="st0" d="M68.4,75.8H46.1c-1.9,0-3.4-1.5-3.4-3.4s1.5-3.4,3.4-3.4h22.3c1.9,0,3.4,1.5,3.4,3.4
			C71.8,74.2,70.3,75.8,68.4,75.8z M46.1,71.8c-0.3,0-0.6,0.3-0.6,0.6c0,0.3,0.3,0.6,0.6,0.6h22.3c0.3,0,0.6-0.3,0.6-0.6
			c0-0.3-0.3-0.6-0.6-0.6H46.1z"/>
	</g>
</g>
</svg>
