<?xml version="1.0" encoding="utf-8"?>
<!-- Generator: Adobe Illustrator 21.0.1, SVG Export Plug-In . SVG Version: 6.00 Build 0)  -->
<svg version="1.1" id="Layer_1" xmlns="http://www.w3.org/2000/svg" xmlns:xlink="http://www.w3.org/1999/xlink" x="0px" y="0px"
	 viewBox="0 0 60.7 60.7" style="enable-background:new 0 0 60.7 60.7;" xml:space="preserve">
<style type="text/css">
	.st0{fill:#4E76B9;}
</style>
<g>
	<path class="st0" d="M56.9,21.7c3.7,11.5-0.4,24.1-10.1,31.2C37,60,23.7,60,14,52.9C4.2,45.8,0.1,33.2,3.8,21.7
		C7.6,10.3,18.3,2.5,30.3,2.5S53.1,10.3,56.9,21.7z M30.3,5c-11,0-20.7,7.1-24.1,17.5C2.8,33,6.6,44.4,15.4,50.9
		c8.9,6.5,20.9,6.5,29.8,0S57.8,33,54.4,22.5C51.1,12.1,41.3,5,30.3,5z"/>
</g>
<path class="st0" d="M35,17.6c1.3,0,2.4,0,3.6,0c0.2,0,0.3,0,0.5,0v-6.2c-0.6,0-1.3-0.2-1.9-0.2c-1.3,0-2.5-0.2-3.6-0.2
	c-1.9,0-3.6,0.5-5.2,1.6c-1.7,1.3-2.7,3-3.2,5.2c-0.2,0.9-0.2,1.7-0.2,2.7c0,1.4,0,2.8,0,4.1v0.5h-6v6.9h5.8v17.4h7.3V32.2H38
	c0.3-2.4,0.6-4.6,0.9-6.9c-0.5,0-0.9,0-1.3,0c-1.7,0-5.5,0-5.5,0s0-3.5,0-4.9C32.2,18.4,33.4,17.8,35,17.6z"/>
</svg>
