<?xml version="1.0" encoding="utf-8"?>
<!-- Generator: Adobe Illustrator 24.3.0, SVG Export Plug-In . SVG Version: 6.00 Build 0)  -->
<svg version="1.1" id="Objects" xmlns="http://www.w3.org/2000/svg" xmlns:xlink="http://www.w3.org/1999/xlink" x="0px" y="0px"
	 viewBox="0 0 115 115" style="enable-background:new 0 0 115 115;" xml:space="preserve">
<style type="text/css">
	.st0{fill:#CB2228;}
	.st1{fill:#FFFFFF;}
</style>
<g id="XMLID_388_">
	<g id="XMLID_212_">
		<path class="st0" d="M57.5,112.3c-30.2,0-54.8-24.6-54.8-54.8S27.3,2.7,57.5,2.7s54.8,24.6,54.8,54.8S87.7,112.3,57.5,112.3z"/>
	</g>
	<g id="XMLID_380_">
		<path class="st1" d="M73.3,80.7c-1.9,0-3.4-1.5-3.4-3.4c0-6.8-5.5-12.4-12.4-12.4c-6.8,0-12.4,5.5-12.4,12.4
			c0,1.9-1.5,3.4-3.4,3.4s-3.4-1.5-3.4-3.4c0-10.6,8.6-19.2,19.2-19.2s19.2,8.6,19.2,19.2C76.7,79.1,75.1,80.7,73.3,80.7z"/>
	</g>
	<g id="XMLID_206_">
		<path class="st1" d="M41.3,49.9c-3.4,0-6.2-2.8-6.2-6.2s2.8-6.2,6.2-6.2s6.2,2.8,6.2,6.2S44.7,49.9,41.3,49.9z"/>
	</g>
	<g id="XMLID_205_">
		<path class="st1" d="M73.3,49.9c-3.4,0-6.2-2.8-6.2-6.2s2.8-6.2,6.2-6.2c3.4,0,6.2,2.8,6.2,6.2S76.7,49.9,73.3,49.9z"/>
	</g>
</g>
</svg>
