<?xml version="1.0" encoding="utf-8"?>
<!-- Generator: Adobe Illustrator 26.2.1, SVG Export Plug-In . SVG Version: 6.00 Build 0)  -->
<svg version="1.1" id="Objects" xmlns="http://www.w3.org/2000/svg" xmlns:xlink="http://www.w3.org/1999/xlink" x="0px" y="0px"
	 viewBox="0 0 115 115" style="enable-background:new 0 0 115 115;" xml:space="preserve">
<style type="text/css">
	.st0{fill:#0097C3;}
	.st1{fill:#FFFFFF;}
</style>
<g id="XMLID_158_">
	<g id="XMLID_210_">
		<path class="st0" d="M57.5,110.9C28,110.9,4.1,87,4.1,57.5S28,4.1,57.5,4.1s53.4,24,53.4,53.4C110.9,87,87,110.9,57.5,110.9z"/>
	</g>
	<g id="XMLID_159_">
		<path class="st1" d="M41.3,49.9c-3.4,0-6.2-2.8-6.2-6.2s2.8-6.2,6.2-6.2s6.2,2.8,6.2,6.2S44.7,49.9,41.3,49.9z"/>
	</g>
	<g id="XMLID_157_">
		<path class="st1" d="M73.3,49.9c-3.4,0-6.2-2.8-6.2-6.2s2.8-6.2,6.2-6.2c3.4,0,6.2,2.8,6.2,6.2S76.7,49.9,73.3,49.9z"/>
	</g>
	<g id="XMLID_381_">
		<path class="st1" d="M68.4,75.8H46.1c-1.9,0-3.4-1.5-3.4-3.4s1.5-3.4,3.4-3.4h22.3c1.9,0,3.4,1.5,3.4,3.4
			C71.8,74.2,70.3,75.8,68.4,75.8z"/>
	</g>
</g>
</svg>
