<?xml version="1.0" encoding="utf-8"?>
<!-- Generator: Adobe Illustrator 24.3.0, SVG Export Plug-In . SVG Version: 6.00 Build 0)  -->
<svg version="1.1" id="Objects" xmlns="http://www.w3.org/2000/svg" xmlns:xlink="http://www.w3.org/1999/xlink" x="0px" y="0px"
	 viewBox="0 0 115 115" style="enable-background:new 0 0 115 115;" xml:space="preserve">
<style type="text/css">
	.st0{fill:#6FB353;}
	.st1{fill:#FFFFFF;}
</style>
<g id="XMLID_152_">
	<g id="XMLID_203_">
		<path class="st0" d="M57.5,110.9C28,110.9,4.1,87,4.1,57.5S28,4.1,57.5,4.1s53.4,24,53.4,53.4C110.9,87,87,110.9,57.5,110.9z"/>
	</g>
	<g id="XMLID_207_">
		<path class="st1" d="M57.5,90.8c-16.1,0-29.3-13.1-29.3-29.3c0-1.1,0.9-2,2-2s2,0.9,2,2c0,13.9,11.3,25.3,25.3,25.3
			c13.9,0,25.3-11.3,25.3-25.3c0-1.1,0.9-2,2-2s2,0.9,2,2C86.8,77.6,73.6,90.8,57.5,90.8z"/>
	</g>
	<g id="XMLID_154_">
		<path class="st0" d="M46.1,43.6c0,2.7-2.2,4.8-4.8,4.8c-2.7,0-4.8-2.2-4.8-4.8c0-2.7,2.2-4.8,4.8-4.8C43.9,38.8,46.1,41,46.1,43.6
			z"/>
		<path class="st1" d="M41.3,49.9c-3.4,0-6.2-2.8-6.2-6.2s2.8-6.2,6.2-6.2s6.2,2.8,6.2,6.2S44.7,49.9,41.3,49.9z"/>
	</g>
	<g id="XMLID_156_">
		<path class="st0" d="M78.1,43.6c0,2.7-2.2,4.8-4.8,4.8c-2.7,0-4.8-2.2-4.8-4.8c0-2.7,2.2-4.8,4.8-4.8S78.1,41,78.1,43.6z"/>
		<path class="st1" d="M73.3,49.9c-3.4,0-6.2-2.8-6.2-6.2s2.8-6.2,6.2-6.2c3.4,0,6.2,2.8,6.2,6.2S76.7,49.9,73.3,49.9z"/>
	</g>
</g>
<g id="XMLID_1_">
	<g id="XMLID_5_">
		<path class="st0" d="M-284,76.1c-29.5,0-53.4-23.9-53.4-53.4s23.9-53.4,53.4-53.4s53.4,24,53.4,53.4
			C-230.6,52.2-254.5,76.1-284,76.1z M-284-25.1c-26.4,0-47.8,21.4-47.8,47.8s21.5,47.8,47.8,47.8s47.8-21.5,47.8-47.8
			C-236.2-3.7-257.6-25.1-284-25.1z"/>
		<path class="st0" d="M-284,77.5c-30.2,0-54.8-24.6-54.8-54.8s24.6-54.8,54.8-54.8s54.8,24.6,54.8,54.8S-253.8,77.5-284,77.5z
			 M-284-29.3c-28.7,0-52,23.3-52,52s23.3,52,52,52s52-23.3,52-52S-255.3-29.3-284-29.3z M-284,71.9c-27.1,0-49.2-22.1-49.2-49.2
			s22.1-49.2,49.2-49.2s49.2,22.1,49.2,49.2S-256.9,71.9-284,71.9z M-284-23.7c-25.6,0-46.4,20.8-46.4,46.4s20.8,46.4,46.4,46.4
			s46.4-20.8,46.4-46.4S-258.4-23.7-284-23.7z"/>
	</g>
	<g id="XMLID_4_">
		<path class="st0" d="M-284,56c-16.1,0-29.3-13.1-29.3-29.3c0-1.1,0.9-2,2-2c1.1,0,2,0.9,2,2C-309.3,40.6-298,52-284,52
			c13.9,0,25.3-11.3,25.3-25.3c0-1.1,0.9-2,2-2c1.1,0,2,0.9,2,2C-254.7,42.8-267.9,56-284,56z"/>
		<path class="st0" d="M-284,57.4c-16.9,0-30.7-13.8-30.7-30.7c0-1.9,1.5-3.4,3.4-3.4c1.9,0,3.4,1.5,3.4,3.4
			c0,13.2,10.7,23.9,23.9,23.9c13.2,0,23.9-10.7,23.9-23.9c0-1.9,1.5-3.4,3.4-3.4c1.9,0,3.4,1.5,3.4,3.4
			C-253.3,43.6-267.1,57.4-284,57.4z M-311.3,26.1c-0.3,0-0.6,0.3-0.6,0.6c0,15.4,12.5,27.9,27.9,27.9s27.9-12.5,27.9-27.9
			c0-0.3-0.3-0.6-0.6-0.6c-0.3,0-0.6,0.3-0.6,0.6c0,14.7-12,26.7-26.7,26.7s-26.7-12-26.7-26.7C-310.7,26.4-310.9,26.1-311.3,26.1z"
			/>
	</g>
	<g id="XMLID_3_">
		<path class="st0" d="M-295.4,8.8c0,2.7-2.2,4.8-4.8,4.8c-2.7,0-4.8-2.2-4.8-4.8c0-2.7,2.2-4.8,4.8-4.8
			C-297.6,4-295.4,6.2-295.4,8.8z"/>
		<path class="st0" d="M-300.2,15.1c-3.4,0-6.2-2.8-6.2-6.2s2.8-6.2,6.2-6.2c3.4,0,6.2,2.8,6.2,6.2S-296.8,15.1-300.2,15.1z
			 M-300.2,5.4c-1.9,0-3.4,1.5-3.4,3.4s1.5,3.4,3.4,3.4c1.9,0,3.4-1.5,3.4-3.4S-298.3,5.4-300.2,5.4z"/>
	</g>
	<g id="XMLID_2_">
		<path class="st0" d="M-263.4,8.8c0,2.7-2.2,4.8-4.8,4.8c-2.7,0-4.8-2.2-4.8-4.8c0-2.7,2.2-4.8,4.8-4.8S-263.4,6.2-263.4,8.8z"/>
		<path class="st0" d="M-268.2,15.1c-3.4,0-6.2-2.8-6.2-6.2s2.8-6.2,6.2-6.2c3.4,0,6.2,2.8,6.2,6.2S-264.8,15.1-268.2,15.1z
			 M-268.2,5.4c-1.9,0-3.4,1.5-3.4,3.4s1.5,3.4,3.4,3.4c1.9,0,3.4-1.5,3.4-3.4C-264.8,6.9-266.3,5.4-268.2,5.4z"/>
	</g>
</g>
</svg>
