<?xml version="1.0" encoding="utf-8"?>
<!-- Generator: Adobe Illustrator 21.1.0, SVG Export Plug-In . SVG Version: 6.00 Build 0)  -->
<svg version="1.1" id="Layer_1" xmlns="http://www.w3.org/2000/svg" xmlns:xlink="http://www.w3.org/1999/xlink" x="0px" y="0px"
	 viewBox="0 0 100 100" style="enable-background:new 0 0 100 100;" xml:space="preserve">
<style type="text/css">
	.st0{fill:none;stroke:#0270B1;stroke-width:3;stroke-miterlimit:10;}
</style>
<path class="st0" d="M27.7,46.9c0,0,1,1.4,9.9-0.1c8.8-1.5,8.5,10.6,8.5,10.6c0,0,0.2,9.9,1,12.6c1.4,4.9,3.5,5.1,3.5,5.1l-2.8-0.4
	c-10.5-8.1-19.4-21.6-20.5-26C27.8,46.2,27.7,46.9,27.7,46.9z"/>
<circle class="st0" cx="50.2" cy="50" r="48"/>
<path class="st0" d="M97,39c-2.5-10.7-8.7-20-17.1-26.6c-5,2.7-8.3,7.9-8.3,14c0,8.8,7.1,15.9,15.9,15.9C91,42.2,94.3,41,97,39z"/>
<path class="st0" d="M98.2,49.9C98.2,23.4,76.5,2,49.7,2c-3.9,0-7.7,0.5-11.4,1.3L19.7,67.2c-0.8,2.6,1,5.3,3.8,5.6l64.3,6.9
	C94.3,71.5,98.2,61.2,98.2,49.9z"/>
</svg>
