<?xml version="1.0" encoding="utf-8"?>
<!-- Generator: Adobe Illustrator 24.0.1, SVG Export Plug-In . SVG Version: 6.00 Build 0)  -->
<svg version="1.1" id="icon_x5F_Deleat" xmlns="http://www.w3.org/2000/svg" xmlns:xlink="http://www.w3.org/1999/xlink" x="0px"
	 y="0px" viewBox="0 0 100 100" style="enable-background:new 0 0 100 100;" xml:space="preserve">
<style type="text/css">
	.st0{fill:#A0A0A0;}
</style>
<path class="st0" d="M50,48.5c12.9,0,25.8,0,38.7,0c3.3,0,5.6,1.8,6.3,4.5c0.6,2.9-0.4,5.6-2.9,6.9c-1.2,0.6-2.7,0.9-4,0.9
	c-25.3,0.1-50.6,0.1-76,0c-4.1,0-6.5-1.9-7.1-5c-0.5-2.6,0.9-5.6,3.5-6.7c1.3-0.5,2.9-0.6,4.4-0.6C25.2,48.4,37.6,48.4,50,48.5
	C50,48.4,50,48.5,50,48.5z"/>
<path class="st0" d="M50.1,19.1c12.3,0,24.6,0,36.9,0c0.9,0,1.8,0,2.7,0.1c3.1,0.5,5.1,2.6,5.3,5.6c0.2,2.9-1.4,5.5-4.4,6.3
	c-1.2,0.4-2.6,0.5-3.8,0.5c-24.5,0-49.1,0-73.6,0c-0.8,0-1.6,0-2.4-0.1c-3.7-0.6-6.3-3.5-6-6.6c0.3-3.5,2.9-5.8,6.8-5.8
	C24.5,19,37.3,19.1,50.1,19.1z"/>
<path class="st0" d="M50.2,77.9c12.8,0,25.6,0,38.4,0c4.5,0,7.2,3.1,6.5,7.4c-0.5,2.6-2.1,4.3-4.7,4.8c-0.9,0.2-1.8,0.2-2.7,0.2
	c-25.1,0-50.3,0-75.4,0c-4.2,0-6.7-1.6-7.4-4.7c-0.9-4.1,2-7.6,6.5-7.6C24.4,77.9,37.3,77.9,50.2,77.9z"/>
</svg>
