<?xml version="1.0" encoding="utf-8"?>
<!-- Generator: Adobe Illustrator 26.2.1, SVG Export Plug-In . SVG Version: 6.00 Build 0)  -->
<svg version="1.1" id="icon_x5F_favorit" xmlns="http://www.w3.org/2000/svg" xmlns:xlink="http://www.w3.org/1999/xlink" x="0px"
	 y="0px" viewBox="0 0 34 34" style="enable-background:new 0 0 34 34;" xml:space="preserve">
<style type="text/css">
	.st0{fill:#C6C6C6;}
	.st1{fill:#FFFFFF;}
</style>
<g id="icon_x5F_favorit_1_">
	<g>
		<circle class="st0" cx="17" cy="17" r="17"/>
	</g>
</g>
<g>
	<g>
		<path class="st1" d="M17.4,23.9c-1.3,0-2.4,1.1-2.4,2.4s1.1,2.4,2.4,2.4s2.4-1.1,2.4-2.4l0,0C19.8,25,18.7,23.9,17.4,23.9
			 M23.3,10.1c-0.9-3-3.7-4.9-6.8-4.6c-2.7,0.2-5,2-5.7,4.6c-0.1,0.5-0.2,1.1-0.3,1.6h3.7c0-0.2,0.1-0.5,0.1-0.7
			c0.4-1.4,2-2.2,3.6-1.8c1.3,0.4,2.1,1.7,1.8,3c-0.1,0.7-0.5,1.4-0.9,2c-0.8,1.1-1.9,1.9-3.2,2.5c-0.2,0.1-0.3,0.3-0.3,0.5v3.6
			c0,0.1,0,0.2,0,0.3H19v-2.2c0-0.2,0.1-0.5,0.3-0.6c1.6-1,2.9-2.4,3.6-4.1C23.5,12.9,23.7,11.5,23.3,10.1"/>
	</g>
</g>
</svg>
