<?xml version="1.0" encoding="utf-8"?>
<!-- Generator: Adobe Illustrator 21.0.1, SVG Export Plug-In . SVG Version: 6.00 Build 0)  -->
<svg version="1.1" id="Layer_1" xmlns="http://www.w3.org/2000/svg" xmlns:xlink="http://www.w3.org/1999/xlink" x="0px" y="0px"
	 viewBox="0 0 100 100" style="enable-background:new 0 0 100 100;" xml:space="preserve">
<style type="text/css">
	.st0{clip-path:url(#SVGID_2_);fill:#1F5096;}
</style>
<g>
	<defs>
		<rect id="SVGID_1_" x="22.9" y="2.5" width="54" height="96.1"/>
	</defs>
	<clipPath id="SVGID_2_">
		<use xlink:href="#SVGID_1_"  style="overflow:visible;"/>
	</clipPath>
	<path class="st0" d="M51.6,78.8c-5.4,0-9.9,4.4-9.9,9.8c0,5.4,4.4,9.9,9.8,9.9c5.4,0,9.9-4.4,9.9-9.8v0
		C61.4,83.3,57,78.8,51.6,78.8 M76,21.8C72.4,9.5,60.6,1.4,47.8,2.6C36.6,3.3,27.1,11,24,21.8c-0.5,2.2-0.9,4.5-1.1,6.8h15.5
		c0.2-1,0.3-2,0.5-2.9c1.6-6,8.2-9.2,14.8-7.3c5.3,1.5,8.6,6.9,7.4,12.3c-0.6,3-1.9,5.7-3.8,8.1c-3.5,4.5-8,8-13.2,10.2
		c-0.8,0.3-1.3,1.1-1.3,1.9v15c0,0.5,0,0.9,0.1,1.4h15.2v-9.3c-0.1-1,0.4-1.9,1.3-2.3c6.6-4,11.9-9.9,15-17
		C77,33.4,77.6,27.4,76,21.8"/>
</g>
</svg>
