<?xml version="1.0" encoding="utf-8"?>
<!-- Generator: Adobe Illustrator 26.2.1, SVG Export Plug-In . SVG Version: 6.00 Build 0)  -->
<svg version="1.1" id="icon_x5F_Deleat" xmlns="http://www.w3.org/2000/svg" xmlns:xlink="http://www.w3.org/1999/xlink" x="0px"
	 y="0px" viewBox="0 0 34 34" style="enable-background:new 0 0 34 34;" xml:space="preserve">
<style type="text/css">
	.st0{fill:none;stroke:#C6C6C6;stroke-width:1.4173;stroke-miterlimit:10;}
	.st1{fill:none;stroke:#0097C3;stroke-width:1.4173;stroke-miterlimit:10;}
</style>
<g>
	<path class="st0" d="M6.6,26.5l4.8,0.6l1.9,0.4c0.5,0,0.8,0.5,1.3,0.7l0,0c0.4,0.4,0.5,0.7,0.6,1.4l0.6,3.1"/>
	<g id="XMLID_1_">
		<g>
			<path class="st0" d="M27.7,13.2V3.4c0-0.6,0-1.2-0.4-1.6s-1-0.6-1.6-0.6h-4H12H8.6C8,1.1,7.4,1.4,6.9,1.7
				C6.6,2.2,6.3,2.8,6.3,3.4v23.4l0,0l0,0l0,0l0,0l0,0l0,0l0,0l0,0l0,0l0,0l0,0l0,0l0,0l0,0l0,0l0,0l0,0l0,0l0,0l0,0l0,0l0,0l0,0
				l0,0l0,0l0,0l0,0l0,0l0,0l0,0l0,0l0,0l0,0l0,0l0,0l0,0l0,0l0,0l0,0l0,0l0,0l0,0l0,0l0,0l0,0l0,0l0,0l0,0l0,0l0,0l0,0l0,0l0,0l0,0
				l0,0l0,0c0,0,0,0,0.1,0.1l0,0l0,0l0,0l0,0l0,0l0,0l0,0l0,0l0,0l0,0l0,0l0,0l0,0l0,0l4.8,3.1l0.6,0.4l3.6,2.3
				c0.1,0,0.1,0.1,0.2,0.1h5.9h4.2c0.6,0,1.2,0.1,1.6-0.2c0.4-0.4,0.4-1.4,0.4-1.9v-5.9V13.2L27.7,13.2z"/>
		</g>
	</g>
	<line class="st1" x1="9.8" y1="11.8" x2="24.4" y2="11.8"/>
	<line class="st1" x1="9.8" y1="17.2" x2="24.4" y2="17.2"/>
	<line class="st1" x1="9.8" y1="21.7" x2="24.4" y2="21.7"/>
	<line class="st1" x1="9.8" y1="7.4" x2="24.4" y2="7.4"/>
</g>
</svg>
