<?xml version="1.0" encoding="utf-8"?>
<!-- Generator: Adobe Illustrator 21.1.0, SVG Export Plug-In . SVG Version: 6.00 Build 0)  -->
<svg version="1.1" id="icon_x5F_Print" xmlns="http://www.w3.org/2000/svg" xmlns:xlink="http://www.w3.org/1999/xlink" x="0px"
	 y="0px" viewBox="0 0 34 34" style="enable-background:new 0 0 34 34;" xml:space="preserve">
<style type="text/css">
	.st0{fill:#0772B1;}
	.st1{enable-background:new    ;}
	.st2{fill:#FFFFFF;}
</style>
<circle class="st0" cx="17" cy="17" r="16.4"/>
<g>
	<g class="st1">
		<path class="st2" d="M6.5,21.9v-9.7h3.1c1.2,0,2,0,2.3,0.1c0.6,0.1,1,0.5,1.4,0.9c0.4,0.5,0.6,1.1,0.6,1.9c0,0.6-0.1,1.1-0.3,1.5
			c-0.2,0.4-0.5,0.7-0.8,1c-0.3,0.2-0.7,0.4-1,0.5c-0.5,0.1-1.1,0.1-2,0.1H8.4v3.7H6.5z M8.4,13.9v2.7h1.1c0.8,0,1.3,0,1.5-0.2
			s0.5-0.3,0.6-0.5c0.1-0.2,0.2-0.5,0.2-0.8c0-0.4-0.1-0.6-0.3-0.9c-0.2-0.2-0.5-0.4-0.8-0.4c-0.2,0-0.7-0.1-1.4-0.1H8.4z"/>
		<path class="st2" d="M21.4,20.2v1.7h-6.5c0.1-0.7,0.3-1.3,0.6-1.9c0.4-0.6,1-1.4,2.1-2.3c0.8-0.8,1.3-1.3,1.5-1.6
			c0.3-0.4,0.4-0.8,0.4-1.1c0-0.4-0.1-0.7-0.3-1c-0.2-0.2-0.5-0.3-0.9-0.3c-0.4,0-0.7,0.1-0.9,0.3s-0.4,0.6-0.4,1.2l-1.8-0.2
			c0.1-1,0.5-1.8,1-2.2c0.6-0.4,1.3-0.7,2.2-0.7c1,0,1.7,0.3,2.3,0.8c0.5,0.5,0.8,1.2,0.8,1.9c0,0.4-0.1,0.9-0.2,1.2
			c-0.2,0.4-0.4,0.8-0.7,1.2c-0.2,0.3-0.6,0.7-1.2,1.2c-0.6,0.5-1,0.9-1.1,1.1c-0.2,0.2-0.3,0.3-0.4,0.5H21.4z"/>
		<path class="st2" d="M27.4,21.9h-1.9v-7c-0.7,0.6-1.5,1.1-2.4,1.4v-1.7c0.5-0.2,1-0.5,1.6-0.9c0.6-0.4,1-1,1.2-1.5h1.5V21.9z"/>
	</g>
</g>
</svg>
