<?xml version="1.0" encoding="utf-8"?>
<!-- Generator: Adobe Illustrator 26.3.1, SVG Export Plug-In . SVG Version: 6.00 Build 0)  -->
<svg version="1.1" id="icon_x5F_Print" xmlns="http://www.w3.org/2000/svg" xmlns:xlink="http://www.w3.org/1999/xlink" x="0px"
	 y="0px" viewBox="0 0 34 34" style="enable-background:new 0 0 34 34;" xml:space="preserve">
<style type="text/css">
	.st0{fill:#C6C6C6;}
	.st1{fill:#F5F5F5;}
	.st2{fill:#075F79;}
	.st3{fill:#FFFFFF;}
	.st4{fill:#0098C3;}
	.st5{fill:#C9C9C9;}
</style>
<circle class="st0" cx="17" cy="17" r="16.4"/>
<g>
	<path class="st1" d="M24.8,29.2H9.2c-0.5,0-1-0.4-1-1V5.8c0-0.5,0.4-1,1-1h12.9l3.6,3.6v19.7C25.7,28.7,25.3,29.2,24.8,29.2z"/>
	<g>
		<polygon class="st2" points="6.6,14 8.5,15.7 8.6,14 		"/>
	</g>
	<g>
		<path class="st3" d="M24.8,29.2H9.2c-0.5,0-1-0.4-1-1V5.8c0-0.5,0.4-1,1-1h12.9l3.6,3.6v19.7C25.7,28.7,25.3,29.2,24.8,29.2z
			 M9.2,5.3C9,5.3,8.7,5.5,8.7,5.8v22.4c0,0.3,0.2,0.5,0.5,0.5h15.5c0.3,0,0.5-0.2,0.5-0.5V8.7l-3.3-3.3H9.2z"/>
	</g>
	<g>
		<path class="st3" d="M22.1,7.5c0,0.6,0.5,1.1,1.1,1.1h2.4l-3.5-3.5V7.5z"/>
	</g>
	<g>
		<rect x="6.6" y="8.3" class="st4" width="13.7" height="5.7"/>
	</g>
	<g>
		<path class="st1" d="M10.9,12l1.1-1.6h-1V9.9h1.7v0.3l-1.1,1.6h1.1v0.5h-1.8V12z"/>
		<path class="st1" d="M13.1,9.9h0.6v2.4h-0.6V9.9z"/>
		<path class="st1" d="M14.2,9.9h0.8c0.5,0,1,0.2,1,0.8c0,0.6-0.4,0.8-1,0.8h-0.3v0.8h-0.6V9.9z M15.1,11.1c0.3,0,0.4-0.1,0.4-0.4
			c0-0.3-0.2-0.3-0.5-0.3h-0.3v0.7H15.1z"/>
	</g>
	<g>
		<g>
			<rect x="15" y="16.1" class="st5" width="2" height="1.2"/>
		</g>
		<g>
			<rect x="17" y="17.2" class="st5" width="2" height="1.2"/>
		</g>
		<g>
			<rect x="15" y="18.4" class="st5" width="2" height="1.2"/>
		</g>
		<g>
			<rect x="17" y="19.5" class="st5" width="2" height="1.2"/>
		</g>
		<g>
			<rect x="15" y="20.7" class="st5" width="2" height="1.2"/>
		</g>
		<g>
			<rect x="17" y="21.8" class="st5" width="2" height="1.2"/>
		</g>
		<g>
			<path class="st5" d="M17.8,23.5h-1.7l-0.3,2.5c0,0.3,0.3,0.6,0.7,0.6h1c0.4,0,0.7-0.3,0.7-0.6L17.8,23.5z M16.3,25.5L16.3,25.5
				c0.1-0.2,0.3-0.4,0.5-0.4h0.3c0.2,0,0.4,0.1,0.5,0.4l0,0c0.1,0.3-0.2,0.7-0.7,0.7l0,0C16.6,26.2,16.2,25.9,16.3,25.5z"/>
		</g>
	</g>
</g>
</svg>
