<?xml version="1.0" encoding="utf-8"?>
<!-- Generator: Adobe Illustrator 26.2.1, SVG Export Plug-In . SVG Version: 6.00 Build 0)  -->
<svg version="1.1" id="icon_x5F_favorit" xmlns="http://www.w3.org/2000/svg" xmlns:xlink="http://www.w3.org/1999/xlink" x="0px"
	 y="0px" viewBox="0 0 34 34" style="enable-background:new 0 0 34 34;" xml:space="preserve">
<style type="text/css">
	.st0{fill:#C6C6C6;}
	.st1{fill:#FFFFFF;}
</style>
<g id="icon_x5F_favorit_1_">
	<g>
		<circle class="st0" cx="17" cy="17" r="17"/>
		<path class="st1" d="M23.8,28.2c-0.4,0-0.7-0.1-1.1-0.3l-5.1-2.7c-0.1,0-0.3-0.1-0.5-0.1c-0.3,0-0.5,0.1-0.5,0.1l-5.2,2.7
			c-0.4,0.2-0.7,0.3-1.1,0.3c-0.5,0-1-0.2-1.4-0.6s-0.5-1.1-0.4-1.7l1-5.7c0-0.3-0.1-0.8-0.3-1L4.9,15c-0.6-0.6-0.8-1.3-0.6-2
			c0.2-0.7,0.8-1.2,1.7-1.3l5.8-0.8c0.3,0,0.8-0.4,0.9-0.6L15.2,5c0.4-0.8,1-1.2,1.8-1.2s1.4,0.4,1.8,1.2l2.6,5.2
			c0.1,0.3,0.6,0.6,0.9,0.6l5.8,0.8c0.8,0.1,1.5,0.6,1.7,1.3s0,1.4-0.6,2L25,19c-0.2,0.2-0.4,0.8-0.3,1l1,5.7c0.1,0.7,0,1.3-0.4,1.7
			C24.8,28,24.3,28.2,23.8,28.2z"/>
	</g>
</g>
</svg>
