<?xml version="1.0" encoding="utf-8"?>
<!-- Generator: Adobe Illustrator 21.0.1, SVG Export Plug-In . SVG Version: 6.00 Build 0)  -->
<svg version="1.1" id="icon_x5F_Download" xmlns="http://www.w3.org/2000/svg" xmlns:xlink="http://www.w3.org/1999/xlink" x="0px"
	 y="0px" viewBox="0 0 34 34" style="enable-background:new 0 0 34 34;" xml:space="preserve">
<style type="text/css">
	.st0{fill:#1D4F95;}
	.st1{fill:#FFFFFF;}
</style>
<circle class="st0" cx="17" cy="17" r="17"/>
<path class="st1" d="M25.9,19.7c0-0.2-0.2-0.4-0.4-0.6c-0.2-0.2-0.5-0.2-0.7-0.2c-0.6,0-1.2,0-1.8,0h-1l0,0c-0.1,0-0.1,0-0.2,0
	s-0.2-0.1-0.2-0.2s0-0.1,0-0.2v-0.1V4.7c0-0.1,0-0.3,0-0.4c0-0.3-0.2-0.5-0.5-0.7c-0.2-0.1-0.4-0.1-0.6-0.1h-0.1c-2.1,0-4.1,0-6.2,0
	h-0.9h-0.1c-0.1,0-0.1,0-0.2,0c-0.5,0-0.9,0.4-0.9,0.8c0,0.2,0,0.3,0,0.5v13.7c0,0.1,0,0.2,0,0.3c0,0.1-0.1,0.2-0.2,0.2
	c-0.1,0-0.2,0-0.2,0h-0.9c-0.5,0-1.1,0-1.6,0c-0.2,0-0.3,0-0.5,0c-0.3,0-0.5,0.2-0.6,0.4C8,19.7,8,20.2,8.4,20.6
	c1.1,1.3,2.2,2.6,3.2,3.9l0.1,0.1c1.2,1.5,2.5,3,3.7,4.4c0.2,0.3,0.4,0.5,0.7,0.8c0.1,0.1,0.2,0.3,0.3,0.4c0.1,0.2,0.4,0.3,0.6,0.3
	l0,0c0.3,0,0.5-0.1,0.6-0.3l0.1-0.1l0.1-0.1c0.2-0.2,0.4-0.5,0.6-0.7c0.2-0.3,0.5-0.6,0.7-0.8c0.5-0.6,1.1-1.3,1.6-1.9l2.5-3
	c0.8-0.9,1.6-1.9,2.4-2.8C25.9,20.4,26,20,25.9,19.7z"/>
</svg>
