<?xml version="1.0" encoding="utf-8"?>
<!-- Generator: Adobe Illustrator 21.0.1, SVG Export Plug-In . SVG Version: 6.00 Build 0)  -->
<svg version="1.1" id="Layer_1" xmlns="http://www.w3.org/2000/svg" xmlns:xlink="http://www.w3.org/1999/xlink" x="0px" y="0px"
	 viewBox="0 0 35 35" style="enable-background:new 0 0 35 35;" xml:space="preserve">
<style type="text/css">
	.st0{clip-path:url(#SVGID_2_);fill:none;stroke:#F41414;stroke-miterlimit:10;}
	.st1{clip-path:url(#SVGID_2_);fill:#F41414;}
</style>
<g>
	<defs>
		<rect id="SVGID_1_" width="35" height="35"/>
	</defs>
	<clipPath id="SVGID_2_">
		<use xlink:href="#SVGID_1_"  style="overflow:visible;"/>
	</clipPath>
	<circle class="st0" cx="17.5" cy="17.5" r="17"/>
	<path class="st1" d="M20.5,11.1c-3.1,3.1-6.3,6.3-9.4,9.4c-0.9,0.9-0.9,2.5,0,3.4c0.9,0.9,2.5,0.9,3.4,0c3.1-3.1,6.3-6.3,9.4-9.4
		c0.9-0.9,0.9-2.5,0-3.4C23,10.2,21.4,10.2,20.5,11.1"/>
	<path class="st1" d="M11.1,14.5c3.1,3.1,6.3,6.3,9.4,9.4c0.9,0.9,2.5,0.9,3.4,0c0.9-0.9,0.9-2.5,0-3.4c-3.1-3.1-6.3-6.3-9.4-9.4
		c-0.9-0.9-2.5-0.9-3.4,0C10.2,12,10.2,13.6,11.1,14.5"/>
</g>
</svg>
