<?xml version="1.0" encoding="utf-8"?>
<!-- Generator: Adobe Illustrator 26.2.1, SVG Export Plug-In . SVG Version: 6.00 Build 0)  -->
<svg version="1.1" id="icon_x5F_Deleat" xmlns="http://www.w3.org/2000/svg" xmlns:xlink="http://www.w3.org/1999/xlink" x="0px"
	 y="0px" viewBox="0 0 34 34" style="enable-background:new 0 0 34 34;" xml:space="preserve">
<style type="text/css">
	.st0{fill:#C6C6C6;}
	.st1{fill:#FFFFFF;stroke:#FFFFFF;stroke-width:0.5;stroke-miterlimit:10;}
	.st2{fill:#FFFFFF;}
</style>
<g id="icon_x5F_favorit_1_">
	<g>
		<circle class="st0" cx="17" cy="17" r="17"/>
	</g>
</g>
<g>
	<circle class="st1" cx="13.7" cy="26.7" r="1.8"/>
	<circle class="st1" cx="21.3" cy="26.7" r="1.8"/>
	<path class="st2" d="M23,21.5h-9.2l-0.6-4.9L12.9,15c0,0-0.2-1.5-0.3-2.1s-1.7-1.4-5.1-3c-0.8-0.4-1.4,1.2,0,1.9l2.7,1.2
		c0,0,0.6,0.4,0.6,0.8c0.1,0.4,1.2,8.5,1.2,8.5s0,1.2,1.1,1.2c1,0,9.4,0,10.2,0c0.9,0,1-0.9,1-0.9l2-6c0.1,0,0.7-1.6-0.8-1.6
		c-2.1,0-12,0-12,0s-0.6,0.2-0.6,0.8c0,0.6,0.6,0.9,0.6,0.9h11"/>
</g>
</svg>
