<?xml version="1.0" encoding="utf-8"?>
<!-- Generator: Adobe Illustrator 24.3.0, SVG Export Plug-In . SVG Version: 6.00 Build 0)  -->
<svg version="1.1" id="icon_x5F_Deleat" xmlns="http://www.w3.org/2000/svg" xmlns:xlink="http://www.w3.org/1999/xlink" x="0px"
	 y="0px" viewBox="0 0 34 34" style="enable-background:new 0 0 34 34;" xml:space="preserve">
<style type="text/css">
	.st0{fill:#1D4F95;}
	.st1{fill:#FFFFFF;stroke:#FFFFFF;stroke-width:0.5;stroke-miterlimit:10;}
	.st2{fill:#FFFFFF;}
</style>
<g>
	<g id="icon_x5F_favorit_2_">
		<g>
			<circle class="st0" cx="17" cy="17" r="17"/>
		</g>
	</g>
	<g>
		<circle class="st1" cx="14.1" cy="27.2" r="2"/>
		<circle class="st1" cx="22.7" cy="27.2" r="2"/>
		<path class="st1" d="M24.5,21.4H14.2l-0.7-5.5L13.2,14c0,0-0.2-1.7-0.3-2.4S11,10,7.2,8.2c-0.9-0.4-1.6,1.3,0,2.1l3,1.4
			c0,0,0.7,0.4,0.7,0.9c0.1,0.5,1.3,9.6,1.3,9.6s0,1.3,1.2,1.3c1.1,0,10.6,0,11.5,0c1,0,1.1-1,1.1-1l2.3-6.7c0.1,0,0.8-1.8-0.9-1.8
			c-2.4,0-2.5,0-2.5,0s-0.7,0.2-0.7,0.9s0.7,1,0.7,1h1.3"/>
	</g>
	<path class="st2" d="M19,11c0.2,0,0.5,0.1,0.6,0.3c0.2,0.2,0.3,0.4,0.3,0.6v1.8v0.3h0.3H22c0.2,0,0.5,0.1,0.6,0.3
		c0.2,0.2,0.3,0.4,0.3,0.6l0,0c0,0.2-0.1,0.5-0.3,0.6c-0.2,0.2-0.4,0.3-0.6,0.3h-1.8h-0.3v0.3V18c0,0.2-0.1,0.5-0.3,0.6
		C19.4,18.8,19.2,19,19,19l0,0c-0.2,0-0.5-0.1-0.6-0.3C18.1,18.5,18,18.3,18,18v-1.8v-0.3h-0.3h-1.8c-0.2,0-0.5-0.1-0.6-0.3
		C15.1,15.5,15,15.2,15,15l0,0c0-0.2,0.1-0.5,0.3-0.6c0.2-0.2,0.4-0.3,0.6-0.3h1.8H18v-0.3v-1.8c0-0.2,0.1-0.5,0.3-0.6
		S18.7,11,19,11L19,11"/>
</g>
</svg>
