<?xml version="1.0" encoding="utf-8"?>
<!-- Generator: Adobe Illustrator 24.3.0, SVG Export Plug-In . SVG Version: 6.00 Build 0)  -->
<svg version="1.1" id="icon_x5F_Deleat" xmlns="http://www.w3.org/2000/svg" xmlns:xlink="http://www.w3.org/1999/xlink" x="0px"
	 y="0px" viewBox="0 0 34 34" style="enable-background:new 0 0 34 34;" xml:space="preserve">
<style type="text/css">
	.st0{fill:#1D4F95;}
	.st1{fill:#FFFFFF;}
	.st2{fill:#FFFFFF;stroke:#FFFFFF;stroke-width:0.5;stroke-miterlimit:10;}
</style>
<g id="icon_x5F_favorit_1_">
	<g>
		<circle class="st0" cx="17" cy="17" r="17"/>
	</g>
</g>
<path class="st1" d="M17.4,11.5c-0.1-0.2-0.4-0.4-0.6-0.2c0,0,0,0-0.1,0l-2.6,2.3h4.1L17.4,11.5z M25.9,10.6h-5.6
	c-0.3,0-0.5,0.2-0.5,0.5v2.4h6.5v-2.4C26.4,10.8,26.1,10.6,25.9,10.6z"/>
<g>
	<circle class="st2" cx="13.7" cy="27.7" r="1.8"/>
	<circle class="st2" cx="21.3" cy="27.7" r="1.8"/>
	<path class="st1" d="M23,22.5h-9.2l-0.6-4.9L12.9,16c0,0-0.2-1.5-0.3-2.1c-0.1-0.6-1.7-1.4-5.1-3c-0.8-0.4-1.4,1.2,0,1.9l2.7,1.2
		c0,0,0.6,0.4,0.6,0.8c0.1,0.4,1.2,8.5,1.2,8.5s0,1.2,1.1,1.2c1,0,9.4,0,10.2,0c0.9,0,1-0.9,1-0.9l2-6c0.1,0,0.7-1.6-0.8-1.6
		c-2.1,0-12,0-12,0s-0.6,0.2-0.6,0.8s0.6,0.9,0.6,0.9h11"/>
</g>
</svg>
