<?xml version="1.0" encoding="utf-8"?>
<!-- Generator: Adobe Illustrator 24.0.0, SVG Export Plug-In . SVG Version: 6.00 Build 0)  -->
<svg version="1.1" id="icon_x5F_Download" xmlns="http://www.w3.org/2000/svg" xmlns:xlink="http://www.w3.org/1999/xlink" x="0px"
	 y="0px" viewBox="0 0 34 34" style="enable-background:new 0 0 34 34;" xml:space="preserve">
<style type="text/css">
	.st0{fill:#1D4F95;}
	.st1{fill:#FFFFFF;}
</style>
<circle class="st0" cx="17" cy="17" r="17"/>
<g>
	<path class="st1" d="M28.3,9.6c-0.2-0.2-0.5-0.3-0.7-0.3c-0.2,0-0.4,0-0.6,0.2L12.2,22l-6.7-5.5l-0.1,0c-0.1-0.1-0.3-0.1-0.4-0.1
		c-0.3,0-0.6,0.1-0.8,0.3c-0.3,0.4-0.3,0.9,0,1.3l7.4,8.3c0,0,0.2,0.3,0.6,0.3s0.6-0.2,0.8-0.4l15.3-15.2
		C28.6,10.6,28.7,10,28.3,9.6z"/>
</g>
</svg>
