<?xml version="1.0" encoding="utf-8"?>
<!-- Generator: Adobe Illustrator 24.3.0, SVG Export Plug-In . SVG Version: 6.00 Build 0)  -->
<svg version="1.1" id="icon_x5F_Deleat" xmlns="http://www.w3.org/2000/svg" xmlns:xlink="http://www.w3.org/1999/xlink" x="0px"
	 y="0px" viewBox="0 0 34 34" style="enable-background:new 0 0 34 34;" xml:space="preserve">
<style type="text/css">
	.st0{fill:#1D4F95;}
	.st1{fill:#FFFFFF;}
</style>
<g id="icon_x5F_favorit_1_">
	<g>
		<circle class="st0" cx="17" cy="17" r="17"/>
	</g>
</g>
<path class="st1" d="M6.3,14.3c-0.4-0.1-0.6-0.4-0.6-0.8v-0.9c0-0.4,0.3-0.7,0.6-0.8l1-0.2c0.1-0.4,0.3-0.9,0.5-1.3L7.2,9.6
	C7,9.3,7.1,8.9,7.3,8.6L7.9,8c0.3-0.3,0.7-0.3,1-0.1l0.8,0.6C10.2,8.3,10.6,8.1,11,8l0.2-1c0.1-0.4,0.4-0.6,0.8-0.6h0.9
	c0.4,0,0.7,0.3,0.8,0.6l0.2,1c0.4,0.1,0.9,0.3,1.3,0.5L15.9,8c0.3-0.2,0.7-0.2,1,0.1l0.6,0.6c0.3,0.3,0.3,0.7,0.1,1L17,10.5
	c0.2,0.3,0.3,0.6,0.4,1c-0.3,0.3-0.4,0.7-0.5,1.1L16.8,13l-0.3,0.1l-0.4-0.3c-0.4-0.3-0.9-0.4-1.4-0.4c-0.1,0-0.2,0-0.2,0
	c-0.4-1.2-1.7-1.9-2.9-1.5c-1.2,0.4-1.9,1.7-1.5,2.9c0.2,0.7,0.8,1.3,1.5,1.5c-0.1,0.6,0.1,1.1,0.4,1.6l0.3,0.4
	c0,0.1-0.1,0.2-0.1,0.3l-0.5,0.1c-0.4,0.1-0.8,0.2-1.1,0.5c-0.3-0.1-0.7-0.2-1-0.4l-0.8,0.6c-0.3,0.2-0.7,0.2-1-0.1l-0.6-0.6
	c-0.3-0.3-0.3-0.7-0.1-1l0.6-0.8c-0.2-0.4-0.4-0.8-0.5-1.3L6.3,14.3z M28.3,19.9V21c0,0.5-0.3,0.9-0.8,1l-1.3,0.2
	c-0.2,0.6-0.4,1.1-0.7,1.6l0.7,1.1c0.3,0.4,0.2,0.9-0.1,1.3l-0.8,0.8c-0.3,0.3-0.9,0.4-1.3,0.1l-1.1-0.7c-0.5,0.3-1,0.5-1.6,0.7
	l-0.2,1.3c-0.1,0.5-0.5,0.8-1,0.8h-1.1c-0.5,0-0.9-0.3-1-0.8L18,26.9c-0.6-0.2-1.1-0.4-1.6-0.7L15.4,27c-0.4,0.3-0.9,0.2-1.3-0.1
	l-0.8-0.8c-0.3-0.3-0.4-0.9-0.1-1.3l0.7-1.1c-0.3-0.5-0.5-1-0.7-1.6L12,22c-0.5-0.1-0.8-0.5-0.8-1v-1.1c0-0.5,0.3-0.9,0.8-1l1.3-0.2
	c0.2-0.6,0.4-1.1,0.7-1.6l-0.7-1.1c-0.3-0.4-0.2-0.9,0.1-1.3l0.8-0.8c0.3-0.3,0.9-0.4,1.3-0.1l1.1,0.7c0.5-0.3,1-0.5,1.6-0.7
	l0.2-1.3c0.1-0.5,0.5-0.8,1-0.8h1.1c0.5,0,0.9,0.3,1,0.8l0.2,1.3c0.6,0.2,1.1,0.4,1.6,0.7l1.1-0.7c0.4-0.3,0.9-0.2,1.3,0.1l0.8,0.8
	c0.3,0.3,0.4,0.9,0.1,1.3l-0.7,1.1c0.3,0.5,0.5,1,0.7,1.6l1.3,0.2C28,19.1,28.3,19.5,28.3,19.9L28.3,19.9z M22.7,20.5
	c0-1.6-1.3-2.9-2.9-2.9c-1.6,0-2.9,1.3-2.9,2.9c0,1.6,1.3,2.9,2.9,2.9h0C21.4,23.4,22.7,22.1,22.7,20.5z"/>
</svg>
