<?xml version="1.0" encoding="utf-8"?>
<!-- Generator: Adobe Illustrator 24.0.1, SVG Export Plug-In . SVG Version: 6.00 Build 0)  -->
<svg version="1.1" id="icon_x5F_Deleat" xmlns="http://www.w3.org/2000/svg" xmlns:xlink="http://www.w3.org/1999/xlink" x="0px"
	 y="0px" viewBox="0 0 34 34" style="enable-background:new 0 0 34 34;" xml:space="preserve">
<style type="text/css">
	.st0{fill:#597CB0;stroke:#FFFFFF;stroke-width:0.9755;stroke-miterlimit:10;}
	.st1{fill:none;stroke:#FFFFFF;stroke-width:1.5;stroke-miterlimit:10;}
	.st2{fill:none;stroke:#1D4F95;stroke-width:1.5;stroke-miterlimit:10;}
</style>
<circle class="st0" cx="17.2" cy="17.7" r="16.6"/>
<polyline class="st1" points="24.9,25 25.6,28.9 17.2,24.6 8.9,29 10.5,19.7 3.7,13.1 13,11.7 17.2,3.3 21.4,11.7 30.7,13 
	25.5,18.1 "/>
<g>
	<polyline class="st1" points="22.2,21.3 18.5,21.3 18.5,18.1 22.2,18.1 	"/>
	<path class="st2" d="M22.2,21.3"/>
	<path class="st2" d="M25.7,21.3"/>
	<polyline class="st1" points="25.4,18.1 29.2,18.1 29.2,21.3 25.4,21.3 	"/>
	<path class="st2" d="M25.4,18.1"/>
	<path class="st2" d="M22.2,18.1"/>
	<path class="st2" d="M22.2,18.1"/>
	<path class="st2" d="M22.2,21.8"/>
	<polyline class="st1" points="25.4,20.9 25.4,25 22.2,25 22.2,20.9 	"/>
	<path class="st2" d="M25.4,18.1"/>
	<polyline class="st1" points="22.2,18.5 22.2,14.3 25.4,14.3 25.4,18.5 	"/>
</g>
</svg>
