<?xml version="1.0" encoding="utf-8"?>
<!-- Generator: Adobe Illustrator 23.1.0, SVG Export Plug-In . SVG Version: 6.00 Build 0)  -->
<svg version="1.1" id="icon_x5F_Print" xmlns="http://www.w3.org/2000/svg" xmlns:xlink="http://www.w3.org/1999/xlink" x="0px"
	 y="0px" viewBox="0 0 34 34" style="enable-background:new 0 0 34 34;" xml:space="preserve">
<style type="text/css">
	.st0{fill:#1D4F95;}
	.st1{fill:#FFFFFF;stroke:#1D4F95;stroke-width:0.8087;stroke-miterlimit:10;}
	.st2{fill:#FFFFFF;stroke:#1D4F95;stroke-width:0.6651;stroke-miterlimit:10;}
	.st3{fill:#FFFFFF;stroke:#1D4F95;stroke-width:5.184080e-02;stroke-miterlimit:10;}
	.st4{fill:#FFFFFF;}
</style>
<circle class="st0" cx="17" cy="17" r="16.4"/>
<path class="st1" d="M23,8.2l-6.5-3.9c-0.1-0.1-0.1-0.1-0.2-0.1h-4.5h-3c-0.5,0-0.9,0.2-1.2,0.5C7.2,5,7.1,5.4,7.1,5.9v4.4v8.9v7.6
	c0,0.5,0.2,0.9,0.5,1.2c0.3,0.3,0.7,0.5,1.2,0.5h3h7.5h2.6c0.5,0,0.9-0.2,1.2-0.5c0.3-0.3,0.5-0.7,0.5-1.2V9
	C23.6,9.1,23.4,8.5,23,8.2"/>
<path class="st1" d="M23.7,9.6l-3.8-0.5l-1.7-0.2c-0.4-0.1-0.7-0.2-1-0.5l0,0c-0.3-0.3-0.5-0.7-0.6-1.1l-0.5-2.8"/>
<g>
	<path class="st2" d="M29.4,24.8H13.6c-1.6,0-2.8-1.3-2.8-2.8v-3.6c0-1.6,1.3-2.8,2.8-2.8h15.7c1.6,0,2.8,1.3,2.8,2.8v3.5
		C32.2,23.5,30.9,24.8,29.4,24.8z"/>
	<path class="st0" d="M17.6,22.5c1.1,0,2.1,0,3.2,0c0,0.4,0,0.8,0,1.2c-1.7,0-3.4,0-5.2,0c0-0.4-0.1-0.8,0.2-1.2
		c1-1.3,1.9-2.7,2.8-4c0.1-0.1,0.1-0.2,0.2-0.3c-1,0-1.9,0-2.9,0c0-0.4,0-0.8,0-1.2c1.6,0,3.2,0,4.8,0c0,0.4,0,0.9-0.3,1.3
		c-0.9,1.3-1.8,2.6-2.7,3.9C17.7,22.3,17.7,22.3,17.6,22.5z"/>
	<path class="st0" d="M26.1,21.4c0,0.7,0,1.5,0,2.3c-0.5,0-1,0-1.5,0c0-0.1,0-0.2,0-0.3c0-2,0-3.9,0-5.9c0-0.3,0.1-0.4,0.4-0.4
		c0.9-0.1,1.8-0.2,2.7,0c1.1,0.2,1.7,1,1.7,2c0,1.1-0.6,1.9-1.7,2.1C27.2,21.3,26.7,21.3,26.1,21.4z M26.1,20.2
		c0.4-0.1,0.8-0.1,1.2-0.2c0.5-0.1,0.7-0.6,0.6-1.1c0-0.4-0.3-0.7-0.8-0.8c-0.3-0.1-0.6,0-0.9,0c-0.1,0-0.2,0.1-0.2,0.2
		C26.1,18.9,26.1,19.5,26.1,20.2z"/>
	<path class="st0" d="M23.3,23.7c-0.5,0-1,0-1.5,0c0-2.2,0-4.4,0-6.7c0.5,0,1,0,1.5,0C23.3,19.2,23.3,21.5,23.3,23.7z"/>
</g>
<path class="st3" d="M26.1,20.2c0-0.7,0-1.3,0-1.9c0-0.1,0.1-0.2,0.2-0.2c0.3,0,0.6,0,0.9,0c0.5,0.1,0.7,0.4,0.8,0.8
	c0,0.5-0.2,0.9-0.6,1.1C26.9,20.1,26.5,20.2,26.1,20.2z"/>
<g>
	<path class="st0" d="M12.5,4.8c0,0,0.1-0.1,0.1-0.1c0.3,0,0.6,0,1,0c0.1,0,0.1,0,0.1,0.1c0,0,0,0,0,0C13.3,4.8,12.9,4.8,12.5,4.8
		L12.5,4.8z"/>
	<path class="st0" d="M13.7,15c-0.9,0-1.6-0.8-1.5-1.7c0.1-0.8,0.2-1.7,0.3-2.5c0-0.4,0.2-0.8,0.5-1.1c0.7-0.5,1.7-0.1,1.9,0.8
		c0.1,0.6,0.1,1.1,0.2,1.7c0,0.4,0.1,0.8,0.1,1.2C15.3,14.2,14.7,15,13.7,15z M13.2,12.2c0,0.7,0,1.4,0,2.1c0.3,0,0.7,0,1,0
		c0-0.7,0-1.4,0-2.1C13.9,12.2,13.6,12.2,13.2,12.2z"/>
	<path class="st0" d="M12.6,8.2c0-0.2,0-0.3,0-0.5c0.4,0,0.8,0,1.2,0c0,0.2,0,0.3,0,0.5C13.3,8.2,13,8.2,12.6,8.2z"/>
	<path class="st0" d="M14.9,5.4c0,0.2,0,0.3,0,0.5c-0.4,0-0.8,0-1.2,0c0-0.2,0-0.3,0-0.5C14.1,5.4,14.5,5.4,14.9,5.4z"/>
	<path class="st0" d="M13.7,7.4c0-0.2,0-0.3,0-0.5c0.4,0,0.8,0,1.2,0c0,0.2,0,0.3,0,0.5C14.5,7.4,14.1,7.4,13.7,7.4z"/>
	<path class="st0" d="M14.9,8.5c0,0.2,0,0.3,0,0.5c-0.4,0-0.8,0-1.2,0c0-0.2,0-0.3,0-0.5C14.1,8.5,14.5,8.5,14.9,8.5z"/>
	<path class="st0" d="M13.7,6.6c-0.4,0-0.8,0-1.2,0c0-0.2,0-0.3,0-0.5c0.4,0,0.8,0,1.2,0C13.7,6.3,13.7,6.5,13.7,6.6z"/>
	<path class="st0" d="M12.5,4.8c0.4,0,0.8,0,1.2,0c0,0.1,0,0.2,0,0.4c-0.4,0-0.8,0-1.2,0C12.6,5,12.5,4.9,12.5,4.8z"/>
	<path class="st4" d="M13.2,12.2c0.3,0,0.7,0,1,0c0,0.7,0,1.4,0,2.1c-0.3,0-0.6,0-1,0C13.2,13.6,13.2,12.9,13.2,12.2z"/>
</g>
</svg>
