<?xml version="1.0" encoding="utf-8"?>
<!-- Generator: Adobe Illustrator 26.2.1, SVG Export Plug-In . SVG Version: 6.00 Build 0)  -->
<svg version="1.1" id="icon_x5F_Deleat" xmlns="http://www.w3.org/2000/svg" xmlns:xlink="http://www.w3.org/1999/xlink" x="0px"
	 y="0px" viewBox="0 0 34 34" style="enable-background:new 0 0 34 34;" xml:space="preserve">
<style type="text/css">
	.st0{fill:#C6C6C6;}
	.st1{fill:none;stroke:#FFFFFF;stroke-miterlimit:10;}
	.st2{fill:#FFFFFF;}
</style>
<g id="icon_x5F_favorit_1_">
	<g>
		<circle class="st0" cx="17" cy="17" r="16.7"/>
	</g>
</g>
<g>
	<path class="st1" d="M29.3,22.6l-6.7,6.7c-0.2,0.2-0.5,0.2-0.6,0L4.7,12c-0.2-0.2-0.2-0.5,0-0.6l6.7-6.7c0.2-0.2,0.5-0.2,0.6,0
		L29.3,22C29.5,22.1,29.5,22.4,29.3,22.6z"/>
	<g>
		<g>
			<path class="st2" d="M19.7,13.1c-1.3,1.3-2.6,2.6-3.9,3.9c-0.6,0.6,0.3,1.4,0.9,0.9c1.3-1.3,2.6-2.6,3.9-3.9
				C21.1,13.4,20.2,12.5,19.7,13.1L19.7,13.1z"/>
		</g>
	</g>
	<g>
		<g>
			<path class="st2" d="M13.8,7.2c-1.3,1.3-2.6,2.6-3.9,3.9c-0.6,0.6,0.3,1.4,0.9,0.9c1.3-1.3,2.6-2.6,3.9-3.9
				C15.2,7.5,14.4,6.6,13.8,7.2L13.8,7.2z"/>
		</g>
	</g>
	<g>
		<g>
			<path class="st2" d="M25.7,19.1c-1.3,1.3-2.6,2.6-3.9,3.9c-0.6,0.6,0.3,1.4,0.9,0.9c1.3-1.3,2.6-2.6,3.9-3.9
				C27.1,19.4,26.3,18.5,25.7,19.1L25.7,19.1z"/>
		</g>
	</g>
	<g>
		<g>
			<path class="st2" d="M16.7,10.1c-0.8,0.8-1.7,1.7-2.5,2.5c-0.6,0.6,0.3,1.4,0.9,0.9c0.8-0.8,1.7-1.7,2.5-2.5
				C18.1,10.4,17.3,9.5,16.7,10.1L16.7,10.1z"/>
		</g>
	</g>
	<g>
		<g>
			<path class="st2" d="M22.7,16c-0.8,0.8-1.7,1.7-2.5,2.5c-0.6,0.6,0.3,1.4,0.9,0.9c0.8-0.8,1.7-1.7,2.5-2.5
				C24.1,16.3,23.2,15.5,22.7,16L22.7,16z"/>
		</g>
	</g>
</g>
</svg>
