<?xml version="1.0" encoding="utf-8"?>
<!-- Generator: Adobe Illustrator 26.3.1, SVG Export Plug-In . SVG Version: 6.00 Build 0)  -->
<svg version="1.1" id="icon_x5F_Deleat" xmlns="http://www.w3.org/2000/svg" xmlns:xlink="http://www.w3.org/1999/xlink" x="0px"
	 y="0px" viewBox="0 0 34 34" style="enable-background:new 0 0 34 34;" xml:space="preserve">
<style type="text/css">
	.st0{fill:none;stroke:#C6C6C6;stroke-miterlimit:10;}
</style>
<g>
	<path class="st0" d="M8.3,24.9l4,0.5l1.6,0.3c0.4,0,0.7,0.4,1.1,0.6l0,0c0.3,0.3,0.4,0.6,0.5,1.2l0.5,2.6"/>
	<g id="XMLID_19_">
		<g>
			<path class="st0" d="M25.9,13.8V5.6c0-0.5,0-1-0.3-1.3s-0.8-0.5-1.3-0.5H21h-8.1H10C9.5,3.7,9,3.9,8.6,4.2
				C8.3,4.6,8.1,5.1,8.1,5.6v19.5l0,0l0,0l0,0l0,0l0,0l0,0l0,0l0,0l0,0l0,0l0,0l0,0l0,0l0,0l0,0l0,0l0,0l0,0l0,0l0,0l0,0l0,0l0,0
				l0,0l0,0l0,0l0,0l0,0l0,0l0,0l0,0l0,0l0,0l0,0l0,0l0,0l0,0l0,0l0,0l0,0l0,0l0,0l0,0l0,0l0,0l0,0l0,0l0,0l0,0l0,0l0,0l0,0l0,0l0,0
				l0,0l0,0c0,0,0,0,0.1,0.1l0,0l0,0l0,0l0,0l0,0l0,0l0,0l0,0l0,0l0,0l0,0l0,0l0,0l0,0l4,2.6l0.5,0.3l3,1.9c0.1,0,0.1,0.1,0.2,0.1
				h4.9h3.5c0.5,0,1,0.1,1.3-0.2c0.3-0.3,0.3-1.2,0.3-1.6v-4.9V13.8L25.9,13.8z"/>
		</g>
	</g>
	<line class="st0" x1="11" y1="12.6" x2="23.2" y2="12.6"/>
	<line class="st0" x1="11" y1="17.1" x2="23.2" y2="17.1"/>
	<line class="st0" x1="11" y1="20.9" x2="23.2" y2="20.9"/>
	<line class="st0" x1="11" y1="8.9" x2="23.2" y2="8.9"/>
</g>
</svg>
