<?xml version="1.0" encoding="utf-8"?>
<!-- Generator: Adobe Illustrator 26.2.1, SVG Export Plug-In . SVG Version: 6.00 Build 0)  -->
<svg version="1.1" id="icon_x5F_Deleat" xmlns="http://www.w3.org/2000/svg" xmlns:xlink="http://www.w3.org/1999/xlink" x="0px"
	 y="0px" viewBox="0 0 34 34" style="enable-background:new 0 0 34 34;" xml:space="preserve">
<style type="text/css">
	.st0{fill:#C6C6C6;}
	.st1{fill:#0097C3;stroke:#FFFFFF;stroke-miterlimit:10;}
</style>
<circle class="st0" cx="16.8" cy="17" r="17"/>
<path class="st1" d="M7.5,4.7C7.2,4.7,6.9,5,6.9,5.3l0,0v23.6c0,0.3,0.3,0.6,0.6,0.6h18.2c0.3,0,0.6-0.3,0.6-0.6V12.2l0,0
	c0,0,0,0,0-0.1c0,0,0,0,0-0.1c0,0,0,0,0-0.1c0,0,0,0,0-0.1l0,0l0,0l0,0l0,0l0,0l0,0l-7-7c-0.1-0.1-0.2-0.2-0.4-0.2l0,0L7.5,4.7z
	 M15.3,14.5c-0.1,0-0.3,0-0.4,0c-0.6,0.2-1,0.7-1,1.2c-0.1,0.5,0.1,1,0.4,1.6c0.2,0.5,0.8,1,1.2,1.6c-0.1,0.6-0.1,1.2-0.2,1.8
	c-0.2,0.7-0.5,1.1-0.7,1.7c-0.6,0.3-1.4,0.5-1.8,0.8c-0.5,0.3-0.9,0.7-1.1,1.2c-0.2,0.5-0.1,1.1,0.3,1.5c0.4,0.4,1.1,0.5,1.5,0.3
	c0.5-0.2,0.8-0.6,1.2-1.1c0.3-0.5,0.5-1.2,0.8-1.8c0.6-0.2,1-0.5,1.7-0.7s1.2-0.2,1.8-0.2c0.5,0.4,1.1,1,1.6,1.2
	c0.6,0.3,1.1,0.5,1.6,0.4s1-0.5,1.2-1c0.2-0.6-0.1-1.2-0.5-1.5s-1-0.4-1.6-0.5c-0.6,0-1.3,0.2-2,0.3c-0.5-0.4-1-0.6-1.5-1.1
	s-0.7-1-1.1-1.5c0.1-0.7,0.3-1.4,0.3-2s-0.1-1.2-0.5-1.6C16.1,14.7,15.7,14.5,15.3,14.5L15.3,14.5z"/>
<polyline class="st1" points="18.5,4.7 18.5,11.6 26.1,11.8 "/>
</svg>
