<?xml version="1.0" encoding="utf-8"?>
<!-- Generator: Adobe Illustrator 26.2.1, SVG Export Plug-In . SVG Version: 6.00 Build 0)  -->
<svg version="1.1" id="icon_x5F_Print" xmlns="http://www.w3.org/2000/svg" xmlns:xlink="http://www.w3.org/1999/xlink" x="0px"
	 y="0px" viewBox="0 0 34 34" style="enable-background:new 0 0 34 34;" xml:space="preserve">
<style type="text/css">
	.st0{fill:#C6C6C6;}
	.st1{fill:#FFFFFF;}
</style>
<circle class="st0" cx="17" cy="17" r="16.4"/>
<g>
	<path class="st1" d="M22.3,20.4l-2-0.3c-0.2,0-0.4,0.1-0.4,0.3c0,0.2,0.1,0.4,0.3,0.4l2,0.3c0.2,0,0.4-0.1,0.4-0.3
		C22.7,20.6,22.5,20.4,22.3,20.4z"/>
	<path class="st1" d="M18.3,19.8l-2-0.3c-0.2,0-0.5,0.1-0.5,0.4c0,0.2,0.2,0.4,0.3,0.4l2,0.3c0.2,0,0.4-0.1,0.4-0.3
		C18.7,20,18.5,19.8,18.3,19.8z"/>
	<path class="st1" d="M26.5,10.3C7.2,7.4,8.3,7.4,8.1,7.5C8,7.6,7.8,7.7,7.8,7.9c0,10.9,0,10.7,0,10.9l4.7,9.6
		c0.1,0.2,0.3,0.3,0.5,0.2l0,0l13.6-6.7c0.1,0,0.2-0.2,0.2-0.4c-0.4-11.1,0-10.5,0-10.8C26.8,10.5,26.7,10.3,26.5,10.3z M10.3,18.5
		l-1.7-0.2V9.6l3.9,7.9v1.3h-0.2c-0.2,0-0.5,0.2-0.5,0.4c0,0.2,0.2,0.4,0.4,0.4h0.3v6.7L9,19l1.3,0.2c0.2,0,0.4-0.1,0.4-0.3
		C10.7,18.7,10.5,18.6,10.3,18.5z M13.3,19.8l0.9,0.1c0.2,0,0.4-0.1,0.4-0.3c0-0.2-0.1-0.4-0.3-0.4l-1-0.2v-1.3l12.8-6.3V21
		l-1.7-0.3c-0.2,0-0.4,0.1-0.5,0.3l0,0c0,0.2,0.2,0.4,0.4,0.4l0.9,0.2l-11.9,5.9C13.3,27.5,13.3,19.8,13.3,19.8z M25.1,10.9l-12.1,6
		L8.9,8.4L25.1,10.9z"/>
</g>
</svg>
