<?xml version="1.0" encoding="utf-8"?>
<!-- Generator: Adobe Illustrator 24.0.2, SVG Export Plug-In . SVG Version: 6.00 Build 0)  -->
<svg version="1.1" id="icon_x5F_Deleat" xmlns="http://www.w3.org/2000/svg" xmlns:xlink="http://www.w3.org/1999/xlink" x="0px"
	 y="0px" viewBox="0 0 34 34" style="enable-background:new 0 0 34 34;" xml:space="preserve">
<style type="text/css">
	.st0{fill:none;stroke:#1C4F94;stroke-width:1.4173;stroke-miterlimit:10;}
	.st1{enable-background:new    ;}
	.st2{fill:#1C4F94;}
	.st3{fill:none;stroke:#1C5095;stroke-width:1.4173;stroke-miterlimit:10;}
</style>
<g>
	<rect x="1.7" y="1.5" class="st0" width="30.5" height="31.1"/>
	<g class="st1">
		<path class="st2" d="M5.8,5.4c0.6-0.1,1.5-0.2,2.7-0.2c1.2,0,2,0.2,2.6,0.6c0.6,0.4,0.9,1.2,0.9,2c0,0.8-0.3,1.6-0.8,2
			c-0.7,0.6-1.6,0.9-2.8,0.9c-0.2,0-0.4,0-0.5,0v2.8H5.8V5.4z M8,9.1c0.1,0,0.3,0,0.5,0c0.9,0,1.4-0.4,1.4-1.2c0-0.6-0.4-1-1.2-1
			C8.4,6.9,8.1,7,8,7V9.1z"/>
	</g>
	<g class="st1">
		<path class="st2" d="M5.5,29.3v-8.2h2.6l1.3,2.5c0.5,0.8,0.9,1.9,1.3,2.9h0c-0.1-1.1-0.2-2.2-0.2-3.5v-1.9h2v8.2h-2.3l-1.4-2.7
			c-0.5-0.9-1-2-1.4-3h0c0,1.1,0.1,2.4,0.1,3.7v2H5.5z"/>
	</g>
	<g>
		<g class="st1">
			<path class="st2" d="M20.9,21.1h2.2v3.5h0c0.2-0.3,0.4-0.6,0.5-0.9l1.6-2.6h2.7l-2.6,3.5l2.7,4.7h-2.6L23.7,26l-0.7,0.8v2.5h-2.2
				V21.1z"/>
		</g>
	</g>
	<g>
		<g class="st1">
			<path class="st2" d="M27,10.6c0-0.9,0-2,0-3.3h0c-0.3,1.1-0.6,2.3-0.9,3.2l-0.8,2.9h-1.7l-0.7-2.9c-0.2-0.9-0.5-2.1-0.6-3.2h0
				c0,1.2-0.1,2.4-0.1,3.3l-0.1,2.9h-2l0.5-8.2h3l0.6,2.2c0.2,0.9,0.5,2,0.6,3h0c0.2-1,0.5-2.2,0.7-3L26,5.3h2.9l0.4,8.2h-2.2
				L27,10.6z"/>
		</g>
	</g>
	<line class="st3" x1="31.8" y1="17" x2="2.2" y2="17"/>
	<line class="st3" x1="17" y1="31.8" x2="17" y2="2.2"/>
</g>
</svg>
