<?xml version="1.0" encoding="utf-8"?>
<!-- Generator: Adobe Illustrator 26.2.1, SVG Export Plug-In . SVG Version: 6.00 Build 0)  -->
<svg version="1.1" id="icon_x5F_Deleat" xmlns="http://www.w3.org/2000/svg" xmlns:xlink="http://www.w3.org/1999/xlink" x="0px"
	 y="0px" viewBox="0 0 34 34" style="enable-background:new 0 0 34 34;" xml:space="preserve">
<style type="text/css">
	.st0{fill:#C6C6C6;}
	.st1{fill:#FFFFFF;stroke:#FFFFFF;stroke-width:0.5;stroke-miterlimit:10;}
	.st2{fill:#0097C3;}
</style>
<g id="icon_x5F_favorit_2_">
	<g>
		<circle class="st0" cx="17" cy="17" r="17"/>
	</g>
</g>
<g>
	<circle class="st1" cx="9.9" cy="26.2" r="1.5"/>
	<circle class="st1" cx="16.4" cy="26.2" r="1.5"/>
	<path class="st1" d="M17.8,21.8H10l-0.5-4.2l-0.2-1.5c0,0-0.2-1.3-0.2-1.8c-0.1-0.5-1.5-1.2-4.4-2.6c-0.7-0.3-1.2,1,0,1.6L7,14.4
		c0,0,0.5,0.3,0.5,0.7c0.1,0.4,1,7.3,1,7.3s0,1,0.9,1c0.8,0,8.1,0,8.8,0c0.8,0,0.8-0.8,0.8-0.8l1.8-5.1c0.1,0,0.6-1.4-0.7-1.4
		c-1.8,0-10.3,0-10.3,0s-0.5,0.2-0.5,0.7s0.5,0.8,0.5,0.8h9.4"/>
</g>
<circle class="st2" cx="21.9" cy="12" r="8.5"/>
</svg>
