<?xml version="1.0" encoding="utf-8"?>
<!-- Generator: Adobe Illustrator 24.3.0, SVG Export Plug-In . SVG Version: 6.00 Build 0)  -->
<svg version="1.1" id="icon_x5F_Print" xmlns="http://www.w3.org/2000/svg" xmlns:xlink="http://www.w3.org/1999/xlink" x="0px"
	 y="0px" viewBox="0 0 34 34" style="enable-background:new 0 0 34 34;" xml:space="preserve">
<style type="text/css">
	.st0{fill:#1D4F95;}
	.st1{fill:none;}
	.st2{fill:#FFFFFF;}
</style>
<circle class="st0" cx="17" cy="17" r="16.4"/>
<rect x="60.3" y="-80.4" class="st1" width="90" height="90"/>
<g>
	<path class="st2" d="M20.4,14L20.4,14l-3.8-1.8c0,0,0,0-0.1,0L12.8,14c0,0,0,0,0,0.1c0,0,0,0,0,0.1l3.8,1.8l0,0l0,0L20.4,14
		C20.4,14.1,20.4,14.1,20.4,14z"/>
	<path class="st2" d="M12.8,7.9l3.8,1.8l0,0l0,0l3.8-1.8c0,0,0,0,0-0.1s0,0,0-0.1L16.6,6c0,0,0,0-0.1,0l-3.8,1.8
		C12.7,7.8,12.7,7.8,12.8,7.9C12.7,7.8,12.7,7.8,12.8,7.9z"/>
	<path class="st2" d="M19.4,10.9C19.4,11,19.4,11,19.4,10.9l3.8,1.8l0,0l0,0l3.8-1.8c0,0,0,0,0-0.1c0,0,0,0,0-0.1l-3.8-1.8
		c0,0,0,0-0.1,0L19.4,10.9L19.4,10.9z"/>
	<path class="st2" d="M6.1,11l3.8,1.8l0,0l0,0l3.8-1.8c0,0,0,0,0-0.1c0,0,0,0,0-0.1L9.9,9.1c0,0,0,0-0.1,0L6,10.9
		C6,10.9,6,10.9,6.1,11C6,11,6,11,6.1,11z"/>
	<path class="st2" d="M16.1,16.6l-3.9-1.8c0,0,0,0-0.1,0c0,0,0,0,0,0.1v2.3l-2.8-1.3v-2.3c0,0,0,0,0-0.1l-3.9-1.8c0,0,0,0-0.1,0
		c0,0,0,0,0,0.1v10.6c0,0,0,0,0,0.1l10.7,5l0,0l0,0c0,0,0,0,0-0.1L16.1,16.6C16.1,16.7,16.1,16.7,16.1,16.6z"/>
	<path class="st2" d="M27.8,11.7C27.7,11.7,27.7,11.7,27.8,11.7l-3.9,1.8c0,0,0,0,0,0.1v2.3L21,17.1v-2.3c0,0,0,0,0-0.1
		c0,0,0,0-0.1,0L17,16.6c0,0,0,0,0,0.1v10.6c0,0,0,0,0,0.1l0,0l0,0l10.7-5c0,0,0,0,0-0.1L27.8,11.7L27.8,11.7z"/>
</g>
</svg>
