<?xml version="1.0" encoding="utf-8"?>
<!-- Generator: Adobe Illustrator 26.2.1, SVG Export Plug-In . SVG Version: 6.00 Build 0)  -->
<svg version="1.1" id="icon_x5F_Deleat" xmlns="http://www.w3.org/2000/svg" xmlns:xlink="http://www.w3.org/1999/xlink" x="0px"
	 y="0px" viewBox="0 0 34 34" style="enable-background:new 0 0 34 34;" xml:space="preserve">
<style type="text/css">
	.st0{fill:none;}
	.st1{fill:#0097C3;stroke:#0097C3;stroke-width:0.5;stroke-miterlimit:10;}
	.st2{fill:none;stroke:#C6C6C6;stroke-width:1.4173;stroke-miterlimit:10;}
</style>
<g>
	<rect x="5.6" y="4.6" class="st0" width="23.3" height="24.7"/>
	<g>
		<path class="st1" d="M8.4,5.1c0.1,0,0.2,0,0.4-0.1c4.4-3.1,10.6-3.5,15.5-1l-1.5,0.7l5,1.4l-2.6-4.5L25,3.4
			c-5.4-3-12.1-2.6-17,0.7C7.8,4.3,7.8,4.6,7.9,4.8C8,4.9,8.2,5.1,8.4,5.1z"/>
		<path class="st1" d="M4.1,9.9l0.7,1.5l1.4-5.1L1.7,9l1.8,0.2c-3,5.4-2.7,12,0.7,16.7c0.1,0.1,0.2,0.2,0.4,0.2c0.1,0,0.2,0,0.4-0.1
			s0.2-0.5,0.1-0.7C1.8,20.9,1.5,14.8,4.1,9.9z"/>
		<path class="st1" d="M25.3,29.1c-4.4,3.1-10.6,3.5-15.5,1l1.5-0.7L6.2,28l2.6,4.5l0.3-1.9c2.3,1.3,5,2,7.6,2c3.1,0,6.4-1,9-2.8
			c0.2-0.1,0.2-0.5,0.1-0.7C25.9,28.9,25.6,28.9,25.3,29.1z"/>
		<path class="st1" d="M29.9,8c-0.1-0.2-0.5-0.2-0.7-0.1C29,8,29,8.4,29.1,8.6c3.1,4.4,3.5,10.6,1,15.5l-0.7-1.5L28,27.7l4.5-2.6
			l-1.9-0.2C33.6,19.6,33.2,12.9,29.9,8z"/>
		<g>
			<path class="st2" d="M25.7,17c-0.6,0.1-1.3-0.1-1.7,0.4c-1,1.2,1.5,2.5,1,3.9c-0.2,0.5-0.6,1-0.8,1.4c-0.1,0.1-0.4,0.5-0.5,0.6
				c0,0.1-0.4,0.6-0.5,0.6s-0.1-0.1-0.2-0.2c-0.5-0.5-0.8-1-1.4-1c-1,0-1,1.3-1.2,1.9c-0.2,0.7-0.2,1.3-1.1,1.5
				c-0.5,0.2-1.1,0.4-1.5,0.4c-0.2,0-0.6,0.1-0.7,0.1s-0.5,0.1-0.6,0.1c-0.4-0.1-0.1,0-0.1-0.4c-0.1-0.5,0.1-1.2-0.2-1.7
				c-1.1-1.2-2.5,1.4-3.9,1c-0.5-0.2-1-0.5-1.4-0.8c-0.2-0.1-0.5-0.4-0.6-0.5c0,0-0.2-0.1-0.2-0.2C10,23.9,10,24,10.2,23.6
				c0.2-0.6,1-0.7,1.1-1.4c0.1-0.8-0.8-1-1.4-1.2c-0.8-0.2-1.7-0.2-2-1.1c-0.6-0.4-0.7-1-0.7-1.5C7,18.1,6.7,17.1,7,17
				c0.1-0.1,1.1-0.1,1.2-0.1c0.2,0,0.4,0.1,0.6-0.1c1.4-1-1.3-2.6-0.8-3.9c0.1-0.5,0.5-1,0.8-1.4c0.2-0.3,0.8-1.4,1-1.4
				c0,0,0.6,0.5,0.7,0.6c0.2,0.2,0.4,0.5,0.7,0.6c0.7,0.2,1.1-0.2,1.2-0.8c0.2-0.8,0.2-2,1.1-2.4c0.2-0.2,0.8-0.4,1.4-0.4
				c0.2,0,1.5-0.4,1.8-0.2c0.2,0.2,0,1.3,0.1,1.7c0.5,1.8,2.8-0.8,3.8-0.6c0.8,0.1,1.9,1.1,2.4,1.4c0.2,0.1,0.6,0.4,0.5,0.6
				c0,0.1-0.6,0.7-0.7,0.7c-0.4,0.4-0.7,0.7-0.4,1.3c0.5,0.8,1.9,0.6,2.5,1c0.6,0.2,0.7,0.7,0.8,1.3c0.1,0.5,0.2,1.1,0.4,1.5
				C26.1,16.4,26.4,17.2,25.7,17"/>
			<circle class="st2" cx="16.5" cy="17" r="2.8"/>
		</g>
	</g>
</g>
</svg>
