<?xml version="1.0" encoding="utf-8"?>
<!-- Generator: Adobe Illustrator 23.1.0, SVG Export Plug-In . SVG Version: 6.00 Build 0)  -->
<svg version="1.1" id="icon_x5F_Print" xmlns="http://www.w3.org/2000/svg" xmlns:xlink="http://www.w3.org/1999/xlink" x="0px"
	 y="0px" viewBox="0 0 34 34" style="enable-background:new 0 0 34 34;" xml:space="preserve">
<style type="text/css">
	.st0{fill:#BABABA;}
</style>
<g>
	<g>
		<g>
			<g>
				<path class="st0" d="M27,30.7c-0.7,0-1.4-0.2-2-0.8L20,24.8c-1.6,0.9-3.4,1.3-5.2,1.3C8.5,26.1,3.4,21,3.4,14.7
					S8.5,3.3,14.7,3.3s11.4,5.1,11.4,11.4c0,1.8-0.5,3.7-1.4,5.4l5,5c0.6,0.6,0.9,1.3,0.9,2.1c0,0.8-0.3,1.5-0.9,2.1L29,29.7
					C28.6,30.3,27.8,30.7,27,30.7z M20.2,22.8l5.9,6c0.2,0.2,0.5,0.4,1,0.4c0.3,0,0.6-0.2,0.8-0.3l0.1-0.1l0.6-0.6
					c0.2-0.2,0.4-0.6,0.4-1c0-0.3-0.2-0.6-0.4-1l-5.9-5.9l0.3-0.6c1-1.6,1.4-3.3,1.4-5.1c0-5.4-4.4-9.8-9.8-9.8s-9.8,4.4-9.8,9.8
					s4.4,9.8,9.8,9.8c1.7,0,3.5-0.5,5-1.4L20.2,22.8z"/>
			</g>
		</g>
		<g>
			<g>
				<path class="st0" d="M14.5,21.1c-3.7,0-6.6-2.9-6.6-6.6s2.9-6.6,6.6-6.6s6.6,2.9,6.6,6.6S18.2,21.1,14.5,21.1z M14.5,9.5
					c-2.8,0-5,2.2-5,5s2.2,5,5,5s5-2.2,5-5S17.3,9.5,14.5,9.5z"/>
			</g>
		</g>
	</g>
</g>
</svg>
