<?xml version="1.0" encoding="utf-8"?>
<!-- Generator: Adobe Illustrator 21.0.1, SVG Export Plug-In . SVG Version: 6.00 Build 0)  -->
<svg version="1.1" id="icon_x5F_Deleat" xmlns="http://www.w3.org/2000/svg" xmlns:xlink="http://www.w3.org/1999/xlink" x="0px"
	 y="0px" viewBox="0 0 34 34" style="enable-background:new 0 0 34 34;" xml:space="preserve">
<style type="text/css">
	.st0{clip-path:url(#SVGID_2_);fill:#1C4F95;}
</style>
<g>
	<defs>
		<rect id="SVGID_1_" x="1.2" y="1.2" width="31.2" height="31.2"/>
	</defs>
	<clipPath id="SVGID_2_">
		<use xlink:href="#SVGID_1_"  style="overflow:visible;"/>
	</clipPath>
	<path class="st0" d="M1.2,16.8c0-4.5,0-9.1,0-13.6c0-1.5,0.4-2.2,2-2c0.3,0,0.7,0,1,0c2.8,0,3.2-0.4,3.1,2.9
		C7.2,5.4,7.7,5.9,8.9,5.8c2.3,0,4.6-0.1,6.9,0c1.3,0,1.7-0.6,1.7-1.8c0-2.8,0.1-2.8,2.8-2.8c2.1,0,4.2,0.1,6.4,0
		c1.5-0.1,1.9,0.6,1.9,1.9c0,2.4,0.1,2.4,2.5,2.7c1,0.1,1.4,0.6,1.4,1.6c0,7.8,0,15.7,0,23.5c0,1.1-0.5,1.5-1.6,1.5
		c-9.3,0-18.7,0-28,0c-1.4,0-1.6-0.7-1.6-1.9C1.2,26,1.2,21.4,1.2,16.8 M18.9,24.7c3.3,0,6.6,0,10,0c1,0,1.6-0.3,1.6-1.5
		c0-4.6,0-9.3,0-13.9c0-0.7-0.1-1.3-1-1.3c-0.8,0-1,0.6-0.9,1.2c0.2,2-0.9,2.4-2.5,2.2c-1.2-0.1-1.7,0.4-1.6,1.6c0,0.9,0,1.8,0,2.7
		c0,1-0.6,1.4-1.5,1.4c-0.9,0-1.4-0.5-1.3-1.4c0-0.8-0.1-1.6,0-2.4c0.1-1.5-0.4-2.1-2-2c-1.4,0.2-2.4-0.2-2.2-2
		C17.5,8.3,16.8,8,15.8,8c-1.7,0-3.3,0-5,0C6.9,8,7.3,7.4,7.2,11.7c0,0.1,0,0.2,0,0.3c0,0.6,0.1,1.2,0.9,1.2c0.8,0,0.9-0.5,1-1.1
		c0.4-3,0.4-3,3.4-3c0.3,0,0.7,0,1,0c1.3-0.1,1.8,0.5,1.8,1.8c0,3.3,0,6.6,0,10c0,2.4-0.1,2.5-2.5,2.5c-1.1,0-2.4,0.4-3.3-0.3
		c-0.8-0.7-0.3-1.8-0.4-2.8c-0.1-0.6-0.4-0.9-1-0.9c-0.7,0-0.9,0.5-0.9,1c0,0.8,0,1.6,0,2.4c-0.1,1.4,0.4,1.9,1.9,1.9
		C12.4,24.7,15.6,24.7,18.9,24.7 M18.8,30.5c3.3,0,6.6,0,10,0c1.3,0,1.7-0.5,1.7-1.7c0-1.2-0.2-1.9-1.7-1.9c-6.6,0-13.3,0-19.9,0
		c-1.5,0-1.7,0.7-1.7,1.9c0,1.2,0.4,1.8,1.7,1.7C12.2,30.5,15.5,30.5,18.8,30.5 M5.1,16.8c0-4,0-7.9,0-11.9c0-0.8,0.2-1.8-1.1-1.7
		C2.9,3.3,3.1,4.3,3.1,5c0,7.9,0,15.8,0,23.7c0,0.7-0.3,1.7,0.9,1.7c1.3,0.1,1.1-1,1.1-1.7C5.1,24.8,5.1,20.8,5.1,16.8 M23,9.2
		c0.4,0,0.8,0,1.2,0c1.7,0.2,2.2-0.5,2.1-2.1c-0.1-4.5,0.5-3.9-3.9-3.9c-2.9,0-2.9,0-2.9,2.9C19.5,9.2,19.5,9.2,23,9.2 M11.4,16.3
		c0,1.3,0,2.5,0,3.8c0,0.6,0.2,1.1,1,1.1c0.7,0,0.9-0.4,0.9-1c0-2.6,0-5.1,0-7.7c0-0.6-0.2-1-0.9-1c-0.7,0-1,0.5-1,1.1
		C11.3,13.8,11.4,15.1,11.4,16.3"/>
</g>
</svg>
