<?xml version="1.0" encoding="utf-8"?>
<!-- Generator: Adobe Illustrator 21.1.0, SVG Export Plug-In . SVG Version: 6.00 Build 0)  -->
<svg version="1.1" id="icon_x5F_Deleat" xmlns="http://www.w3.org/2000/svg" xmlns:xlink="http://www.w3.org/1999/xlink" x="0px"
	 y="0px" viewBox="0 0 34 34" style="enable-background:new 0 0 34 34;" xml:space="preserve">
<style type="text/css">
	.st0{fill:#1D4F95;}
	.st1{fill:#FFFFFF;stroke:#204F96;stroke-width:0.1287;stroke-miterlimit:10;}
</style>
<g id="icon_x5F_favorit_1_">
	<g>
		<circle class="st0" cx="17" cy="17" r="17"/>
	</g>
</g>
<g>
	<path class="st1" d="M17.5,8.5c3.5,0,6.9,0,10.4,0c0.4,0,0.7,0.2,0.8,0.5c0.1,0.3,0,0.5-0.2,0.7c-0.7,0.8-1.4,1.7-2.1,2.5
		c-1.9,2.4-3.9,4.7-5.8,7.1c-0.1,0.1-0.1,0.2-0.1,0.4c0,2.1,0,4.3,0,6.4c0,0.4-0.2,0.7-0.6,0.9c-1.4,0.7-2.8,1.4-4.2,2.1
		c-0.1,0-0.2,0.1-0.3,0.1c-0.4,0.1-0.8-0.1-0.8-0.5c0-0.1,0-0.2,0-0.4c0-2.9,0-5.7,0-8.6c0-0.2,0-0.3-0.2-0.5
		c-2.6-3.2-5.3-6.4-7.9-9.5C6.3,9.5,6.2,9.2,6.4,8.9c0.2-0.3,0.4-0.4,0.7-0.4C10.6,8.5,14.1,8.5,17.5,8.5z M15.9,27.4
		c0.1,0,0.2-0.1,0.2-0.1c0.9-0.5,1.8-0.9,2.7-1.3c0.2-0.1,0.2-0.2,0.2-0.4c0-2.1,0-4.1,0-6.2c0-0.3,0.1-0.5,0.3-0.7
		c2.4-2.9,4.7-5.7,7.1-8.6c0-0.1,0.1-0.1,0.1-0.2c-6.1,0-12.1,0-18.2,0c0,0.1,0.1,0.1,0.1,0.1c2.4,2.9,4.7,5.7,7.1,8.6
		c0.2,0.3,0.3,0.5,0.3,0.9c0,2.6,0,5.1,0,7.7C15.9,27.2,15.9,27.3,15.9,27.4z"/>
</g>
</svg>
