<?xml version="1.0" encoding="utf-8"?>
<!-- Generator: Adobe Illustrator 21.0.1, SVG Export Plug-In . SVG Version: 6.00 Build 0)  -->
<svg version="1.1" id="Layer_1" xmlns="http://www.w3.org/2000/svg" xmlns:xlink="http://www.w3.org/1999/xlink" x="0px" y="0px"
	 viewBox="0 0 35 35" style="enable-background:new 0 0 35 35;" xml:space="preserve">
<style type="text/css">
	.st0{clip-path:url(#SVGID_2_);fill:none;stroke:#0A8946;stroke-miterlimit:10;}
	.st1{clip-path:url(#SVGID_2_);fill:#0A8946;}
</style>
<g>
	<defs>
		<rect id="SVGID_1_" width="35" height="35"/>
	</defs>
	<clipPath id="SVGID_2_">
		<use xlink:href="#SVGID_1_"  style="overflow:visible;"/>
	</clipPath>
	<circle class="st0" cx="17.5" cy="17.5" r="17"/>
	<path class="st1" d="M23.6,10c-3.5,3.5-7,7-10.6,10.6h4.4c-2-2-4-4-5.9-5.9c-1.2-1.2-3.2-1.2-4.4,0c-1.2,1.2-1.2,3.2,0,4.4
		c2,2,4,4,5.9,5.9c1.2,1.2,3.2,1.2,4.4,0c3.5-3.5,7-7,10.6-10.6c1.2-1.2,1.2-3.2,0-4.4C26.7,8.8,24.7,8.8,23.6,10"/>
</g>
</svg>
