<?xml version="1.0" encoding="utf-8"?>
<!-- Generator: Adobe Illustrator 23.1.0, SVG Export Plug-In . SVG Version: 6.00 Build 0)  -->
<svg version="1.1" id="icon_x5F_Deleat" xmlns="http://www.w3.org/2000/svg" xmlns:xlink="http://www.w3.org/1999/xlink" x="0px"
	 y="0px" viewBox="0 0 34 34" style="enable-background:new 0 0 34 34;" xml:space="preserve">
<style type="text/css">
	.st0{fill:#1D4F95;}
	.st1{fill:none;stroke:#FFFFFF;stroke-width:1.4173;stroke-miterlimit:10;}
</style>
<circle class="st0" cx="16.6" cy="17" r="17"/>
<path class="st1" d="M31.5,25.5l-8.6-4.2c0,0-0.3-0.1-0.5-0.3c-0.8-0.7-0.8-2.5-0.7-3.1v0c0-0.5,0.1-0.7,0.3-0.9
	c0.1-0.1,0.6-0.4,1-0.7l0,0c0.8-0.7,1-2.3,1.1-2.6c0-0.5,0-0.8,0-0.8c0-0.4-0.1-0.8-0.4-1l-0.2-0.3c0,0,0,0,0-0.1l0-1.5
	c0-3.8-3.1-6.9-6.9-6.9c-3.8,0-6.9,3.1-6.9,6.8c0,0.1,0,1.3,0,1.5c0,0,0,0.1,0,0.1l-0.3,0.3c-0.1,0.1-0.4,0.5-0.4,0.9
	c0,0,0,0.4,0,0.8c0,0.3,0.3,1.9,1.1,2.5v0c0.4,0.3,0.9,0.6,1,0.7c0,0.1,0.2,0.4,0.2,0.9v0c0,0.6,0,2.4-0.7,3
	c-0.3,0.2-0.5,0.4-0.6,0.4L4.5,24L2,25.4"/>
</svg>
