<?xml version="1.0" encoding="utf-8"?>
<!-- Generator: Adobe Illustrator 23.1.0, SVG Export Plug-In . SVG Version: 6.00 Build 0)  -->
<svg version="1.1" id="icon_x5F_Deleat" xmlns="http://www.w3.org/2000/svg" xmlns:xlink="http://www.w3.org/1999/xlink" x="0px"
	 y="0px" viewBox="0 0 34 34" style="enable-background:new 0 0 34 34;" xml:space="preserve">
<style type="text/css">
	.st0{fill:#1D4F95;}
</style>
<g>
	<circle class="st0" cx="12.2" cy="29.3" r="2.7"/>
	<circle class="st0" cx="24" cy="29.3" r="2.7"/>
	<path class="st0" d="M26.5,21.3H12.3l-1-7.6L11,11.2c0,0-0.3-2.3-0.4-3.3c-0.1-1-2.6-2.2-7.8-4.7C1.5,2.7,0.5,5,2.7,6.1L6.8,8
		c0,0,1,0.5,1,1.2c0.1,0.7,1.8,13.2,1.8,13.2s0,1.8,1.6,1.8c1.5,0,14.6,0,15.8,0c1.4,0,1.5-1.4,1.5-1.4l3.2-9.2
		c0.1,0,1.1-2.5-1.2-2.5c-3.3,0-3.4,0-3.4,0s-1,0.3-1,1.2s1,1.4,1,1.4h1.8"/>
</g>
<path class="st0" d="M18.9,7.1c0.3,0,0.7,0.1,0.8,0.4C20,7.8,20.2,8,20.2,8.3v2.5v0.4h0.4H23c0.3,0,0.7,0.1,0.8,0.4
	c0.3,0.3,0.4,0.5,0.4,0.8l0,0c0,0.3-0.1,0.7-0.4,0.8c-0.3,0.3-0.5,0.4-0.8,0.4h-2.5h-0.4v0.4v2.6c0,0.3-0.1,0.7-0.4,0.8
	c-0.3,0.3-0.5,0.5-0.8,0.5l0,0c-0.3,0-0.7-0.1-0.8-0.4c-0.4-0.3-0.5-0.5-0.5-1v-2.5v-0.4h-0.4h-2.5c-0.3,0-0.7-0.1-0.8-0.4
	c-0.3-0.1-0.4-0.5-0.4-0.8l0,0c0-0.3,0.1-0.7,0.4-0.8c0.3-0.3,0.5-0.4,0.8-0.4h2.5h0.4v-0.4V8.4c0-0.3,0.1-0.7,0.4-0.8
	S18.5,7.1,18.9,7.1L18.9,7.1"/>
</svg>
