<?xml version="1.0" encoding="utf-8"?>
<!-- Generator: Adobe Illustrator 26.3.1, SVG Export Plug-In . SVG Version: 6.00 Build 0)  -->
<svg version="1.1" id="Layer_1" xmlns="http://www.w3.org/2000/svg" xmlns:xlink="http://www.w3.org/1999/xlink" x="0px" y="0px"
	 viewBox="0 0 750.9 287.7" style="enable-background:new 0 0 750.9 287.7;" xml:space="preserve">
<style type="text/css">
	.st0{fill:#1A171B;}
	.st1{fill-rule:evenodd;clip-rule:evenodd;fill:#1A171B;}
	.st2{fill:#0095C1;}
	.st3{fill-rule:evenodd;clip-rule:evenodd;fill:#0095C1;}
</style>
<g>
	<polygon class="st0" points="186.3,79.1 187.2,76.1 165.1,76.1 134.8,173.9 137.1,173.9 157,173.9 	"/>
	<g>
		<path class="st0" d="M269.2,122.8c1.6-5.2,1.8-9.3,0.9-12.6c-2.3-8.1-11.3-11-22.3-11c-10.8,0-20.5,2.5-28.6,10.7
			c-1,1-2,2.1-3,3.4l-0.3-0.4l2.8-9l0.9-3.1h-20.5l-22.5,73h2.2h18.3l8.7-28.2c7-22.7,16.4-30.1,30.1-30.1c6.1,0,10.9,2.5,11.8,7.2
			c0.3,1.4,0.2,3-0.4,4.7l-14.5,46.4h2.4h18.3L269.2,122.8z"/>
	</g>
	<g>
		<path class="st0" d="M321.2,205.2c12.4-4.4,19.5-13.4,23.4-26.4l22.8-73.8l1-3.2c-9.3-1-24.7-2.9-33.9-2.9c-4.6,0-9,0.4-13.3,1.3
			c-19.1,4-35.1,16.8-42.1,39.3c-3.1,10-3,18-0.3,23.8c3.4,7.2,10.9,11,21.8,11c7.2,0,14.3-1.9,20.6-5.9c2.8-1.8,5.5-4,7.9-6.7
			l0.4-0.3l-2,6.5l-1.4,4.6c-1.4,4.4-3.1,7.8-4.9,10.6c-5.6,8.7-13.4,10.6-21.9,10.6c-9.6,0-18.4-2.6-26.9-5.8l-2.9,16
			c0.6,0.2,1.1,0.3,1.7,0.4c9.4,2.4,19.2,3.7,29.6,3.7C308.8,208.2,315.6,207.2,321.2,205.2z M321.2,157.4c-3.1,1.7-6.4,2.6-9.6,2.6
			c-5.7,0-9.6-2-11.6-5.6c-2.1-3.8-2.1-9.4,0-16.5c3.2-10,9.9-18.8,21.1-22.7c3.8-1.3,8.2-2,13.1-2c3.5,0,6.7,0.5,9.7,1.5l-0.9,3
			l-6.4,20.6C334.3,146.1,328.2,153.5,321.2,157.4z"/>
	</g>
	<path class="st0" d="M447.5,112.8c-3.3-9.4-13-13.6-25.9-13.6c-3.2,0-6.3,0.3-9.1,0.6c-20.5,3.5-34.5,18.1-40.5,37.7
		c-1.2,3.7-1.9,7.4-2,10.8v4.2c0.2,3.7,1.1,7,2.6,9.9c4.3,8.2,13.6,13.2,27.9,13.2c4.2,0,8.2-0.1,12-0.5c5-0.5,9.7-1.3,14.5-2.2
		l5-11.6l1.7-3.9c-7,2.1-14.2,4-21.1,4.6c-1.5,0-2.9,0.1-4.4,0.1c-7.5,0-13.2-2.5-16-7.1c-2.1-3.5-2.6-8.3-0.8-14.2l0.8-2.3h20.4
		h32.4l1.8-5.8c1-3.5,1.7-6.7,1.9-9.5c0,0,0.4-3.2,0-5.5C448.3,115.5,448.1,114.4,447.5,112.8z M428.5,128.7h-16h-14.6h-2.6
		c2.9-7.9,9.2-14.3,17.3-16.4c1.7-0.4,3.5-0.6,5.3-0.6c7,0,10.7,2.6,11.7,7.1C430.1,121.5,429.7,124.8,428.5,128.7z"/>
	<path class="st1" d="M488.7,100.9h-19.5l-22.5,73h20.5l11.4-37c4.6-14.9,14-21.3,24.6-21.3c2.7,0,5.1,0.4,7.9,1.2l3.5-16.9
		c-1.9-0.4-3.8-0.6-6-0.6c-9.1,0-16.4,4.5-22.5,11.4l-0.1-0.3L488.7,100.9z"/>
	<path class="st1" d="M502.8,172.1c7,1.8,14.7,3.1,22.7,3.1c12.3,0,29.7-4.6,34.1-18.4c6-19.5-20.7-29.1-17.9-38.4
		c1.5-5,7.9-6,11.4-6c5.6,0,13.4,1.8,17.8,3.8l2.9-15c-6.7-1.3-13.7-2.3-20.9-2.3c-25,0-31.5,13.4-33,18.3
		c-5.8,18.6,21.5,26.6,18.1,37.8c-1.5,4.9-8.6,6.8-13.1,6.8c-7.2,0-13.4-2.7-19.5-5.4L502.8,172.1z"/>
	<path class="st1" d="M628.3,98.8c-4.1,0-8.1,0.4-11.8,1.2c-19.9,4.1-34.6,18.2-40.5,37.1c-1.2,3.7-1.8,7.4-2,10.8v4.2
		c0.9,14.1,11.3,23.1,30.6,23.1c4.1,0,8.1-0.4,11.9-1.2c19.7-4.1,34.5-18.2,40.2-36.9c1.3-4,1.9-7.7,2.2-11v-4.2
		C658,107.8,647.7,98.8,628.3,98.8z M636.3,136.9c-3.6,11.5-10.5,20-19.7,22.8c-2.4,0.8-4.9,1.2-7.4,1.2c-13.1,0-16.9-9.5-12.4-24
		c3.6-11.4,10.5-19.7,19.9-22.7c2.3-0.6,4.7-1,7.3-1C636.9,113.2,640.7,122.5,636.3,136.9z"/>
	<polygon class="st1" points="660.1,173.5 680.6,173.5 710.9,75.7 690.4,75.7 	"/>
	<polygon class="st1" points="699.9,173.5 720.5,173.5 750.9,75.7 730.3,75.7 	"/>
	<path class="st1" d="M689,223.1c2.7,0.8,5.6,1.2,8.6,1.2c4.7,0,11.4-1.8,12.9-7c2.3-7.4-7.8-11-6.8-14.6c0.6-1.9,3.1-2.3,4.4-2.3
		c2.2,0,5.1,0.8,6.8,1.5l1.2-5.8c-2.6-0.5-5.3-0.9-8.1-0.9c-9.5,0-11.9,5.1-12.6,7c-2.2,7,8.2,10.1,6.9,14.3c-0.5,1.9-3.2,2.6-5,2.6
		c-2.7,0-5.1-1-7.4-2L689,223.1z"/>
	<polygon class="st1" points="674.2,223.6 682,223.6 693.6,186.4 685.7,186.4 	"/>
	<path class="st1" d="M662.2,195.2c-1.7,0-3.1,0.1-4.6,0.5c-7.4,1.5-13.1,6.9-15.4,14.1c-0.4,1.5-0.6,2.9-0.8,4.4v1.3
		c0.3,5.4,4.2,8.8,11.7,8.8c1.5,0,3.1-0.1,4.5-0.4c7.6-1.5,13.2-6.9,15.4-14.1c0.5-1.5,0.8-3.1,0.9-4.4v-1.3
		C673.6,198.8,669.6,195.2,662.2,195.2z M665.1,209.8c-1.3,4.4-4,7.6-7.6,8.6c-0.8,0.4-1.8,0.5-2.8,0.5c-4.9,0-6.4-3.7-4.6-9.1
		c1.3-4.5,4-7.6,7.4-8.7c0.9-0.3,1.9-0.4,2.8-0.4C665.4,200.7,666.9,204.3,665.1,209.8z"/>
	<path class="st1" d="M627.6,195.2c-1.5,0-3.1,0.1-4.5,0.5c-7.6,1.5-13.2,6.9-15.4,14.1c-0.5,1.5-0.8,2.9-0.8,4.4v1.3
		c0.3,5.4,4.2,8.8,11.7,8.8c1.5,0,3.1-0.1,4.5-0.4c7.6-1.5,13.2-6.9,15.4-14.1c0.5-1.5,0.8-3.1,0.8-4.4v-1.3
		C639,198.8,635.2,195.2,627.6,195.2z M630.7,209.8c-1.4,4.4-4,7.6-7.6,8.6c-0.9,0.4-1.8,0.5-2.8,0.5c-5,0-6.4-3.7-4.7-9.1
		c1.4-4.5,4-7.6,7.6-8.7c0.9-0.3,1.8-0.4,2.8-0.4C630.9,200.7,632.3,204.3,630.7,209.8z"/>
	<polygon class="st1" points="584.4,192.3 596,192.3 586.4,223.6 594.7,223.6 604.4,192.3 616.1,192.3 617.9,186.4 586.4,186.4 	"/>
	<path class="st1" d="M549.2,195.2c-1.7,0-3.5,0.1-5,0.5c-7.3,1.5-13.4,6.4-16.1,15c-2.6,8.5,0.8,13.3,8.2,13.3
		c2.8,0,5.5-0.8,7.9-2.3c1-0.6,2-1.5,2.9-2.6l0.1-0.1l-1.3,4.4c-0.5,1.7-1.2,2.9-1.8,4c-2.2,3.3-5.1,4.1-8.3,4.1
		c-3.7,0-7-1-10.4-2.2l-1,6c3.7,1,7.7,1.7,11.9,1.7c3.1,0,5.6-0.4,7.8-1.2c4.7-1.8,7.3-5.3,8.8-10.1l9.1-29.3
		C558.6,196,552.8,195.2,549.2,195.2z M550.1,210.3c-1,2.9-3.3,5.8-5.9,7.2c-1.3,0.6-2.4,1-3.7,1c-4.5,0-6-3.2-4.4-8.3
		c1.2-3.8,3.7-7.3,8.1-8.7c1.4-0.5,3.1-0.8,5-0.8c1.3,0,2.4,0.3,3.6,0.6L550.1,210.3z"/>
	<path class="st1" d="M516.3,195.2c-4.7,0-8.7,1.3-12,5.4l-0.1-0.1l1.4-4.6h-7.8l-8.6,27.8h7.8l3.3-10.8c2.7-8.6,6.1-11.4,11.4-11.4
		c3.1,0,5.3,1.7,4.4,4.5l-5.5,17.7h7.8l6-19.5C526.5,197.4,522.1,195.2,516.3,195.2z"/>
	<path class="st1" d="M473.9,223.2h7.8l8.6-27.8h-7.8L473.9,223.2L473.9,223.2z M484.1,191.2h8.1l1.5-5.1h-7.9L484.1,191.2z"/>
	<path class="st1" d="M469.4,201.4h7l1.7-5.5h-7l2.1-6.7l-8.3,1.9l-1.5,4.7h-3.8l-1.8,5.5h4l-4.9,15.8c-1.8,5.5,0.6,7.2,6,7.2
		c2.3,0,4.4-0.3,6.5-0.8l2.6-5.6c-1.4,0.4-2.8,0.5-4.2,0.5c-2.8,0-2.9-1.9-2-4.6L469.4,201.4z"/>
	<path class="st1" d="M450.3,195.8l2-6.7l-8.5,1.9l-1.4,4.7h-4l-1.7,5.5h3.8l-4.9,15.8c-1.7,5.5,0.8,7.2,6,7.2
		c2.3,0,4.5-0.3,6.5-0.8l2.7-5.6c-1.5,0.4-2.9,0.5-4.4,0.5c-2.8,0-2.8-1.9-1.9-4.6l3.7-12.4h7l1.8-5.5H450.3z"/>
	<path class="st1" d="M426.4,195.8l-4.2,13.7c-1.8,5.6-5.2,8.6-10.5,8.6c-3.1,0-4.2-2.4-3.6-4.2l5.5-18.1h-7.8l-6,19.5
		c-2,6.8,1.5,9,7.3,9c4.7,0,8.7-1.2,12-5.3h0.1l-1.4,4.6h7.8l8.6-27.8H426.4z"/>
	<path class="st1" d="M390.8,191.6c4.5,0,7.3,0.8,9.9,1.5l1.4-6.4c-3.1-0.6-6.3-1-9.4-1c-11.4,0-22.9,5.9-27,19.2
		c-4.2,13.4,3.7,19.3,15.1,19.3c3.6,0,6.8-0.4,10.2-0.9l2.7-6.5c-3.3,0.9-6.8,1.5-11,1.5c-7.6,0-11.3-5-8.6-13.4
		C376.7,196.6,383.5,191.6,390.8,191.6z"/>
	<g>
		<g>
			<polygon class="st2" points="184,76.7 184.9,73.7 162.8,73.7 132.6,171.5 134.8,171.5 154.7,171.5 			"/>
		</g>
		<polygon class="st3" points="583.2,191 594.7,191 585.1,222.4 593.4,222.4 603.2,191 614.8,191 616.6,185.1 585.1,185.1 		"/>
		<path class="st3" d="M626.3,193.9c-1.5,0-3.1,0.1-4.5,0.5c-7.6,1.5-13.2,6.9-15.4,14.1c-0.5,1.5-0.8,2.9-0.8,4.4v1.3
			c0.3,5.4,4.2,8.8,11.7,8.8c1.5,0,3.1-0.1,4.5-0.4c7.6-1.5,13.2-6.9,15.4-14.1c0.5-1.5,0.8-3.1,0.8-4.4v-1.3
			C637.7,197.5,633.9,193.9,626.3,193.9z M629.4,208.5c-1.4,4.4-4,7.6-7.6,8.6c-0.9,0.4-1.8,0.5-2.8,0.5c-5,0-6.4-3.7-4.7-9.1
			c1.4-4.5,4-7.6,7.6-8.7c0.9-0.3,1.8-0.4,2.8-0.4C629.7,199.4,631.1,203,629.4,208.5z"/>
		<path class="st3" d="M660.9,193.9c-1.7,0-3.1,0.1-4.6,0.5c-7.4,1.5-13.1,6.9-15.4,14.1c-0.4,1.5-0.6,2.9-0.8,4.4v1.3
			c0.3,5.4,4.2,8.8,11.7,8.8c1.5,0,3.1-0.1,4.5-0.4c7.6-1.5,13.2-6.9,15.4-14.1c0.5-1.5,0.8-3.1,0.9-4.4v-1.3
			C672.3,197.5,668.3,193.9,660.9,193.9z M663.9,208.5c-1.3,4.4-4,7.6-7.6,8.6c-0.8,0.4-1.8,0.5-2.8,0.5c-4.9,0-6.4-3.7-4.6-9.1
			c1.3-4.5,4-7.6,7.4-8.7c0.9-0.3,1.9-0.4,2.8-0.4C664.1,199.4,665.7,203,663.9,208.5z"/>
		<polygon class="st3" points="673,222.4 680.8,222.4 692.3,185.1 684.5,185.1 		"/>
		<path class="st3" d="M687.7,221.9c2.7,0.8,5.6,1.2,8.6,1.2c4.7,0,11.4-1.8,12.9-7c2.3-7.4-7.8-11-6.8-14.6
			c0.6-1.9,3.1-2.3,4.4-2.3c2.2,0,5.1,0.8,6.8,1.5l1.2-5.8c-2.6-0.5-5.2-0.9-8.1-0.9c-9.5,0-11.9,5.1-12.6,7
			c-2.2,7,8.2,10.1,6.9,14.3c-0.5,1.9-3.2,2.6-5,2.6c-2.7,0-5.1-1-7.4-2L687.7,221.9z"/>
		<path class="st3" d="M515,193.9c-4.7,0-8.7,1.3-12,5.4l-0.1-0.1l1.4-4.6h-7.8l-8.6,27.8h7.8l3.3-10.8c2.7-8.6,6.1-11.4,11.4-11.4
			c3.1,0,5.3,1.7,4.4,4.5l-5.5,17.7h7.8l6-19.5C525.3,196.1,520.8,193.9,515,193.9z"/>
		<path class="st3" d="M473,222.4h7.8l8.6-27.8h-7.8L473,222.4L473,222.4z M482.9,190h8.1l1.5-5.1h-7.9L482.9,190z"/>
		<path class="st3" d="M548,193.9c-1.7,0-3.5,0.1-5,0.5c-7.3,1.5-13.4,6.4-16.1,15c-2.6,8.5,0.8,13.3,8.2,13.3
			c2.8,0,5.5-0.8,7.9-2.3c1-0.6,2-1.5,2.9-2.6l0.1-0.1l-1.3,4.4c-0.5,1.7-1.2,2.9-1.8,4c-2.2,3.3-5.1,4.1-8.3,4.1
			c-3.7,0-7-1-10.4-2.2l-1,6c3.7,1,7.7,1.7,11.9,1.7c3.1,0,5.6-0.4,7.8-1.2c4.7-1.8,7.3-5.3,8.8-10.1l9.1-29.3
			C557.3,194.7,551.5,193.9,548,193.9z M548.8,209.1c-1,2.9-3.3,5.8-5.9,7.2c-1.3,0.6-2.4,1-3.7,1c-4.5,0-6-3.2-4.4-8.3
			c1.2-3.8,3.7-7.3,8.1-8.7c1.4-0.5,3.1-0.8,5-0.8c1.3,0,2.4,0.3,3.6,0.6L548.8,209.1z"/>
		<g>
			<path class="st2" d="M266.8,120.4c1.6-5.2,1.8-9.3,0.9-12.6c-2.3-8.1-11.3-11-22.3-11c-10.8,0-20.5,2.5-28.6,10.7
				c-1,1-2,2.1-3,3.4l-0.3-0.4l2.8-9l0.9-3.1h-20.5l-22.5,73h2.2h18.3l8.7-28.2c7-22.7,16.4-30.1,30.1-30.1c6.1,0,10.9,2.5,11.8,7.2
				c0.3,1.4,0.2,3-0.4,4.7l-14.5,46.4h2.4h18.3L266.8,120.4z"/>
		</g>
		<g>
			<path class="st2" d="M445.2,110.5c-3.3-9.4-13-13.6-25.9-13.6c-3.2,0-6.3,0.3-9.1,0.6c-20.5,3.5-34.5,18.1-40.5,37.7
				c-1.2,3.7-1.9,7.4-2,10.8v4.2c0.2,3.7,1.1,7,2.6,9.9c4.3,8.2,13.6,13.2,27.9,13.2c4.2,0,8.2-0.1,12-0.5c5-0.5,9.7-1.3,14.5-2.2
				l5-11.6l1.7-3.9c-7,2-14.2,4-21.1,4.6c-1.5,0-2.9,0.1-4.4,0.1c-7.5,0-13.2-2.5-16-7.1c-2.1-3.5-2.6-8.3-0.8-14.2l0.8-2.3h20.4
				h32.4l1.8-5.8c1-3.5,1.7-6.7,1.9-9.5c0,0,0.4-3.2,0-5.5C445.9,113.2,445.7,112,445.2,110.5z M426.2,126.4h-16h-14.6h-2.6
				c2.9-7.9,9.2-14.3,17.3-16.4c1.7-0.4,3.5-0.6,5.3-0.6c7,0,10.7,2.6,11.7,7.1C427.7,119.1,427.4,122.5,426.2,126.4z"/>
		</g>
		<path class="st3" d="M486.3,98.5h-19.5l-22.5,73h20.5l11.4-37c4.6-14.9,14-21.3,24.6-21.3c2.7,0,5.1,0.4,7.9,1.2l3.5-16.9
			c-1.9-0.4-3.8-0.6-6-0.6c-9.1,0-16.4,4.5-22.5,11.4l-0.1-0.3L486.3,98.5z"/>
		<path class="st3" d="M626,96.5c-4.1,0-8.1,0.4-11.8,1.2c-19.9,4.1-34.6,18.2-40.5,37.1c-1.2,3.7-1.8,7.4-2,10.8v4.2
			c0.9,14.1,11.3,23.1,30.6,23.1c4.1,0,8.1-0.4,11.9-1.2c19.7-4.1,34.5-18.2,40.2-36.9c1.3-4,1.9-7.7,2.2-11v-4.2
			C655.7,105.4,645.3,96.5,626,96.5z M633.9,134.5c-3.6,11.5-10.5,20-19.7,22.8c-2.4,0.8-4.9,1.2-7.4,1.2c-13.1,0-16.9-9.5-12.4-24
			c3.6-11.4,10.5-19.7,19.9-22.7c2.3-0.6,4.7-1,7.3-1C634.5,110.8,638.4,120.2,633.9,134.5z"/>
		<polygon class="st3" points="657.7,171.1 678.2,171.1 708.6,73.3 688.1,73.3 		"/>
		<polygon class="st3" points="697.6,171.1 718.2,171.1 748.5,73.3 727.9,73.3 		"/>
		<polygon class="st1" points="209.3,64.2 209.4,64.2 210.7,84.9 213.9,84.9 227.9,64.6 227.9,64.6 221.6,84.9 224.7,84.9 
			232.1,61.1 227.4,61.1 213.5,81.2 212.6,61.1 207.6,61.1 200.2,84.9 202.9,84.9 		"/>
		<path class="st1" d="M242.9,66.9c-0.8,0-1.4,0-2.2,0.1c-4.5,0.9-7.7,4.6-9.1,9c-1.2,3.7-1,9.4,6.3,9.4c1,0,1.9-0.1,2.8-0.3
			c1-0.1,2-0.3,3.1-0.5l1.4-2.7c-1.3,0.5-2.6,0.9-4.5,1.2c-0.6,0-1.4,0-2.2,0c-4.6,0-4.9-3.5-3.8-7l0.1-0.3h5.9h7.3l0.5-1.7
			c0.3-0.8,0.4-1.5,0.5-2.2v-0.8C248.8,68.2,246.4,66.9,242.9,66.9z M245.6,73.8h-4.9h-5.3c1-2.4,2.9-4.2,5.3-4.9
			c0.6-0.1,1.3-0.3,2-0.3C245.8,68.7,246.4,70.9,245.6,73.8z"/>
		<path class="st1" d="M274.6,66.9c-2.8,0-5.4,1-7.2,3.6c0-2.6-1.9-3.6-4.4-3.6c-2.7,0-5.3,1.3-6.8,3.3l-0.1-0.1l0.9-2.8h-2.9
			l-5.5,17.7h3.1l2.9-9.9c1.2-3.5,3.8-5.9,6.8-5.9c2.3,0,3.1,1.4,2.6,3.3l-3.8,12.4h2.9l3.1-9.9c1-3.5,3.7-5.9,6.7-5.9
			c2.4,0,3.2,1.4,2.6,3.3l-3.7,12.4h2.9l4.1-13.3C279.7,68.3,277.7,66.9,274.6,66.9z"/>
		<path class="st1" d="M293.3,66.9c-0.8,0-1.7,0-2.4,0.1c-1,0.1-1.9,0.3-2.9,0.5l2-6.4h-3.1l-7.4,23.8h3.1l0.9-3.2h0.1
			c0.6,2.4,2.6,3.6,5.1,3.6c0.8,0,1.4-0.1,2.2-0.3c4.5-1,7.4-5.1,8.7-9.2c0.4-1.3,0.6-2.3,0.6-3.3v-0.8
			C300,68,297.2,66.9,293.3,66.9z M296.5,76c-0.8,2.6-2.7,5.6-5.6,6.8c-0.6,0.1-1.4,0.3-2.2,0.3c-4.2,0-4.6-3.3-3.5-6.8l1.9-6.3
			c1.2-0.4,2.4-0.8,3.7-0.9c0.5,0,0.9,0,1.4,0C296.3,69.1,297.9,71.4,296.5,76z"/>
		<path class="st1" d="M313.4,66.9c-0.8,0-1.5,0-2.3,0.1c-4.5,0.9-7.7,4.6-9,9c-1.2,3.7-1.2,9.4,6.1,9.4c1,0,1.9-0.1,2.8-0.3
			c1-0.1,2-0.3,3.2-0.5l1.3-2.7c-1.3,0.5-2.4,0.9-4.5,1.2c-0.6,0-1.3,0-2.2,0c-4.6,0-4.9-3.5-3.8-7l0.1-0.3h5.9h7.4l0.5-1.7
			c0.3-0.8,0.4-1.5,0.4-2.2v-0.8C319.3,68.2,317,66.9,313.4,66.9z M316.1,73.8h-5h-5.3c1.2-2.4,2.9-4.2,5.3-4.9
			c0.6-0.1,1.4-0.3,2-0.3C316.4,68.7,317,70.9,316.1,73.8z"/>
		<path class="st1" d="M333.2,66.9c-2.7,0-4.6,1-6,2.9L327,70l0.9-2.7h-3.1l-5.5,17.7h3.1l3.1-10c0.9-3.1,3.6-5.8,6.5-5.8
			c0.6,0,1.3,0.3,1.9,0.5l0.5-2.7C334.1,66.9,333.5,66.9,333.2,66.9z"/>
		<polygon class="st1" points="349.8,61.1 342.4,84.9 345.7,84.9 353.1,61.1 		"/>
		<polygon class="st1" points="378.4,61.1 364.5,81.2 363.6,61.1 358.6,61.1 351.2,84.9 353.9,84.9 360.3,64.2 360.4,64.2 
			361.7,84.9 364.9,84.9 378.9,64.6 372.6,84.9 375.7,84.9 383,61.1 		"/>
		<path class="st1" d="M399.4,63c2.4,0,4.2,0.5,6.1,1l0.5-2.7c-1.9-0.4-3.8-0.6-5.9-0.6c-7.9,0-14.3,4.9-16.5,12.3
			c-2.6,8.5,1.7,12.3,8.8,12.3c2.3,0,4.5-0.4,6.4-0.8l1.2-2.7c-2,0.6-4.4,1-6.8,1c-6.9,0-8.1-4.9-6.4-9.9
			C388.7,66.9,393.5,63,399.4,63z"/>
		<path class="st1" d="M433.4,63c2.6,0,4.9,0.6,7.2,1.4l0.5-2.8c-2.2-0.6-4.6-0.9-7.7-0.9c-8.7,0-15.1,5.9-17,12.3
			c-2.7,8.5,1.8,12.3,9,12.3c3.7,0,6.9-0.5,10.1-1.2l3.8-12.7h-8.5l-0.8,2.3h5.4l-2.6,8.2c-2,0.6-4.2,0.9-6.8,0.9
			c-7,0-8.1-4.9-6.5-9.9C420.9,68.9,425.3,63,433.4,63z"/>
		<path class="st1" d="M453.9,66.9c-2.5,0-4.4,1-6,2.9l-0.1,0.2v-0.1c0,0,0,0,0.1-0.1l0.7-2.5h-3.1l-5.4,17.7h2.9l3.1-10
			c1-3.1,3.6-5.8,6.5-5.8c0.6,0,1.3,0.3,1.9,0.5l0.5-2.7C454.8,66.9,454.5,66.9,453.9,66.9z"/>
		<path class="st1" d="M465.1,66.9c-1,0-1.9,0-2.8,0.3c-5.4,1.3-8.1,5.8-9.1,8.8c-1.2,3.7-1,9.4,6.1,9.4c1,0,2.1-0.1,2.9-0.4
			c5.3-1.2,8.1-5.8,9-9C472.4,72.4,472.3,66.9,465.1,66.9z M468.3,76c-0.9,2.9-2.8,5.9-6,6.8c-0.6,0.3-1.4,0.3-2.2,0.3
			c-4.6,0-5-3.5-3.8-7c1-3.6,3.2-5.9,6-6.7c0.6-0.1,1.4-0.3,2-0.3C468.3,69.1,469.7,71.5,468.3,76z"/>
		<path class="st1" d="M491.3,67.3l-2.4,7.9c-1.7,5.5-4.7,7.7-8.6,7.7c-2.1,0-4.1-1.3-3.1-4.2l3.5-11.4h-2.9l-3.8,12.2
			c-1.4,4.6,1.5,5.9,4.9,5.9c3.1,0,6-1,8.1-3.8v0.1l-1,3.3h3.1l5.5-17.7H491.3z"/>
		<path class="st1" d="M507.6,66.9c-0.9,0-1.7,0-2.6,0c-2,0.3-4,0.5-6,1l-7.7,24.8h2.9l3.5-11h0.1c0.6,2.4,2.6,3.6,5,3.6
			c0.8,0,1.5-0.1,2.2-0.3c4.6-1,7.6-5.1,8.7-9.2c0.5-1.3,0.6-2.3,0.8-3.3v-0.8C514.3,68,511.3,66.9,507.6,66.9z M510.8,76
			c-0.8,2.6-2.7,5.6-5.8,6.8c-0.6,0.1-1.3,0.3-2,0.3c-4.2,0-4.6-3.3-3.6-6.8l2-6.3c1.2-0.4,2.4-0.8,3.6-0.9c0.5,0,1,0,1.4,0
			C510.6,69.1,512.2,71.4,510.8,76z"/>
		<g>
			<path class="st2" d="M318.8,202.8c12.4-4.4,19.5-13.4,23.4-26.4l22.8-73.8l1-3.2c-9.3-1-24.7-2.9-33.9-2.9c-4.6,0-9,0.4-13.3,1.3
				c-19.1,4-35.1,16.8-42.1,39.3c-3.1,10-3,18-0.3,23.8c3.4,7.2,10.9,11,21.8,11c7.2,0,14.3-1.9,20.6-5.9c2.8-1.8,5.5-4,7.9-6.7
				l0.4-0.3l-2,6.5l-1.4,4.6c-1.4,4.4-3.1,7.8-4.9,10.6c-5.6,8.7-13.4,10.6-21.9,10.6c-9.6,0-18.4-2.6-26.9-5.8l-2.9,16
				c0.6,0.2,1.1,0.3,1.7,0.4c9.4,2.4,19.2,3.7,29.6,3.7C306.4,205.9,313.2,204.8,318.8,202.8z M318.8,155c-3.1,1.7-6.4,2.6-9.6,2.6
				c-5.7,0-9.6-2-11.6-5.6c-2.1-3.8-2.1-9.4,0-16.5c3.2-10,9.9-18.8,21.1-22.7c3.8-1.3,8.2-2,13.1-2c3.5,0,6.7,0.5,9.7,1.5l-0.9,3
				l-6.4,20.6C331.9,143.7,325.9,151.2,318.8,155z"/>
		</g>
		<path class="st3" d="M500.4,169.7c7,1.8,14.7,3.1,22.7,3.1c12.3,0,29.7-4.6,34.1-18.4c6-19.5-20.7-29.1-17.9-38.4
			c1.5-5,7.9-6,11.4-6c5.6,0,13.4,1.8,17.8,3.8l2.9-15c-6.7-1.3-13.7-2.3-20.9-2.3c-25,0-31.5,13.4-33,18.3
			c-5.8,18.6,21.5,26.6,18.1,37.8c-1.5,4.9-8.6,6.8-13.1,6.8c-7.2,0-13.4-2.7-19.5-5.4L500.4,169.7z"/>
		<path class="st3" d="M389.5,190.4c4.5,0,7.3,0.8,9.9,1.5l1.4-6.4c-3.1-0.6-6.3-1-9.4-1c-11.4,0-22.9,5.9-27,19.2
			c-4.2,13.4,3.7,19.3,15.1,19.3c3.6,0,6.8-0.4,10.2-0.9l2.7-6.5c-3.3,0.9-6.8,1.5-11,1.5c-7.6,0-11.3-5-8.6-13.4
			C375.4,195.4,382.2,190.4,389.5,190.4z"/>
		<path class="st3" d="M425.1,194.6l-4.2,13.7c-1.8,5.6-5.2,8.6-10.5,8.6c-3.1,0-4.2-2.4-3.6-4.2l5.5-18.1h-7.8l-6,19.5
			c-2,6.8,1.5,9,7.3,9c4.7,0,8.7-1.2,12-5.3h0.1l-1.4,4.6h7.8l8.6-27.8H425.1z"/>
		<path class="st3" d="M449.1,194.6l2-6.7l-8.5,1.9l-1.4,4.7h-4l-1.7,5.5h3.8l-4.9,15.8c-1.7,5.5,0.8,7.2,6,7.2
			c2.3,0,4.5-0.3,6.5-0.8l2.7-5.6c-1.5,0.4-2.9,0.5-4.4,0.5c-2.8,0-2.8-1.9-1.9-4.6l3.7-12.4h7l1.8-5.5H449.1z"/>
		<path class="st3" d="M468.2,200.1h7l1.7-5.5h-7l2.1-6.7l-8.3,1.9l-1.5,4.7h-3.8l-1.8,5.5h4l-4.9,15.8c-1.8,5.5,0.6,7.2,6,7.2
			c2.3,0,4.4-0.3,6.5-0.8l2.6-5.6c-1.4,0.4-2.8,0.5-4.2,0.5c-2.8,0-2.9-1.9-2-4.6L468.2,200.1z"/>
	</g>
	<path class="st2" d="M17.1,87.1c20-20,52.4-20,72.3,0L77.4,99.2c-13.3-13.3-34.9-13.3-48.2,0c-13.3,13.3-13.3,34.9,0,48.2
		l-12.1,12.1C-2.9,139.5-2.9,107.1,17.1,87.1L17.1,87.1z"/>
	<path class="st2" d="M77.4,147.4c13.3-13.3,13.3-34.9,0-48.2l-48.2,48.2C42.5,160.7,64.1,160.7,77.4,147.4L77.4,147.4z"/>
	<g>
		<path class="st0" d="M29.2,99.2c-13.3,13.3-13.3,34.9,0,48.2l48.2-48.2C64.1,85.9,42.5,85.9,29.2,99.2z"/>
		<path class="st0" d="M53.3,70C23.9,70,0,93.9,0,123.3c0,29.4,23.9,53.3,53.3,53.3c29.4,0,53.3-23.9,53.3-53.3
			C106.6,93.9,82.7,70,53.3,70z M77.4,147.4c-13.3,13.3-34.9,13.3-48.2,0l-12.1,12.1c-9.3-9.3-15-22-15-36.2
			c0-28.2,22.9-51.2,51.2-51.2c14.1,0,26.9,5.7,36.2,15L77.4,99.2C90.7,112.5,90.7,134.1,77.4,147.4z"/>
	</g>
</g>
</svg>
