<?xml version="1.0" encoding="utf-8"?>
<!-- Generator: Adobe Illustrator 26.3.1, SVG Export Plug-In . SVG Version: 6.00 Build 0)  -->
<svg version="1.1" id="ita_x5F_logo" xmlns="http://www.w3.org/2000/svg" xmlns:xlink="http://www.w3.org/1999/xlink" x="0px"
	 y="0px" viewBox="0 0 297.6 175.9" style="enable-background:new 0 0 297.6 175.9;" xml:space="preserve">
<style type="text/css">
	.st0{fill:#C7C8CA;}
	.st1{fill-rule:evenodd;clip-rule:evenodd;fill:#FFFFFF;}
	.st2{fill:#FFFFFF;}
	.st3{fill:#1D1D1B;}
	.st4{fill:#0096C3;}
	.st5{fill-rule:evenodd;clip-rule:evenodd;fill:#1D1D1B;}
	.st6{fill-rule:evenodd;clip-rule:evenodd;fill:#0096C3;}
</style>
<rect y="0" class="st0" width="297.6" height="175.9"/>
<g>
	<g>
		<g>
			<path class="st1" d="M52,80.3c0,18,14.6,32.6,32.6,32.6c18,0,32.6-14.6,32.6-32.6c0-18-14.6-32.6-32.6-32.6
				C66.6,47.7,52,62.3,52,80.3z"/>
		</g>
	</g>
	<g>
		<g>
			<g>
				<path class="st2" d="M140.7,117.5h-34.2l16-75.7h44.6c13,0,22.4,1.5,28.7,4.5c7.6,3.7,11.8,10.2,11.8,18.5c0,1.9-0.2,4-0.7,6.1
					c-1.9,9.7-7.7,17-16.8,21.1c-7.1,3.1-17.1,4.7-30.6,4.7h-14.4L140.7,117.5z M126.8,101h0.6l9-42.8h-0.6L126.8,101z M185.9,60.1
					c1.6,2.5,2,5.1,2,7.2c0,1.2-0.1,2.4-0.4,3.8c-0.3,1.5-0.8,3-1.6,4.5c2.6-1.8,4.1-4.3,4.8-7.8c0.2-1.2,0.3-2.1,0.3-3
					c0-1.7-0.4-2.7-2.5-3.7C188,60.8,187.1,60.5,185.9,60.1z M150.9,69.8h11c3.2,0,5.5-0.3,7-0.7c-1.1-0.1-2.5-0.2-4.3-0.2H151
					L150.9,69.8z"/>
			</g>
			<g>
				<path class="st2" d="M287.5,117.5h-37.4l-4.6-14.2h-25.9l-10.1,14.2h-39.8l60.6-75.7h28.1L287.5,117.5z M262.1,101h1.4l-9.2-24
					l5.4,15.8h-0.2L262.1,101z"/>
			</g>
		</g>
		<g>
			<g>
				<path class="st3" d="M134,109.2h-17.4L129.2,50h37.9c11.6,0,20,1.2,25.1,3.7c4.8,2.3,7.2,6,7.2,11.1c0,1.4-0.2,2.9-0.5,4.5
					c-1.4,7.1-5.4,12.2-12,15.2c-5.9,2.6-15,4-27.2,4h-21.1L134,109.2z M164.5,60.6h-20.2L140.7,78h21.1c10.6,0,16.4-2.9,17.6-8.7
					c0.2-0.8,0.2-1.5,0.2-2.1C179.7,62.9,174.6,60.6,164.5,60.6z"/>
				<path class="st2" d="M135.2,110.7h-20.3L128,48.5h39.1c12,0,20.4,1.3,25.7,3.9c5.3,2.6,8,6.7,8,12.4c0,1.5-0.2,3.1-0.5,4.8
					c-1.5,7.6-5.8,13-12.9,16.2c-6.1,2.7-15.4,4.1-27.8,4.1h-19.9L135.2,110.7z M118.4,107.8h14.4l4.5-20.8h22.3
					c11.9,0,20.9-1.3,26.6-3.8c6.2-2.8,9.9-7.4,11.2-14.1c0.3-1.6,0.5-3,0.5-4.3c0-4.5-2.1-7.8-6.4-9.8c-4.8-2.4-13.1-3.6-24.4-3.6
					h-36.7L118.4,107.8z M161.8,79.5h-22.9l4.2-20.3h21.4c11,0,16.6,2.7,16.6,8.1c0,0.7-0.1,1.5-0.3,2.4
					C179.5,76.2,173.1,79.5,161.8,79.5z M142.5,76.6h19.3c9.7,0,15.2-2.5,16.2-7.5c0.1-0.7,0.2-1.3,0.2-1.8c0-4.3-7.5-5.2-13.7-5.2
					h-19L142.5,76.6z"/>
			</g>
			<g>
				<path class="st3" d="M205.2,109.2h-18.5L234.2,50h18.5l22.8,59.3h-19.4l-4.6-14.2h-36.1L205.2,109.2z M223.3,84.6h24.8
					l-7.7-22.7L223.3,84.6z"/>
				<path class="st2" d="M277.6,110.7H255l-4.6-14.2h-34.3L206,110.7h-22.2l49.7-62.1h20.2L277.6,110.7z M257.1,107.8h16.2
					l-21.7-56.4h-16.8l-45.1,56.4h14.7l10.1-14.2h37.9L257.1,107.8z M250.1,86.1h-29.7l20.4-27.2L250.1,86.1z M226.2,83.2h19.9
					L239.9,65L226.2,83.2z"/>
			</g>
		</g>
		<g>
			<g>
				<path class="st3" d="M137.9,114h-27.1l14.5-68.7h41.7c12.5,0,21.4,1.4,27.1,4.2c6.4,3.1,9.8,8.4,9.8,15.4c0,1.7-0.2,3.5-0.6,5.5
					c-1.7,8.7-6.6,14.9-14.7,18.6c-6.6,2.9-16.1,4.4-29.1,4.4h-17.3L137.9,114z M122.5,104.5h7.7l4.5-20.8h24.9
					c11.5,0,20-1.2,25.3-3.5c5.3-2.3,8.2-6.1,9.3-11.7c0.3-1.4,0.4-2.6,0.4-3.6c0-3.3-1.3-5.3-4.5-6.9c-3-1.5-9.5-3.2-23-3.2H133
					L122.5,104.5z M161.8,82.8h-26.9l5.6-26.9h24c13.2,0,19.9,3.8,19.9,11.4c0,0.9-0.1,1.9-0.4,3.1C182.9,76,178.1,82.8,161.8,82.8z
					 M146.5,73.3h15.3c5.5,0,12.2-0.8,13-4.9c0.1-0.6,0.1-0.9,0.1-1.1c0-0.1-1.5-1.9-10.4-1.9h-16.3L146.5,73.3z"/>
			</g>
			<g>
				<path class="st3" d="M282.4,114h-29.7L248,99.8h-30.2L207.7,114h-30.8l55-68.7h24L282.4,114z M259.5,104.5h9l-19.2-49.8h-6.5
					l11.8,34.6h-40.9l26.1-34.6h-3.4l-39.8,49.8h6.2l10.1-14.2h42L259.5,104.5z M232.8,79.9h8.7l-2.7-7.9L232.8,79.9z"/>
			</g>
		</g>
		<g>
			<g>
				<path class="st2" d="M134,109.2h-17.4L129.2,50h37.9c11.6,0,20,1.2,25.1,3.7c4.8,2.3,7.2,6,7.2,11.1c0,1.4-0.2,2.9-0.5,4.5
					c-1.4,7.1-5.4,12.2-12,15.2c-5.9,2.6-15,4-27.2,4h-21.1L134,109.2z M164.5,60.6h-20.2L140.7,78h21.1c10.6,0,16.4-2.9,17.6-8.7
					c0.2-0.8,0.2-1.5,0.2-2.1C179.7,62.9,174.6,60.6,164.5,60.6z"/>
			</g>
			<g>
				<path class="st2" d="M205.2,109.2h-18.5L234.2,50h18.5l22.8,59.3h-19.4l-4.6-14.2h-36.1L205.2,109.2z M223.3,84.6h24.8
					l-7.7-22.7L223.3,84.6z"/>
			</g>
		</g>
		<g>
			<g>
				<path class="st4" d="M134.9,110.3h-19.5l13-61.3h38.7c11.9,0,20.3,1.2,25.5,3.8c5.1,2.5,7.7,6.5,7.7,12.1c0,1.4-0.2,3-0.5,4.7
					c-1.4,7.5-5.7,12.8-12.6,15.9c-6,2.7-15.3,4-27.6,4h-20.3L134.9,110.3z M117.9,108.2h15.3l4.5-20.8h21.9c12,0,21-1.3,26.8-3.9
					c6.4-2.8,10.1-7.6,11.4-14.4c0.3-1.6,0.5-3,0.5-4.3c0-4.7-2.2-8.1-6.6-10.2c-4.9-2.4-13.2-3.6-24.6-3.6H130L117.9,108.2z
					 M161.8,79h-22.4l4.1-19.4h21c10.7,0,16.2,2.6,16.2,7.7c0,0.7-0.1,1.4-0.3,2.3C179.1,75.9,172.9,79,161.8,79z M142,77h19.8
					c9.9,0,15.5-2.6,16.6-7.8c0.2-0.7,0.2-1.3,0.2-1.8c0-3.7-4.8-5.6-14.1-5.6h-19.4L142,77z"/>
			</g>
			<g>
				<path class="st4" d="M277,110.3h-21.6l-4.6-14.2h-34.8l-10.1,14.2h-21.1l49-61.3h19.7L277,110.3z M256.8,108.2H274l-22-57.2
					h-17.3l-45.7,57.2h15.8L214.9,94h37.4L256.8,108.2z M249.5,85.6h-28.3l19.5-25.9L249.5,85.6z M225.4,83.6h21.3L240,64.1
					L225.4,83.6z"/>
			</g>
		</g>
	</g>
	<g>
		<g>
			<g>
				<path class="st2" d="M47.2,117.5H12l16.1-75.7h35L47.2,117.5z M32.4,101h1.4l9-42.8h-1.4L32.4,101z"/>
			</g>
		</g>
		<g>
			<g>
				<path class="st3" d="M34.8,50h18.2l-12.5,59.3H22.2L34.8,50z"/>
				<path class="st2" d="M41.7,110.7H20.4l13.2-62.1h21.2L41.7,110.7z M24,107.8h15.3l11.9-56.4H36L24,107.8z"/>
			</g>
		</g>
		<g>
			<g>
				<path class="st3" d="M44.4,114h-28L31,45.3h27.9L44.4,114z M28.1,104.5h8.6l10.5-49.8h-8.5L28.1,104.5z"/>
			</g>
		</g>
		<g>
			<g>
				<path class="st4" d="M34.8,50h18.2l-12.5,59.3H22.2L34.8,50z"/>
			</g>
		</g>
		<g>
			<g>
				<path class="st2" d="M41.4,110.3H21L34,49h20.3L41.4,110.3z M23.5,108.2h16.2L51.8,51H35.7L23.5,108.2z"/>
			</g>
		</g>
	</g>
	<g>
		<g>
			<g>
				<path class="st5" d="M55.4,80.3c0,16,13,29.1,29.1,29.1c16,0,29.1-13,29.1-29.1c0-16-13-29.1-29.1-29.1
					C68.5,51.2,55.4,64.3,55.4,80.3z"/>
			</g>
		</g>
		<g>
			<g>
				<path class="st1" d="M59,80.3c0,14,11.4,25.5,25.5,25.5c14,0,25.5-11.4,25.5-25.5c0-14-11.4-25.5-25.5-25.5
					C70.4,54.8,59,66.3,59,80.3z"/>
			</g>
		</g>
		<g>
			<g>
				<path class="st6" d="M107.6,80.3c0,12.8-10.3,23.1-23.1,23.1c-12.8,0-23.1-10.3-23.1-23.1c0-12.8,10.3-23.1,23.1-23.1
					C97.2,57.2,107.6,67.5,107.6,80.3z"/>
			</g>
		</g>
		<g>
			<g>
				<path class="st5" d="M68.1,96.6c4.2,4.2,10,6.8,16.3,6.8c12.8,0,23.1-10.3,23.1-23.1c0-6.4-2.6-12.2-6.8-16.3L68.1,96.6z"/>
			</g>
		</g>
		<g>
			<g>
				<path class="st6" d="M99.8,80.3c0,8.4-6.8,15.3-15.3,15.3c-8.5,0-15.3-6.8-15.3-15.3S76,65,84.5,65C92.9,65,99.8,71.9,99.8,80.3
					z"/>
			</g>
		</g>
		<g>
			<g>
				<path class="st5" d="M73.7,91.1c-2.8-2.8-4.5-6.6-4.5-10.8C69.2,71.9,76,65,84.5,65c4.2,0,8,1.7,10.8,4.5L73.7,91.1z"/>
			</g>
		</g>
	</g>
	<g>
		<g>
			<path class="st3" d="M84.5,103.7c-12.9,0-23.4-10.5-23.4-23.4s10.5-23.4,23.4-23.4c12.9,0,23.4,10.5,23.4,23.4
				S97.4,103.7,84.5,103.7z M84.5,57.5c-12.6,0-22.8,10.2-22.8,22.8c0,12.6,10.2,22.8,22.8,22.8c12.6,0,22.8-10.2,22.8-22.8
				C107.3,67.7,97,57.5,84.5,57.5z"/>
		</g>
	</g>
	<g>
		<g>
			<polygon class="st2" points="286.5,134.2 8.5,134.2 11.1,121.8 289.1,121.8 			"/>
		</g>
	</g>
	<g>
		<g>
			<g>
				<path class="st3" d="M14.2,124.2h2.3l-1.6,7.5h-2.3L14.2,124.2z"/>
			</g>
		</g>
		<g>
			<g>
				<path class="st3" d="M18.9,131.7h-2.3l1.6-7.5h2.8l3.1,5.4l1.1-5.4h2.2l-1.6,7.5h-2.5l-3.3-5.6L18.9,131.7z"/>
			</g>
		</g>
		<g>
			<g>
				<path class="st3" d="M34.3,130.3l0.4-1.7h-2.9l0.3-1.3h5.2l-0.9,4.4h-4.7c-2.9,0-4.3-0.9-4.3-2.7c0-0.3,0-0.6,0.1-0.9
					c0.3-1.4,0.9-2.4,2-3c0.9-0.6,2.2-0.9,3.8-0.9h4.7l-0.3,1.3h-4.7c-0.8,0-1.4,0.2-1.9,0.5c-0.6,0.4-0.9,1.1-1.1,2
					c-0.1,0.3-0.1,0.6-0.1,0.8c0,1,0.7,1.5,2.1,1.5H34.3z"/>
			</g>
		</g>
		<g>
			<g>
				<path class="st3" d="M46.9,124.2l-0.3,1.3H43c-1.5,0-2.5,0.6-2.8,1.7h6.1l-0.3,1.3h-6.1c0,0.2-0.1,0.4-0.1,0.5
					c0,0.5,0.2,0.8,0.5,1c0.3,0.2,0.9,0.3,1.6,0.3h3.6l-0.3,1.3h-3.7c-2.8,0-4.2-0.9-4.2-2.7c0-0.3,0-0.6,0.1-0.9
					c0.3-1.2,0.8-2.2,1.6-2.8c1-0.7,2.3-1.1,4.1-1.1H46.9z"/>
			</g>
		</g>
		<g>
			<g>
				<path class="st3" d="M48.8,131.7h-2.2l1.6-7.5h5.4c1.1,0,1.9,0.1,2.4,0.4c0.5,0.3,0.8,0.7,0.8,1.3c0,0.2,0,0.3-0.1,0.5
					c-0.1,0.5-0.4,1-0.8,1.3c-0.4,0.4-1,0.6-1.7,0.7l1.9,3.1h-2.5l-1.7-2.9h-2.6L48.8,131.7z M52.8,125.6h-2.7l-0.4,1.9h2.7
					c0.7,0,1.3-0.1,1.6-0.2s0.5-0.4,0.6-0.8c0-0.1,0-0.2,0-0.3C54.6,125.8,54,125.6,52.8,125.6z"/>
			</g>
		</g>
		<g>
			<g>
				<path class="st3" d="M61.6,124.2h5.8l-0.3,1.3h-5.4c-0.5,0-0.9,0.1-1.2,0.2c-0.5,0.2-0.7,0.5-0.7,0.9c0,0.4,0.4,0.7,1.2,0.7h2.9
					c1.1,0,1.8,0.1,2.3,0.4c0.5,0.2,0.7,0.6,0.7,1.1c0,0.2,0,0.4-0.1,0.6c-0.2,0.7-0.6,1.3-1.2,1.6c-0.7,0.4-1.7,0.6-3,0.6h-5.8
					l0.3-1.3h5.5c0.7,0,1.2-0.1,1.4-0.3c0.2-0.1,0.4-0.4,0.5-0.7c0-0.1,0-0.1,0-0.2c0-0.4-0.5-0.6-1.4-0.6h-2.6
					c-2.1,0-3.1-0.5-3.1-1.6c0-0.2,0-0.3,0.1-0.5c0.2-0.7,0.6-1.3,1.2-1.7C59.3,124.4,60.3,124.2,61.6,124.2z"/>
			</g>
		</g>
		<g>
			<g>
				<path class="st3" d="M73.4,124.1c1.4,0,2.5,0.2,3.2,0.6c0.9,0.5,1.3,1.2,1.3,2.3c0,0.3,0,0.7-0.1,1c-0.6,2.6-2.6,3.9-6.1,3.9
					c-3,0-4.5-1-4.5-2.9c0-0.3,0-0.7,0.1-1C67.9,125.4,69.9,124.1,73.4,124.1z M69.7,128c-0.1,0.3-0.1,0.5-0.1,0.8
					c0,1.2,0.8,1.8,2.4,1.8c1.9,0,3-0.9,3.4-2.6c0.1-0.3,0.1-0.6,0.1-0.8c0-1.2-0.8-1.8-2.4-1.8C71.2,125.4,70.1,126.2,69.7,128z"/>
			</g>
		</g>
		<g>
			<g>
				<path class="st3" d="M84.9,130.5l-0.3,1.2h-2.8c-1.3,0-2.2-0.1-2.8-0.4c-0.7-0.3-1.1-0.9-1.1-1.7c0-0.3,0-0.6,0.1-0.9l0.9-4.4
					h2.2l-0.9,4.1c-0.1,0.5-0.2,0.9-0.2,1.1c0,0.4,0.1,0.6,0.4,0.8c0.3,0.2,0.9,0.3,1.7,0.3H84.9z"/>
			</g>
		</g>
		<g>
			<g>
				<path class="st3" d="M91.9,130.5l-0.3,1.2h-2.8c-1.3,0-2.2-0.1-2.8-0.4c-0.7-0.3-1.1-0.9-1.1-1.7c0-0.3,0-0.6,0.1-0.9l0.9-4.4
					h2.2l-0.9,4.1c-0.1,0.5-0.2,0.9-0.2,1.1c0,0.4,0.1,0.6,0.4,0.8c0.3,0.2,0.9,0.3,1.7,0.3H91.9z"/>
			</g>
		</g>
		<g>
			<g>
				<path class="st3" d="M99.3,131.7h-2.2l1.6-7.5h4.8c1.5,0,2.5,0.2,3.2,0.5c0.6,0.3,0.9,0.8,0.9,1.4c0,0.2,0,0.4-0.1,0.6
					c-0.2,0.9-0.7,1.5-1.5,1.9c-0.8,0.3-1.9,0.5-3.4,0.5h-2.7L99.3,131.7z M103.1,125.6h-2.5l-0.5,2.2h2.7c1.3,0,2.1-0.4,2.2-1.1
					c0-0.1,0-0.2,0-0.3C105,125.9,104.4,125.6,103.1,125.6z"/>
			</g>
		</g>
		<g>
			<g>
				<path class="st3" d="M116.6,124.2l-0.3,1.3h-3.6c-1.5,0-2.5,0.6-2.8,1.7h6.1l-0.3,1.3h-6.1c0,0.2-0.1,0.4-0.1,0.5
					c0,0.5,0.2,0.8,0.5,1c0.3,0.2,0.9,0.3,1.6,0.3h3.6l-0.3,1.3h-3.7c-2.8,0-4.2-0.9-4.2-2.7c0-0.3,0-0.6,0.1-0.9
					c0.3-1.2,0.8-2.2,1.6-2.8c1-0.7,2.3-1.1,4.1-1.1H116.6z"/>
			</g>
		</g>
		<g>
			<g>
				<path class="st3" d="M118.5,131.7h-2.2l1.6-7.5h5.4c1.1,0,1.9,0.1,2.4,0.4c0.5,0.3,0.8,0.7,0.8,1.3c0,0.2,0,0.3-0.1,0.5
					c-0.1,0.5-0.4,1-0.8,1.3c-0.4,0.4-1,0.6-1.7,0.7l1.9,3.1h-2.5l-1.7-2.9h-2.6L118.5,131.7z M122.5,125.6h-2.7l-0.4,1.9h2.7
					c0.7,0,1.3-0.1,1.6-0.2s0.5-0.4,0.6-0.8c0-0.1,0-0.2,0-0.3C124.3,125.8,123.7,125.6,122.5,125.6z"/>
			</g>
		</g>
		<g>
			<g>
				<path class="st3" d="M128.8,131.7h-2.2l0.7-3.4c0.3-1.2,0.6-2.1,1.2-2.7c0.5-0.6,1.1-0.9,2-1.1c0.6-0.2,1.6-0.2,2.9-0.2h3.3
					l-0.3,1.3h-3.5c-0.9,0-1.6,0.1-2,0.4c-0.5,0.3-0.9,0.8-1.1,1.4h6.3l-0.3,1.3h-6.3L128.8,131.7z"/>
			</g>
		</g>
		<g>
			<g>
				<path class="st3" d="M142.5,124.1c1.4,0,2.5,0.2,3.2,0.6c0.9,0.5,1.3,1.2,1.3,2.3c0,0.3,0,0.7-0.1,1c-0.6,2.6-2.6,3.9-6.1,3.9
					c-3,0-4.5-1-4.5-2.9c0-0.3,0-0.7,0.1-1C137,125.4,139,124.1,142.5,124.1z M138.9,128c-0.1,0.3-0.1,0.5-0.1,0.8
					c0,1.2,0.8,1.8,2.4,1.8c1.9,0,3-0.9,3.4-2.6c0.1-0.3,0.1-0.6,0.1-0.8c0-1.2-0.8-1.8-2.4-1.8C140.3,125.4,139.2,126.2,138.9,128z
					"/>
			</g>
		</g>
		<g>
			<g>
				<path class="st3" d="M149.5,131.7h-2.2l1.6-7.5h5.4c1.1,0,1.9,0.1,2.4,0.4c0.5,0.3,0.8,0.7,0.8,1.3c0,0.2,0,0.3-0.1,0.5
					c-0.1,0.5-0.4,1-0.8,1.3c-0.4,0.4-1,0.6-1.7,0.7l1.9,3.1h-2.5l-1.7-2.9h-2.6L149.5,131.7z M153.5,125.6h-2.7l-0.4,1.9h2.7
					c0.7,0,1.3-0.1,1.6-0.2s0.5-0.4,0.6-0.8c0-0.1,0-0.2,0-0.3C155.3,125.8,154.7,125.6,153.5,125.6z"/>
			</g>
		</g>
		<g>
			<g>
				<path class="st3" d="M160.1,131.7h-2.3l1.6-7.5h3.2l1.4,5.7l3.9-5.7h3.2l-1.6,7.5h-2.2l1.4-5.8l-3.9,5.8h-2.3l-1.5-5.9
					L160.1,131.7z"/>
			</g>
		</g>
		<g>
			<g>
				<path class="st3" d="M173,131.7h-2.3l6-7.5h2.3l2.9,7.5h-2.4l-0.6-1.8h-4.5L173,131.7z M175.2,128.6h3.1l-1-2.9L175.2,128.6z"/>
			</g>
		</g>
		<g>
			<g>
				<path class="st3" d="M184.7,131.7h-2.3l1.6-7.5h2.8l3.1,5.4l1.1-5.4h2.2l-1.6,7.5h-2.5l-3.3-5.6L184.7,131.7z"/>
			</g>
		</g>
		<g>
			<g>
				<path class="st3" d="M202.2,124.2l-0.3,1.3h-3.6c-0.8,0-1.5,0.2-2,0.6c-0.6,0.4-1,1.1-1.2,2.2c-0.1,0.3-0.1,0.6-0.1,0.8
					c0,0.6,0.2,1,0.6,1.2c0.3,0.1,0.8,0.2,1.6,0.2h3.6l-0.3,1.3h-3.7c-2.8,0-4.2-0.9-4.2-2.7c0-0.3,0-0.6,0.1-0.9
					c0.3-1.2,0.8-2.2,1.6-2.8c1-0.7,2.3-1.1,4.1-1.1H202.2z"/>
			</g>
		</g>
		<g>
			<g>
				<path class="st3" d="M211.4,124.2l-0.3,1.3h-3.6c-1.5,0-2.5,0.6-2.8,1.7h6.1l-0.3,1.3h-6.1c0,0.2-0.1,0.4-0.1,0.5
					c0,0.5,0.2,0.8,0.5,1c0.3,0.2,0.9,0.3,1.6,0.3h3.6l-0.3,1.3h-3.7c-2.8,0-4.2-0.9-4.2-2.7c0-0.3,0-0.6,0.1-0.9
					c0.3-1.2,0.8-2.2,1.6-2.8c1-0.7,2.3-1.1,4.1-1.1H211.4z"/>
			</g>
		</g>
		<g>
			<g>
				<path class="st3" d="M218.3,131.7H216l6-7.5h2.3l2.9,7.5h-2.4l-0.6-1.8h-4.5L218.3,131.7z M220.6,128.6h3.1l-1-2.9L220.6,128.6z
					"/>
			</g>
		</g>
		<g>
			<g>
				<path class="st3" d="M232.6,131.7h-4.8l1.6-7.5h4.8c2.8,0,4.2,0.9,4.2,2.8c0,0.3,0,0.7-0.1,1.1
					C237.8,130.5,235.9,131.7,232.6,131.7z M233.9,125.5h-2.5l-1,4.9h2.5c0.9,0,1.6-0.1,2-0.4c0.5-0.3,0.8-1,1.1-2
					c0.1-0.4,0.1-0.8,0.1-1c0-0.5-0.2-0.9-0.5-1.1C235.2,125.7,234.7,125.5,233.9,125.5z"/>
			</g>
		</g>
		<g>
			<g>
				<path class="st3" d="M249.6,124.2l-5.9,7.5h-2.3l-3-7.5h2.5l2,5.6l4.4-5.6H249.6z"/>
			</g>
		</g>
		<g>
			<g>
				<path class="st3" d="M250.9,124.2h2.3l-1.6,7.5h-2.3L250.9,124.2z"/>
			</g>
		</g>
		<g>
			<g>
				<path class="st3" d="M257.8,124.2h5.8l-0.3,1.3h-5.4c-0.5,0-0.9,0.1-1.2,0.2c-0.5,0.2-0.7,0.5-0.7,0.9c0,0.4,0.4,0.7,1.2,0.7
					h2.9c1.1,0,1.8,0.1,2.3,0.4c0.5,0.2,0.7,0.6,0.7,1.1c0,0.2,0,0.4-0.1,0.6c-0.2,0.7-0.6,1.3-1.2,1.6c-0.7,0.4-1.7,0.6-3,0.6H253
					l0.3-1.3h5.5c0.7,0,1.2-0.1,1.4-0.3c0.2-0.1,0.4-0.4,0.5-0.7c0-0.1,0-0.1,0-0.2c0-0.4-0.5-0.6-1.4-0.6h-2.6
					c-2.1,0-3.1-0.5-3.1-1.6c0-0.2,0-0.3,0.1-0.5c0.2-0.7,0.6-1.3,1.2-1.7C255.5,124.4,256.5,124.2,257.8,124.2z"/>
			</g>
		</g>
		<g>
			<g>
				<path class="st3" d="M269.6,124.1c1.4,0,2.5,0.2,3.2,0.6c0.9,0.5,1.3,1.2,1.3,2.3c0,0.3,0,0.7-0.1,1c-0.6,2.6-2.6,3.9-6.1,3.9
					c-3,0-4.5-1-4.5-2.9c0-0.3,0-0.7,0.1-1C264.1,125.4,266.1,124.1,269.6,124.1z M265.9,128c-0.1,0.3-0.1,0.5-0.1,0.8
					c0,1.2,0.8,1.8,2.4,1.8c1.9,0,3-0.9,3.4-2.6c0.1-0.3,0.1-0.6,0.1-0.8c0-1.2-0.8-1.8-2.4-1.8C267.4,125.4,266.3,126.2,265.9,128z
					"/>
			</g>
		</g>
		<g>
			<g>
				<path class="st3" d="M276.6,131.7h-2.2l1.6-7.5h5.4c1.1,0,1.9,0.1,2.4,0.4c0.5,0.3,0.8,0.7,0.8,1.3c0,0.2,0,0.3-0.1,0.5
					c-0.1,0.5-0.4,1-0.8,1.3c-0.4,0.4-1,0.6-1.7,0.7l1.9,3.1h-2.5l-1.7-2.9h-2.6L276.6,131.7z M280.6,125.6h-2.7l-0.4,1.9h2.7
					c0.7,0,1.3-0.1,1.6-0.2s0.5-0.4,0.6-0.8c0-0.1,0-0.2,0-0.3C282.4,125.8,281.8,125.6,280.6,125.6z"/>
			</g>
		</g>
	</g>
</g>
</svg>
