<?xml version="1.0" encoding="utf-8"?>
<!-- Generator: Adobe Illustrator 26.3.1, SVG Export Plug-In . SVG Version: 6.00 Build 0)  -->
<svg version="1.1" id="Layer_1" xmlns="http://www.w3.org/2000/svg" xmlns:xlink="http://www.w3.org/1999/xlink" x="0px" y="0px"
	 viewBox="0 0 389.9 109.3" style="enable-background:new 0 0 389.9 109.3;" xml:space="preserve">
<style type="text/css">
	.st0{fill:#FFFFFF;}
	.st1{fill-rule:evenodd;clip-rule:evenodd;fill:#FFFFFF;}
	.st2{fill:#1D1D1B;}
	.st3{fill:#0096C3;}
	.st4{fill-rule:evenodd;clip-rule:evenodd;fill:#1D1D1B;}
	.st5{fill-rule:evenodd;clip-rule:evenodd;fill:#0096C3;}
</style>
<g>
	<g>
		<g>
			<polygon class="st0" points="348.7,92.9 178.2,92.9 44.7,92.9 41.2,109.3 184.6,109.3 345.5,109.3 345.2,109.3 348.7,92.9 			"/>
		</g>
	</g>
	<g>
		<g>
			<path class="st1" d="M92.2,44.7c0,20.8,17,37.8,37.8,37.8c20.9,0,37.8-17,37.8-37.8c0-20.8-17-37.8-37.8-37.8
				C109.1,6.9,92.2,23.9,92.2,44.7z"/>
		</g>
	</g>
	<g>
		<g>
			<g>
				<path class="st0" d="M217.5,87.8h-40.5L189,31.3h-30.8l6.7-31.1h102.4l-6.7,31.1h-31L217.5,87.8z M200.7,68.7h1.4l10.5-49.4
					h-1.5L200.7,68.7z"/>
			</g>
			<g>
				<path class="st0" d="M346.8,87.8h-43.3l-5.4-16.4h-30l-11.8,16.4h-46.2L280.3,0h32.6L346.8,87.8z M317.3,68.7h1.6L308.2,41
					l6.2,18.3h-0.2L317.3,68.7z"/>
			</g>
		</g>
		<g>
			<g>
				<path class="st2" d="M209.8,78.3h-20.9l11.9-56.6H170l2.6-11.9h82.9l-2.6,11.9h-31.1L209.8,78.3z"/>
				<path class="st0" d="M211.2,80h-24.4l11.9-56.6H168l3.3-15.3h86.3l-3.3,15.3h-31.1L211.2,80z M190.9,76.6h17.5l12-56.6h31.1
					l1.9-8.6H174l-1.9,8.6h30.8L190.9,76.6z"/>
			</g>
			<g>
				<path class="st2" d="M251.4,78.3H230l55-68.7h21.4l26.5,68.7h-22.5L305,61.8h-41.9L251.4,78.3z M272.3,49.7h28.8l-9-26.3
					L272.3,49.7z"/>
				<path class="st0" d="M335.3,80h-26.1l-5.4-16.4H264L252.2,80h-25.8l57.6-72.1h23.4L335.3,80z M311.6,76.6h18.8l-25.2-65.4h-19.5
					l-52.3,65.4h17.1l11.8-16.4h43.9L311.6,76.6z M303.4,51.4H269l23.7-31.5L303.4,51.4z M275.7,48h23.1L291.5,27L275.7,48z"/>
			</g>
		</g>
		<g>
			<g>
				<path class="st2" d="M214.3,83.8h-32.2L194,27.2h-30.8l5-22.9h94.1l-5,22.9h-31.1L214.3,83.8z M195.6,72.8h9.7l12-56.6h31.1
					l0.2-1h-71.6l-0.2,1h30.7L195.6,72.8z"/>
			</g>
			<g>
				<path class="st2" d="M340.8,83.8h-34.5L301,67.3H266l-11.8,16.4h-35.7l63.8-79.7h27.8L340.8,83.8z M314.4,72.8h10.5l-22.2-57.7
					h-7.5l13.7,40.1h-47.5l30.2-40.1h-3.9l-46.2,57.7h7.2l11.8-16.4H309L314.4,72.8z M283.3,44.2h10.1l-3.1-9.2L283.3,44.2z"/>
			</g>
		</g>
		<g>
			<g>
				<path class="st0" d="M209.8,78.3h-20.9l11.9-56.6H170l2.6-11.9h82.9l-2.6,11.9h-31.1L209.8,78.3z"/>
			</g>
			<g>
				<path class="st0" d="M251.4,78.3H230l55-68.7h21.4l26.5,68.7h-22.5L305,61.8h-41.9L251.4,78.3z M272.3,49.7h28.8l-9-26.3
					L272.3,49.7z"/>
			</g>
		</g>
		<g>
			<g>
				<path class="st3" d="M210.8,79.5h-23.4l11.9-56.6h-30.8l3.1-14.3H257l-3.1,14.3h-31.1L210.8,79.5z M190.3,77.1h18.5l12-56.6
					h31.1l2.1-9.6h-80.4l-2.1,9.6h30.8L190.3,77.1z"/>
			</g>
			<g>
				<path class="st3" d="M334.6,79.5h-25.1L304.1,63h-40.4L252,79.5h-24.5l56.9-71.1h22.8L334.6,79.5z M311.2,77.1h19.9l-25.6-66.3
					h-20l-53.1,66.3h18.3l11.8-16.4h43.3L311.2,77.1z M302.8,50.9h-32.8l22.6-30L302.8,50.9z M274.7,48.5h24.7l-7.7-22.6L274.7,48.5
					z"/>
			</g>
		</g>
	</g>
	<g>
		<g>
			<g>
				<path class="st0" d="M86.6,87.8H45.8L64.5,0h40.7L86.6,87.8z M69.4,68.7h1.7l10.5-49.6H80L69.4,68.7z"/>
			</g>
		</g>
		<g>
			<g>
				<path class="st2" d="M72.3,9.6h21.1L78.9,78.3H57.6L72.3,9.6z"/>
				<path class="st0" d="M80.2,80H55.6L70.9,7.9h24.6L80.2,80z M59.7,76.6h17.8l13.8-65.4H73.6L59.7,76.6z"/>
			</g>
		</g>
		<g>
			<g>
				<path class="st2" d="M83.3,83.8H50.8l17-79.7h32.4L83.3,83.8z M64.4,72.8h10l12.2-57.7h-9.9L64.4,72.8z"/>
			</g>
		</g>
		<g>
			<g>
				<path class="st3" d="M72.3,9.6h21.1L78.9,78.3H57.6L72.3,9.6z"/>
			</g>
		</g>
		<g>
			<g>
				<path class="st0" d="M79.8,79.5H56.2L71.3,8.4h23.6L79.8,79.5z M59.1,77.1h18.8l14-66.3H73.2L59.1,77.1z"/>
			</g>
		</g>
	</g>
	<g>
		<g>
			<g>
				<path class="st4" d="M96.1,44.7c0,18.6,15.1,33.7,33.7,33.7c18.6,0,33.7-15.1,33.7-33.7c0-18.6-15.1-33.7-33.7-33.7
					C111.2,11,96.1,26.1,96.1,44.7z"/>
			</g>
		</g>
		<g>
			<g>
				<path class="st1" d="M100.3,44.7c0,16.3,13.2,29.6,29.5,29.6c16.3,0,29.5-13.3,29.5-29.6c0-16.3-13.3-29.6-29.5-29.6
					C113.5,15.2,100.3,28.4,100.3,44.7z"/>
			</g>
		</g>
		<g>
			<g>
				<path class="st5" d="M156.6,44.7c0,14.8-12,26.8-26.8,26.8c-14.8,0-26.8-12-26.8-26.8c0-14.8,12-26.8,26.8-26.8
					C144.6,17.9,156.6,29.9,156.6,44.7z"/>
			</g>
		</g>
		<g>
			<g>
				<path class="st4" d="M110.9,63.7c4.9,4.8,11.5,7.9,18.9,7.9c14.8,0,26.8-12,26.8-26.8c0-7.4-3-14.1-7.9-19L110.9,63.7z"/>
			</g>
		</g>
		<g>
			<g>
				<path class="st5" d="M147.6,44.7c0,9.8-7.9,17.7-17.7,17.7c-9.8,0-17.7-7.9-17.7-17.7S120,27,129.8,27
					C139.6,27,147.6,34.9,147.6,44.7z"/>
			</g>
		</g>
		<g>
			<g>
				<path class="st4" d="M117.3,57.3c-3.2-3.2-5.2-7.6-5.2-12.5c0-9.8,7.9-17.7,17.7-17.7c4.9,0,9.3,2,12.5,5.2L117.3,57.3z"/>
			</g>
		</g>
	</g>
	<g>
		<g>
			<path class="st2" d="M129.8,71.8c-14.9,0-27.1-12.2-27.1-27.1s12.2-27.1,27.1-27.1c14.9,0,27.1,12.2,27.1,27.1
				S144.8,71.8,129.8,71.8z M129.8,18.3c-14.6,0-26.5,11.9-26.5,26.5c0,14.6,11.9,26.5,26.5,26.5c14.6,0,26.5-11.9,26.5-26.5
				C156.3,30.1,144.4,18.3,129.8,18.3z"/>
		</g>
	</g>
	<g>
		<g>
			<g>
				<path class="st2" d="M48.4,95.4h3.5l-2.4,11.3H46L48.4,95.4z"/>
			</g>
		</g>
		<g>
			<g>
				<path class="st2" d="M55.5,106.7h-3.4l2.4-11.3h4.2l4.7,8.2l1.6-8.2h3.4L66,106.7h-3.8l-5-8.6L55.5,106.7z"/>
			</g>
		</g>
		<g>
			<g>
				<path class="st2" d="M78.8,104.7l0.6-2.6h-4.4l0.4-2h7.8l-1.4,6.7h-7.1c-4.3,0-6.5-1.3-6.5-4c0-0.4,0.1-0.9,0.2-1.4
					c0.4-2.1,1.4-3.6,3-4.6c1.4-0.9,3.3-1.3,5.8-1.3h7.1l-0.4,2h-7.2c-1.2,0-2.1,0.3-2.8,0.8c-0.8,0.6-1.4,1.6-1.7,3
					c-0.1,0.5-0.1,0.9-0.1,1.2c0,1.5,1.1,2.3,3.2,2.3H78.8z"/>
			</g>
		</g>
		<g>
			<g>
				<path class="st2" d="M97.9,95.4l-0.4,2H92c-2.3,0-3.8,0.9-4.3,2.6h9.2l-0.4,2h-9.2c-0.1,0.3-0.1,0.6-0.1,0.8
					c0,0.7,0.3,1.2,0.8,1.5c0.5,0.3,1.3,0.4,2.4,0.4h5.5l-0.4,2h-5.6c-4.3,0-6.4-1.4-6.4-4.1c0-0.4,0.1-0.8,0.1-1.3
					c0.4-1.9,1.2-3.3,2.5-4.2c1.5-1.1,3.5-1.6,6.3-1.6H97.9z"/>
			</g>
		</g>
		<g>
			<g>
				<path class="st2" d="M100.9,106.7h-3.3l2.4-11.3h8.2c1.7,0,2.9,0.2,3.7,0.6c0.8,0.4,1.2,1.1,1.2,2c0,0.2,0,0.5-0.1,0.8
					c-0.2,0.8-0.6,1.5-1.2,2c-0.7,0.6-1.6,1-2.6,1.1l2.9,4.7h-3.7l-2.6-4.4h-3.9L100.9,106.7z M106.9,97.4h-4.1l-0.6,2.9h4.1
					c1.1,0,1.9-0.1,2.4-0.3c0.5-0.2,0.8-0.6,0.9-1.1c0-0.2,0.1-0.4,0.1-0.5C109.7,97.8,108.8,97.4,106.9,97.4z"/>
			</g>
		</g>
		<g>
			<g>
				<path class="st2" d="M120.3,95.4h8.8l-0.4,2h-8.2c-0.7,0-1.4,0.1-1.9,0.3c-0.7,0.3-1.1,0.8-1.1,1.4c0,0.7,0.6,1,1.9,1h4.4
					c1.6,0,2.8,0.2,3.5,0.6c0.7,0.4,1,0.9,1,1.7c0,0.3,0,0.6-0.1,0.9c-0.3,1.1-0.9,2-1.8,2.5c-1,0.6-2.5,0.9-4.5,0.9H113l0.4-2h8.3
					c1,0,1.7-0.1,2.2-0.4c0.4-0.2,0.6-0.6,0.7-1.1c0-0.1,0-0.2,0-0.3c0-0.6-0.7-0.8-2.1-0.8h-3.9c-3.1,0-4.7-0.8-4.7-2.5
					c0-0.3,0-0.5,0.1-0.8c0.3-1.1,0.8-2,1.8-2.5C116.8,95.7,118.3,95.4,120.3,95.4z"/>
			</g>
		</g>
		<g>
			<g>
				<path class="st2" d="M138.1,95.2c2.1,0,3.7,0.3,4.9,0.9c1.4,0.7,2,1.9,2,3.5c0,0.5-0.1,1-0.2,1.6c-0.8,3.9-3.9,5.9-9.2,5.9
					c-4.6,0-6.9-1.4-6.9-4.3c0-0.5,0.1-1,0.2-1.6C129.8,97.2,132.8,95.2,138.1,95.2z M132.6,101.1c-0.1,0.4-0.1,0.8-0.1,1.2
					c0,1.9,1.2,2.8,3.6,2.8c2.9,0,4.6-1.3,5.2-3.9c0.1-0.5,0.2-0.9,0.2-1.2c0-1.8-1.2-2.7-3.6-2.7
					C134.8,97.2,133.1,98.5,132.6,101.1z"/>
			</g>
		</g>
		<g>
			<g>
				<path class="st2" d="M155.6,104.9l-0.4,1.9H151c-2,0-3.4-0.2-4.2-0.5c-1.1-0.5-1.6-1.3-1.6-2.6c0-0.4,0.1-0.9,0.2-1.4l1.4-6.7
					h3.3l-1.3,6.2c-0.2,0.8-0.3,1.3-0.3,1.7c0,0.6,0.2,1,0.6,1.2c0.5,0.3,1.3,0.4,2.5,0.4H155.6z"/>
			</g>
		</g>
		<g>
			<g>
				<path class="st2" d="M166.1,104.9l-0.4,1.9h-4.2c-2,0-3.4-0.2-4.2-0.5c-1.1-0.5-1.6-1.3-1.6-2.6c0-0.4,0.1-0.9,0.2-1.4l1.4-6.7
					h3.3l-1.3,6.2c-0.2,0.8-0.3,1.3-0.3,1.7c0,0.6,0.2,1,0.6,1.2c0.5,0.3,1.3,0.4,2.5,0.4H166.1z"/>
			</g>
		</g>
		<g>
			<g>
				<path class="st2" d="M180.6,106.7h-3.5l2-9.3h-5.1l0.4-2h13.7l-0.4,2h-5.1L180.6,106.7z"/>
			</g>
		</g>
		<g>
			<g>
				<path class="st2" d="M197.1,95.2c2.1,0,3.7,0.3,4.9,0.9c1.4,0.7,2,1.9,2,3.5c0,0.5-0.1,1-0.2,1.6c-0.8,3.9-3.9,5.9-9.2,5.9
					c-4.6,0-6.9-1.4-6.9-4.3c0-0.5,0.1-1,0.2-1.6C188.8,97.2,191.9,95.2,197.1,95.2z M191.6,101.1c-0.1,0.4-0.1,0.8-0.1,1.2
					c0,1.9,1.2,2.8,3.6,2.8c2.9,0,4.6-1.3,5.2-3.9c0.1-0.5,0.2-0.9,0.2-1.2c0-1.8-1.2-2.7-3.6-2.7
					C193.9,97.2,192.1,98.5,191.6,101.1z"/>
			</g>
		</g>
		<g>
			<g>
				<path class="st2" d="M213.8,95.2c2.1,0,3.7,0.3,4.9,0.9c1.4,0.7,2,1.9,2,3.5c0,0.5-0.1,1-0.2,1.6c-0.8,3.9-3.9,5.9-9.2,5.9
					c-4.6,0-6.9-1.4-6.9-4.3c0-0.5,0.1-1,0.2-1.6C205.5,97.2,208.5,95.2,213.8,95.2z M208.3,101.1c-0.1,0.4-0.1,0.8-0.1,1.2
					c0,1.9,1.2,2.8,3.6,2.8c2.9,0,4.6-1.3,5.2-3.9c0.1-0.5,0.2-0.9,0.2-1.2c0-1.8-1.2-2.7-3.6-2.7
					C210.5,97.2,208.8,98.5,208.3,101.1z"/>
			</g>
		</g>
		<g>
			<g>
				<path class="st2" d="M231.3,104.9l-0.4,1.9h-4.2c-2,0-3.4-0.2-4.2-0.5c-1.1-0.5-1.6-1.3-1.6-2.6c0-0.4,0.1-0.9,0.2-1.4l1.4-6.7
					h3.3l-1.3,6.2c-0.2,0.8-0.3,1.3-0.3,1.7c0,0.6,0.2,1,0.6,1.2c0.5,0.3,1.3,0.4,2.5,0.4H231.3z"/>
			</g>
		</g>
		<g>
			<g>
				<path class="st2" d="M242.6,106.7h-3.5l9.1-11.3h3.5l4.4,11.3h-3.7l-0.9-2.7h-6.9L242.6,106.7z M246.1,102h4.7l-1.5-4.3
					L246.1,102z"/>
			</g>
		</g>
		<g>
			<g>
				<path class="st2" d="M264.3,106.7H257l2.4-11.3h7.2c4.3,0,6.4,1.4,6.4,4.3c0,0.5-0.1,1-0.2,1.6
					C272.1,104.9,269.2,106.7,264.3,106.7z M266.1,97.4h-3.9l-1.6,7.4h3.9c1.4,0,2.5-0.2,3.1-0.6c0.7-0.5,1.3-1.5,1.6-3.1
					c0.1-0.6,0.2-1.2,0.2-1.6c0-0.8-0.2-1.3-0.7-1.6C268.2,97.6,267.4,97.4,266.1,97.4z"/>
			</g>
		</g>
		<g>
			<g>
				<path class="st2" d="M290.1,95.4l-9,11.3h-3.5l-4.5-11.3h3.8l3,8.4l6.7-8.4H290.1z"/>
			</g>
		</g>
		<g>
			<g>
				<path class="st2" d="M292,95.4h3.5l-2.4,11.3h-3.5L292,95.4z"/>
			</g>
		</g>
		<g>
			<g>
				<path class="st2" d="M302.5,95.4h8.8l-0.4,2h-8.2c-0.7,0-1.4,0.1-1.9,0.3c-0.7,0.3-1.1,0.8-1.1,1.4c0,0.7,0.6,1,1.9,1h4.4
					c1.6,0,2.8,0.2,3.5,0.6c0.7,0.4,1,0.9,1,1.7c0,0.3,0,0.6-0.1,0.9c-0.3,1.1-0.9,2-1.8,2.5c-1,0.6-2.5,0.9-4.5,0.9h-8.9l0.4-2h8.3
					c1,0,1.7-0.1,2.2-0.4c0.4-0.2,0.6-0.6,0.7-1.1c0-0.1,0-0.2,0-0.3c0-0.6-0.7-0.8-2.1-0.8h-3.9c-3.1,0-4.7-0.8-4.7-2.5
					c0-0.3,0-0.5,0.1-0.8c0.3-1.1,0.8-2,1.8-2.5C299,95.7,300.5,95.4,302.5,95.4z"/>
			</g>
		</g>
		<g>
			<g>
				<path class="st2" d="M320.3,95.2c2.1,0,3.7,0.3,4.9,0.9c1.4,0.7,2,1.9,2,3.5c0,0.5-0.1,1-0.2,1.6c-0.8,3.9-3.9,5.9-9.2,5.9
					c-4.6,0-6.9-1.4-6.9-4.3c0-0.5,0.1-1,0.2-1.6C312,97.2,315.1,95.2,320.3,95.2z M314.8,101.1c-0.1,0.4-0.1,0.8-0.1,1.2
					c0,1.9,1.2,2.8,3.6,2.8c2.9,0,4.6-1.3,5.2-3.9c0.1-0.5,0.2-0.9,0.2-1.2c0-1.8-1.2-2.7-3.6-2.7
					C317.1,97.2,315.4,98.5,314.8,101.1z"/>
			</g>
		</g>
		<g>
			<g>
				<path class="st2" d="M331,106.7h-3.3l2.4-11.3h8.2c1.7,0,2.9,0.2,3.7,0.6c0.8,0.4,1.2,1.1,1.2,2c0,0.2,0,0.5-0.1,0.8
					c-0.2,0.8-0.6,1.5-1.2,2c-0.7,0.6-1.6,1-2.6,1.1l2.9,4.7h-3.7l-2.6-4.4H332L331,106.7z M337.1,97.4H333l-0.6,2.9h4.1
					c1.1,0,1.9-0.1,2.4-0.3c0.5-0.2,0.8-0.6,0.9-1.1c0-0.2,0.1-0.4,0.1-0.5C339.8,97.8,338.9,97.4,337.1,97.4z"/>
			</g>
		</g>
	</g>
</g>
</svg>
