<?xml version="1.0" encoding="utf-8"?>
<!-- Generator: Adobe Illustrator 26.3.1, SVG Export Plug-In . SVG Version: 6.00 Build 0)  -->
<svg version="1.1" id="Layer_1" xmlns="http://www.w3.org/2000/svg" xmlns:xlink="http://www.w3.org/1999/xlink" x="0px" y="0px"
	 viewBox="0 0 389.9 109.3" style="enable-background:new 0 0 389.9 109.3;" xml:space="preserve">
<style type="text/css">
	.st0{fill-rule:evenodd;clip-rule:evenodd;fill:#FFFFFF;}
	.st1{fill:#FFFFFF;}
	.st2{fill:#1D1D1B;}
	.st3{fill:#0096C3;}
	.st4{fill-rule:evenodd;clip-rule:evenodd;fill:#1D1D1B;}
	.st5{fill-rule:evenodd;clip-rule:evenodd;fill:#0096C3;}
</style>
<g>
	<g>
		<g>
			<path class="st0" d="M80.5,45.6c0,21.3,17.3,38.6,38.5,38.6c21.3,0,38.6-17.3,38.6-38.6c0-21.3-17.3-38.6-38.6-38.6
				C97.8,7.1,80.5,24.4,80.5,45.6z"/>
		</g>
	</g>
	<g>
		<g>
			<g>
				<path class="st1" d="M185.4,89.6h-40.5L163.8,0h52.7c15.4,0,26.5,1.8,33.9,5.4c9,4.3,13.9,12.1,13.9,21.9c0,2.3-0.3,4.7-0.8,7.3
					c-2.2,11.5-9.1,20.1-19.8,24.9c-8.4,3.7-20.2,5.5-36.1,5.5h-17.1L185.4,89.6z M168.9,70.1h0.7l10.7-50.6h-0.7L168.9,70.1z
					 M238.8,21.8c1.9,2.9,2.4,6,2.4,8.5c0,1.4-0.2,2.9-0.5,4.5c-0.4,1.7-1,3.6-1.9,5.4c3.1-2.1,4.9-5.1,5.7-9.2
					c0.3-1.4,0.4-2.5,0.4-3.5c0-2-0.4-3.2-3-4.4C241.3,22.6,240.3,22.2,238.8,21.8z M197.4,33.1h13c3.8,0,6.5-0.4,8.3-0.9
					c-1.3-0.1-3-0.2-5.1-0.2h-16L197.4,33.1z"/>
			</g>
			<g>
				<path class="st1" d="M359,89.6h-44.2l-5.5-16.8h-30.6l-12,16.8h-47.1L291.2,0h33.2L359,89.6z M328.9,70.1h1.6l-10.9-28.4
					l6.4,18.7h-0.2L328.9,70.1z"/>
			</g>
		</g>
		<g>
			<g>
				<path class="st2" d="M177.5,79.8h-20.6l14.8-70.1h44.8c13.8,0,23.7,1.5,29.6,4.4c5.7,2.7,8.5,7.1,8.5,13.2
					c0,1.6-0.2,3.4-0.6,5.4c-1.6,8.4-6.4,14.4-14.2,17.9c-7,3.1-17.7,4.7-32.2,4.7h-24.9L177.5,79.8z M213.6,22.3h-23.9l-4.3,20.6
					h24.9c12.5,0,19.4-3.4,20.9-10.2c0.2-0.9,0.3-1.7,0.3-2.4C231.5,25,225.5,22.3,213.6,22.3z"/>
				<path class="st1" d="M178.9,81.6h-24.1L170.4,8h46.2c14.2,0,24.1,1.5,30.4,4.6c6.3,3,9.4,8,9.4,14.7c0,1.7-0.2,3.6-0.6,5.7
					c-1.7,9-6.8,15.4-15.2,19.2c-7.2,3.2-18.3,4.8-32.9,4.8h-23.6L178.9,81.6z M159,78.1h17.1l5.3-24.6h26.3
					c14.1,0,24.7-1.5,31.5-4.5c7.4-3.3,11.7-8.8,13.2-16.7c0.4-1.8,0.6-3.5,0.6-5c0-5.4-2.5-9.2-7.5-11.6
					c-5.7-2.8-15.4-4.2-28.9-4.2h-43.5L159,78.1z M210.3,44.6h-27.1l5-24h25.3c13,0,19.6,3.2,19.6,9.6c0,0.8-0.1,1.8-0.3,2.8
					C231.3,40.7,223.7,44.6,210.3,44.6z M187.5,41.2h22.8c11.5,0,18-3,19.2-8.9c0.2-0.8,0.3-1.5,0.3-2.1c0-5.1-8.8-6.2-16.2-6.2
					h-22.5L187.5,41.2z"/>
			</g>
			<g>
				<path class="st2" d="M261.7,79.8h-21.8l56-70.1h21.8l27,70.1h-22.9l-5.5-16.8h-42.7L261.7,79.8z M283.1,50.7h29.3l-9.2-26.8
					L283.1,50.7z"/>
				<path class="st1" d="M347.3,81.6h-26.6l-5.5-16.8h-40.6l-12,16.8h-26.3L295.1,8h23.8L347.3,81.6z M323.1,78.1h19.2l-25.7-66.7
					h-19.8l-53.3,66.7h17.4l12-16.8h44.8L323.1,78.1z M314.8,52.4h-35.2l24.2-32.1L314.8,52.4z M286.5,49H310l-7.3-21.5L286.5,49z"
					/>
			</g>
		</g>
		<g>
			<g>
				<path class="st2" d="M182,85.4h-32l17.2-81.3h49.4c14.8,0,25.3,1.6,32.1,5c7.6,3.7,11.6,10,11.6,18.2c0,2-0.2,4.2-0.7,6.5
					c-2,10.3-7.8,17.7-17.4,22c-7.8,3.5-19.1,5.2-34.5,5.2h-20.4L182,85.4z M163.8,74.2h9.1l5.3-24.6h29.5c13.6,0,23.6-1.4,29.9-4.2
					c6.2-2.8,9.7-7.2,11-13.9c0.3-1.6,0.5-3.1,0.5-4.3c0-3.9-1.6-6.3-5.3-8.1c-3.6-1.8-11.2-3.8-27.2-3.8h-40.3L163.8,74.2z
					 M210.3,48.5h-31.8l6.6-31.8h28.4c15.6,0,23.5,4.5,23.5,13.5c0,1.1-0.1,2.3-0.4,3.6C235.3,40.5,229.6,48.5,210.3,48.5z
					 M192.3,37.3h18.1c6.5,0,14.4-1,15.4-5.8c0.2-0.7,0.2-1.1,0.2-1.3c0-0.1-1.8-2.3-12.3-2.3h-19.3L192.3,37.3z"/>
			</g>
			<g>
				<path class="st2" d="M352.9,85.4h-35.1l-5.5-16.8h-35.7l-12,16.8h-36.4l65-81.3h28.4L352.9,85.4z M325.9,74.2h10.7l-22.7-58.9
					h-7.7l14,40.9h-48.4l30.8-40.9h-4l-47.1,58.9h7.3l12-16.8h49.6L325.9,74.2z M294.3,45.1h10.3l-3.2-9.4L294.3,45.1z"/>
			</g>
		</g>
		<g>
			<g>
				<path class="st1" d="M177.5,79.8h-20.6l14.8-70.1h44.8c13.8,0,23.7,1.5,29.6,4.4c5.7,2.7,8.5,7.1,8.5,13.2
					c0,1.6-0.2,3.4-0.6,5.4c-1.6,8.4-6.4,14.4-14.2,17.9c-7,3.1-17.7,4.7-32.2,4.7h-24.9L177.5,79.8z M213.6,22.3h-23.9l-4.3,20.6
					h24.9c12.5,0,19.4-3.4,20.9-10.2c0.2-0.9,0.3-1.7,0.3-2.4C231.5,25,225.5,22.3,213.6,22.3z"/>
			</g>
			<g>
				<path class="st1" d="M261.7,79.8h-21.8l56-70.1h21.8l27,70.1h-22.9l-5.5-16.8h-42.7L261.7,79.8z M283.1,50.7h29.3l-9.2-26.8
					L283.1,50.7z"/>
			</g>
		</g>
		<g>
			<g>
				<path class="st3" d="M178.5,81.1h-23.1l15.3-72.5h45.8c14.1,0,24,1.5,30.2,4.5c6.1,2.9,9.2,7.7,9.2,14.3c0,1.7-0.2,3.6-0.6,5.6
					c-1.7,8.8-6.7,15.1-14.9,18.8c-7.1,3.2-18.1,4.8-32.7,4.8h-24L178.5,81.1z M158.4,78.6h18.1l5.3-24.6h25.9
					c14.2,0,24.8-1.5,31.7-4.6c7.5-3.4,12-8.9,13.5-17.1c0.4-1.9,0.6-3.6,0.6-5.1c0-5.6-2.5-9.5-7.8-12.1
					c-5.8-2.8-15.6-4.3-29.1-4.3h-43.9L158.4,78.6z M210.3,44.1h-26.4l4.8-23h24.9c12.7,0,19.2,3.1,19.2,9.1c0,0.8-0.1,1.7-0.3,2.7
					C230.8,40.3,223.4,44.1,210.3,44.1z M186.9,41.7h23.5c11.8,0,18.4-3.1,19.7-9.3c0.2-0.8,0.3-1.6,0.3-2.2c0-4.4-5.6-6.7-16.7-6.7
					h-22.9L186.9,41.7z"/>
			</g>
			<g>
				<path class="st3" d="M346.5,81.1H321l-5.5-16.8h-41.2l-12,16.8h-25l58-72.5h23.3L346.5,81.1z M322.7,78.6H343L316.9,11h-20.4
					l-54.1,67.6h18.7l12-16.8h44.2L322.7,78.6z M314.1,51.9h-33.5l23-30.6L314.1,51.9z M285.5,49.5h25.2l-7.9-23L285.5,49.5z"/>
			</g>
		</g>
	</g>
	<g>
		<g>
			<g>
				<path class="st1" d="M74.8,89.6H33.2L52.3,0h41.5L74.8,89.6z M57.3,70.1H59l10.7-50.6H68L57.3,70.1z"/>
			</g>
		</g>
		<g>
			<g>
				<path class="st2" d="M60.2,9.7h21.5L66.9,79.8H45.2L60.2,9.7z"/>
				<path class="st1" d="M68.3,81.5H43.1L58.8,8h25L68.3,81.5z M47.3,78.1h18.1l14.1-66.7h-18L47.3,78.1z"/>
			</g>
		</g>
		<g>
			<g>
				<path class="st2" d="M71.4,85.4H38.3L55.6,4.1h33L71.4,85.4z M52.2,74.2h10.2l12.4-58.9H64.7L52.2,74.2z"/>
			</g>
		</g>
		<g>
			<g>
				<path class="st3" d="M60.2,9.7h21.5L66.9,79.8H45.2L60.2,9.7z"/>
			</g>
		</g>
		<g>
			<g>
				<path class="st1" d="M67.9,81.1H43.7L59.2,8.5h24L67.9,81.1z M46.7,78.6h19.2L80.2,11H61.1L46.7,78.6z"/>
			</g>
		</g>
	</g>
	<g>
		<g>
			<g>
				<path class="st4" d="M84.5,45.6c0,18.9,15.4,34.4,34.4,34.4c19,0,34.4-15.4,34.4-34.4c0-19-15.4-34.4-34.4-34.4
					C99.9,11.2,84.5,26.6,84.5,45.6z"/>
			</g>
		</g>
		<g>
			<g>
				<path class="st0" d="M88.7,45.6c0,16.6,13.5,30.1,30.1,30.1c16.6,0,30.1-13.5,30.1-30.1c0-16.6-13.5-30.1-30.1-30.1
					C102.2,15.5,88.7,29,88.7,45.6z"/>
			</g>
		</g>
		<g>
			<g>
				<path class="st5" d="M146.2,45.6c0,15.1-12.2,27.3-27.3,27.3c-15.1,0-27.3-12.2-27.3-27.3c0-15.1,12.2-27.3,27.3-27.3
					C133.9,18.3,146.2,30.5,146.2,45.6z"/>
			</g>
		</g>
		<g>
			<g>
				<path class="st4" d="M99.5,64.9c5,4.9,11.8,8,19.3,8c15.1,0,27.3-12.2,27.3-27.3c0-7.5-3.1-14.4-8-19.3L99.5,64.9z"/>
			</g>
		</g>
		<g>
			<g>
				<path class="st5" d="M137,45.6c0,10-8.1,18.1-18.1,18.1c-10,0-18.1-8.1-18.1-18.1s8.1-18.1,18.1-18.1
					C128.9,27.5,137,35.6,137,45.6z"/>
			</g>
		</g>
		<g>
			<g>
				<path class="st4" d="M106.1,58.4c-3.3-3.3-5.3-7.8-5.3-12.8c0-10,8.1-18.1,18.1-18.1c5,0,9.5,2,12.8,5.3L106.1,58.4z"/>
			</g>
		</g>
	</g>
	<g>
		<g>
			<path class="st2" d="M118.9,73.2c-15.2,0-27.6-12.4-27.6-27.6S103.6,18,118.9,18c15.2,0,27.6,12.4,27.6,27.6
				S134.1,73.2,118.9,73.2z M118.9,18.6c-14.9,0-27,12.1-27,27c0,14.9,12.1,27,27,27c14.9,0,27-12.1,27-27
				C145.8,30.7,133.7,18.6,118.9,18.6z"/>
		</g>
	</g>
	<g>
		<g>
			<polygon class="st1" points="357.9,109.3 29,109.3 32.1,94.7 360.9,94.7 			"/>
		</g>
	</g>
	<g>
		<g>
			<g>
				<path class="st2" d="M35.8,97.6h2.7l-1.9,8.8h-2.7L35.8,97.6z"/>
			</g>
		</g>
		<g>
			<g>
				<path class="st2" d="M41.3,106.4h-2.7l1.9-8.8h3.3l3.7,6.4l1.3-6.4h2.6l-1.9,8.8h-3l-3.9-6.7L41.3,106.4z"/>
			</g>
		</g>
		<g>
			<g>
				<path class="st2" d="M59.5,104.8l0.4-2.1h-3.5l0.3-1.6h6.1l-1.1,5.2h-5.6c-3.4,0-5.1-1.1-5.1-3.2c0-0.3,0-0.7,0.1-1.1
					c0.3-1.6,1.1-2.8,2.3-3.6c1.1-0.7,2.6-1,4.5-1h5.6l-0.3,1.5h-5.6c-0.9,0-1.7,0.2-2.2,0.6c-0.7,0.5-1.1,1.3-1.3,2.4
					c-0.1,0.4-0.1,0.7-0.1,0.9c0,1.2,0.8,1.8,2.5,1.8H59.5z"/>
			</g>
		</g>
		<g>
			<g>
				<path class="st2" d="M74.4,97.6l-0.3,1.5h-4.3c-1.8,0-3,0.7-3.4,2.1h7.2l-0.3,1.5h-7.2c0,0.2-0.1,0.4-0.1,0.6
					c0,0.5,0.2,0.9,0.6,1.2c0.4,0.2,1,0.3,1.9,0.3h4.3l-0.3,1.5h-4.4c-3.3,0-5-1.1-5-3.2c0-0.3,0-0.7,0.1-1c0.3-1.5,1-2.6,1.9-3.3
					c1.1-0.9,2.8-1.3,4.9-1.3H74.4z"/>
			</g>
		</g>
		<g>
			<g>
				<path class="st2" d="M76.7,106.4h-2.6l1.9-8.8h6.4c1.3,0,2.3,0.2,2.9,0.5c0.6,0.3,0.9,0.8,0.9,1.5c0,0.2,0,0.4-0.1,0.6
					c-0.1,0.6-0.4,1.2-0.9,1.6c-0.5,0.4-1.2,0.7-2.1,0.9l2.3,3.7h-2.9l-2-3.5h-3L76.7,106.4z M81.4,99.2h-3.2l-0.5,2.2H81
					c0.9,0,1.5-0.1,1.9-0.2c0.4-0.2,0.6-0.5,0.7-0.9c0-0.2,0-0.3,0-0.4C83.6,99.4,82.8,99.2,81.4,99.2z"/>
			</g>
		</g>
		<g>
			<g>
				<path class="st2" d="M91.8,97.6h6.8l-0.3,1.6h-6.4c-0.6,0-1.1,0.1-1.5,0.2c-0.5,0.2-0.8,0.6-0.8,1.1c0,0.5,0.5,0.8,1.5,0.8h3.4
					c1.3,0,2.2,0.1,2.7,0.5c0.5,0.3,0.8,0.7,0.8,1.3c0,0.2,0,0.4-0.1,0.7c-0.2,0.9-0.7,1.5-1.4,1.9c-0.8,0.5-2,0.7-3.5,0.7h-6.9
					l0.3-1.6H93c0.8,0,1.4-0.1,1.7-0.3c0.3-0.2,0.5-0.4,0.5-0.8c0-0.1,0-0.2,0-0.2c0-0.4-0.6-0.7-1.7-0.7h-3.1
					c-2.4,0-3.7-0.6-3.7-1.9c0-0.2,0-0.4,0.1-0.6c0.2-0.9,0.7-1.5,1.4-2C89.1,97.8,90.3,97.6,91.8,97.6z"/>
			</g>
		</g>
		<g>
			<g>
				<path class="st2" d="M105.7,97.4c1.7,0,2.9,0.2,3.8,0.7c1.1,0.5,1.6,1.4,1.6,2.7c0,0.4,0,0.8-0.1,1.2c-0.7,3.1-3,4.6-7.2,4.6
					c-3.6,0-5.3-1.1-5.3-3.4c0-0.4,0-0.8,0.1-1.2C99.3,98.9,101.6,97.4,105.7,97.4z M101.4,102c-0.1,0.3-0.1,0.6-0.1,0.9
					c0,1.4,0.9,2.2,2.8,2.2c2.2,0,3.6-1,4-3.1c0.1-0.4,0.1-0.7,0.1-1c0-1.4-0.9-2.1-2.8-2.1C103.2,98.9,101.9,99.9,101.4,102z"/>
			</g>
		</g>
		<g>
			<g>
				<path class="st2" d="M119.4,105l-0.3,1.5h-3.3c-1.5,0-2.6-0.1-3.3-0.4c-0.9-0.4-1.3-1.1-1.3-2.1c0-0.3,0-0.7,0.1-1.1l1.1-5.3
					h2.6l-1,4.9c-0.1,0.6-0.2,1-0.2,1.3c0,0.4,0.2,0.8,0.5,0.9c0.4,0.2,1,0.3,2,0.3H119.4z"/>
			</g>
		</g>
		<g>
			<g>
				<path class="st2" d="M127.6,105l-0.3,1.5H124c-1.5,0-2.6-0.1-3.3-0.4c-0.9-0.4-1.3-1.1-1.3-2.1c0-0.3,0-0.7,0.1-1.1l1.1-5.3h2.6
					l-1,4.9c-0.1,0.6-0.2,1-0.2,1.3c0,0.4,0.2,0.8,0.5,0.9c0.4,0.2,1,0.3,2,0.3H127.6z"/>
			</g>
		</g>
		<g>
			<g>
				<path class="st2" d="M136.4,106.4h-2.6l1.9-8.8h5.7c1.7,0,3,0.2,3.7,0.6c0.7,0.3,1.1,0.9,1.1,1.7c0,0.2,0,0.4-0.1,0.7
					c-0.2,1.1-0.8,1.8-1.8,2.3c-0.9,0.4-2.2,0.6-4.1,0.6H137L136.4,106.4z M140.9,99.2h-3l-0.5,2.6h3.1c1.6,0,2.4-0.4,2.6-1.3
					c0-0.1,0-0.2,0-0.3C143.2,99.5,142.4,99.2,140.9,99.2z"/>
			</g>
		</g>
		<g>
			<g>
				<path class="st2" d="M156.8,97.6l-0.3,1.5h-4.3c-1.8,0-3,0.7-3.4,2.1h7.2l-0.3,1.5h-7.2c0,0.2-0.1,0.4-0.1,0.6
					c0,0.5,0.2,0.9,0.6,1.2c0.4,0.2,1,0.3,1.9,0.3h4.3l-0.3,1.5h-4.4c-3.3,0-5-1.1-5-3.2c0-0.3,0-0.7,0.1-1c0.3-1.5,1-2.6,1.9-3.3
					c1.1-0.9,2.8-1.3,4.9-1.3H156.8z"/>
			</g>
		</g>
		<g>
			<g>
				<path class="st2" d="M159.1,106.4h-2.6l1.9-8.8h6.4c1.3,0,2.3,0.2,2.9,0.5c0.6,0.3,0.9,0.8,0.9,1.5c0,0.2,0,0.4-0.1,0.6
					c-0.1,0.6-0.4,1.2-0.9,1.6c-0.5,0.4-1.2,0.7-2.1,0.9l2.3,3.7h-2.9l-2-3.5h-3L159.1,106.4z M163.9,99.2h-3.2l-0.5,2.2h3.2
					c0.9,0,1.5-0.1,1.9-0.2c0.4-0.2,0.6-0.5,0.7-0.9c0-0.2,0-0.3,0-0.4C166,99.4,165.3,99.2,163.9,99.2z"/>
			</g>
		</g>
		<g>
			<g>
				<path class="st2" d="M171.3,106.4h-2.6l0.9-4.1c0.3-1.4,0.8-2.5,1.4-3.2c0.6-0.7,1.3-1.1,2.3-1.3c0.8-0.2,1.9-0.3,3.4-0.3h4
					l-0.3,1.5H176c-1.1,0-1.9,0.2-2.4,0.5c-0.6,0.3-1,0.9-1.3,1.7h7.4l-0.3,1.5H172L171.3,106.4z"/>
			</g>
		</g>
		<g>
			<g>
				<path class="st2" d="M187.5,97.4c1.7,0,2.9,0.2,3.8,0.7c1.1,0.5,1.6,1.4,1.6,2.7c0,0.4,0,0.8-0.1,1.2c-0.7,3.1-3,4.6-7.2,4.6
					c-3.6,0-5.3-1.1-5.3-3.4c0-0.4,0-0.8,0.1-1.2C181,98.9,183.4,97.4,187.5,97.4z M183.2,102c-0.1,0.3-0.1,0.6-0.1,0.9
					c0,1.4,0.9,2.2,2.8,2.2c2.2,0,3.6-1,4-3.1c0.1-0.4,0.1-0.7,0.1-1c0-1.4-0.9-2.1-2.8-2.1C184.9,98.9,183.6,99.9,183.2,102z"/>
			</g>
		</g>
		<g>
			<g>
				<path class="st2" d="M195.8,106.4h-2.6l1.9-8.8h6.4c1.3,0,2.3,0.2,2.9,0.5c0.6,0.3,0.9,0.8,0.9,1.5c0,0.2,0,0.4-0.1,0.6
					c-0.1,0.6-0.4,1.2-0.9,1.6c-0.5,0.4-1.2,0.7-2.1,0.9l2.3,3.7h-2.9l-2-3.5h-3L195.8,106.4z M200.5,99.2h-3.2l-0.5,2.2h3.2
					c0.9,0,1.5-0.1,1.9-0.2c0.4-0.2,0.6-0.5,0.7-0.9c0-0.2,0-0.3,0-0.4C202.7,99.4,202,99.2,200.5,99.2z"/>
			</g>
		</g>
		<g>
			<g>
				<path class="st2" d="M208.3,106.4h-2.7l1.9-8.8h3.8l1.7,6.8l4.6-6.8h3.8l-1.9,8.8H217l1.7-6.9l-4.6,6.9h-2.8l-1.8-6.9
					L208.3,106.4z"/>
			</g>
		</g>
		<g>
			<g>
				<path class="st2" d="M223.5,106.4h-2.8l7.1-8.8h2.8l3.4,8.8h-2.9l-0.7-2.1H225L223.5,106.4z M226.2,102.7h3.7l-1.2-3.4
					L226.2,102.7z"/>
			</g>
		</g>
		<g>
			<g>
				<path class="st2" d="M237.4,106.4h-2.7l1.9-8.8h3.3l3.7,6.4l1.3-6.4h2.6l-1.9,8.8h-3l-3.9-6.7L237.4,106.4z"/>
			</g>
		</g>
		<g>
			<g>
				<path class="st2" d="M258.1,97.6l-0.3,1.5h-4.3c-1,0-1.8,0.2-2.3,0.7c-0.7,0.5-1.1,1.4-1.4,2.6c-0.1,0.4-0.1,0.7-0.1,0.9
					c0,0.7,0.2,1.1,0.7,1.4c0.4,0.2,1,0.3,1.9,0.3h4.3l-0.3,1.5h-4.4c-3.3,0-5-1.1-5-3.2c0-0.3,0-0.7,0.1-1c0.3-1.5,1-2.6,1.9-3.3
					c1.1-0.9,2.8-1.3,4.9-1.3H258.1z"/>
			</g>
		</g>
		<g>
			<g>
				<path class="st2" d="M269,97.6l-0.3,1.5h-4.3c-1.8,0-3,0.7-3.4,2.1h7.2l-0.3,1.5h-7.2c0,0.2-0.1,0.4-0.1,0.6
					c0,0.5,0.2,0.9,0.6,1.2c0.4,0.2,1,0.3,1.9,0.3h4.3l-0.3,1.5h-4.4c-3.3,0-5-1.1-5-3.2c0-0.3,0-0.7,0.1-1c0.3-1.5,1-2.6,1.9-3.3
					c1.1-0.9,2.8-1.3,4.9-1.3H269z"/>
			</g>
		</g>
		<g>
			<g>
				<path class="st2" d="M277.2,106.4h-2.8l7.1-8.8h2.8l3.4,8.8h-2.9l-0.7-2.1h-5.4L277.2,106.4z M279.9,102.7h3.7l-1.2-3.4
					L279.9,102.7z"/>
			</g>
		</g>
		<g>
			<g>
				<path class="st2" d="M294.1,106.4h-5.7l1.9-8.8h5.6c3.3,0,5,1.1,5,3.3c0,0.4,0,0.8-0.1,1.3C300.2,105,298,106.4,294.1,106.4z
					 M295.6,99.1h-3l-1.2,5.8h3c1.1,0,1.9-0.2,2.4-0.5c0.6-0.4,1-1.2,1.3-2.4c0.1-0.5,0.2-0.9,0.2-1.2c0-0.6-0.2-1-0.6-1.3
					C297.2,99.2,296.5,99.1,295.6,99.1z"/>
			</g>
		</g>
		<g>
			<g>
				<path class="st2" d="M314.2,97.6l-7,8.8h-2.7l-3.5-8.8h2.9l2.3,6.6l5.2-6.6H314.2z"/>
			</g>
		</g>
		<g>
			<g>
				<path class="st2" d="M315.7,97.6h2.7l-1.9,8.8h-2.7L315.7,97.6z"/>
			</g>
		</g>
		<g>
			<g>
				<path class="st2" d="M323.9,97.6h6.8l-0.3,1.6H324c-0.6,0-1.1,0.1-1.5,0.2c-0.5,0.2-0.8,0.6-0.8,1.1c0,0.5,0.5,0.8,1.5,0.8h3.4
					c1.3,0,2.2,0.1,2.7,0.5c0.5,0.3,0.8,0.7,0.8,1.3c0,0.2,0,0.4-0.1,0.7c-0.2,0.9-0.7,1.5-1.4,1.9c-0.8,0.5-2,0.7-3.5,0.7h-6.9
					l0.3-1.6h6.5c0.8,0,1.4-0.1,1.7-0.3c0.3-0.2,0.5-0.4,0.5-0.8c0-0.1,0-0.2,0-0.2c0-0.4-0.6-0.7-1.7-0.7h-3.1
					c-2.4,0-3.7-0.6-3.7-1.9c0-0.2,0-0.4,0.1-0.6c0.2-0.9,0.7-1.5,1.4-2C321.2,97.8,322.3,97.6,323.9,97.6z"/>
			</g>
		</g>
		<g>
			<g>
				<path class="st2" d="M337.8,97.4c1.7,0,2.9,0.2,3.8,0.7c1.1,0.5,1.6,1.4,1.6,2.7c0,0.4,0,0.8-0.1,1.2c-0.7,3.1-3,4.6-7.2,4.6
					c-3.6,0-5.3-1.1-5.3-3.4c0-0.4,0-0.8,0.1-1.2C331.3,98.9,333.7,97.4,337.8,97.4z M333.5,102c-0.1,0.3-0.1,0.6-0.1,0.9
					c0,1.4,0.9,2.2,2.8,2.2c2.2,0,3.6-1,4-3.1c0.1-0.4,0.1-0.7,0.1-1c0-1.4-0.9-2.1-2.8-2.1C335.3,98.9,333.9,99.9,333.5,102z"/>
			</g>
		</g>
		<g>
			<g>
				<path class="st2" d="M346.2,106.4h-2.6l1.9-8.8h6.4c1.3,0,2.3,0.2,2.9,0.5c0.6,0.3,0.9,0.8,0.9,1.5c0,0.2,0,0.4-0.1,0.6
					c-0.1,0.6-0.4,1.2-0.9,1.6c-0.5,0.4-1.2,0.7-2.1,0.9l2.3,3.7h-2.9l-2-3.5h-3L346.2,106.4z M350.9,99.2h-3.2l-0.5,2.2h3.2
					c0.9,0,1.5-0.1,1.9-0.2c0.4-0.2,0.6-0.5,0.7-0.9c0-0.2,0-0.3,0-0.4C353,99.4,352.3,99.2,350.9,99.2z"/>
			</g>
		</g>
	</g>
</g>
</svg>
