<?xml version="1.0" encoding="utf-8"?>
<!-- Generator: Adobe Illustrator 26.3.1, SVG Export Plug-In . SVG Version: 6.00 Build 0)  -->
<svg version="1.1" id="ita_x5F_logo" xmlns="http://www.w3.org/2000/svg" xmlns:xlink="http://www.w3.org/1999/xlink" x="0px"
	 y="0px" viewBox="0 0 297.6 175.9" style="enable-background:new 0 0 297.6 175.9;" xml:space="preserve">
<style type="text/css">
	.st0{fill:#C7C8CA;}
	.st1{fill:#FFFFFF;}
	.st2{fill-rule:evenodd;clip-rule:evenodd;fill:#FFFFFF;}
	.st3{fill:#1D1D1B;}
	.st4{fill:#0096C3;}
	.st5{fill-rule:evenodd;clip-rule:evenodd;fill:#1D1D1B;}
	.st6{fill-rule:evenodd;clip-rule:evenodd;fill:#0096C3;}
</style>
<rect y="0" class="st0" width="297.6" height="175.9"/>
<g>
	<g>
		<g>
			<polygon class="st1" points="289.1,122.8 133.6,122.8 11.7,122.8 8.5,137.8 139.3,137.8 286.2,137.8 285.9,137.8 289.1,122.8 			
				"/>
		</g>
	</g>
	<g>
		<g>
			<path class="st2" d="M55,78.9c0,19,15.5,34.5,34.5,34.5c19,0,34.5-15.5,34.5-34.5c0-19-15.5-34.5-34.5-34.5
				C70.5,44.4,55,59.9,55,78.9z"/>
		</g>
	</g>
	<g>
		<g>
			<g>
				<path class="st1" d="M169.4,118.2h-36.9l10.9-51.6h-28.1l6.1-28.3h93.5l-6.1,28.3h-28.3L169.4,118.2z M154,100.8h1.3l9.6-45.1
					h-1.4L154,100.8z"/>
			</g>
			<g>
				<path class="st1" d="M287.3,118.2h-39.5l-4.9-15h-27.4l-10.7,15h-42.2l64.1-80.2h29.7L287.3,118.2z M260.4,100.8h1.5l-9.7-25.3
					l5.7,16.7h-0.2L260.4,100.8z"/>
			</g>
		</g>
		<g>
			<g>
				<path class="st3" d="M162.4,109.5h-19.1l10.9-51.6h-28.1l2.4-10.9H204l-2.4,10.9h-28.3L162.4,109.5z"/>
				<path class="st1" d="M163.6,111h-22.2l10.9-51.6h-28.1l3-14h78.8l-3,14h-28.3L163.6,111z M145.1,108h16l11-51.6h28.3l1.7-7.8
					h-72.5l-1.7,7.8H156L145.1,108z"/>
			</g>
			<g>
				<path class="st3" d="M200.3,109.5h-19.5l50.2-62.7h19.5l24.2,62.7h-20.5l-4.9-15H211L200.3,109.5z M219.4,83.4h26.3l-8.2-24
					L219.4,83.4z"/>
				<path class="st1" d="M276.8,111H253l-4.9-15h-36.3l-10.7,15h-23.5l52.6-65.8h21.3L276.8,111z M255.2,108h17.2l-23-59.7h-17.7
					L183.9,108h15.6l10.7-15h40.1L255.2,108z M247.8,85h-31.5L238,56.2L247.8,85z M222.5,81.9h21l-6.6-19.2L222.5,81.9z"/>
			</g>
		</g>
		<g>
			<g>
				<path class="st3" d="M166.4,114.5h-29.3L148,62.9h-28.1l4.5-20.9h85.9l-4.5,20.9h-28.3L166.4,114.5z M149.4,104.5h8.9l11-51.6
					h28.4l0.2-0.9h-65.4l-0.2,0.9h28.1L149.4,104.5z"/>
			</g>
			<g>
				<path class="st3" d="M281.9,114.5h-31.4l-4.9-15h-32l-10.7,15h-32.5l58.2-72.7h25.4L281.9,114.5z M257.8,104.5h9.5L247,51.8
					h-6.9l12.5,36.6h-43.3l27.6-36.6h-3.6l-42.1,52.7h6.5l10.7-15h44.4L257.8,104.5z M229.4,78.4h9.2l-2.9-8.4L229.4,78.4z"/>
			</g>
		</g>
		<g>
			<g>
				<path class="st1" d="M162.4,109.5h-19.1l10.9-51.6h-28.1l2.4-10.9H204l-2.4,10.9h-28.3L162.4,109.5z"/>
			</g>
			<g>
				<path class="st1" d="M200.3,109.5h-19.5l50.2-62.7h19.5l24.2,62.7h-20.5l-4.9-15H211L200.3,109.5z M219.4,83.4h26.3l-8.2-24
					L219.4,83.4z"/>
			</g>
		</g>
		<g>
			<g>
				<path class="st4" d="M163.2,110.6h-21.3L152.8,59h-28.1l2.8-13.1h77.9L202.6,59h-28.3L163.2,110.6z M144.6,108.4h16.9l11-51.6
					h28.3l1.9-8.7h-73.4l-1.9,8.7h28.1L144.6,108.4z"/>
			</g>
			<g>
				<path class="st4" d="M276.2,110.6h-22.9l-4.9-15h-36.9l-10.7,15h-22.4l51.9-64.9h20.8L276.2,110.6z M254.9,108.4H273l-23.3-60.5
					h-18.3L183,108.4h16.7l10.7-15H250L254.9,108.4z M247.2,84.5h-30l20.6-27.4L247.2,84.5z M221.6,82.3h22.5l-7-20.6L221.6,82.3z"
					/>
			</g>
		</g>
	</g>
	<g>
		<g>
			<g>
				<path class="st1" d="M49.9,118.2H12.7l17.1-80.2h37.1L49.9,118.2z M34.3,100.8h1.5l9.6-45.3h-1.5L34.3,100.8z"/>
			</g>
		</g>
		<g>
			<g>
				<path class="st3" d="M36.8,46.8h19.3l-13.3,62.7H23.5L36.8,46.8z"/>
				<path class="st1" d="M44.1,111H21.6l14-65.8H58L44.1,111z M25.4,108h16.2l12.6-59.7H38.1L25.4,108z"/>
			</g>
		</g>
		<g>
			<g>
				<path class="st3" d="M46.9,114.5H17.3l15.5-72.7h29.5L46.9,114.5z M29.7,104.5h9.1l11.1-52.7h-9L29.7,104.5z"/>
			</g>
		</g>
		<g>
			<g>
				<path class="st4" d="M36.8,46.8h19.3l-13.3,62.7H23.5L36.8,46.8z"/>
			</g>
		</g>
		<g>
			<g>
				<path class="st1" d="M43.7,110.6H22.2L36,45.7h21.5L43.7,110.6z M24.8,108.4H42l12.8-60.5h-17L24.8,108.4z"/>
			</g>
		</g>
	</g>
	<g>
		<g>
			<g>
				<path class="st5" d="M58.6,78.9c0,17,13.8,30.8,30.8,30.8c17,0,30.8-13.8,30.8-30.8c0-17-13.8-30.8-30.8-30.8
					C72.4,48.1,58.6,61.9,58.6,78.9z"/>
			</g>
		</g>
		<g>
			<g>
				<path class="st2" d="M62.4,78.9c0,14.9,12.1,27,27,27c14.9,0,27-12.1,27-27c0-14.9-12.1-27-27-27C74.5,51.9,62.4,64,62.4,78.9z"
					/>
			</g>
		</g>
		<g>
			<g>
				<path class="st6" d="M113.8,78.9c0,13.5-10.9,24.4-24.4,24.4c-13.5,0-24.4-10.9-24.4-24.4c0-13.5,10.9-24.4,24.4-24.4
					C102.9,54.4,113.8,65.4,113.8,78.9z"/>
			</g>
		</g>
		<g>
			<g>
				<path class="st5" d="M72.1,96.2c4.4,4.4,10.5,7.2,17.3,7.2c13.5,0,24.4-10.9,24.4-24.4c0-6.8-2.7-12.9-7.2-17.3L72.1,96.2z"/>
			</g>
		</g>
		<g>
			<g>
				<path class="st6" d="M105.6,78.9c0,8.9-7.2,16.2-16.2,16.2c-8.9,0-16.2-7.2-16.2-16.2s7.2-16.2,16.2-16.2
					C98.3,62.7,105.6,70,105.6,78.9z"/>
			</g>
		</g>
		<g>
			<g>
				<path class="st5" d="M77.9,90.3c-2.9-2.9-4.7-7-4.7-11.4c0-8.9,7.2-16.2,16.2-16.2c4.5,0,8.5,1.8,11.4,4.7L77.9,90.3z"/>
			</g>
		</g>
	</g>
	<g>
		<g>
			<path class="st3" d="M89.4,103.6c-13.6,0-24.7-11.1-24.7-24.7s11.1-24.7,24.7-24.7c13.6,0,24.7,11.1,24.7,24.7
				S103,103.6,89.4,103.6z M89.4,54.7c-13.3,0-24.2,10.8-24.2,24.2c0,13.3,10.8,24.2,24.2,24.2c13.3,0,24.1-10.8,24.1-24.2
				C113.5,65.6,102.7,54.7,89.4,54.7z"/>
		</g>
	</g>
	<g>
		<g>
			<g>
				<path class="st3" d="M15.1,125.1h3.2l-2.2,10.3h-3.2L15.1,125.1z"/>
			</g>
		</g>
		<g>
			<g>
				<path class="st3" d="M21.6,135.5h-3.1l2.2-10.3h3.9l4.3,7.4l1.5-7.4h3.1l-2.2,10.3h-3.5l-4.5-7.8L21.6,135.5z"/>
			</g>
		</g>
		<g>
			<g>
				<path class="st3" d="M42.8,133.6l0.5-2.4h-4l0.4-1.8h7.1l-1.3,6.1H39c-4,0-5.9-1.2-5.9-3.7c0-0.4,0-0.8,0.2-1.3
					c0.4-1.9,1.3-3.3,2.7-4.2c1.3-0.8,3-1.2,5.3-1.2h6.5l-0.4,1.8h-6.5c-1.1,0-2,0.2-2.6,0.7c-0.8,0.5-1.3,1.5-1.6,2.8
					c-0.1,0.4-0.1,0.8-0.1,1.1c0,1.4,1,2.1,2.9,2.1H42.8z"/>
			</g>
		</g>
		<g>
			<g>
				<path class="st3" d="M60.3,125.1l-0.4,1.8h-5c-2.1,0-3.5,0.8-3.9,2.4h8.4l-0.4,1.8h-8.4c-0.1,0.3-0.1,0.5-0.1,0.7
					c0,0.6,0.2,1.1,0.7,1.4c0.5,0.3,1.2,0.4,2.2,0.4h5l-0.4,1.8H53c-3.9,0-5.8-1.3-5.8-3.8c0-0.4,0-0.8,0.1-1.2
					c0.4-1.7,1.1-3,2.3-3.9c1.3-1,3.2-1.5,5.7-1.5H60.3z"/>
			</g>
		</g>
		<g>
			<g>
				<path class="st3" d="M63,135.5h-3l2.2-10.3h7.5c1.5,0,2.6,0.2,3.4,0.6c0.7,0.4,1.1,1,1.1,1.8c0,0.2,0,0.5-0.1,0.7
					c-0.2,0.7-0.5,1.4-1.1,1.9c-0.6,0.5-1.4,0.9-2.4,1l2.6,4.3h-3.4l-2.3-4h-3.6L63,135.5z M68.5,127h-3.7l-0.5,2.6h3.7
					c1,0,1.7-0.1,2.2-0.3c0.4-0.2,0.7-0.5,0.8-1c0-0.2,0.1-0.3,0.1-0.4C71,127.3,70.2,127,68.5,127z"/>
			</g>
		</g>
		<g>
			<g>
				<path class="st3" d="M80.7,125.1h8l-0.4,1.9h-7.5c-0.7,0-1.2,0.1-1.7,0.3c-0.6,0.3-1,0.7-1,1.3c0,0.6,0.6,0.9,1.7,0.9h4
					c1.5,0,2.5,0.2,3.2,0.5c0.6,0.3,0.9,0.9,0.9,1.6c0,0.2,0,0.5-0.1,0.8c-0.3,1-0.8,1.8-1.6,2.3c-0.9,0.5-2.3,0.8-4.1,0.8H74
					l0.4-1.9H82c0.9,0,1.6-0.1,2-0.4c0.3-0.2,0.5-0.5,0.6-1c0-0.1,0-0.2,0-0.2c0-0.5-0.7-0.8-2-0.8h-3.6c-2.9,0-4.3-0.8-4.3-2.3
					c0-0.2,0-0.5,0.1-0.7c0.2-1,0.8-1.8,1.6-2.3C77.5,125.4,78.8,125.1,80.7,125.1z"/>
			</g>
		</g>
		<g>
			<g>
				<path class="st3" d="M96.9,124.9c1.9,0,3.4,0.3,4.4,0.8c1.2,0.6,1.9,1.7,1.9,3.2c0,0.4,0,0.9-0.2,1.4c-0.8,3.6-3.6,5.4-8.4,5.4
					c-4.2,0-6.3-1.3-6.3-4c0-0.4,0-0.9,0.2-1.4C89.3,126.7,92.1,124.9,96.9,124.9z M91.9,130.3c-0.1,0.4-0.1,0.8-0.1,1.1
					c0,1.7,1.1,2.5,3.3,2.5c2.6,0,4.2-1.2,4.7-3.6c0.1-0.4,0.1-0.8,0.1-1.1c0-1.6-1.1-2.5-3.3-2.5C94,126.7,92.4,127.9,91.9,130.3z"
					/>
			</g>
		</g>
		<g>
			<g>
				<path class="st3" d="M112.9,133.8l-0.4,1.7h-3.9c-1.8,0-3.1-0.2-3.8-0.5c-1-0.4-1.5-1.2-1.5-2.4c0-0.4,0-0.8,0.1-1.3l1.3-6.2h3
					l-1.2,5.7c-0.2,0.7-0.2,1.2-0.2,1.5c0,0.5,0.2,0.9,0.6,1.1c0.4,0.2,1.2,0.3,2.3,0.3H112.9z"/>
			</g>
		</g>
		<g>
			<g>
				<path class="st3" d="M122.5,133.8l-0.4,1.7h-3.9c-1.8,0-3.1-0.2-3.8-0.5c-1-0.4-1.5-1.2-1.5-2.4c0-0.4,0-0.8,0.1-1.3l1.3-6.2h3
					l-1.2,5.7c-0.2,0.7-0.2,1.2-0.2,1.5c0,0.5,0.2,0.9,0.6,1.1c0.4,0.2,1.2,0.3,2.3,0.3H122.5z"/>
			</g>
		</g>
		<g>
			<g>
				<path class="st3" d="M135.7,135.5h-3.2l1.8-8.5h-4.6l0.4-1.8h12.5l-0.4,1.8h-4.7L135.7,135.5z"/>
			</g>
		</g>
		<g>
			<g>
				<path class="st3" d="M150.8,124.9c1.9,0,3.4,0.3,4.4,0.8c1.2,0.6,1.9,1.7,1.9,3.2c0,0.4,0,0.9-0.2,1.4c-0.8,3.6-3.6,5.4-8.4,5.4
					c-4.2,0-6.3-1.3-6.3-4c0-0.4,0-0.9,0.2-1.4C143.2,126.7,146,124.9,150.8,124.9z M145.7,130.3c-0.1,0.4-0.1,0.8-0.1,1.1
					c0,1.7,1.1,2.5,3.3,2.5c2.6,0,4.2-1.2,4.7-3.6c0.1-0.4,0.1-0.8,0.1-1.1c0-1.6-1.1-2.5-3.3-2.5
					C147.8,126.7,146.2,127.9,145.7,130.3z"/>
			</g>
		</g>
		<g>
			<g>
				<path class="st3" d="M166,124.9c1.9,0,3.4,0.3,4.4,0.8c1.2,0.6,1.9,1.7,1.9,3.2c0,0.4,0,0.9-0.2,1.4c-0.8,3.6-3.6,5.4-8.4,5.4
					c-4.2,0-6.3-1.3-6.3-4c0-0.4,0-0.9,0.2-1.4C158.4,126.7,161.2,124.9,166,124.9z M161,130.3c-0.1,0.4-0.1,0.8-0.1,1.1
					c0,1.7,1.1,2.5,3.3,2.5c2.6,0,4.2-1.2,4.7-3.6c0.1-0.4,0.1-0.8,0.1-1.1c0-1.6-1.1-2.5-3.3-2.5C163,126.7,161.5,127.9,161,130.3z
					"/>
			</g>
		</g>
		<g>
			<g>
				<path class="st3" d="M182,133.8l-0.4,1.7h-3.9c-1.8,0-3.1-0.2-3.8-0.5c-1-0.4-1.5-1.2-1.5-2.4c0-0.4,0-0.8,0.1-1.3l1.3-6.2h3
					l-1.2,5.7c-0.2,0.7-0.2,1.2-0.2,1.5c0,0.5,0.2,0.9,0.6,1.1c0.4,0.2,1.2,0.3,2.3,0.3H182z"/>
			</g>
		</g>
		<g>
			<g>
				<path class="st3" d="M192.3,135.5h-3.2l8.3-10.3h3.2l4,10.3h-3.4l-0.8-2.5H194L192.3,135.5z M195.4,131.2h4.3l-1.3-4
					L195.4,131.2z"/>
			</g>
		</g>
		<g>
			<g>
				<path class="st3" d="M212.1,135.5h-6.7l2.2-10.3h6.6c3.9,0,5.9,1.3,5.9,3.9c0,0.4-0.1,0.9-0.2,1.5
					C219.2,133.8,216.6,135.5,212.1,135.5z M213.8,126.9h-3.5l-1.4,6.7h3.5c1.3,0,2.2-0.2,2.8-0.6c0.7-0.5,1.2-1.4,1.5-2.8
					c0.1-0.6,0.2-1.1,0.2-1.4c0-0.7-0.2-1.2-0.7-1.5C215.7,127.1,214.9,126.9,213.8,126.9z"/>
			</g>
		</g>
		<g>
			<g>
				<path class="st3" d="M235.6,125.1l-8.2,10.3h-3.2l-4.1-10.3h3.4l2.7,7.7l6.1-7.7H235.6z"/>
			</g>
		</g>
		<g>
			<g>
				<path class="st3" d="M237.3,125.1h3.2l-2.2,10.3h-3.2L237.3,125.1z"/>
			</g>
		</g>
		<g>
			<g>
				<path class="st3" d="M246.9,125.1h8l-0.4,1.9H247c-0.7,0-1.2,0.1-1.7,0.3c-0.6,0.3-1,0.7-1,1.3c0,0.6,0.6,0.9,1.7,0.9h4
					c1.5,0,2.5,0.2,3.2,0.5c0.6,0.3,0.9,0.9,0.9,1.6c0,0.2,0,0.5-0.1,0.8c-0.3,1-0.8,1.8-1.6,2.3c-0.9,0.5-2.3,0.8-4.1,0.8h-8.1
					l0.4-1.9h7.6c0.9,0,1.6-0.1,2-0.4c0.3-0.2,0.5-0.5,0.6-1c0-0.1,0-0.2,0-0.2c0-0.5-0.7-0.8-2-0.8h-3.6c-2.9,0-4.3-0.8-4.3-2.3
					c0-0.2,0-0.5,0.1-0.7c0.2-1,0.8-1.8,1.6-2.3C243.7,125.4,245.1,125.1,246.9,125.1z"/>
			</g>
		</g>
		<g>
			<g>
				<path class="st3" d="M263.2,124.9c1.9,0,3.4,0.3,4.4,0.8c1.2,0.6,1.9,1.7,1.9,3.2c0,0.4,0,0.9-0.2,1.4c-0.8,3.6-3.6,5.4-8.4,5.4
					c-4.2,0-6.3-1.3-6.3-4c0-0.4,0-0.9,0.2-1.4C255.6,126.7,258.4,124.9,263.2,124.9z M258.2,130.3c-0.1,0.4-0.1,0.8-0.1,1.1
					c0,1.7,1.1,2.5,3.3,2.5c2.6,0,4.2-1.2,4.7-3.6c0.1-0.4,0.1-0.8,0.1-1.1c0-1.6-1.1-2.5-3.3-2.5
					C260.2,126.7,258.7,127.9,258.2,130.3z"/>
			</g>
		</g>
		<g>
			<g>
				<path class="st3" d="M273,135.5h-3l2.2-10.3h7.5c1.5,0,2.6,0.2,3.4,0.6c0.7,0.4,1.1,1,1.1,1.8c0,0.2,0,0.5-0.1,0.7
					c-0.2,0.7-0.5,1.4-1.1,1.9c-0.6,0.5-1.4,0.9-2.4,1l2.6,4.3h-3.4l-2.3-4h-3.6L273,135.5z M278.5,127h-3.7l-0.5,2.6h3.7
					c1,0,1.7-0.1,2.2-0.3c0.4-0.2,0.7-0.5,0.8-1c0-0.2,0.1-0.3,0.1-0.4C281,127.3,280.2,127,278.5,127z"/>
			</g>
		</g>
	</g>
</g>
</svg>
