<?xml version="1.0" encoding="utf-8"?>
<!-- Generator: Adobe Illustrator 24.1.3, SVG Export Plug-In . SVG Version: 6.00 Build 0)  -->
<svg version="1.1" id="Layer_1" xmlns="http://www.w3.org/2000/svg" xmlns:xlink="http://www.w3.org/1999/xlink" x="0px" y="0px"
	 viewBox="0 0 60.7 60.7" style="enable-background:new 0 0 60.7 60.7;" xml:space="preserve">
<style type="text/css">
	.st0{fill:url(#SVGID_1_);}
	.st1{fill:#FFFFFF;}
	.st2{fill-rule:evenodd;clip-rule:evenodd;fill:url(#SVGID_2_);}
	.st3{fill-rule:evenodd;clip-rule:evenodd;fill:url(#SVGID_3_);}
	.st4{fill-rule:evenodd;clip-rule:evenodd;fill:url(#SVGID_4_);}
	.st5{fill-rule:evenodd;clip-rule:evenodd;fill:url(#SVGID_5_);}
	.st6{fill-rule:evenodd;clip-rule:evenodd;fill:url(#SVGID_6_);}
	.st7{fill-rule:evenodd;clip-rule:evenodd;fill:url(#SVGID_7_);}
</style>
<g>
	<linearGradient id="SVGID_1_" gradientUnits="userSpaceOnUse" x1="2.4535" y1="30.35" x2="58.2465" y2="30.35">
		<stop  offset="0" style="stop-color:#FFA62C"/>
		<stop  offset="0.3256" style="stop-color:#F24F30"/>
		<stop  offset="1" style="stop-color:#5119BA"/>
	</linearGradient>
	<path class="st0" d="M56.9,21.7c3.7,11.5-0.4,24.1-10.1,31.2C37,60,23.7,60,14,52.9C4.2,45.8,0.1,33.2,3.8,21.7
		C7.6,10.3,18.3,2.5,30.4,2.5S53.1,10.3,56.9,21.7z M30.4,5c-11,0-20.7,7.1-24.1,17.5C2.8,33,6.6,44.4,15.4,50.9
		c8.9,6.5,20.9,6.5,29.8,0S57.8,33,54.4,22.5C51.1,12.1,41.3,5,30.4,5z"/>
</g>
<g>
	<polygon class="st1" points="26.5,36.1 36.4,30.4 26.5,24.7 	"/>
</g>
<g>
	<g>
		<linearGradient id="SVGID_2_" gradientUnits="userSpaceOnUse" x1="13.8937" y1="30.35" x2="46.8063" y2="30.35">
			<stop  offset="0" style="stop-color:#FFA62C"/>
			<stop  offset="0.3256" style="stop-color:#F24F30"/>
			<stop  offset="1" style="stop-color:#5119BA"/>
		</linearGradient>
		<path class="st2" d="M46.6,22.8c-0.1-1.9-0.6-3.6-1.7-5.2c-1.8-2.4-4.2-3.4-7.1-3.6c-2.6-0.2-5.2-0.1-7.8-0.1c-0.3,0-0.6,0-1,0
			c-2.3,0-4.6,0-6.9,0.2c-3.9,0.4-6.8,2.9-7.7,6.6c-0.4,1.7-0.4,3.4-0.5,5c0,2.6,0,5.3,0,8c0,1.6,0,3.2,0.2,4.9
			c0.4,3.9,2.9,6.7,6.6,7.7c1.7,0.4,3.4,0.4,5,0.4c2.7,0,5.3,0,8,0c1.6,0,3.2,0,4.8-0.2c4.3-0.5,7.3-3.3,7.9-7.6
			c0.3-1.6,0.3-3.2,0.3-4.9C46.8,30.3,46.9,26.6,46.6,22.8z M43.8,32.5c0,1.7,0,3.5-0.1,5.2c-0.2,1.7-0.6,3.3-2,4.5
			c-1,0.8-2.1,1.2-3.4,1.4c-1.3,0.2-2.6,0.2-3.9,0.2c-2.7,0-5.4,0-8.1,0c-1.4,0-2.8,0-4.2-0.3c-2.9-0.5-4.6-2.4-5-5.3
			c-0.2-1.3-0.2-2.6-0.2-3.9c0-2.7,0-5.4,0-8.1c0-1.4,0-2.8,0.3-4.3c0.5-2.8,2.4-4.6,5.3-4.9c1.3-0.2,2.6-0.2,3.9-0.2
			c1.3,0,2.7,0,4.1,0c2.4,0,4.9-0.1,7.3,0.1c1.8,0.2,3.4,0.7,4.6,2.1c1,1.1,1.3,2.5,1.4,3.9C43.9,26.1,43.8,29.3,43.8,32.5z"/>
		<linearGradient id="SVGID_3_" gradientUnits="userSpaceOnUse" x1="37.1337" y1="21.5717" x2="41.0955" y2="21.5717">
			<stop  offset="0" style="stop-color:#FFA62C"/>
			<stop  offset="0.3256" style="stop-color:#F24F30"/>
			<stop  offset="1" style="stop-color:#5119BA"/>
		</linearGradient>
		<path class="st3" d="M39.1,23.5c-1.1,0-2-0.9-2-2c0-1.1,0.9-2,2-2c1.1,0,2,0.9,2,1.9C41.1,22.7,40.2,23.5,39.1,23.5z"/>
		<linearGradient id="SVGID_4_" gradientUnits="userSpaceOnUse" x1="21.8885" y1="30.3384" x2="38.803" y2="30.3384">
			<stop  offset="0" style="stop-color:#FFA62C"/>
			<stop  offset="0.3256" style="stop-color:#F24F30"/>
			<stop  offset="1" style="stop-color:#5119BA"/>
		</linearGradient>
		<path class="st4" d="M30.4,21.9c-4.7,0-8.5,3.8-8.5,8.4c0,4.7,3.8,8.5,8.5,8.5c4.7,0,8.4-3.8,8.4-8.4C38.8,25.7,35,21.9,30.4,21.9
			z M30.3,35.8c-3,0-5.4-2.5-5.4-5.5c0-3,2.4-5.5,5.5-5.5c3,0,5.4,2.5,5.4,5.5C35.8,33.4,33.4,35.8,30.3,35.8z"/>
	</g>
	<g>
		<linearGradient id="SVGID_5_" gradientUnits="userSpaceOnUse" x1="13.8937" y1="30.35" x2="46.8063" y2="30.35">
			<stop  offset="0" style="stop-color:#FFA62C"/>
			<stop  offset="0.3256" style="stop-color:#F24F30"/>
			<stop  offset="1" style="stop-color:#5119BA"/>
		</linearGradient>
		<path class="st5" d="M46.6,22.8c-0.1-1.9-0.6-3.6-1.7-5.2c-1.8-2.4-4.2-3.4-7.1-3.6c-2.6-0.2-5.2-0.1-7.8-0.1c-0.3,0-0.6,0-1,0
			c-2.3,0-4.6,0-6.9,0.2c-3.9,0.4-6.8,2.9-7.7,6.6c-0.4,1.7-0.4,3.4-0.5,5c0,2.6,0,5.3,0,8c0,1.6,0,3.2,0.2,4.9
			c0.4,3.9,2.9,6.7,6.6,7.7c1.7,0.4,3.4,0.4,5,0.4c2.7,0,5.3,0,8,0c1.6,0,3.2,0,4.8-0.2c4.3-0.5,7.3-3.3,7.9-7.6
			c0.3-1.6,0.3-3.2,0.3-4.9C46.8,30.3,46.9,26.6,46.6,22.8z M43.8,32.5c0,1.7,0,3.5-0.1,5.2c-0.2,1.7-0.6,3.3-2,4.5
			c-1,0.8-2.1,1.2-3.4,1.4c-1.3,0.2-2.6,0.2-3.9,0.2c-2.7,0-5.4,0-8.1,0c-1.4,0-2.8,0-4.2-0.3c-2.9-0.5-4.6-2.4-5-5.3
			c-0.2-1.3-0.2-2.6-0.2-3.9c0-2.7,0-5.4,0-8.1c0-1.4,0-2.8,0.3-4.3c0.5-2.8,2.4-4.6,5.3-4.9c1.3-0.2,2.6-0.2,3.9-0.2
			c1.3,0,2.7,0,4.1,0c2.4,0,4.9-0.1,7.3,0.1c1.8,0.2,3.4,0.7,4.6,2.1c1,1.1,1.3,2.5,1.4,3.9C43.9,26.1,43.8,29.3,43.8,32.5z"/>
		<linearGradient id="SVGID_6_" gradientUnits="userSpaceOnUse" x1="37.1337" y1="21.5717" x2="41.0955" y2="21.5717">
			<stop  offset="0" style="stop-color:#FFA62C"/>
			<stop  offset="0.3256" style="stop-color:#F24F30"/>
			<stop  offset="1" style="stop-color:#5119BA"/>
		</linearGradient>
		<path class="st6" d="M39.1,23.5c-1.1,0-2-0.9-2-2c0-1.1,0.9-2,2-2c1.1,0,2,0.9,2,1.9C41.1,22.7,40.2,23.5,39.1,23.5z"/>
		<linearGradient id="SVGID_7_" gradientUnits="userSpaceOnUse" x1="21.8885" y1="30.3384" x2="38.803" y2="30.3384">
			<stop  offset="0" style="stop-color:#FFA62C"/>
			<stop  offset="0.3256" style="stop-color:#F24F30"/>
			<stop  offset="1" style="stop-color:#5119BA"/>
		</linearGradient>
		<path class="st7" d="M30.4,21.9c-4.7,0-8.5,3.8-8.5,8.4c0,4.7,3.8,8.5,8.5,8.5c4.7,0,8.4-3.8,8.4-8.4C38.8,25.7,35,21.9,30.4,21.9
			z M30.3,35.8c-3,0-5.4-2.5-5.4-5.5c0-3,2.4-5.5,5.5-5.5c3,0,5.4,2.5,5.4,5.5C35.8,33.4,33.4,35.8,30.3,35.8z"/>
	</g>
</g>
</svg>
