<?xml version="1.0" encoding="utf-8"?>
<!-- Generator: Adobe Illustrator 26.2.1, SVG Export Plug-In . SVG Version: 6.00 Build 0)  -->
<svg version="1.1" id="icon_x5F_Deleat" xmlns="http://www.w3.org/2000/svg" xmlns:xlink="http://www.w3.org/1999/xlink" x="0px"
	 y="0px" viewBox="0 0 34 34" style="enable-background:new 0 0 34 34;" xml:space="preserve">
<style type="text/css">
	.st0{fill:none;stroke:#0097C3;stroke-width:0.9755;stroke-miterlimit:10;}
	.st1{fill:#0097C3;stroke:#1D4F95;stroke-width:1.5;stroke-miterlimit:10;}
	.st2{fill:none;stroke:#1D4F95;stroke-width:1.5;stroke-miterlimit:10;}
	.st3{fill:none;stroke:#C6C6C6;stroke-width:1.5;stroke-miterlimit:10;}
	.st4{fill:none;stroke:#C6C6C6;stroke-miterlimit:10;}
	.st5{fill:#0097C3;}
</style>
<g>
	<circle class="st0" cx="17" cy="17" r="16.6"/>
	<g>
		<path class="st1" d="M22,20.6"/>
		<path class="st2" d="M25.5,20.6"/>
		<path class="st2" d="M25.2,17.4"/>
		<path class="st2" d="M22,17.4"/>
		<path class="st2" d="M22,17.4"/>
		<path class="st1" d="M22,21.1"/>
		<path class="st2" d="M25.2,17.4"/>
	</g>
</g>
<g>
	<g>
		<g>
			<path class="st3" d="M12.3,6.5c-0.6,0-0.9,0-1.5,0s-1.2,0-1.9,0C8.6,6.5,8.3,6.6,8,6.7C7.8,6.8,7.6,7,7.4,7.2
				c-0.3,0.4-0.3,1-0.3,1.4c0,0.2,0,0.4,0,0.5c0,1.1,0,2.2,0,3.3c0,1.7,0,3.3,0,5s0,3.3,0,5c0,1.1,0,2.2,0,3.3c0,0.2,0,0.4,0,0.5
				c0,0.5,0.1,1,0.3,1.4c0.4,0.5,0.9,0.7,1.5,0.7c0.3,0,0.5,0,0.8,0c0.5,0,0.9,0,1.4,0c1.5,0,3,0,4.5,0c1.7,0,3.4,0,5.1,0
				c1.2,0,2.3,0,3.5,0c0.2,0,0.4,0,0.7,0c0.5,0,1.2-0.2,1.5-0.6c0.4-0.4,0.5-1,0.5-1.6s0-1.2,0-1.8c0-1.4,0-2.9,0-4.3
				c0-1.7,0-3.5,0-5.2c0-1.5,0-2.9,0-4.4c0-0.7,0-1.3,0-2l0,0"/>
			<path class="st3" d="M26.9,8.7c0-0.6-0.1-1.2-0.5-1.6s-1-0.5-1.6-0.6c-0.6,0-2.1,0-2.7,0"/>
			<path class="st4" d="M12,7c0,0.5,0,0.9,0.2,1.3C12.5,8.8,13,9,13.5,9s1,0,1.5,0c1.6,0,3.2,0,4.8,0c0.3,0,0.5,0,0.8,0
				c0.6,0,1.2-0.4,1.4-1c0-0.3,0-0.6,0-1"/>
		</g>
	</g>
	<g>
		<g>
			<path class="st3" d="M22,6.6c0-0.7-0.4-1.2-1.1-1.4c-0.2-0.1-0.5,0-0.8,0c-0.5,0-1,0-1.6,0c-0.3,0,0.3-0.4,0-0.8
				c-0.4-0.4-0.9-0.6-1.4-0.7c-0.6-0.1-1.1,0.2-1.6,0.5c-0.5,0.4,0.1,1-0.2,1c-0.6,0-1.3,0-1.9,0c-0.7,0-1.2,0.4-1.4,1
				c0,0.2,0,0.4,0,0.6c0,0.2,0,0.4,0,0.6s0,0.4,0.1,0.6c0.2,0.5,0.5,0.8,0.9,1c0.2,0.1,0.5,0,0.7,0c0.6,0,1.2,0,1.8,0
				c1.5,0,3.1,0,4.6,0c0.5,0,0.9,0,1.3-0.3c0.3-0.2,0.5-0.5,0.6-0.8c0-0.2,0-0.3,0-0.5S22,6.9,22,6.6"/>
		</g>
	</g>
	<g>
		<g>
			<path class="st5" d="M22.4,14.2c-1.3,0-2.6,0-3.9,0c-0.4,0-0.7,0-1.1,0c-0.3,0-0.6,0.3-0.6,0.6s0.3,0.6,0.6,0.6
				c1.3,0,2.6,0,3.9,0c0.4,0,0.7,0,1.1,0c0.3,0,0.6-0.3,0.6-0.6S22.7,14.2,22.4,14.2L22.4,14.2z"/>
		</g>
	</g>
	<g>
		<g>
			<path class="st5" d="M17.4,22.6c1.3,0,2.6,0,3.9,0c0.4,0,0.7,0,1.1,0c0.3,0,0.6-0.3,0.6-0.6c0-0.3-0.3-0.6-0.6-0.6
				c-1.3,0-2.6,0-3.9,0c-0.4,0-0.7,0-1.1,0c-0.3,0-0.6,0.3-0.6,0.6C16.8,22.3,17.1,22.6,17.4,22.6L17.4,22.6z"/>
		</g>
	</g>
	<g>
		<g>
			<path class="st5" d="M13.9,13.4c-0.6,0.6-1.3,1.3-1.9,1.9c0.3,0,0.5,0,0.8,0c-0.4-0.4-0.7-0.7-1.1-1.1c-0.2-0.2-0.6-0.2-0.8,0
				s-0.2,0.6,0,0.8c0.4,0.4,0.7,0.7,1.1,1.1c0.2,0.2,0.6,0.2,0.8,0c0.6-0.6,1.3-1.3,1.9-1.9c0.2-0.2,0.2-0.6,0-0.8
				C14.5,13.2,14.1,13.2,13.9,13.4L13.9,13.4z"/>
		</g>
	</g>
	<g>
		<g>
			<path class="st5" d="M13.5,20.6c-0.7,0.7-1.4,1.4-2.2,2.2c-0.2,0.2-0.2,0.6,0,0.8c0.2,0.2,0.6,0.2,0.8,0c0.7-0.7,1.4-1.4,2.2-2.2
				c0.2-0.2,0.2-0.6,0-0.8C14.1,20.4,13.7,20.4,13.5,20.6L13.5,20.6z"/>
		</g>
	</g>
	<g>
		<g>
			<path class="st5" d="M11.4,21.4c0.7,0.7,1.4,1.4,2.2,2.2c0.2,0.2,0.6,0.2,0.8,0s0.2-0.6,0-0.8c-0.7-0.7-1.4-1.4-2.2-2.2
				c-0.2-0.2-0.6-0.2-0.8,0C11.1,20.8,11.1,21.1,11.4,21.4L11.4,21.4z"/>
		</g>
	</g>
</g>
</svg>
