<?xml version="1.0" encoding="utf-8"?>
<!-- Generator: Adobe Illustrator 21.0.2, SVG Export Plug-In . SVG Version: 6.00 Build 0)  -->
<svg version="1.1" id="Layer_1" xmlns="http://www.w3.org/2000/svg" xmlns:xlink="http://www.w3.org/1999/xlink" x="0px" y="0px"
	 viewBox="0 0 750.9 287.7" style="enable-background:new 0 0 750.9 287.7;" xml:space="preserve">
<style type="text/css">
	.st0{fill-rule:evenodd;clip-rule:evenodd;fill:#FFE01B;}
	.st1{fill-rule:evenodd;clip-rule:evenodd;fill:#204F96;}
</style>
<polygon class="st0" points="0,127.4 77,199.2 77,83 0,0 "/>
<polygon class="st1" points="0,147.6 0,287.7 75.2,287.7 75.2,216 "/>
<rect x="593.3" y="215.4" class="st1" width="71" height="72.4"/>
<path class="st1" d="M331.3,131.4c-40.6,0-73.4,32.4-73.4,72.1h155v-72.1H331.3z"/>
<path class="st1" d="M332.2,287.7c-40.6,0-73.9-32.8-73.9-72.5h155v72.5H332.2z"/>
<path class="st1" d="M425.9,204.8c0-40.6,33-73.4,72.6-73.4v156.3h-72.6V204.8z"/>
<path class="st1" d="M582.9,204.8c0-40.6-32.4-73.4-72.5-73.4v156.3h72.5V204.8z"/>
<path class="st1" d="M668.9,131.4c-40.2,0-73.5,32.4-73.5,72.1h155.5v-72.1H668.9z"/>
<path class="st1" d="M171.4,287.7c40.6,0,73.4-32.8,73.4-72.5h-155v72.5H171.4z"/>
<path class="st1" d="M163.3,131.4c-40.6,0-73.5,32.4-73.5,72.1h155v-72.1H163.3z"/>
<g>
	<path d="M297.9,61.9c1.4,5.4,5.1,15,9.2,28.5h0.1c3.2-8.1,9.2-21,12-28.5h6.6c-0.3,8.8-0.5,17.6-0.5,26.5c0,2.5,0.1,4.9,0.1,7.4
		h-4.5c0.3-8.8,0.6-18.3,0.6-29.5h-0.1l-12.2,29.5h-4.7L295,66.6h-0.1c-0.9,9.6-1.6,18.9-1.9,29.3h-4.3c1.2-10.7,2-22.9,2.8-33.9
		H297.9z"/>
	<path d="M336.2,82.7v1.4c0,5.8,3.7,9.1,9.4,9.1c2.5,0,5.3-0.8,7.7-1.6l-0.7,3.7c-2.5,0.7-5.1,1-7.7,1c-10.4,0-13.1-6.3-13.1-12.5
		c0-7.8,4.4-13.7,12.5-13.7c6.7,0,10.9,3.4,10.9,10.3c0,0.7-0.1,1.4-0.2,2.3H336.2z M351.3,80.1c0-4.2-1.9-7.3-6.4-7.3
		c-4.6,0-7.6,2.9-8.3,7.3H351.3z"/>
	<path d="M365.6,75.2l0.1-0.1c1.6-3.1,4.8-5,8.5-5c3.6,0,6.7,1.5,7.6,5.1c1.7-3.6,4.9-5.1,8.8-5.1c4.4,0,7.8,2.1,7.8,6.9
		c0,2.9-0.8,8.7-0.9,18.8h-4.3c0.3-5.7,0.8-11.4,0.8-17c0-3.4-1.6-5.3-5.1-5.3c-1.5,0-4.4,0.7-6,4.2c-1.3,2.7-1.3,7.2-1.6,18.1h-4.5
		c0.3-5.7,0.8-11.4,0.8-17c0-3.4-1.6-5.3-5.1-5.3c-1.5,0-4.4,0.7-6,4.2c-1.3,2.7-1.3,7.2-1.6,18.1h-4.5c0.7-8,1.1-17.8,1.1-25.1h4.2
		L365.6,75.2z"/>
	<path d="M409.5,95.8h-4.3c0.8-11.3,1.1-22.5,1.4-33.9h4.6c-0.3,3-0.5,6.1-0.6,9.1c2.4-0.6,4.9-1,7.4-1c6.7,0,12.4,2.9,12.4,12.1
		c0,7.4-3.7,14.1-11.9,14.1c-4.1,0-7.4-1.9-8.9-5.7l-0.1,0.1V95.8z M410,83.9c0,6,2.8,9.3,7.7,9.3c6,0,8.3-5.7,8.3-10.9
		c0-5.7-3-9-8.8-9c-2.3,0-4.7,0.5-7,1.3C410.2,77.3,410,80.1,410,83.9z"/>
	<path d="M439.8,82.7v1.4c0,5.8,3.7,9.1,9.4,9.1c2.5,0,5.3-0.8,7.7-1.6l-0.7,3.7c-2.5,0.7-5.1,1-7.7,1c-10.4,0-13.1-6.3-13.1-12.5
		c0-7.8,4.4-13.7,12.5-13.7c6.7,0,10.9,3.4,10.9,10.3c0,0.7-0.1,1.4-0.2,2.3H439.8z M454.9,80.1c0-4.2-1.9-7.3-6.4-7.3
		c-4.6,0-7.6,2.9-8.3,7.3H454.9z"/>
	<path d="M469,74.7h0.1c1.6-3.1,3.9-4.6,7.6-4.6c0.7,0,1.4,0.1,2,0.3l0.2,3.7c-0.9-0.3-1.9-0.4-2.8-0.4c-4.2,0-6.3,3.3-6.9,7
		c-0.5,3.3-0.5,8.9-0.5,15.1h-4.5c0.4-7.3,0.9-14.6,0.9-25.1h4.2L469,74.7z"/>
	<path d="M505.4,61.9c-0.8,11.3-1,22.6-1.2,33.9h-5c0.6-10.7,1.3-21.4,1.3-33.9H505.4z"/>
	<path d="M521.6,61.9c1.4,5.4,5.1,15,9.2,28.5h0.1c3.2-8.1,9.2-21,12-28.5h6.6c-0.3,8.8-0.5,17.6-0.5,26.5c0,2.5,0.1,4.9,0.1,7.4
		h-4.5c0.3-8.8,0.6-18.3,0.6-29.5h-0.1l-12.2,29.5h-4.7l-9.5-29.3h-0.1c-0.9,9.6-1.6,18.9-1.9,29.3h-4.3c1.2-10.7,2-22.9,2.8-33.9
		H521.6z"/>
	<path d="M582.5,95.4c-2.9,0.6-5.8,1-8.7,1c-10.3,0-17.9-5.7-17.9-16.6c0-11.8,7.7-18.4,19.2-18.4c2.7,0,5.5,0.4,8.2,0.9l0.3,3.9
		c-2.7-0.8-5.4-1.4-8.3-1.4c-8.8,0-14.7,5.8-14.7,14.7c0,8.2,5.1,13.5,13.4,13.5c3.1,0,6.2-0.6,9.2-1.5L582.5,95.4z"/>
	<path d="M624.9,76.8h12.1c-0.4,4.8-0.6,9.6-0.8,17.9c-4.3,0.9-8.5,1.6-12.9,1.6c-10.6,0-18.6-4.9-18.6-16.4c0-7,3.9-18.6,20.3-18.6
		c3.6,0,7.2,0.5,10.6,1.3l0.3,4c-3.5-1.1-7-1.9-10.7-1.9c-10.5,0-15.8,6.9-15.8,15c0,9,5.4,13.2,13.9,13.2c2.9,0,5.8-0.5,8.6-1.3
		l0.5-11.6h-7.7L624.9,76.8z"/>
	<path d="M648.9,74.7h0.1c1.6-3.1,3.9-4.6,7.6-4.6c0.7,0,1.4,0.1,2,0.3l0.2,3.7c-0.9-0.3-1.9-0.4-2.8-0.4c-4.2,0-6.3,3.3-6.9,7
		c-0.5,3.3-0.5,8.9-0.5,15.1h-4.5c0.4-7.3,0.9-14.6,0.9-25.1h4.2L648.9,74.7z"/>
	<path d="M686.3,82.5c0,6.6-3.4,13.9-13.3,13.9c-7.6,0-12.5-4.8-12.5-12.5c0-8.3,4.9-13.8,13.4-13.8
		C681.6,70.1,686.3,74.8,686.3,82.5z M664.9,84c0,5.2,2.6,9.2,8.3,9.2c6.4,0,8.8-5,8.8-10.8c0-5.6-2.6-9.1-8.5-9.1
		C667.6,73.3,664.9,77.9,664.9,84z"/>
	<path d="M711.5,91.1l-0.1,0.1c-1.8,3.9-5.7,5.1-9.7,5.1c-5.5,0-9.5-2.2-9.5-8.2c0-3.7,0.8-11.7,0.8-17.5h4.4
		c-0.3,5.4-0.9,10.8-0.9,16.3c0,4.3,2.7,6,6.4,6c5.5,0,8.1-3.3,8.8-8.1c0.5-3.8,0.6-9.9,0.7-14.2h4.4c-0.6,8.4-1.1,16.8-1.2,25.1
		h-4.2L711.5,91.1z"/>
	<path d="M723.3,107c0.8-11.8,1.2-23.6,1.4-35.4c3.7-0.8,7.4-1.5,11.8-1.5c6.7,0,12.4,2.9,12.4,12.1c0,7.4-3.7,14.1-11.9,14.1
		c-3.6,0-6.8-1.6-8.7-5h-0.1c0,4.5-0.4,9.1-0.4,15.6H723.3z M728.5,83.9c0,6,2.8,9.3,7.7,9.3c6,0,8.3-5.7,8.3-10.9c0-5.7-3-9-8.8-9
		c-2.3,0-4.7,0.5-7,1.3C728.8,77.3,728.5,80.1,728.5,83.9z"/>
</g>
</svg>
