<?xml version="1.0" encoding="utf-8"?>
<!-- Generator: Adobe Illustrator 21.0.1, SVG Export Plug-In . SVG Version: 6.00 Build 0)  -->
<svg version="1.1" id="Layer_1" xmlns="http://www.w3.org/2000/svg" xmlns:xlink="http://www.w3.org/1999/xlink" x="0px" y="0px"
	 viewBox="0 0 389.9 109.3" style="enable-background:new 0 0 389.9 109.3;" xml:space="preserve">
<style type="text/css">
	.st0{fill:#ED1C24;stroke:#000000;stroke-width:1.5;stroke-miterlimit:10;}
	.st1{fill:none;}
	.st2{fill:#FFFFFF;}
	.st3{fill:none;stroke:#000000;stroke-width:1.5;stroke-linecap:round;stroke-linejoin:round;stroke-miterlimit:10;}
</style>
<g>
	<g>
		<path d="M6.3,94.1h2.9l2.6,10.9h0l4.7-10.9h2.7l-6.3,14.8H10L7.4,98H7.3l-4.6,10.9H0L6.3,94.1z"/>
		<path d="M27,94.1h11.5l-1,2.2h-8.7l-1.7,3.9h8l-0.9,2.1h-8l-1.8,4.3h8.8l-1,2.2H20.7L27,94.1z"/>
		<path d="M56.8,101.5c-1.8,4.2-6.2,7.8-11,7.8c-4.8,0-6.1-3.5-4.3-7.8c1.8-4.2,6.2-7.8,11-7.8S58.6,97.3,56.8,101.5z M44.3,101.5
			c-1.2,2.8-1,5.6,2.4,5.6c3.4,0,6-2.8,7.3-5.6c1.2-2.8,1-5.6-2.4-5.6C48.1,95.8,45.5,98.6,44.3,101.5z"/>
		<path d="M77.5,94.1h2.8L74,108.9h-2.8L77.5,94.1z"/>
		<path d="M85.8,104c-1,2.3,0.5,3.2,2.7,3.2c2.5,0,3.9-1.1,4.3-2.2c0.5-1.1,0-1.6-0.5-1.8c-0.9-0.4-2.3-0.7-4.2-1.2
			c-2.4-0.7-2.6-2.2-1.9-3.8c1.3-3,4.8-4.4,7.7-4.4c3.3,0,5.4,1.6,4.1,4.7h-2.8c0.7-1.9-0.4-2.6-2.3-2.6c-1.3,0-3.1,0.4-3.7,1.9
			c-0.4,1,0.1,1.6,1.1,1.9c0.2,0.1,3.4,0.9,4.1,1.1c1.9,0.6,2.1,2.2,1.5,3.8c-1.4,3.3-5.2,4.7-8.3,4.7c-3.6,0-5.9-1.6-4.4-5.3H85.8z
			"/>
		<path d="M115.8,98.8c0.3-1.7-0.4-2.9-2.7-2.9c-3.4,0-6,2.8-7.3,5.6c-1.2,2.8-1,5.6,2.4,5.6c2.5,0,4.6-1.7,5.7-3.9h2.7
			c-1.7,3.6-5.5,6-9.3,6c-4.8,0-6.1-3.5-4.3-7.8c1.8-4.2,6.2-7.8,11-7.8c3.6,0,5.6,1.9,4.6,5.1H115.8z"/>
		<path d="M131.9,94.1h3l-0.2,14.8h-3l0.2-3.9h-6.4l-3.2,3.9h-2.9L131.9,94.1z M127.1,103h4.9l0.3-6.4h-0.1L127.1,103z"/>
		<path d="M147,94.1h7.6c3.5,0,4.6,1.5,3.6,4c-1.2,2.8-3.6,3.6-4.2,3.7l0,0c0.9,0.1,2,0.8,1,3.1c-0.7,1.7-1.1,3.3-0.8,3.9h-3
			c-0.2-0.6,0.2-1.5,0.5-2.2c1.2-2.7,1.1-3.9-1.5-3.9H146l-2.6,6.1h-2.8L147,94.1z M146.9,100.8h4.6c1.8,0,3.1-0.8,3.7-2.4
			c0.8-1.9-0.4-2.3-1.8-2.3h-4.5L146.9,100.8z"/>
		<path d="M176.2,94.1h12.9l-1,2.2h-5.1l-5.4,12.6H175l5.4-12.6h-5L176.2,94.1z"/>
		<path d="M206.7,101.5c-1.8,4.2-6.2,7.8-11,7.8c-4.8,0-6.1-3.5-4.3-7.8c1.8-4.2,6.2-7.8,11-7.8S208.5,97.3,206.7,101.5z
			 M194.2,101.5c-1.2,2.8-1,5.6,2.4,5.6c3.4,0,6-2.8,7.3-5.6c1.2-2.8,1-5.6-2.4-5.6C198.1,95.8,195.4,98.6,194.2,101.5z"/>
		<path d="M228.1,101.5c-1.8,4.2-6.2,7.8-11,7.8c-4.8,0-6.1-3.5-4.3-7.8c1.8-4.2,6.2-7.8,11-7.8S229.9,97.3,228.1,101.5z
			 M215.6,101.5c-1.2,2.8-1,5.6,2.4,5.6c3.4,0,6-2.8,7.3-5.6c1.2-2.8,1-5.6-2.4-5.6C219.5,95.8,216.8,98.6,215.6,101.5z"/>
		<path d="M238.3,94.1h2.8l-5.4,12.6h8.1l-1,2.2h-10.9L238.3,94.1z"/>
		<path d="M270.4,94.1h3l-0.2,14.8h-3l0.2-3.9H264l-3.2,3.9H258L270.4,94.1z M265.6,103h4.9l0.3-6.4h-0.1L265.6,103z"/>
		<path d="M285.5,94.1h6.6c4.9,0,5.6,3.3,3.9,7.4c-1.7,4.1-5.3,7.4-10.2,7.4h-6.6L285.5,94.1z M282.8,106.8h2.7
			c4.4,0,6.3-2.3,7.6-5.3c1.3-3,1.3-5.3-3.1-5.3h-2.7L282.8,106.8z"/>
		<path d="M304.2,94.1h2.9l-1,11.7h0l9.1-11.7h2.8l-11.8,14.8h-3.1L304.2,94.1z"/>
		<path d="M324.1,94.1h2.8l-6.3,14.8h-2.8L324.1,94.1z"/>
		<path d="M332.4,104c-1,2.3,0.5,3.2,2.7,3.2c2.5,0,3.9-1.1,4.3-2.2c0.5-1.1,0-1.6-0.5-1.8c-0.9-0.4-2.3-0.7-4.2-1.2
			c-2.4-0.7-2.6-2.2-1.9-3.8c1.3-3,4.8-4.4,7.7-4.4c3.3,0,5.4,1.6,4.1,4.7h-2.8c0.7-1.9-0.4-2.6-2.3-2.6c-1.3,0-3.1,0.4-3.7,1.9
			c-0.4,1,0.1,1.6,1.1,1.9c0.2,0.1,3.4,0.9,4.1,1.1c1.9,0.6,2.1,2.2,1.5,3.8c-1.4,3.3-5.2,4.7-8.3,4.7c-3.6,0-5.9-1.6-4.4-5.3H332.4
			z"/>
		<path d="M364.9,101.5c-1.8,4.2-6.2,7.8-11,7.8c-4.8,0-6.1-3.5-4.3-7.8c1.8-4.2,6.2-7.8,11-7.8S366.7,97.3,364.9,101.5z
			 M352.4,101.5c-1.2,2.8-1,5.6,2.4,5.6c3.4,0,6-2.8,7.3-5.6c1.2-2.8,1-5.6-2.4-5.6C356.3,95.8,353.6,98.6,352.4,101.5z"/>
		<path d="M375.1,94.1h7.6c3.5,0,4.6,1.5,3.6,4c-1.2,2.8-3.6,3.6-4.2,3.7l0,0c0.9,0.1,2,0.8,1,3.1c-0.7,1.7-1.1,3.3-0.8,3.9h-3
			c-0.2-0.6,0.2-1.5,0.5-2.2c1.2-2.7,1.1-3.9-1.5-3.9h-4.1l-2.6,6.1h-2.8L375.1,94.1z M375,100.8h4.6c1.8,0,3.1-0.8,3.7-2.4
			c0.8-1.9-0.4-2.3-1.8-2.3h-4.5L375,100.8z"/>
	</g>
	<path class="st0" d="M283.7,22.6h-25.1l9.1-21.4h78l-9.1,21.4h-25.1l-26.4,62h-27.7L283.7,22.6z"/>
	<polygon class="st0" points="362.1,1.3 293.5,84.7 321.3,84.7 330.4,72.8 358.9,72.8 357.6,84.7 386.3,84.7 389.2,1.3 	"/>
	<path d="M40.8,1.6h8.8l22.8,70.3h0.2L98.3,1.6h7.9L75.9,84.7h-8.8L44.3,14.4H44L18.4,84.7h-7.9L40.8,1.6z"/>
	<path d="M115.4,1.6h57.4l-2.5,6.7h-49.5l-10.9,30h46.3l-2.5,6.7h-46.3L95.5,77.9h50l-2.5,6.7h-58L115.4,1.6z"/>
	<path class="st0" d="M214.4,1.3l-0.8,2.6c7.2,1.1,20.8,5,23.9,19.4c2.5,11.6-15.7,43.2-24.2,48.3c-10.6,6.4-19.3,9.4-22.7,10.4
		l-0.8,2.6h35.5l35.6-83.4H214.4z"/>
	<g>
		<path class="st1" d="M212.2,6.7c-22,0-38,18.4-44.6,36.5c-6.6,18.2-4,36.5,18,36.5c21.9,0,37.9-18.4,44.5-36.5
			S234.1,6.7,212.2,6.7z"/>
		<path d="M214.6,0c-26.2,0-46.7,20.6-55,43.3s-2.7,43.3,23.5,43.3c26.1,0,46.6-20.6,54.9-43.3S240.7,0,214.6,0z M230.1,43.3
			c-6.6,18.2-22.6,36.5-44.5,36.5c-22,0-24.6-18.4-18-36.5c6.6-18.2,22.6-36.5,44.6-36.5C234.1,6.7,236.7,25.1,230.1,43.3z"/>
	</g>
	<g id="XMLID_14_">
		<g>
			<g>
				<polygon class="st2" points="368.3,25.4 369.6,68.6 358.9,52.2 340.3,58.3 				"/>
			</g>
			<g>
				<polyline class="st3" points="358.9,52.2 340.3,58.3 368.3,25.4 				"/>
				<polyline class="st3" points="368.3,25.4 369.6,68.6 358.9,52.2 				"/>
			</g>
		</g>
	</g>
</g>
</svg>
