<?xml version="1.0" encoding="utf-8"?>
<!-- Generator: Adobe Illustrator 21.1.0, SVG Export Plug-In . SVG Version: 6.00 Build 0)  -->
<svg version="1.1" xmlns="http://www.w3.org/2000/svg" xmlns:xlink="http://www.w3.org/1999/xlink" x="0px" y="0px"
	 viewBox="0 0 141.6 141.6" style="enable-background:new 0 0 141.6 141.6;" xml:space="preserve">
<style type="text/css">
	.st0{fill:#FEE000;}
	.st1{fill:#164989;}
</style>
<g id="Background_xA0_Image_1_">
	<rect x="0" y="-0.1" class="st0" width="141.5" height="141.7"/>
</g>
<g id="Vector_Smart_Object_xA0_Image_1_">
	<path class="st1" d="M107.8,102.6c0.2,9.2,0.5,18.4,0.6,27.6c0,1-0.4,2.4-1,2.8c-1.4,0.8-2.2-0.5-3-1.6
		c-8.9-13.5-17.8-26.9-26.6-40.5c-1.3-2-2.4-2.5-4.8-1.7c-15.3,5.1-30.6,10.1-45.9,15c-1,0.3-2.8,0.4-3.4-0.2
		c-1.2-1.2,0-2.4,0.9-3.5C50,70.6,75.4,40.6,100.9,10.8c0.6-0.7,2-1.2,2.8-1c0.6,0.1,1.2,1.6,1.2,2.5c0.6,19.5,1.1,39,1.7,58.5
		C106.9,81.4,107.3,92,107.8,102.6C107.7,102.6,107.7,102.6,107.8,102.6z M103.7,123.1c0.2-0.1,0.4-0.1,0.7-0.2
		c-1.1-35.1-2.2-70.3-3.3-105.4c-0.3,0-0.5-0.1-0.8-0.1C77.5,44.2,54.8,71,32,97.8c1,0.2,1.6,0.1,2.3-0.1
		c13.6-4.4,27.2-8.9,40.8-13.4c1.9-0.6,2.9-0.3,4,1.4c7.7,11.8,15.5,23.5,23.2,35.3C102.7,121.7,103.2,122.4,103.7,123.1z"/>
</g>
</svg>
