<?xml version="1.0" encoding="utf-8"?>
<!-- Generator: Adobe Illustrator 21.0.1, SVG Export Plug-In . SVG Version: 6.00 Build 0)  -->
<svg version="1.1" id="Layer_1" xmlns="http://www.w3.org/2000/svg" xmlns:xlink="http://www.w3.org/1999/xlink" x="0px" y="0px"
	 viewBox="0 0 200 200" style="enable-background:new 0 0 200 200;" xml:space="preserve">
<style type="text/css">
	.st0{fill:#E6E7E8;}
	.st1{fill:#ED1C24;}
	.st2{clip-path:url(#SVGID_2_);fill:#6D6E71;}
	.st3{clip-path:url(#SVGID_2_);}
	.st4{clip-path:url(#SVGID_4_);}
	.st5{fill:#1A171B;}
	.st6{fill:#FFCB05;}
	.st7{clip-path:url(#SVGID_2_);fill:none;}
	.st8{clip-path:url(#SVGID_6_);fill:#6D6E71;}
	.st9{clip-path:url(#SVGID_6_);}
	.st10{clip-path:url(#SVGID_8_);}
	.st11{clip-path:url(#SVGID_6_);fill:none;}
</style>
<g>
	<rect x="212.4" y="295.7" class="st0" width="170.1" height="170.1"/>
	<g>
		<g>
			<g>
				<g>
					<polygon class="st1" points="316.8,312.5 336.3,320.4 331.7,312.5 336.3,304.5 					"/>
				</g>
			</g>
			<g>
				<g>
					<polygon class="st1" points="368.4,311.9 348.8,319.9 353.5,311.9 348.8,303.9 					"/>
				</g>
			</g>
			<g>
				<polygon class="st1" points="347.7,312.3 331.2,309.1 331.2,315.1 				"/>
				<polygon class="st1" points="337.1,312.3 353.7,309.1 353.7,315.1 				"/>
			</g>
		</g>
	</g>
	<g>
		<defs>
			<rect id="SVGID_1_" x="212.9" y="295.2" width="170.1" height="170.1"/>
		</defs>
		<clipPath id="SVGID_2_">
			<use xlink:href="#SVGID_1_"  style="overflow:visible;"/>
		</clipPath>
		
			<rect x="257.5" y="353.7" transform="matrix(6.123234e-17 -1 1 6.123234e-17 -111.1151 677.691)" class="st2" width="51.5" height="81.4"/>
		
			<rect x="163.6" y="388.4" transform="matrix(6.123234e-17 -1 1 6.123234e-17 -178.8527 628.9883)" class="st2" width="123" height="31"/>
		<g class="st3">
			<defs>
				<path id="SVGID_3_" d="M274,420.1h17.8c0,0,21.9,48-9.8,51.6s-46.8-33.8-47.7-45.6s-5-41.2,7.7-46.5c12.7-5.3,30.8-6.8,30.5,3.6
					S274,420.1,274,420.1z"/>
			</defs>
			<clipPath id="SVGID_4_">
				<use xlink:href="#SVGID_3_"  style="overflow:visible;"/>
			</clipPath>
			<g class="st4">
				<g>
					<g>
						<path class="st1" d="M255.1,396.6c-0.2,10.8,0.5,22.1,3.6,32.5c1.1,3.8,3.5,12,8.6,12.1c5,0.1,7.7-7.5,9-11.1
							c3.8-10.4,5.1-21.9,5.5-32.9c0-0.2,0-3.7,0.1-1.8c0.2,2.2-0.1,4.6-0.2,6.8c-0.3,11.1-1.2,22.2-4.1,32.9
							c-1.2,4.4-4.2,16.2-10.6,16c-6.2-0.2-8.6-11.5-9.6-15.9c-2.5-11-2.8-22.5-2.6-33.7c0-2.3-0.1-4.6,0.2-6.8
							C255.3,393.1,255.1,396.2,255.1,396.6L255.1,396.6z"/>
					</g>
					<g>
						<g>
							<polygon class="st1" points="255.4,392.6 247,411.9 255,407.5 262.9,412.3 							"/>
						</g>
					</g>
				</g>
			</g>
		</g>
		<g id="XMLID_3_" class="st3">
			<g>
				<path class="st5" d="M320.4,356.2c1.5,0,2.6,1.2,2.6,2.6c0,1.4-1.2,2.6-2.6,2.6c-1.5,0-2.6-1.2-2.6-2.6
					C317.8,357.4,319,356.2,320.4,356.2z"/>
				<path class="st6" d="M320.9,350.6l1.5-0.1l5.6-0.3h0.2l0.3,0.1l0.3,0.2l0.2,0.2l0.1,0.3l0,0.3l-0.5,5.6l-0.1,1.5v0.5l-0.1,0.5
					l0,6.8l0,0.1v0v0.1l0,0l0,0l0,0.1l0,0l0,0l0,0l0,0l0,0l0,0l0,0l0,0l0,0l-0.1,0.1l0,0h0l0,0l0,0l0,0l0,0l0,0l0,0l0,0h0l0,0
					l-0.1,0h0h-0.1h0l-6.8-0.1l-0.3-0.1h-0.5l-1.5,0.1l-5.8,0.5h-0.2l-0.3-0.1l-0.3-0.2l-0.2-0.2l-0.1-0.3l0-0.3l0.6-5.8l0.1-1.5
					v-0.5l-0.1-0.3l0-6.8v-0.1l0,0v0l0-0.1l0,0v0l0,0l0-0.1l0,0l0,0l0,0l0,0l0,0l0,0l0,0l0,0l0,0l0,0l0,0l0,0l0,0l0,0l0,0l0,0l0.1,0
					l0,0l0,0l0,0h0.1l0,0h0.1h0l6.8,0.1l0.5-0.1H320.9z M323.1,358.9c0-1.5-1.2-2.6-2.6-2.6c-1.5,0-2.6,1.2-2.6,2.6
					c0,1.4,1.2,2.6,2.6,2.6C321.9,361.5,323.1,360.3,323.1,358.9z"/>
				<polygon class="st5" points="312.7,350.7 312.6,350.7 312.6,350.8 312.6,350.8 312.5,350.8 312.5,350.8 312.5,350.9 
					312.4,350.9 312.4,351 312.4,351 312.4,351 312.3,351.1 312.3,351.1 312.3,351.2 312.3,351.2 312.2,351.3 312.2,349.4 
					312.2,346.4 332.1,326.5 334.1,326.5 334.6,326.5 334.6,326.5 341.8,326.5 343.4,326.5 344.3,326.5 502.5,326.5 503.8,327.8 
					503.8,357.3 502.5,358.5 344.3,358.5 344,358.5 343.7,358.6 343.4,358.7 343.3,358.8 342.6,359.5 335.2,366.9 329.5,366.9 
					328.1,366.9 328.1,366.8 328.2,366.8 328.2,366.7 328.2,366.7 328.3,366.7 328.3,366.6 328.3,366.6 328.4,366.5 328.4,366.5 
					328.4,366.5 328.4,366.4 328.4,366.4 328.5,366.3 328.5,366.3 328.5,366.2 328.5,366.2 328.5,366.1 328.5,359.3 328.6,358.8 
					328.6,358.4 328.7,356.9 329.2,351.2 329.1,350.9 329,350.6 328.8,350.4 328.5,350.2 328.2,350.1 328.1,350.1 322.4,350.5 
					320.9,350.6 320.5,350.6 320,350.6 313.2,350.6 313.2,350.6 313.1,350.6 313.1,350.6 313,350.6 313,350.6 312.9,350.6 
					312.9,350.6 312.8,350.6 312.8,350.7 312.7,350.7 				"/>
			</g>
			<g>
			</g>
		</g>
		<rect x="213.3" y="295.4" class="st7" width="169.1" height="169.6"/>
		<rect x="213.3" y="295.4" class="st7" width="169.1" height="169.6"/>
	</g>
</g>
<g>
	<rect x="-0.5" y="0.1" class="st0" width="200.4" height="200.4"/>
	<g>
		<g>
			<g>
				<g>
					<polygon class="st1" points="122.6,19.8 145.6,29.2 140.1,19.8 145.6,10.4 					"/>
				</g>
			</g>
			<g>
				<g>
					<polygon class="st1" points="183.3,19.1 160.3,28.5 165.8,19.1 160.3,9.7 					"/>
				</g>
			</g>
			<g>
				<polygon class="st1" points="159,19.6 139.5,15.8 139.5,22.9 				"/>
				<polygon class="st1" points="146.5,19.6 166,15.8 166,22.9 				"/>
			</g>
		</g>
	</g>
	<g>
		<defs>
			<rect id="SVGID_5_" x="0.1" y="-0.5" width="200.4" height="200.4"/>
		</defs>
		<clipPath id="SVGID_6_">
			<use xlink:href="#SVGID_5_"  style="overflow:visible;"/>
		</clipPath>
		
			<rect x="52.7" y="68.4" transform="matrix(6.123234e-17 -1 1 6.123234e-17 -33.2958 199.4369)" class="st8" width="60.7" height="96"/>
		
			<rect x="-58" y="109.3" transform="matrix(6.123234e-17 -1 1 6.123234e-17 -113.1249 142.0406)" class="st8" width="145" height="36.5"/>
		<g class="st9">
			<defs>
				<path id="SVGID_7_" d="M72.1,146.7H93c0,0,25.8,56.6-11.5,60.8s-55.2-39.8-56.2-53.8s-5.9-48.5,9.1-54.8c15-6.3,36.3-8,36,4.2
					C70,115.3,72.1,146.7,72.1,146.7z"/>
			</defs>
			<clipPath id="SVGID_8_">
				<use xlink:href="#SVGID_7_"  style="overflow:visible;"/>
			</clipPath>
			<g class="st10">
				<g>
					<g>
						<path class="st1" d="M49.9,118.9c-0.3,12.7,0.6,26.1,4.2,38.3c1.3,4.5,4.1,14.1,10.2,14.3c5.9,0.1,9.1-8.8,10.6-13.1
							c4.4-12.2,6-25.8,6.4-38.7c0-0.2,0-4.3,0.1-2.1c0.2,2.6-0.1,5.4-0.2,8.1c-0.4,13-1.4,26.1-4.9,38.8
							c-1.4,5.2-4.9,19.1-12.5,18.9c-7.3-0.2-10.1-13.5-11.3-18.7c-3-13-3.3-26.5-3.1-39.8c0.1-2.7-0.1-5.4,0.2-8.1
							C50.1,114.8,49.9,118.5,49.9,118.9L49.9,118.9z"/>
					</g>
					<g>
						<g>
							<polygon class="st1" points="50.2,114.2 40.2,137 49.8,131.8 59.1,137.5 							"/>
						</g>
					</g>
				</g>
			</g>
		</g>
		<g id="XMLID_1_" class="st9">
			<g>
				<path class="st5" d="M126.8,71.4c1.7,0,3.1,1.4,3.1,3.1c0,1.7-1.4,3.1-3.1,3.1s-3.1-1.4-3.1-3.1
					C123.7,72.8,125.1,71.4,126.8,71.4z"/>
				<path class="st6" d="M127.4,64.7l1.8-0.1l6.7-0.4h0.2l0.4,0.1l0.3,0.2l0.2,0.3l0.1,0.4l0,0.4l-0.5,6.6l-0.1,1.8v0.6l-0.1,0.5
					l0,8l0,0.1v0.1v0.1l0,0.1l0,0.1l0,0.1l0,0.1l0,0.1l0,0.1l0,0.1l0,0.1l0,0l-0.1,0.1l0,0l-0.1,0.1l-0.1,0.1l0,0h0l-0.1,0l-0.1,0
					l-0.1,0l-0.1,0l-0.1,0l-0.1,0l-0.1,0h-0.1l-0.1,0l-0.1,0h-0.1h-0.1h-0.1l-8-0.1l-0.4-0.1h-0.5l-1.8,0.1l-6.8,0.6h-0.2l-0.4-0.1
					l-0.3-0.2l-0.2-0.3l-0.1-0.4l0-0.4l0.7-6.8l0.2-1.8v-0.6l-0.1-0.4l0-8v-0.1l0-0.1v-0.1l0-0.1l0,0v0l0-0.1l0-0.1l0-0.1l0-0.1
					l0-0.1l0,0l0-0.1l0-0.1l0.1,0l0-0.1l0.1-0.1l0,0l0.1,0l0,0l0.1,0l0.1,0l0.1,0l0.1,0l0.1,0l0.1,0l0.1,0l0.1,0h0.1l0.1,0h0.1h0.1
					l8,0.1l0.6-0.1H127.4z M130,74.5c0-1.7-1.4-3.1-3.1-3.1s-3.1,1.4-3.1,3.1c0,1.7,1.4,3.1,3.1,3.1S130,76.2,130,74.5z"/>
				<polygon class="st5" points="343,37.8 343,72.6 341.4,74.1 155,74.1 154.6,74.1 154.2,74.1 153.9,74.3 153.8,74.5 153,75.3 
					144.3,83.9 137.5,83.9 135.9,83.9 135.9,83.9 136,83.8 136,83.8 136.1,83.7 136.1,83.7 136.1,83.6 136.2,83.6 136.2,83.5 
					136.2,83.5 136.2,83.4 136.3,83.4 136.3,83.3 136.3,83.2 136.3,83.2 136.3,83.1 136.3,83.1 136.3,83 136.4,75 136.5,74.5 
					136.5,73.9 136.6,72.1 137.1,65.5 137.1,65.1 137,64.8 136.7,64.5 136.4,64.3 136.1,64.2 135.8,64.2 129.2,64.6 127.4,64.7 
					126.9,64.7 126.3,64.8 118.4,64.7 118.3,64.7 118.2,64.7 118.2,64.7 118.1,64.7 118.1,64.7 118,64.7 117.9,64.8 117.9,64.8 
					117.8,64.8 117.8,64.8 117.7,64.9 117.7,64.9 117.6,64.9 117.6,65 117.6,65 117.5,65 117.5,65.1 117.4,65.1 117.4,65.2 
					117.3,65.2 117.3,65.3 117.3,65.3 117.3,65.4 117.2,65.4 117.2,65.5 117.2,65.5 117.2,63.4 117.2,59.7 140.6,36.3 142.9,36.3 
					143.5,36.3 143.6,36.3 152.1,36.3 153.9,36.3 155,36.3 341.4,36.3 				"/>
			</g>
			<g>
			</g>
		</g>
		<rect x="0.6" y="-0.3" class="st11" width="199.3" height="199.9"/>
		<rect x="0.6" y="-0.3" class="st11" width="199.3" height="199.9"/>
	</g>
</g>
</svg>
