<?xml version="1.0" encoding="utf-8"?>
<!-- Generator: Adobe Illustrator 21.0.1, SVG Export Plug-In . SVG Version: 6.00 Build 0)  -->
<svg version="1.1" id="Layer_1" xmlns="http://www.w3.org/2000/svg" xmlns:xlink="http://www.w3.org/1999/xlink" x="0px" y="0px"
	 viewBox="0 0 60.7 60.7" style="enable-background:new 0 0 60.7 60.7;" xml:space="preserve">
<style type="text/css">
	.st0{fill:#42A5F5;}
</style>
<g>
	<path class="st0" d="M56.9,21.7c3.7,11.5-0.4,24.1-10.1,31.2C37,60,23.7,60,14,52.9C4.2,45.8,0.1,33.2,3.8,21.7
		C7.6,10.3,18.3,2.5,30.3,2.5S53.1,10.3,56.9,21.7z M30.3,5c-11,0-20.7,7.1-24.1,17.5C2.8,33,6.6,44.4,15.4,50.9
		c8.9,6.5,20.9,6.5,29.8,0S57.8,33,54.4,22.5C51.1,12.1,41.3,5,30.3,5z"/>
</g>
<g>
	<path class="st0" d="M15.8,23.9h6v19.4h-6V23.9z M18.9,14.2c1.9,0,3.5,1.6,3.5,3.5c0,1.9-1.6,3.5-3.5,3.5c-1.9,0-3.5-1.6-3.5-3.5
		C15.4,15.8,16.9,14.2,18.9,14.2"/>
	<path class="st0" d="M25.7,23.9h5.8v2.7h0.1c0.8-1.5,2.8-3.1,5.7-3.1c6.1,0,7.2,4,7.2,9.3v10.7h-6v-9.4c0-2.3,0-5.2-3.1-5.2
		c-3.1,0-3.6,2.5-3.6,5v9.6h-6V23.9z"/>
</g>
</svg>
