<?xml version="1.0" encoding="utf-8"?>
<!-- Generator: Adobe Illustrator 26.2.1, SVG Export Plug-In . SVG Version: 6.00 Build 0)  -->
<svg version="1.1" id="Layer_1" xmlns="http://www.w3.org/2000/svg" xmlns:xlink="http://www.w3.org/1999/xlink" x="0px" y="0px"
	 viewBox="0 0 100 100" style="enable-background:new 0 0 100 100;" xml:space="preserve">
<style type="text/css">
	.st0{fill:none;stroke:#C6C6C6;stroke-width:3;stroke-miterlimit:10;}
	.st1{fill:#0097C3;}
	.st2{fill:none;stroke:#0097C3;stroke-width:3;stroke-miterlimit:10;}
</style>
<path class="st0" d="M17.6,50.1c-2.3,0.4-0.9-3.6-0.9-3.6c0.4-1.8,0.5-3.7,1.1-5.5c0.5-1.9,1.1-3.5,3-4.3c2.5-1.1,7.5-0.7,9.1-3.4
	c1.2-2-0.2-3.3-1.3-4.4c-0.3-0.3-2.2-2.2-2.3-2.6c-0.2-0.9,0.9-1.3,1.8-1.9c2.1-1.4,5.6-4.5,8.5-4.9c3.3-0.5,11.6,8.5,13.3,2.2
	c0.3-1-0.5-5,0.4-5.7c0.6-0.4,5.1,0.7,6.1,0.9c1.7,0.3,3.8,0.6,5.3,1.5c2.8,1.6,2.8,6,3.6,8.7c0.6,1.9,1.9,3.7,4.1,2.9
	c1.2-0.4,1.4-1.2,2.3-2c0.2-0.2,2.1-2,2.3-2c0.7,0,3.1,3.7,3.8,4.6c1,1.4,2.2,3.1,2.8,4.8c1.5,4.4-7.8,10.7-2.8,13.8
	c0.9,0.5,1.5,0.3,2.1,0.3c0.4,0,3.5-0.1,3.9,0.2c0.7,0.5-0.1,4.3-0.4,5.6c-0.4,2-0.7,4-1.4,5.7c-1.2,2.8-4.2,3-6.9,3.7
	c-2.2,0.6-5.4,1-5.1,4c0.2,2.3,2.9,2.8,3.7,4.8c0.4,0.9,0.5,0.5-0.7,1.4c-0.2,0.2-0.8,0.5-0.9,0.6c-0.7,0.5-1.5,1.2-2.2,1.8
	c-1.5,1.1-3.1,2.2-4.8,2.9c-4.8,1.9-10.2-7.2-13.9-3.1c-1.4,1.5-0.5,3.9-1,5.7c-0.3,1.2,0.5,0.8-0.5,1.2c-0.2,0.1-1.8-0.3-2-0.3
	c-0.7-0.1-1.8-0.2-2.6-0.4c-1.8-0.3-3.7-0.6-5.4-1.3c-2.6-1-2.9-2.9-3.6-5.5c-0.6-2.3-0.8-6.5-4-6.6c-2.1-0.1-3.3,1.8-4.9,3.3
	c-0.4,0.4-0.5,0.9-1,0.8c-0.1,0-1.3-1.7-1.5-1.9c-0.3-0.4-1-1.4-1.4-2c-1.1-1.5-2.2-3.1-3-4.8c-2.3-5.1,6.6-9.9,3.2-14
	C21.9,49.6,17.6,50.1,17.6,50.1"/>
<g>
	<path class="st1" d="M32.7,38.8h8l2.4,12.6h0.1L46,38.8h7.7v22.5H48V44.6l0,0l-3.9,16.6h-3.4L37.1,44H37v17.2h-4.4V38.8H32.7z"/>
	<path class="st1" d="M56.7,38.8h8.5c4.2,0,7.6,2,7.6,6.4c0,5.2-3.7,7.1-8.2,7.1c-0.7,0-1.5-0.1-2.2-0.1v9.1h-5.7
		C56.7,61.3,56.7,38.8,56.7,38.8z M62.3,48.3h1c1.6,0,3.5-0.6,3.5-2.7s-1.9-2.8-3.5-2.8h-1C62.3,42.8,62.3,48.3,62.3,48.3z"/>
</g>
<circle class="st2" cx="50" cy="50" r="48"/>
</svg>
