<?xml version="1.0" encoding="utf-8"?>
<!-- Generator: Adobe Illustrator 21.0.1, SVG Export Plug-In . SVG Version: 6.00 Build 0)  -->
<svg version="1.1" id="Layer_1" xmlns="http://www.w3.org/2000/svg" xmlns:xlink="http://www.w3.org/1999/xlink" x="0px" y="0px"
	 viewBox="0 0 200 200" style="enable-background:new 0 0 200 200;" xml:space="preserve">
<style type="text/css">
	.st0{fill:#E6E7E8;}
	.st1{fill:#ED1C24;}
	.st2{clip-path:url(#SVGID_2_);fill:#6D6E71;}
	.st3{clip-path:url(#SVGID_2_);}
	.st4{clip-path:url(#SVGID_4_);}
	.st5{fill:#1A171B;}
	.st6{fill:#FFCB05;}
	.st7{clip-path:url(#SVGID_2_);fill:none;}
	.st8{fill:#FFFFFF;}
	.st9{clip-path:url(#SVGID_6_);fill:#6D6E71;}
	.st10{clip-path:url(#SVGID_6_);}
	.st11{clip-path:url(#SVGID_8_);}
</style>
<g>
	<rect x="212.4" y="295.7" class="st0" width="170.1" height="170.1"/>
	<g>
		<g>
			<g>
				<g>
					<polygon class="st1" points="316.8,312.5 336.3,320.4 331.7,312.5 336.3,304.5 					"/>
				</g>
			</g>
			<g>
				<g>
					<polygon class="st1" points="368.4,311.9 348.8,319.9 353.5,311.9 348.8,303.9 					"/>
				</g>
			</g>
			<g>
				<polygon class="st1" points="347.7,312.3 331.2,309.1 331.2,315.1 				"/>
				<polygon class="st1" points="337.1,312.3 353.7,309.1 353.7,315.1 				"/>
			</g>
		</g>
	</g>
	<g>
		<defs>
			<rect id="SVGID_1_" x="212.9" y="295.2" width="170.1" height="170.1"/>
		</defs>
		<clipPath id="SVGID_2_">
			<use xlink:href="#SVGID_1_"  style="overflow:visible;"/>
		</clipPath>
		
			<rect x="257.5" y="353.7" transform="matrix(6.123234e-17 -1 1 6.123234e-17 -111.1151 677.691)" class="st2" width="51.5" height="81.4"/>
		
			<rect x="163.6" y="388.4" transform="matrix(6.123234e-17 -1 1 6.123234e-17 -178.8527 628.9883)" class="st2" width="123" height="31"/>
		<g class="st3">
			<defs>
				<path id="SVGID_3_" d="M274,420.1h17.8c0,0,21.9,48-9.8,51.6s-46.8-33.8-47.7-45.6s-5-41.2,7.7-46.5c12.7-5.3,30.8-6.8,30.5,3.6
					S274,420.1,274,420.1z"/>
			</defs>
			<clipPath id="SVGID_4_">
				<use xlink:href="#SVGID_3_"  style="overflow:visible;"/>
			</clipPath>
			<g class="st4">
				<g>
					<g>
						<path class="st1" d="M255.1,396.6c-0.2,10.8,0.5,22.1,3.6,32.5c1.1,3.8,3.5,12,8.6,12.1c5,0.1,7.7-7.5,9-11.1
							c3.8-10.4,5.1-21.9,5.5-32.9c0-0.2,0-3.7,0.1-1.8c0.2,2.2-0.1,4.6-0.2,6.8c-0.3,11.1-1.2,22.2-4.1,32.9
							c-1.2,4.4-4.2,16.2-10.6,16c-6.2-0.2-8.6-11.5-9.6-15.9c-2.5-11-2.8-22.5-2.6-33.7c0-2.3-0.1-4.6,0.2-6.8
							C255.3,393.1,255.1,396.2,255.1,396.6L255.1,396.6z"/>
					</g>
					<g>
						<g>
							<polygon class="st1" points="255.4,392.6 247,411.9 255,407.5 262.9,412.3 							"/>
						</g>
					</g>
				</g>
			</g>
		</g>
		<g id="XMLID_3_" class="st3">
			<g>
				<path class="st5" d="M320.4,356.2c1.5,0,2.6,1.2,2.6,2.6c0,1.4-1.2,2.6-2.6,2.6c-1.5,0-2.6-1.2-2.6-2.6
					C317.8,357.4,319,356.2,320.4,356.2z"/>
				<path class="st6" d="M320.9,350.6l1.5-0.1l5.6-0.3h0.2l0.3,0.1l0.3,0.2l0.2,0.2l0.1,0.3l0,0.3l-0.5,5.6l-0.1,1.5v0.5l-0.1,0.5
					l0,6.8l0,0.1v0v0.1l0,0l0,0l0,0.1l0,0l0,0l0,0l0,0l0,0l0,0l0,0l0,0l0,0l-0.1,0.1l0,0h0l0,0l0,0l0,0l0,0l0,0l0,0l0,0h0l0,0
					l-0.1,0h0h-0.1h0l-6.8-0.1l-0.3-0.1h-0.5l-1.5,0.1l-5.8,0.5h-0.2l-0.3-0.1l-0.3-0.2l-0.2-0.2l-0.1-0.3l0-0.3l0.6-5.8l0.1-1.5
					v-0.5l-0.1-0.3l0-6.8v-0.1l0,0v0l0-0.1l0,0v0l0,0l0-0.1l0,0l0,0l0,0l0,0l0,0l0,0l0,0l0,0l0,0l0,0l0,0l0,0l0,0l0,0l0,0l0,0l0.1,0
					l0,0l0,0l0,0h0.1l0,0h0.1h0l6.8,0.1l0.5-0.1H320.9z M323.1,358.9c0-1.5-1.2-2.6-2.6-2.6c-1.5,0-2.6,1.2-2.6,2.6
					c0,1.4,1.2,2.6,2.6,2.6C321.9,361.5,323.1,360.3,323.1,358.9z"/>
				<polygon class="st5" points="312.7,350.7 312.6,350.7 312.6,350.8 312.6,350.8 312.5,350.8 312.5,350.8 312.5,350.9 
					312.4,350.9 312.4,351 312.4,351 312.4,351 312.3,351.1 312.3,351.1 312.3,351.2 312.3,351.2 312.2,351.3 312.2,349.4 
					312.2,346.4 332.1,326.5 334.1,326.5 334.6,326.5 334.6,326.5 341.8,326.5 343.4,326.5 344.3,326.5 502.5,326.5 503.8,327.8 
					503.8,357.3 502.5,358.5 344.3,358.5 344,358.5 343.7,358.6 343.4,358.7 343.3,358.8 342.6,359.5 335.2,366.9 329.5,366.9 
					328.1,366.9 328.1,366.8 328.2,366.8 328.2,366.7 328.2,366.7 328.3,366.7 328.3,366.6 328.3,366.6 328.4,366.5 328.4,366.5 
					328.4,366.5 328.4,366.4 328.4,366.4 328.5,366.3 328.5,366.3 328.5,366.2 328.5,366.2 328.5,366.1 328.5,359.3 328.6,358.8 
					328.6,358.4 328.7,356.9 329.2,351.2 329.1,350.9 329,350.6 328.8,350.4 328.5,350.2 328.2,350.1 328.1,350.1 322.4,350.5 
					320.9,350.6 320.5,350.6 320,350.6 313.2,350.6 313.2,350.6 313.1,350.6 313.1,350.6 313,350.6 313,350.6 312.9,350.6 
					312.9,350.6 312.8,350.6 312.8,350.7 312.7,350.7 				"/>
			</g>
			<g>
			</g>
		</g>
		<rect x="213.3" y="295.4" class="st7" width="169.1" height="169.6"/>
		<rect x="213.3" y="295.4" class="st7" width="169.1" height="169.6"/>
	</g>
</g>
<g>
	<rect x="-1.1" y="-0.7" class="st0" width="201.7" height="201.7"/>
	<rect x="68.3" y="21.5" width="63.1" height="27.3"/>
	<g id="XMLID_1_">
		<g>
			<polygon points="114.9,120.5 114.9,142.2 93.5,142.2 			"/>
			<polygon class="st8" points="114.9,104.9 114.9,120.5 93.5,142.2 84.7,142.2 84.7,135.5 			"/>
			<polygon points="114.9,89.4 114.9,104.9 84.7,135.5 84.7,120 			"/>
			<polygon class="st8" points="114.9,73.8 114.9,89.4 84.7,120 84.7,104.4 			"/>
			<polygon points="114.9,58.3 114.9,73.8 84.7,104.4 84.7,88.9 			"/>
			<polygon points="114.9,21.5 114.9,58.3 84.7,88.9 84.7,21.5 			"/>
		</g>
		<g>
		</g>
	</g>
	<g>
		<defs>
			<rect id="SVGID_5_" x="-0.5" y="-0.2" width="200.5" height="201.2"/>
		</defs>
		<clipPath id="SVGID_6_">
			<use xlink:href="#SVGID_5_"  style="overflow:visible;"/>
		</clipPath>
		<polygon class="st9" points="211.7,205.1 -10.9,205.1 -10.9,124.4 81.7,124.4 81.7,146.8 211.7,146.8 		"/>
		<rect x="26.9" y="-15.3" class="st10" width="145.9" height="36.8"/>
	</g>
	<g>
		<defs>
			<path id="SVGID_7_" d="M134.2,56v18.7c0,0-17.2,13-18.4,13.6c-1.2,0.6-4.7,24.3-0.9,24.9c3.9,0.6,64.3,1.8,69.7-0.6
				c5.3-2.4,28.5-24,22.2-32.6c-6.2-8.6-13.3-19.6-24.6-21.1C171,57.5,134.2,56,134.2,56z"/>
		</defs>
		<clipPath id="SVGID_8_">
			<use xlink:href="#SVGID_7_"  style="overflow:visible;"/>
		</clipPath>
		<g class="st11">
			<g>
				<g>
					<g>
						<path class="st1" d="M128.4,96.1c13.3-0.1,26.7-0.8,39.6-4c5.3-1.3,18.8-4.5,18.8-11.9c0-7.5-13.6-10.6-18.8-11.9
							c-12.9-3.3-26.3-3.9-39.6-4c-2.7,0-5.4-0.1-8.1,0c-2.1,0.1,1.8,0.1,2.1,0.1c12.7,0.1,26,1.3,38.1,5.2
							c4.5,1.4,14.4,4.5,14.4,10.7c0,6-9.4,9.1-13.8,10.5c-12.3,4-25.8,5.3-38.7,5.3c-0.2,0-4.4,0-2.1,0.1
							C123,96.2,125.7,96.1,128.4,96.1L128.4,96.1z"/>
					</g>
				</g>
				<g>
					<g>
						<polygon class="st1" points="117.7,95.7 140.8,105.2 135.3,95.7 140.8,86.3 						"/>
					</g>
				</g>
			</g>
		</g>
	</g>
</g>
</svg>
