<?xml version="1.0" encoding="utf-8"?>
<!-- Generator: Adobe Illustrator 21.0.1, SVG Export Plug-In . SVG Version: 6.00 Build 0)  -->
<svg version="1.1" id="Layer_1" xmlns="http://www.w3.org/2000/svg" xmlns:xlink="http://www.w3.org/1999/xlink" x="0px" y="0px"
	 viewBox="0 0 200 200" style="enable-background:new 0 0 200 200;" xml:space="preserve">
<style type="text/css">
	.st0{fill:#E6E7E8;}
	.st1{fill:none;}
	.st2{clip-path:url(#SVGID_2_);}
	.st3{fill:#ED1C24;}
	.st4{clip-path:url(#SVGID_4_);fill:#6D6E71;}
	.st5{clip-path:url(#SVGID_4_);}
	.st6{fill:#FFFFFF;}
	.st7{fill:#1A171B;}
	.st8{fill:#FFCB05;}
	.st9{clip-path:url(#SVGID_6_);}
</style>
<rect x="0.1" y="0.1" class="st0" width="200" height="200"/>
<rect x="0.4" y="1.4" class="st1" width="198.9" height="199.5"/>
<rect x="-2.2" y="1.7" class="st1" width="198.9" height="199.5"/>
<g>
	<defs>
		<path id="SVGID_1_" d="M136.8,17.6v18.5c0,0-17.1,12.9-18.2,13.5s-4.7,24.1-0.9,24.7c3.8,0.6,63.8,1.8,69.1-0.6
			c5.3-2.4,28.2-23.8,22.1-32.3c-6.2-8.5-13.2-19.4-24.4-20.9S136.8,17.6,136.8,17.6z"/>
	</defs>
	<clipPath id="SVGID_2_">
		<use xlink:href="#SVGID_1_"  style="overflow:visible;"/>
	</clipPath>
	<g class="st2">
		<g>
			<g>
				<g>
					<path class="st3" d="M131,57.4c13.2-0.1,26.4-0.7,39.3-4c5.2-1.3,18.7-4.4,18.7-11.8c0-7.4-13.5-10.5-18.7-11.8
						c-12.8-3.2-26.1-3.9-39.3-4c-2.7,0-5.4-0.1-8,0c-2,0.1,1.7,0.1,2.1,0.1c12.6,0.1,25.7,1.3,37.8,5.1c4.5,1.4,14.3,4.5,14.3,10.6
						c0,6-9.3,9-13.7,10.4c-12.2,4-25.6,5.2-38.4,5.3c-0.2,0-4.3,0-2.1,0.1C125.6,57.5,128.3,57.4,131,57.4L131,57.4z"/>
				</g>
			</g>
			<g>
				<g>
					<polygon class="st3" points="120.3,57 143.3,66.4 137.9,57 143.3,47.6 					"/>
				</g>
			</g>
		</g>
	</g>
</g>
<g>
	<g>
		<g>
			<g>
				<polygon class="st3" points="52.5,179.6 75.5,188.9 70,179.6 75.5,170.2 				"/>
			</g>
		</g>
		<g>
			<g>
				<polygon class="st3" points="113.2,178.9 90.2,188.3 95.7,178.9 90.2,169.5 				"/>
			</g>
		</g>
		<g>
			<polygon class="st3" points="88.9,179.3 69.4,175.6 69.4,182.6 			"/>
			<polygon class="st3" points="76.4,179.3 95.9,175.6 95.9,182.6 			"/>
		</g>
	</g>
</g>
<g>
	<defs>
		<rect id="SVGID_3_" x="-0.1" y="0.5" width="200" height="200"/>
	</defs>
	<clipPath id="SVGID_4_">
		<use xlink:href="#SVGID_3_"  style="overflow:visible;"/>
	</clipPath>
	
		<rect x="52.5" y="69.3" transform="matrix(6.123234e-17 -1 1 6.123234e-17 -34.4193 199.862)" class="st4" width="60.5" height="95.8"/>
	
		<rect x="-58.1" y="110.1" transform="matrix(6.123234e-17 -1 1 6.123234e-17 -114.0738 142.5913)" class="st4" width="144.7" height="36.5"/>
	<g id="XMLID_11_" class="st5">
		<g>
			<polygon points="116.5,63.5 116.5,81.2 99.1,81.2 			"/>
			<polygon class="st6" points="116.5,50.8 116.5,63.5 99.1,81.2 91.9,81.2 91.9,75.8 			"/>
			<polygon points="116.5,38.2 116.5,50.8 91.9,75.8 91.9,63.1 			"/>
			<polygon class="st6" points="116.5,25.5 116.5,38.2 91.9,63.1 91.9,50.4 			"/>
			<polygon points="116.5,12.8 116.5,25.5 91.9,50.4 91.9,37.8 			"/>
			<polygon points="116.5,-17.1 116.5,12.8 91.9,37.8 91.9,-17.1 			"/>
		</g>
		<g>
		</g>
	</g>
	<g id="XMLID_2_" class="st5">
		<g>
			<circle class="st7" cx="130.9" cy="159.2" r="3.1"/>
			<path class="st8" d="M140.7,159.8l0.1,1.8l0.4,6.6v0.2l-0.1,0.4l-0.2,0.3l-0.3,0.2l-0.4,0.1l-0.4,0l-6.6-0.5l-1.8-0.1H131
				l-0.5-0.1l-8,0l-0.1,0h-0.1h-0.1l-0.1,0l-0.1,0l-0.1,0l-0.1,0l-0.1,0l-0.1,0l-0.1,0l-0.1,0l0,0l-0.1-0.1l0,0l-0.1-0.1l-0.1-0.1
				l0,0v0l0-0.1l0-0.1l0-0.1l0-0.1l0-0.1l0-0.1l0-0.1v-0.1l0-0.1l0-0.1v-0.1v-0.1v-0.1l0.1-8l0.1-0.4v-0.5l-0.1-1.8l-0.6-6.8v-0.2
				l0.1-0.4l0.2-0.3l0.3-0.2l0.4-0.1l0.4,0l6.8,0.7l1.8,0.2h0.6l0.4-0.1l8,0h0.1l0.1,0h0.1l0.1,0l0,0h0l0.1,0l0.1,0l0.1,0l0.1,0
				l0.1,0l0,0l0.1,0l0.1,0l0,0.1l0.1,0l0.1,0.1l0,0l0,0.1l0,0l0,0.1l0,0.1l0,0.1l0,0.1l0,0.1l0,0.1l0,0.1l0,0.1v0.1l0,0.1v0.1v0.1
				l-0.1,8l0.1,0.6V159.8z M130.9,162.3c1.7,0,3.1-1.4,3.1-3.1s-1.4-3.1-3.1-3.1c-1.7,0-3.1,1.4-3.1,3.1S129.2,162.3,130.9,162.3z"
				/>
			<polygon class="st7" points="121.5,169.9 121.5,168.3 121.5,168.3 121.6,168.4 121.7,168.4 121.7,168.4 121.8,168.5 121.8,168.5 
				121.8,168.5 121.9,168.6 122,168.6 122,168.6 122.1,168.6 122.1,168.7 122.2,168.7 122.2,168.7 122.3,168.7 122.4,168.7 
				122.5,168.7 130.4,168.8 131,168.8 131.5,168.8 133.3,169 139.9,169.5 140.3,169.5 140.6,169.3 140.9,169.1 141.1,168.8 
				141.2,168.4 141.2,168.2 140.8,161.6 140.7,159.8 140.7,159.3 140.6,158.7 140.7,150.8 140.7,150.7 140.7,150.7 140.7,150.6 
				140.7,150.5 140.7,150.5 140.6,150.4 140.6,150.4 140.6,150.3 140.6,150.2 140.6,150.2 140.5,150.1 140.5,150.1 140.5,150 
				140.4,150 140.4,150 140.4,149.9 140.3,149.9 140.3,149.8 140.2,149.8 140.2,149.8 140.1,149.7 140.1,149.7 140,149.7 140,149.7 
				139.9,149.6 139.8,149.6 142,149.6 145.6,149.6 169,173 169,175.3 169,175.9 169,175.9 169,184.4 169,186.2 169,187.4 169,373.4 
				167.5,374.9 132.8,374.9 131.3,373.4 131.3,187.4 131.3,186.9 131.3,186.6 131.1,186.3 131,186.1 130.2,185.3 121.5,176.7 			"/>
		</g>
		<g>
		</g>
	</g>
</g>
<g>
	<defs>
		<path id="SVGID_5_" d="M62.6,87h20.9c0,0,25.8-56.4-11.5-60.6S16.9,66.1,15.9,80s-5.9,48.4,9.1,54.7c15,6.3,36.2,8,35.9-4.2
			C60.5,118.4,62.6,87,62.6,87z"/>
	</defs>
	<clipPath id="SVGID_6_">
		<use xlink:href="#SVGID_5_"  style="overflow:visible;"/>
	</clipPath>
	<g class="st9">
		<g>
			<g>
				<path class="st3" d="M40.4,114.7c-0.3-12.7,0.6-26,4.2-38.3C46,72,48.7,62.3,54.8,62.2c5.8-0.1,9.1,8.8,10.6,13.1
					c4.4,12.2,6,25.8,6.4,38.7c0,0.2,0,4.3,0.1,2.1c0.2-2.6-0.1-5.4-0.2-8c-0.4-13-1.4-26.1-4.9-38.7c-1.4-5.2-4.9-19-12.4-18.8
					c-7.3,0.2-10.1,13.5-11.3,18.7c-3,13-3.3,26.4-3,39.7c0.1,2.7-0.1,5.4,0.2,8C40.6,118.8,40.4,115.1,40.4,114.7L40.4,114.7z"/>
			</g>
			<g>
				<g>
					<polygon class="st3" points="40.8,119.4 30.8,96.6 40.3,101.9 49.6,96.2 					"/>
				</g>
			</g>
		</g>
	</g>
</g>
</svg>
