<?xml version="1.0" encoding="utf-8"?>
<!-- Generator: Adobe Illustrator 24.0.2, SVG Export Plug-In . SVG Version: 6.00 Build 0)  -->
<svg version="1.1" id="Layer_1" xmlns="http://www.w3.org/2000/svg" xmlns:xlink="http://www.w3.org/1999/xlink" x="0px" y="0px"
	 viewBox="0 0 200 200" style="enable-background:new 0 0 200 200;" xml:space="preserve">
<style type="text/css">
	.st0{fill:#E6E7E8;}
	.st1{clip-path:url(#SVGID_10_);fill:none;}
	.st2{clip-path:url(#SVGID_12_);fill:none;}
	.st3{clip-path:url(#SVGID_14_);}
	.st4{fill:#6D6E70;}
	.st5{fill:#231F20;}
	.st6{fill:#FFCA05;}
</style>
<g>
	<rect x="-0.5" y="0.1" class="st0" width="200.4" height="200.4"/>
	<g>
		<g>
			<defs>
				<rect id="SVGID_1_" x="-33.8" y="-1.1" width="200.4" height="200.4"/>
			</defs>
			<clipPath id="SVGID_2_">
				<use xlink:href="#SVGID_1_"  style="overflow:visible;"/>
			</clipPath>
		</g>
		<g>
			<defs>
				<rect id="SVGID_3_" x="-113.6" y="-58.5" width="200.4" height="200.4"/>
			</defs>
			<clipPath id="SVGID_4_">
				<use xlink:href="#SVGID_3_"  style="overflow:visible;"/>
			</clipPath>
		</g>
		<g>
			<defs>
				<rect id="SVGID_5_" x="0.1" y="-0.5" width="200.4" height="200.4"/>
			</defs>
			<clipPath id="SVGID_6_">
				<use xlink:href="#SVGID_5_"  style="overflow:visible;"/>
			</clipPath>
		</g>
		<g>
			<defs>
				<rect id="SVGID_7_" x="0.1" y="-0.5" width="200.4" height="200.4"/>
			</defs>
			<clipPath id="SVGID_8_">
				<use xlink:href="#SVGID_7_"  style="overflow:visible;"/>
			</clipPath>
		</g>
		<g>
			<defs>
				<rect id="SVGID_9_" x="0.1" y="-0.5" width="200.4" height="200.4"/>
			</defs>
			<clipPath id="SVGID_10_">
				<use xlink:href="#SVGID_9_"  style="overflow:visible;"/>
			</clipPath>
			<rect x="0.6" y="-0.3" class="st1" width="199.3" height="199.9"/>
		</g>
		<g>
			<defs>
				<rect id="SVGID_11_" x="0.1" y="-0.5" width="200.4" height="200.4"/>
			</defs>
			<clipPath id="SVGID_12_">
				<use xlink:href="#SVGID_11_"  style="overflow:visible;"/>
			</clipPath>
			<rect x="0.6" y="-0.3" class="st2" width="199.3" height="199.9"/>
		</g>
	</g>
</g>
<g>
	<defs>
		<rect id="SVGID_13_" x="-1.5" y="0.9" width="201.4" height="201.4"/>
	</defs>
	<clipPath id="SVGID_14_">
		<use xlink:href="#SVGID_13_"  style="overflow:visible;"/>
	</clipPath>
	<g class="st3">
		<g id="XMLID_1_">
			<g>
				<path class="st4" d="M99,62.1c21.8,0,39.4,17.7,39.4,39.4c0,21.8-17.7,39.4-39.4,39.4c-21.8,0-39.4-17.7-39.4-39.4
					C59.6,79.7,77.2,62.1,99,62.1z"/>
			</g>
			<g>
			</g>
		</g>
		<g>
			<polygon class="st5" points="106.4,159.5 114.5,167.6 114.5,319.9 90.6,319.9 90.6,159.5 			"/>
			<polygon class="st6" points="90.6,159.5 90.6,147.4 94.3,147.4 98.4,151.6 98.4,159.5 			"/>
		</g>
		<g>
			<polygon class="st5" points="42.4,109.1 34.2,117.3 -118.3,117.3 -118.3,93.3 42.4,93.3 			"/>
			<polygon class="st6" points="42.4,93.3 54.5,93.3 54.5,97 50.3,101.2 42.4,101.2 			"/>
		</g>
		<g>
			<polygon class="st5" points="155.6,93.6 163.7,85.4 316.3,85.4 316.3,109.4 155.6,109.4 			"/>
			<polygon class="st6" points="155.6,109.4 143.5,109.4 143.5,105.7 147.6,101.5 155.6,101.5 			"/>
		</g>
		<g>
			<polygon class="st5" points="90.1,44.6 82,36.5 82,-116 106,-116 106,44.6 			"/>
			<polygon class="st6" points="106,44.6 106,56.7 102.3,56.7 98.1,52.6 98.1,44.6 			"/>
		</g>
		<g>
			<polygon class="st5" points="53.9,67.1 42.4,67.1 -65.5,-40.8 -48.5,-57.7 65.1,55.8 			"/>
			<polygon class="st6" points="65.1,55.8 73.7,64.4 71.1,67 65.2,67 59.6,61.4 			"/>
		</g>
		<g>
			<polygon class="st5" points="145,136.1 156.5,136.1 264.4,243.9 247.4,260.8 133.8,147.3 			"/>
			<polygon class="st6" points="133.8,147.3 125.2,138.7 127.8,136.1 133.7,136.1 139.3,141.7 			"/>
		</g>
		<g>
			<polygon class="st5" points="133.3,55.2 133.3,43.7 241.2,-64.1 258.2,-47.2 144.6,66.4 			"/>
			<polygon class="st6" points="144.6,66.4 136,75 133.4,72.3 133.4,66.5 139,60.8 			"/>
		</g>
		<g>
			<polygon class="st5" points="63.5,147.7 63.5,159.2 -44.4,267 -61.4,250.1 52.3,136.5 			"/>
			<polygon class="st6" points="52.3,136.5 60.8,127.9 63.4,130.6 63.4,136.4 57.8,142.1 			"/>
		</g>
	</g>
</g>
</svg>
