<?xml version="1.0" encoding="utf-8"?>
<!-- Generator: Adobe Illustrator 21.0.1, SVG Export Plug-In . SVG Version: 6.00 Build 0)  -->
<svg version="1.1" id="Layer_1" xmlns="http://www.w3.org/2000/svg" xmlns:xlink="http://www.w3.org/1999/xlink" x="0px" y="0px"
	 viewBox="0 0 200 200" style="enable-background:new 0 0 200 200;" xml:space="preserve">
<style type="text/css">
	.st0{fill:#E6E7E8;}
	.st1{fill:none;stroke:#E6E7E8;stroke-miterlimit:10;}
	.st2{clip-path:url(#SVGID_2_);fill:none;}
	.st3{clip-path:url(#SVGID_4_);fill:none;}
	.st4{clip-path:url(#SVGID_6_);}
	.st5{fill:#6D6E70;}
	.st6{fill:#424244;}
	.st7{fill:#231F20;}
	.st8{fill:#FFCA05;}
</style>
<rect x="-0.2" y="-0.6" class="st0" width="200.4" height="200.4"/>
<rect x="-0.2" y="-0.6" class="st1" width="200.4" height="200.4"/>
<g>
	<g>
		<g>
			<defs>
				<rect id="SVGID_1_" x="0.1" y="-0.5" width="200.4" height="200.4"/>
			</defs>
			<clipPath id="SVGID_2_">
				<use xlink:href="#SVGID_1_"  style="overflow:visible;"/>
			</clipPath>
			<rect x="0.6" y="-0.3" class="st2" width="199.3" height="199.9"/>
		</g>
	</g>
	<g>
		<g>
			<defs>
				<rect id="SVGID_3_" x="0.1" y="-0.5" width="200.4" height="200.4"/>
			</defs>
			<clipPath id="SVGID_4_">
				<use xlink:href="#SVGID_3_"  style="overflow:visible;"/>
			</clipPath>
			<rect x="0.6" y="-0.3" class="st3" width="199.3" height="199.9"/>
		</g>
	</g>
</g>
<g>
	<defs>
		<rect id="SVGID_5_" x="-0.5" y="0" width="200.9" height="199.9"/>
	</defs>
	<clipPath id="SVGID_6_">
		<use xlink:href="#SVGID_5_"  style="overflow:visible;"/>
	</clipPath>
	<g class="st4">
		<g>
			<g>
				<g id="XMLID_18_">
					<g>
						<ellipse class="st5" cx="102.5" cy="41.4" rx="16.7" ry="16.7"/>
					</g>
					<g>
					</g>
				</g>
				<g id="XMLID_17_">
					<g>
						<ellipse class="st6" cx="102.5" cy="41.4" rx="7.6" ry="7.6"/>
					</g>
					<g>
					</g>
				</g>
			</g>
			<g>
				<g id="XMLID_26_">
					<g>
						<ellipse class="st5" cx="102.5" cy="159.4" rx="16.7" ry="16.7"/>
					</g>
					<g>
					</g>
				</g>
				<g id="XMLID_25_">
					<g>
						<ellipse class="st6" cx="102.5" cy="159.4" rx="7.6" ry="7.6"/>
					</g>
					<g>
					</g>
				</g>
			</g>
		</g>
		<g>
			<g>
				<g id="XMLID_30_">
					<g>
						
							<ellipse transform="matrix(0.7071 -0.7071 0.7071 0.7071 0.7705 119.1797)" class="st5" cx="144.2" cy="58.7" rx="16.7" ry="16.7"/>
					</g>
					<g>
					</g>
				</g>
				<g id="XMLID_29_">
					<g>
						
							<ellipse transform="matrix(0.7071 -0.7071 0.7071 0.7071 0.7705 119.1796)" class="st6" cx="144.2" cy="58.7" rx="7.6" ry="7.6"/>
					</g>
					<g>
					</g>
				</g>
			</g>
			<g>
				<g id="XMLID_28_">
					<g>
						
							<ellipse transform="matrix(0.7071 -0.7071 0.7071 0.7071 -82.6799 84.6134)" class="st5" cx="60.8" cy="142.1" rx="16.7" ry="16.7"/>
					</g>
					<g>
					</g>
				</g>
				<g id="XMLID_27_">
					<g>
						
							<ellipse transform="matrix(0.7071 -0.7071 0.7071 0.7071 -82.6798 84.6134)" class="st6" cx="60.8" cy="142.1" rx="7.6" ry="7.6"/>
					</g>
					<g>
					</g>
				</g>
			</g>
		</g>
		<g>
			<g>
				<g id="XMLID_38_">
					<g>
						<ellipse class="st5" cx="161.5" cy="100.4" rx="16.7" ry="16.7"/>
					</g>
					<g>
					</g>
				</g>
				<g id="XMLID_37_">
					<g>
						<ellipse class="st6" cx="161.5" cy="100.4" rx="7.6" ry="7.6"/>
					</g>
					<g>
					</g>
				</g>
			</g>
			<g>
				<g id="XMLID_36_">
					<g>
						<ellipse class="st5" cx="43.5" cy="100.4" rx="16.7" ry="16.7"/>
					</g>
					<g>
					</g>
				</g>
				<g id="XMLID_35_">
					<g>
						<ellipse class="st6" cx="43.5" cy="100.4" rx="7.6" ry="7.6"/>
					</g>
					<g>
					</g>
				</g>
			</g>
		</g>
		<g>
			<g>
				<g id="XMLID_34_">
					<g>
						
							<ellipse transform="matrix(0.7071 -0.7071 0.7071 0.7071 -58.2378 143.6221)" class="st5" cx="144.2" cy="142.1" rx="16.7" ry="16.7"/>
					</g>
					<g>
					</g>
				</g>
				<g id="XMLID_33_">
					<g>
						
							<ellipse transform="matrix(0.7071 -0.7071 0.7071 0.7071 -58.2379 143.6218)" class="st6" cx="144.2" cy="142.1" rx="7.6" ry="7.6"/>
					</g>
					<g>
					</g>
				</g>
			</g>
			<g>
				<g id="XMLID_32_">
					<g>
						
							<ellipse transform="matrix(0.7071 -0.7071 0.7071 0.7071 -23.6715 60.1717)" class="st5" cx="60.8" cy="58.7" rx="16.7" ry="16.7"/>
					</g>
					<g>
					</g>
				</g>
				<g id="XMLID_31_">
					<g>
						
							<ellipse transform="matrix(0.7071 -0.7071 0.7071 0.7071 -23.6716 60.1714)" class="st6" cx="60.8" cy="58.7" rx="7.6" ry="7.6"/>
					</g>
					<g>
					</g>
				</g>
			</g>
		</g>
	</g>
	<g class="st4">
		<polygon class="st7" points="23.3,87.1 15.3,79.2 -133.6,79.2 -133.6,102.6 23.3,102.6 		"/>
		<polygon class="st8" points="23.3,102.5 36.3,102.5 36.3,98.5 31.8,94 23.3,94 		"/>
	</g>
	<g class="st4">
		<polygon class="st7" points="181.4,113.6 189.4,121.6 338.3,121.6 338.3,98.2 181.4,98.2 		"/>
		<polygon class="st8" points="181.4,98.2 168.4,98.2 168.4,102.2 172.9,106.7 181.4,106.7 		"/>
	</g>
	<g class="st4">
		<polygon class="st7" points="149.3,165.5 149.3,176.8 254.6,282.1 271.2,265.5 160.3,154.6 		"/>
		<polygon class="st8" points="160.2,154.6 151,145.4 148.2,148.2 148.2,154.6 154.2,160.6 		"/>
	</g>
	<g class="st4">
		<polygon class="st7" points="115.5,20.6 123.4,12.7 123.7,-136.2 100.3,-136.3 100,20.6 		"/>
		<polygon class="st8" points="100.1,20.6 100,33.6 104,33.6 108.5,29.2 108.5,20.6 		"/>
	</g>
	<g class="st4">
		<polygon class="st7" points="89.9,180.5 81.9,188.4 81.7,337.4 105.1,337.4 105.4,180.5 		"/>
		<polygon class="st8" points="105.3,180.5 105.3,167.5 101.3,167.5 96.9,172 96.9,180.5 		"/>
	</g>
	<g class="st4">
		<polygon class="st7" points="36.9,148.3 25.7,148.2 -79.8,253.4 -63.3,269.9 47.8,159.2 		"/>
		<polygon class="st8" points="47.8,159.2 57,150 54.2,147.2 47.9,147.1 41.8,153.2 		"/>
	</g>
	<g class="st4">
		<polygon class="st7" points="55.4,34.8 55.4,23.6 -49.8,-81.8 -66.4,-65.2 44.5,45.7 		"/>
		<polygon class="st8" points="44.6,45.7 53.7,54.9 56.6,52.1 56.6,45.8 50.5,39.7 		"/>
	</g>
	<g class="st4">
		<polygon class="st7" points="168.5,53.1 179.8,53.1 285.1,-52.2 268.5,-68.7 157.6,42.1 		"/>
		<polygon class="st8" points="157.6,42.2 148.4,51.4 151.3,54.2 157.6,54.2 163.6,48.2 		"/>
	</g>
</g>
</svg>
