<?xml version="1.0" encoding="utf-8"?>
<!-- Generator: Adobe Illustrator 21.0.1, SVG Export Plug-In . SVG Version: 6.00 Build 0)  -->
<svg version="1.1" id="ita_x5F_logo" xmlns="http://www.w3.org/2000/svg" xmlns:xlink="http://www.w3.org/1999/xlink" x="0px"
	 y="0px" viewBox="0 0 297.6 175.9" style="enable-background:new 0 0 297.6 175.9;" xml:space="preserve">
<style type="text/css">
	.st0{fill:#C7C8CA;}
	.st1{fill:#231F20;}
	.st2{fill:#ED1C24;}
	.st3{fill:none;stroke:#231F20;stroke-width:1.0817;stroke-miterlimit:10;}
	.st4{fill:none;stroke:#231F20;stroke-width:1.0817;stroke-linecap:round;stroke-linejoin:round;stroke-miterlimit:10;}
</style>
<rect y="0" class="st0" width="297.6" height="175.9"/>
<g>
	<g id="XMLID_14_">
		<g>
			<g>
				<path class="st1" d="M283.9,119.1c2.5,0,3.3,1.1,2.6,2.9c-0.9,2.1-2.6,2.6-3,2.7l0,0c0.7,0.1,1.5,0.6,0.7,2.3
					c-0.5,1.2-0.8,2.4-0.6,2.8l-2.2,0c-0.1-0.5,0.1-1,0.4-1.6c0.8-2,0.8-2.8-1.1-2.8l-3,0l-1.9,4.4l-2,0l4.6-10.7L283.9,119.1z
					 M284.3,122.2c0.6-1.4-0.3-1.6-1.3-1.6l-3.3,0l-1.4,3.3l3.3,0C282.9,123.9,283.8,123.4,284.3,122.2z"/>
				<path class="st2" d="M288.5,52.1l-2.1,60.1l-20.7,0l0.9-8.6l-20.6,0l-6.6,8.6l-20,0L269,52.1L288.5,52.1z M274.5,100.7l-1-31.1
					l-20.2,23.7l13.4-4.4L274.5,100.7z"/>
				<path class="st1" d="M267.9,118.8c3.4,0,4.4,2.5,3.1,5.6c-1.3,3.1-4.4,5.6-7.9,5.6c-3.4,0-4.4-2.5-3.1-5.6
					C261.3,121.4,264.5,118.8,267.9,118.8z M269,124.4c0.9-2.1,0.7-4.1-1.8-4.1c-2.5,0-4.4,2-5.2,4.1c-0.9,2.1-0.7,4.1,1.8,4.1
					C266.3,128.5,268.2,126.5,269,124.4z"/>
				<polygon class="st0" points="273.5,69.5 274.5,100.7 266.7,88.9 253.3,93.3 				"/>
				<path class="st1" d="M253.4,118.8c2.4,0,3.9,1.2,3,3.4l-2,0c0.5-1.4-0.3-1.9-1.7-1.9c-0.9,0-2.2,0.3-2.7,1.4
					c-0.3,0.7,0.1,1.2,0.8,1.4c0.2,0,2.4,0.7,3,0.8c1.3,0.4,1.5,1.6,1.1,2.7c-1,2.4-3.7,3.4-6,3.4c-2.6,0-4.3-1.2-3.2-3.8l2,0
					c-0.7,1.6,0.3,2.3,1.9,2.3c1.8,0,2.8-0.8,3.1-1.6c0.4-0.8,0-1.2-0.4-1.3c-0.7-0.3-1.6-0.5-3.1-0.9c-1.8-0.5-1.9-1.6-1.4-2.7
					C248.7,119.8,251.3,118.8,253.4,118.8z"/>
				<polygon class="st1" points="243.6,119.1 239.1,129.8 237.1,129.8 241.6,119.1 				"/>
				<polygon class="st1" points="237.3,119.1 228.8,129.8 226.6,129.8 227.3,119.1 229.4,119.1 228.7,127.5 228.7,127.5 
					235.2,119.1 				"/>
				<polygon class="st2" points="257.2,52.1 250.6,67.6 232.4,67.6 213.4,112.3 193.4,112.3 212.5,67.6 194.4,67.6 200.9,52.1 				
					"/>
				<path class="st1" d="M218.5,119.1c3.5,0,4.1,2.4,2.8,5.3c-1.3,2.9-3.8,5.3-7.4,5.3l-4.8,0l4.6-10.7L218.5,119.1z M219.3,124.4
					c0.9-2.1,1-3.8-2.2-3.8l-2,0l-3.3,7.6l2,0C217,128.2,218.4,126.6,219.3,124.4z"/>
				<path class="st1" d="M205,119.1l-0.1,10.7l-2.2,0l0.1-2.8l-4.6,0l-2.3,2.8l-2.1,0l9-10.7L205,119.1z M203,125.5l0.2-4.6l0,0
					l-3.7,4.6L203,125.5z"/>
				<polygon class="st1" points="183.7,128.1 183,129.8 175.2,129.8 179.7,119.1 181.7,119.1 177.9,128.1 				"/>
				<path class="st1" d="M169.3,118.8c3.4,0,4.4,2.5,3.1,5.6c-1.3,3.1-4.4,5.6-7.9,5.6c-3.4,0-4.4-2.5-3.1-5.6
					C162.7,121.4,165.8,118.8,169.3,118.8z M170.4,124.4c0.9-2.1,0.7-4.1-1.8-4.1c-2.5,0-4.4,2-5.2,4.1c-0.9,2.1-0.7,4.1,1.8,4.1
					C167.6,128.5,169.5,126.5,170.4,124.4z"/>
				<path class="st2" d="M196.1,52.1l-25.6,60.1l-20.7,0c14.1-4,24.9-16.4,29.8-29.8c5.1-14,2.9-26.9-9.5-30.3L196.1,52.1z"/>
				<path d="M170,52.1c12.5,3.5,14.6,16.3,9.5,30.3c-4.9,13.4-15.7,25.8-29.8,29.8l-4.9,0l0.6-1.9c2.4-0.7,8.7-2.9,16.3-7.5
					c6.1-3.7,19.2-26.5,17.4-34.9c-2.2-10.4-12-13.2-17.2-14l0.6-1.9L170,52.1z"/>
				<path d="M179.1,68c1.8,8.4-11.3,31.2-17.4,34.9c-7.6,4.6-14,6.8-16.3,7.5l-0.6,1.9l4.9,0c-3.1,0.9-6.4,1.4-9.8,1.4
					c-18.9,0-22.9-14.9-16.9-31.2c6-16.4,20.8-31.2,39.6-31.2c2.7,0,5.2,0.3,7.3,0.9l-7.5,0l-0.6,1.9
					C167.1,54.8,176.9,57.7,179.1,68z M173.8,82.5c4.8-13.1,2.9-26.4-12.9-26.4c-15.9,0-27.4,13.3-32.2,26.4
					c-4.8,13.1-2.9,26.4,13,26.4C157.5,108.8,169,95.5,173.8,82.5z"/>
				<path class="st1" d="M153.8,118.8c3.4,0,4.4,2.5,3.1,5.6c-1.3,3.1-4.4,5.6-7.9,5.6c-3.4,0-4.4-2.5-3.1-5.6
					C147.3,121.4,150.4,118.8,153.8,118.8z M155,124.4c0.9-2.1,0.7-4.1-1.8-4.1c-2.5,0-4.4,2-5.2,4.1c-0.9,2.1-0.7,4.1,1.8,4.1
					C152.2,128.5,154.1,126.5,155,124.4z"/>
				<polygon class="st1" points="144.3,119.1 143.6,120.7 140,120.7 136.1,129.8 134.1,129.8 138,120.7 134.3,120.7 135,119.1 				
					"/>
				<path class="st1" d="M119.4,119.1c2.5,0,3.3,1.1,2.6,2.9c-0.9,2.1-2.6,2.6-3,2.7l0,0c0.7,0.1,1.5,0.6,0.7,2.3
					c-0.5,1.2-0.8,2.4-0.6,2.8l-2.2,0c-0.1-0.5,0.1-1,0.4-1.6c0.8-2,0.8-2.8-1.1-2.8l-3,0l-1.9,4.4l-2,0l4.6-10.7L119.4,119.1z
					 M119.8,122.2c0.6-1.4-0.3-1.6-1.3-1.6l-3.3,0l-1.4,3.3l3.3,0C118.4,123.9,119.3,123.4,119.8,122.2z"/>
				<polygon class="st1" points="132.5,52.4 130.7,57.2 95.1,57.2 87.2,78.9 120.6,78.9 118.8,83.8 85.4,83.8 76.8,107.4 
					112.9,107.4 111.1,112.3 69.3,112.3 91.1,52.4 				"/>
				<path class="st1" d="M105.2,119.1l-0.1,10.7l-2.2,0l0.1-2.8l-4.6,0l-2.3,2.8l-2.1,0l9-10.7L105.2,119.1z M103.1,125.5l0.2-4.6
					l0,0l-3.7,4.6L103.1,125.5z"/>
				<path class="st1" d="M93.5,122.5l-2,0c0.2-1.2-0.3-2.1-2-2.1c-2.5,0-4.4,2-5.2,4.1c-0.9,2.1-0.7,4.1,1.8,4.1
					c1.8,0,3.3-1.2,4.1-2.8l2,0c-1.3,2.6-4,4.3-6.7,4.3c-3.4,0-4.4-2.5-3.1-5.6c1.3-3.1,4.4-5.6,7.9-5.6
					C92.7,118.8,94.2,120.2,93.5,122.5z"/>
				<path class="st1" d="M75.5,118.8c2.4,0,3.9,1.2,3,3.4l-2,0c0.5-1.4-0.3-1.9-1.7-1.9c-0.9,0-2.2,0.3-2.7,1.4
					c-0.3,0.7,0,1.2,0.8,1.4c0.2,0,2.4,0.7,3,0.8c1.3,0.4,1.6,1.6,1.1,2.7c-1,2.4-3.7,3.4-6,3.4c-2.6,0-4.3-1.2-3.2-3.8l2,0
					c-0.7,1.6,0.3,2.3,1.9,2.3c1.8,0,2.8-0.8,3.1-1.6c0.4-0.8,0-1.2-0.4-1.3c-0.7-0.3-1.6-0.5-3.1-0.9c-1.8-0.5-1.9-1.6-1.4-2.7
					C70.9,119.8,73.5,118.8,75.5,118.8z"/>
				<polygon class="st1" points="65.8,119.1 61.3,129.8 59.3,129.8 63.8,119.1 				"/>
				<polygon class="st1" points="84.5,52.4 62.7,112.3 56.3,112.3 39.8,61.6 39.7,61.6 21.2,112.3 15.5,112.3 37.3,52.4 43.7,52.4 
					60.1,103.1 60.3,103.1 78.8,52.4 				"/>
				<path class="st1" d="M45.7,118.8c3.4,0,4.4,2.5,3.1,5.6c-1.3,3.1-4.4,5.6-7.9,5.6c-3.4,0-4.4-2.5-3.1-5.6S42.3,118.8,45.7,118.8
					z M46.8,124.4c0.9-2.1,0.7-4.1-1.8-4.1c-2.5,0-4.4,2-5.2,4.1c-0.9,2.1-0.7,4.1,1.8,4.1C44.1,128.5,46,126.5,46.8,124.4z"/>
				<polygon class="st1" points="35.7,119.1 35,120.7 28.7,120.7 27.5,123.5 33.3,123.5 32.7,125 26.9,125 25.5,128.1 31.9,128.1 
					31.2,129.8 22.8,129.8 27.4,119.1 				"/>
				<polygon class="st1" points="21.8,119.1 17.2,129.8 15.1,129.8 13.2,121.9 13.2,121.9 9.8,129.8 7.9,129.8 12.5,119.1 
					14.6,119.1 16.5,126.9 16.5,126.9 19.9,119.1 				"/>
			</g>
			<g>
				<polygon class="st3" points="212.5,67.6 194.4,67.6 200.9,52.1 257.2,52.1 250.6,67.6 232.4,67.6 213.4,112.3 193.4,112.3 				
					"/>
				<polygon class="st3" points="269,52.1 219.6,112.3 239.6,112.3 246.2,103.7 266.7,103.7 265.8,112.3 286.5,112.3 288.5,52.1 
									"/>
				<polyline class="st3" points="149.7,112.3 170.4,112.3 196.1,52.1 170,52.1 				"/>
				<polyline class="st4" points="266.7,88.9 253.3,93.3 273.5,69.5 				"/>
				<polyline class="st4" points="273.5,69.5 274.5,100.7 266.7,88.9 				"/>
			</g>
		</g>
	</g>
</g>
</svg>
