<?xml version="1.0" encoding="utf-8"?>
<!-- Generator: Adobe Illustrator 26.2.1, SVG Export Plug-In . SVG Version: 6.00 Build 0)  -->
<svg version="1.1" id="Capa_1" xmlns="http://www.w3.org/2000/svg" xmlns:xlink="http://www.w3.org/1999/xlink" x="0px" y="0px"
	 viewBox="0 0 455 455" style="enable-background:new 0 0 455 455;" xml:space="preserve">
<style type="text/css">
	.st0{fill:#C6C6C6;}
	.st1{fill:#0097C3;}
</style>
<g>
	<path class="st0" d="M361,130.6c-4.1-0.8-8,1.8-8.8,5.9s1.8,8,5.9,8.8c1.1,0.2,2,1.3,2,2.4v160c0,1.4-1.1,2.5-2.5,2.5H179.7
		c-4.1,0-7.5,3.4-7.5,7.5s3.4,7.5,7.5,7.5h177.8c9.6,0,17.5-7.9,17.5-17.5v-160C375,139.5,369.1,132.2,361,130.6z"/>
	<path class="st0" d="M274.8,130.2H97.5c-9.6,0-17.5,7.9-17.5,17.5v160c0,8.1,5.5,15,13.3,17c0.6,0.1,1.2,0.2,1.8,0.2
		c3.4,0,6.4-2.3,7.3-5.7c1-4-1.5-8.1-5.5-9.1c-1-0.2-1.9-1.1-1.9-2.4v-160c0-1.4,1.1-2.5,2.5-2.5h177.3c4.1,0,7.5-3.4,7.5-7.5
		S279,130.2,274.8,130.2z"/>
	<path class="st0" d="M235.4,170.8c-2.7-0.4-5.3-0.5-7.9-0.5c-31.7,0-57.5,25.8-57.5,57.5c0,2.6,0.2,5.2,0.5,7.9
		c0.5,3.8,3.7,6.5,7.4,6.5c0.3,0,0.7,0,1-0.1c4.1-0.6,7-4.3,6.4-8.4c-0.3-2-0.4-3.9-0.4-5.8c0-23.4,19.1-42.5,42.5-42.5
		c1.9,0,3.8,0.1,5.8,0.4c4.1,0.6,7.9-2.3,8.4-6.4C242.3,175.1,239.5,171.4,235.4,170.8z"/>
	<path class="st0" d="M219.1,284.6c2.8,0.4,5.6,0.6,8.4,0.6c31.7,0,57.5-25.8,57.5-57.5c0-2.8-0.2-5.6-0.6-8.4
		c-0.6-4.1-4.4-6.9-8.5-6.3c-4.1,0.6-6.9,4.4-6.3,8.5c0.3,2.1,0.5,4.2,0.5,6.2c0,23.4-19.1,42.5-42.5,42.5c-2,0-4.1-0.2-6.2-0.5
		c-4.1-0.6-7.9,2.2-8.5,6.3S215,284,219.1,284.6z"/>
	<path class="st0" d="M318.5,203.2c9.1,0,16.5-7.4,16.5-16.5c0-8.3-6.2-15.4-14.5-16.4c-2.3-0.3-4.6,0.5-6.2,2.1l-10,10
		c-1.6,1.6-2.4,3.9-2.1,6.2C303.1,197,310.2,203.2,318.5,203.2z"/>
	<path class="st0" d="M117.5,114.8h30c4.1,0,7.5-3.4,7.5-7.5s-3.4-7.5-7.5-7.5h-30c-4.1,0-7.5,3.4-7.5,7.5S113.4,114.8,117.5,114.8z
		"/>
	<path class="st1" d="M388.4,66.6C345.4,23.7,288.3,0,227.5,0S109.6,23.7,66.6,66.6C23.7,109.6,0,166.7,0,227.5
		s23.7,117.9,66.6,160.9c43,43,100.1,66.6,160.9,66.6s117.9-23.7,160.9-66.6c43-43,66.6-100.1,66.6-160.9S431.3,109.6,388.4,66.6z
		 M15,227.5C15,110.3,110.3,15,227.5,15c55.9,0,106.8,21.7,144.8,57.1L72.1,372.3C36.7,334.3,15,283.4,15,227.5z M227.5,440
		c-55.9,0-106.8-21.7-144.8-57.1L382.9,82.7c35.4,38,57.1,88.9,57.1,144.8C440,344.7,344.7,440,227.5,440z"/>
</g>
</svg>
