<?xml version="1.0" encoding="utf-8"?>
<!-- Generator: Adobe Illustrator 26.3.1, SVG Export Plug-In . SVG Version: 6.00 Build 0)  -->
<svg version="1.1" xmlns="http://www.w3.org/2000/svg" xmlns:xlink="http://www.w3.org/1999/xlink" x="0px" y="0px"
	 viewBox="0 0 65 65" style="enable-background:new 0 0 65 65;" xml:space="preserve">
<style type="text/css">
	.st0{fill:#0098C3;}
	.st1{fill:#FFFFFF;}
</style>
<g id="Ebene_2">
	<polygon class="st0" points="0.5,0.5 0.5,61.3 61,0.5 	"/>
</g>
<g id="Ebene_3">
	<g>
		<path class="st1" d="M11.6,37.8l-0.9,0.9l3,3l-1.2,1.3L5,35.4l2.1-2.1c1-1,2.6-1.6,4.3,0.1C13,35,12.7,36.7,11.6,37.8z M8,34.5
			l-0.7,0.7l2.4,2.4l0.7-0.7c0.6-0.6,0.6-1.4-0.2-2.2C9.4,33.9,8.6,33.9,8,34.5z"/>
		<path class="st1" d="M20.9,34.6l-4.4-2l-0.7,0.7l3.2,3.2l-1.2,1.2l-7.5-7.5l2.1-2.1c1.2-1.2,2.8-1.5,4.3,0
			c1.2,1.2,1.1,2.4,0.7,3.1l4.8,2.1L20.9,34.6z M13.3,29.3L12.5,30l2.3,2.3l0.7-0.7c0.6-0.6,0.7-1.5-0.1-2.2
			C14.6,28.4,13.8,28.8,13.3,29.3z"/>
		<path class="st1" d="M25.8,30c-1.7,1.7-4.3,1.1-6.7-1.2s-2.9-4.9-1.2-6.6c1.7-1.7,4.3-1.1,6.6,1.2S27.4,28.4,25.8,30z M19.1,23.4
			c-0.9,0.9-0.2,2.6,1.4,4.1s3.2,2.3,4.1,1.4c0.9-0.9,0.2-2.6-1.4-4.1C21.6,23.2,20,22.4,19.1,23.4z"/>
		<path class="st1" d="M34.6,20.8L28.8,15l0,0l4.3,7.3l-1,1L24.8,19l0,0l5.8,5.7l-1.2,1.2l-7.5-7.5l1.7-1.7l6.9,4l0,0l-4.1-6.9
			l1.8-1.8l7.5,7.5L34.6,20.8z"/>
		<path class="st1" d="M39.9,15.8c-1.7,1.7-4.3,1.1-6.7-1.2S30.3,9.7,32,8c1.7-1.7,4.3-1.1,6.6,1.2C41,11.5,41.6,14.1,39.9,15.8z
			 M33.2,9.1c-0.9,0.9-0.2,2.6,1.4,4.1c1.5,1.5,3.2,2.3,4.1,1.4c0.9-0.9,0.2-2.6-1.4-4.1C35.8,9,34.1,8.2,33.2,9.1z"/>
	</g>
</g>
</svg>
