<?xml version="1.0" encoding="utf-8"?>
<!-- Generator: Adobe Illustrator 24.3.0, SVG Export Plug-In . SVG Version: 6.00 Build 0)  -->
<svg version="1.1" id="Layer_1" xmlns="http://www.w3.org/2000/svg" xmlns:xlink="http://www.w3.org/1999/xlink" x="0px" y="0px"
	 viewBox="0 0 65 65" style="enable-background:new 0 0 65 65;" xml:space="preserve">
<style type="text/css">
	.st0{clip-path:url(#SVGID_2_);}
	.st1{clip-path:url(#SVGID_2_);fill:#010101;}
	.st2{clip-path:url(#SVGID_2_);fill:none;stroke:#FFFFFF;stroke-miterlimit:10;}
	.st3{clip-path:url(#SVGID_2_);fill:url(#SVGID_3_);}
	.st4{clip-path:url(#SVGID_2_);fill:#FFCC4E;}
	.st5{fill:#0C0B4E;}
	.st6{clip-path:url(#SVGID_2_);fill:none;stroke:#FFCC4E;stroke-width:0.5669;stroke-miterlimit:10;}
	.st7{fill:none;stroke:#FFCC4E;stroke-miterlimit:10;}
	.st8{fill:#FFCC4E;}
</style>
<image style="display:none;overflow:visible;" width="97" height="84" xlink:href="46A634E5.jpg"  transform="matrix(0.9999 0 0 0.9999 -15.6978 -7.9011)">
</image>
<rect x="140.7" y="99.8" style="fill:none;" width="6.7" height="0"/>
<g>
	<g>
		<defs>
			<rect id="SVGID_1_" x="0.5" y="0.5" width="97" height="84"/>
		</defs>
		<clipPath id="SVGID_2_">
			<use xlink:href="#SVGID_1_"  style="overflow:visible;"/>
		</clipPath>
		<g class="st0">
			
				<text transform="matrix(1.2383 0 -0.3087 0.9512 -7.9762 62.1891)" class="st8" style="font-family:'AgencyFB-Bold'; font-size:10.9298px;"> </text>
		</g>
		<path class="st1" d="M92.8,38.8h0.1H92.8z"/>
		<path class="st2" d="M92.9,38.8h-0.1H92.9z"/>
		
			<radialGradient id="SVGID_3_" cx="29.8206" cy="25.6873" r="32.5569" gradientTransform="matrix(0.6923 -0.7216 0.7216 0.6923 -27.4603 21.196)" gradientUnits="userSpaceOnUse">
			<stop  offset="0" style="stop-color:#FFFFFF"/>
			<stop  offset="1" style="stop-color:#5B6C7B"/>
		</radialGradient>
		<path class="st3" d="M54,4.5L0.5,61.3c-3.2,0.1-4.9-4.5-5-7.7l-1-47.8C-5.5,2.5-3-0.2,0.2-0.2l47.8-1C51.3-1.3,53.9,1.3,54,4.5z"
			/>
		<path class="st4" d="M61,0.5L10,51.2c-2.8,0-5-2.2-5-5V5.3c0-2.7,2.3-5,5-5h41.5C54.2,0.3,59.9,0.5,61,0.5z"/>
		<g class="st0">
			<path class="st5" d="M52.7,8.5L8.2,53c-2.7,0-4.8-2.2-4.8-4.8V8.5c0-2.7,2.2-4.8,4.8-4.8h39.7C50.6,3.7,52.7,5.9,52.7,8.5z"/>
		</g>
		<line class="st6" x1="-1.4" y1="62.8" x2="61.7" y2="-0.6"/>
	</g>
	<polygon class="st7" points="48.3,42.5 48.2,42.5 48.2,42.5 	"/>
	<path class="st7" d="M34.1,29.1"/>
	<path class="st7" d="M16.9,32.6"/>
	<path class="st7" d="M21.5,32.9"/>
	<path class="st7" d="M21.9,33.6"/>
	<g>
		<path class="st8" d="M6.3,33.7l1.8-1.8c0.6-0.6,1-0.9,1.4-1.2s0.9-0.3,1.4-0.1c0.5,0.1,1,0.4,1.5,0.9c0.5,0.5,0.8,0.9,0.9,1.4
			c0.1,0.5,0.1,0.9,0,1.4c-0.2,0.4-0.5,1-1.2,1.6l-0.5,0.5l2.4,2.3L12.7,40L6.3,33.7z M8.8,33.3l1.9,1.9l0.4-0.4
			c0.4-0.4,0.5-0.7,0.5-1c-0.1-0.3-0.2-0.6-0.5-0.9c-0.2-0.2-0.5-0.4-0.7-0.5c-0.2-0.1-0.4-0.1-0.6,0c-0.2,0.1-0.3,0.2-0.5,0.4
			L8.8,33.3z"/>
		<path class="st8" d="M11.2,28.8l2-2c0.4-0.4,0.7-0.7,0.9-0.8s0.5-0.3,0.9-0.3c0.4-0.1,0.7,0,1.1,0.1c0.4,0.2,0.8,0.4,1.1,0.7
			c0.8,0.8,1.1,1.6,0.8,2.6l3.9,1.6l-1.5,1.5l-3.4-1.7l-0.7,0.7l2.5,2.5l-1.4,1.4L11.2,28.8z M13.6,28.5l1.8,1.8l0.6-0.6
			c0.5-0.5,0.5-1.1-0.1-1.7c-0.2-0.2-0.4-0.3-0.6-0.4c-0.2-0.1-0.4-0.1-0.6,0c-0.2,0.1-0.3,0.2-0.5,0.4L13.6,28.5z"/>
		<path class="st8" d="M23.9,22.4c2.2,2.2,2.5,4,1,5.6c-0.8,0.8-1.6,1.1-2.6,0.9c-0.9-0.2-2-0.8-3-1.8c-2.2-2.2-2.5-4-1-5.6
			c0.7-0.8,1.6-1.1,2.5-0.9S22.8,21.3,23.9,22.4z M22.4,23.9c-0.9-0.9-1.5-1.4-1.9-1.5s-0.8-0.1-1.1,0.2c-0.3,0.3-0.4,0.6-0.2,1.1
			c0.2,0.4,0.7,1.1,1.5,1.9c0.8,0.8,1.5,1.3,1.9,1.5c0.4,0.2,0.8,0.1,1.1-0.2c0.3-0.3,0.4-0.6,0.2-1.1S23.3,24.8,22.4,23.9z"/>
		<path class="st8" d="M21.7,18.3l2-2.1l4.8,3l-2.9-4.9l2-2l6.4,6.3L32.6,20l-5.3-5.3l4,6.6l-1,1l-6.5-4.1l5.3,5.3L28,24.6
			L21.7,18.3z"/>
		<path class="st8" d="M36.3,9.9c2.2,2.2,2.5,4,1,5.6c-0.8,0.8-1.6,1.1-2.6,0.9c-0.9-0.2-2-0.8-3-1.8c-2.2-2.2-2.5-4-1-5.6
			c0.7-0.8,1.6-1.1,2.5-0.9C34.2,8.2,35.2,8.8,36.3,9.9z M34.9,11.4C34,10.5,33.4,10,33,9.9s-0.8-0.1-1.1,0.2
			c-0.3,0.3-0.4,0.6-0.2,1.1c0.2,0.4,0.7,1.1,1.5,1.9c0.8,0.8,1.5,1.3,1.9,1.5c0.4,0.2,0.8,0.1,1.1-0.2c0.3-0.3,0.4-0.6,0.2-1.1
			C36.2,12.9,35.7,12.2,34.9,11.4z"/>
	</g>
</g>
</svg>
