<?xml version="1.0" encoding="utf-8"?>
<!-- Generator: Adobe Illustrator 24.0.0, SVG Export Plug-In . SVG Version: 6.00 Build 0)  -->
<svg version="1.1" id="icon_x5F_Deleat" xmlns="http://www.w3.org/2000/svg" xmlns:xlink="http://www.w3.org/1999/xlink" x="0px"
	 y="0px" viewBox="0 0 34 34" style="enable-background:new 0 0 34 34;" xml:space="preserve">
<style type="text/css">
	.st0{fill:none;stroke:#1D4F95;stroke-width:0.9755;stroke-miterlimit:10;}
	.st1{fill:#1D4F95;}
	.st2{fill:none;stroke:#1D4F95;stroke-width:1.5;stroke-miterlimit:10;}
</style>
<circle class="st0" cx="17.2" cy="17.7" r="16.6"/>
<g>
	<g>
		<path class="st1" d="M31.57,13.18c-0.12-0.13-0.28-0.2-0.45-0.2c-0.1,0-0.24,0.02-0.38,0.14l-9.01,7.65l-4.11-3.37l-0.03-0.02
			c-0.08-0.05-0.17-0.08-0.26-0.08c-0.19-0.01-0.38,0.07-0.51,0.21c-0.19,0.23-0.19,0.57,0.01,0.8l4.52,5.05
			c0,0,0.12,0.16,0.39,0.16s0.37-0.1,0.48-0.22l9.34-9.31C31.78,13.75,31.79,13.42,31.57,13.18z"/>
	</g>
</g>
<g transform="translate(0,-952.36218)">
	<path class="st2" d="M26.69,973.05l0.53,0.3c0.28,0.16,0.39,0.5,0.23,0.78l-1.67,2.98c-0.16,0.28-0.49,0.38-0.77,0.22l-1.37-0.77
		c-0.21-0.12-0.5-0.09-0.68,0.08c-1.01,0.97-2.24,1.7-3.61,2.12c-0.23,0.07-0.4,0.31-0.4,0.55v1.57c0,0.33-0.24,0.57-0.57,0.57
		h-3.42c-0.33,0-0.57-0.24-0.57-0.57v-1.57c0-0.25-0.17-0.48-0.41-0.55c-1.37-0.42-2.59-1.15-3.61-2.12
		c-0.18-0.17-0.47-0.2-0.68-0.08l-1.37,0.77c-0.29,0.16-0.61,0.06-0.77-0.22c-0.6-1.03-1.19-2.1-1.67-2.98
		c-0.16-0.28-0.06-0.63,0.22-0.78l1.36-0.77c0.21-0.12,0.33-0.38,0.28-0.61c-0.13-0.62-0.2-1.25-0.2-1.9c0-0.66,0.06-1.3,0.2-1.91
		c0.05-0.23-0.07-0.5-0.28-0.61l-1.36-0.77c-0.28-0.16-0.38-0.5-0.22-0.78c0.57-1.04,1.17-2.1,1.67-2.98
		c0.16-0.28,0.48-0.38,0.77-0.22l1.37,0.77c0.21,0.12,0.5,0.09,0.68-0.08c1.01-0.97,2.24-1.7,3.61-2.12
		c0.23-0.07,0.41-0.3,0.41-0.54v-1.57c0-0.33,0.24-0.57,0.57-0.57l0,0h3.42c0.33,0,0.57,0.24,0.57,0.57v1.57
		c0,0.24,0.17,0.47,0.4,0.54c1.37,0.42,2.59,1.15,3.61,2.12c0.18,0.17,0.47,0.2,0.68,0.08l1.37-0.77c0.29-0.16,0.62-0.06,0.77,0.22
		l1.67,2.98c0.16,0.28,0.05,0.63-0.23,0.78l-0.66,0.37 M17.71,975.09c-0.33,0.07-0.68,0.1-1.04,0.1c-2.84,0-5.13-2.29-5.13-5.13
		c0-2.84,2.29-5.13,5.13-5.13v0c2.25,0,4.16,1.44,4.85,3.46"/>
</g>
</svg>
