<?xml version="1.0" encoding="utf-8"?>
<!-- Generator: Adobe Illustrator 26.2.1, SVG Export Plug-In . SVG Version: 6.00 Build 0)  -->
<svg version="1.1" id="icon_x5F_Deleat" xmlns="http://www.w3.org/2000/svg" xmlns:xlink="http://www.w3.org/1999/xlink" x="0px"
	 y="0px" viewBox="0 0 34 34" style="enable-background:new 0 0 34 34;" xml:space="preserve">
<style type="text/css">
	.st0{fill:#C6C6C6;stroke:#FFFFFF;stroke-width:0.9755;stroke-miterlimit:10;}
	.st1{fill:#FFFFFF;}
	.st2{fill:none;stroke:#FFFFFF;stroke-width:1.5;stroke-miterlimit:10;}
</style>
<circle class="st0" cx="17" cy="17" r="16.6"/>
<g>
	<g>
		<path class="st1" d="M32,13c-0.1-0.2-0.3-0.2-0.5-0.2c-0.1,0-0.2,0-0.4,0.1l-9,7.6L18,17.1l0,0c-0.1,0-0.2-0.1-0.3-0.1
			c-0.2,0-0.4,0.1-0.5,0.2c-0.2,0.2-0.2,0.6,0,0.8l4.5,5c0,0,0.1,0.2,0.4,0.2s0.4-0.1,0.5-0.2l9.3-9.3C32.1,13.6,32.1,13.2,32,13z"
			/>
	</g>
</g>
<g transform="translate(0,-952.36218)">
	<path class="st2" d="M27,972.3l0.5,0.3c0.3,0.2,0.4,0.5,0.2,0.8l-1.7,3c-0.2,0.3-0.5,0.4-0.8,0.2l-1.4-0.8
		c-0.2-0.1-0.5-0.1-0.7,0.1c-1,1-2.2,1.7-3.6,2.1c-0.2,0.1-0.4,0.3-0.4,0.6v1.6c0,0.3-0.2,0.6-0.6,0.6h-3.2c-0.3,0-0.6-0.2-0.6-0.6
		v-1.6c0-0.2-0.2-0.5-0.4-0.6c-1.4-0.4-2.6-1.2-3.6-2.1c-0.2-0.2-0.5-0.2-0.7-0.1l-1.4,0.8c-0.3,0.2-0.6,0.1-0.8-0.2
		c-0.6-1-1.2-2.1-1.7-3c-0.2-0.3-0.1-0.6,0.2-0.8l1.4-0.8c0.2-0.1,0.3-0.4,0.3-0.6c-0.1-0.6-0.2-1.2-0.2-1.9s0.1-1.3,0.2-1.9
		c0.1-0.2-0.1-0.5-0.3-0.6L6.3,966c-0.3-0.2-0.4-0.5-0.2-0.8c0.6-1,1.2-2.1,1.7-3c0.2-0.3,0.5-0.4,0.8-0.2l1.4,0.8
		c0.2,0.1,0.5,0.1,0.7-0.1c1-1,2.2-1.7,3.6-2.1c0.2-0.1,0.4-0.3,0.4-0.5v-1.6c0-0.3,0.2-0.6,0.6-0.6l0,0h3.4c0.3,0,0.6,0.2,0.6,0.6
		v1.6c0,0.2,0.2,0.5,0.4,0.5c1.4,0.4,2.6,1.2,3.6,2.1c0.2,0.2,0.5,0.2,0.7,0.1l1.4-0.8c0.3-0.2,0.6-0.1,0.8,0.2l1.7,3
		c0.2,0.3,0.1,0.6-0.2,0.8l-0.7,0.4 M18,974.4c-0.3,0.1-0.7,0.1-1,0.1c-2.8,0-5.1-2.3-5.1-5.1s2.3-5.1,5.1-5.1l0,0
		c2.3,0,4.2,1.4,4.9,3.5"/>
</g>
</svg>
