<?xml version="1.0" encoding="utf-8"?>
<!-- Generator: Adobe Illustrator 21.0.1, SVG Export Plug-In . SVG Version: 6.00 Build 0)  -->
<svg version="1.1" id="Layer_1" xmlns="http://www.w3.org/2000/svg" xmlns:xlink="http://www.w3.org/1999/xlink" x="0px" y="0px"
	 viewBox="0 0 200 200" style="enable-background:new 0 0 200 200;" xml:space="preserve">
<style type="text/css">
	.st0{fill:#E6E7E8;}
	.st1{clip-path:url(#SVGID_2_);fill:none;}
	.st2{clip-path:url(#SVGID_4_);fill:none;}
	.st3{clip-path:url(#SVGID_6_);}
	.st4{fill:#6D6E70;}
	.st5{fill:#424244;}
	.st6{fill:#231F20;}
	.st7{fill:#FFCA05;}
	.st8{fill:#808184;}
</style>
<g>
	<rect x="-0.5" y="0.1" class="st0" width="200.4" height="200.4"/>
	<g>
		<g>
			<g>
				<g>
					<defs>
						<rect id="SVGID_1_" x="0.1" y="-0.5" width="200.4" height="200.4"/>
					</defs>
					<clipPath id="SVGID_2_">
						<use xlink:href="#SVGID_1_"  style="overflow:visible;"/>
					</clipPath>
					<rect x="0.6" y="-0.3" class="st1" width="199.3" height="199.9"/>
				</g>
			</g>
		</g>
		<g>
			<g>
				<g>
					<defs>
						<rect id="SVGID_3_" x="0.1" y="-0.5" width="200.4" height="200.4"/>
					</defs>
					<clipPath id="SVGID_4_">
						<use xlink:href="#SVGID_3_"  style="overflow:visible;"/>
					</clipPath>
					<rect x="0.6" y="-0.3" class="st2" width="199.3" height="199.9"/>
				</g>
			</g>
		</g>
	</g>
</g>
<g>
	<defs>
		<rect id="SVGID_5_" x="-0.2" y="0.5" width="200.1" height="200.2"/>
	</defs>
	<clipPath id="SVGID_6_">
		<use xlink:href="#SVGID_5_"  style="overflow:visible;"/>
	</clipPath>
	<g class="st3">
		<g id="XMLID_2_">
			<g>
				<ellipse class="st4" cx="89.7" cy="75.1" rx="38.6" ry="38.5"/>
			</g>
			<g>
			</g>
		</g>
		<g id="XMLID_9_">
			<g>
				<ellipse class="st5" cx="89.7" cy="75.1" rx="13.8" ry="13.7"/>
			</g>
			<g>
			</g>
		</g>
	</g>
	<g class="st3">
		<g>
			<polygon class="st6" points="149.5,-13.7 158.7,-4.6 330,-4.6 330,-31.5 149.5,-31.5 			"/>
			<polygon class="st7" points="149.5,-31.5 136,-31.5 136,-27.3 140.6,-22.6 149.5,-22.6 			"/>
		</g>
		<g>
			<polyline class="st8" points="177,14.9 330,14.9 330,-4.5 177,-4.5 			"/>
		</g>
		<g>
			<polyline class="st8" points="177,61.3 330,61.3 330,41.9 177,41.9 			"/>
		</g>
		<g>
			<polyline class="st8" points="177,107.7 330,107.7 330,88.2 177,88.2 			"/>
		</g>
		<g>
			<polyline class="st8" points="176.7,-31.5 329.8,-31.5 329.8,-51 176.7,-51 			"/>
		</g>
		<g>
			<polygon class="st6" points="149.5,32.7 158.7,41.9 330,41.9 330,15 149.5,15 			"/>
			<polygon class="st7" points="149.5,15 136,15 136,19.2 140.6,23.8 149.5,23.8 			"/>
		</g>
		<g>
			<polygon class="st6" points="149.5,79.4 158.7,88.5 330,88.5 330,61.6 149.5,61.6 			"/>
			<polygon class="st7" points="149.5,61.6 136,61.6 136,65.8 140.6,70.4 149.5,70.4 			"/>
		</g>
	</g>
	<g class="st3">
		<g>
			<polygon class="st6" points="75.6,92.3 66.5,101.5 -104.8,101.5 -104.8,74.6 75.6,74.6 			"/>
			<polygon class="st7" points="75.6,74.6 89.2,74.6 89.2,78.8 84.6,83.4 75.6,83.4 			"/>
		</g>
		<g>
			<polyline class="st8" points="48.2,121 -104.8,121 -104.8,101.5 48.2,101.5 			"/>
		</g>
		<g>
			<polyline class="st8" points="48.2,167.4 -104.8,167.4 -104.8,147.9 48.2,147.9 			"/>
		</g>
		<g>
			<polyline class="st8" points="48.4,213.7 -104.6,213.7 -104.6,194.2 48.4,194.2 			"/>
		</g>
		<g>
			<polyline class="st8" points="48.4,74.5 -104.6,74.5 -104.6,55 48.4,55 			"/>
		</g>
		<g>
			<polygon class="st6" points="75.6,138.8 66.5,147.9 -104.8,147.9 -104.8,121 75.6,121 			"/>
			<polygon class="st7" points="75.6,121 89.2,121 89.2,125.2 84.6,129.9 75.6,129.9 			"/>
		</g>
		<g>
			<polygon class="st6" points="75.6,185.1 66.5,194.3 -104.8,194.3 -104.8,167.4 75.6,167.4 			"/>
			<polygon class="st7" points="75.6,167.7 89.2,167.7 89.2,171.8 84.6,176.5 75.6,176.5 			"/>
		</g>
	</g>
</g>
</svg>
