<?xml version="1.0" encoding="utf-8"?>
<!-- Generator: Adobe Illustrator 24.0.2, SVG Export Plug-In . SVG Version: 6.00 Build 0)  -->
<svg version="1.1" id="Layer_1" xmlns="http://www.w3.org/2000/svg" xmlns:xlink="http://www.w3.org/1999/xlink" x="0px" y="0px"
	 viewBox="0 0 200 200" style="enable-background:new 0 0 200 200;" xml:space="preserve">
<style type="text/css">
	.st0{fill:#E6E7E8;}
	.st1{clip-path:url(#SVGID_2_);fill:none;}
	.st2{clip-path:url(#SVGID_4_);fill:none;}
	.st3{clip-path:url(#SVGID_6_);}
	.st4{fill:#231F20;}
	.st5{fill:#FFCA05;}
	.st6{clip-path:url(#SVGID_8_);}
	.st7{fill:#808184;}
	.st8{clip-path:url(#SVGID_10_);}
	.st9{clip-path:url(#SVGID_12_);}
	.st10{clip-path:url(#SVGID_14_);}
	.st11{clip-path:url(#SVGID_16_);}
	.st12{clip-path:url(#SVGID_18_);}
	.st13{clip-path:url(#SVGID_20_);}
	.st14{fill:#6D6E70;}
</style>
<g>
	<rect x="-0.5" y="0.1" class="st0" width="200.4" height="200.4"/>
	<g>
		<g>
			<g>
				<defs>
					<rect id="SVGID_1_" x="0.1" y="-0.5" width="200.4" height="200.4"/>
				</defs>
				<clipPath id="SVGID_2_">
					<use xlink:href="#SVGID_1_"  style="overflow:visible;"/>
				</clipPath>
				<rect x="0.6" y="-0.3" class="st1" width="199.3" height="199.9"/>
			</g>
		</g>
		<g>
			<g>
				<defs>
					<rect id="SVGID_3_" x="0.1" y="-0.5" width="200.4" height="200.4"/>
				</defs>
				<clipPath id="SVGID_4_">
					<use xlink:href="#SVGID_3_"  style="overflow:visible;"/>
				</clipPath>
				<rect x="0.6" y="-0.3" class="st2" width="199.3" height="199.9"/>
			</g>
		</g>
	</g>
</g>
<g>
	<g>
		<defs>
			<rect id="SVGID_5_" x="-0.3" y="1" width="201.9" height="202.6"/>
		</defs>
		<clipPath id="SVGID_6_">
			<use xlink:href="#SVGID_5_"  style="overflow:visible;"/>
		</clipPath>
		<g class="st3">
			<polygon class="st4" points="96.6,55.7 88.4,63.9 -65.5,63.9 -65.5,39.7 96.6,39.7 			"/>
			<polygon class="st5" points="96.6,39.7 108.8,39.7 108.8,43.5 104.6,47.7 96.6,47.7 			"/>
		</g>
	</g>
	<g>
		<defs>
			<rect id="SVGID_7_" x="-0.3" y="1" width="201.9" height="202.6"/>
		</defs>
		<clipPath id="SVGID_8_">
			<use xlink:href="#SVGID_7_"  style="overflow:visible;"/>
		</clipPath>
		<g class="st6">
			<polyline class="st7" points="72,84.7 -65.5,84.7 -65.5,67.2 72,67.2 			"/>
		</g>
	</g>
	<g>
		<defs>
			<rect id="SVGID_9_" x="-0.3" y="1" width="201.9" height="202.6"/>
		</defs>
		<clipPath id="SVGID_10_">
			<use xlink:href="#SVGID_9_"  style="overflow:visible;"/>
		</clipPath>
		<g class="st8">
			<polyline class="st7" points="72,132.8 -65.5,132.8 -65.5,115.3 72,115.3 			"/>
		</g>
	</g>
	<g>
		<defs>
			<rect id="SVGID_11_" x="-0.3" y="1" width="201.9" height="202.6"/>
		</defs>
		<clipPath id="SVGID_12_">
			<use xlink:href="#SVGID_11_"  style="overflow:visible;"/>
		</clipPath>
		<g class="st9">
			<polyline class="st7" points="72,181.2 -65.5,181.2 -65.5,163.7 72,163.7 			"/>
		</g>
	</g>
	<g>
		<defs>
			<rect id="SVGID_13_" x="-0.3" y="1" width="201.9" height="202.6"/>
		</defs>
		<clipPath id="SVGID_14_">
			<use xlink:href="#SVGID_13_"  style="overflow:visible;"/>
		</clipPath>
		<g class="st10">
			<polyline class="st7" points="72,36.2 -65.5,36.2 -65.5,18.7 72,18.7 			"/>
		</g>
	</g>
	<g>
		<defs>
			<rect id="SVGID_15_" x="-0.3" y="1" width="201.9" height="202.6"/>
		</defs>
		<clipPath id="SVGID_16_">
			<use xlink:href="#SVGID_15_"  style="overflow:visible;"/>
		</clipPath>
		<g class="st11">
			<polygon class="st4" points="96.6,104 88.4,112.2 -65.5,112.2 -65.5,88.1 96.6,88.1 			"/>
			<polygon class="st5" points="96.6,88.1 108.8,88.1 108.8,91.8 104.6,96 96.6,96 			"/>
		</g>
	</g>
	<g>
		<defs>
			<rect id="SVGID_17_" x="-0.3" y="1" width="201.9" height="202.6"/>
		</defs>
		<clipPath id="SVGID_18_">
			<use xlink:href="#SVGID_17_"  style="overflow:visible;"/>
		</clipPath>
		<g class="st12">
			<polygon class="st4" points="96.6,152.3 88.4,160.5 -65.5,160.5 -65.5,136.4 96.6,136.4 			"/>
			<polygon class="st5" points="96.6,136.4 108.8,136.4 108.8,140.1 104.6,144.3 96.6,144.3 			"/>
		</g>
	</g>
	<g>
		<defs>
			<rect id="SVGID_19_" x="-0.3" y="1" width="201.9" height="202.6"/>
		</defs>
		<clipPath id="SVGID_20_">
			<use xlink:href="#SVGID_19_"  style="overflow:visible;"/>
		</clipPath>
		<g id="XMLID_2_" class="st13">
			<g>
				<path class="st14" d="M152,66.8c20.3,0,36.8,16.4,36.8,36.7s-16.5,36.7-36.8,36.7s-36.8-16.4-36.8-36.7
					C115.2,83.3,131.7,66.8,152,66.8z"/>
			</g>
		</g>
	</g>
</g>
</svg>
