<?xml version="1.0" encoding="utf-8"?>
<!-- Generator: Adobe Illustrator 21.0.1, SVG Export Plug-In . SVG Version: 6.00 Build 0)  -->
<svg version="1.1" id="Layer_1" xmlns="http://www.w3.org/2000/svg" xmlns:xlink="http://www.w3.org/1999/xlink" x="0px" y="0px"
	 viewBox="0 0 60.7 60.7" style="enable-background:new 0 0 60.7 60.7;" xml:space="preserve">
<style type="text/css">
	.st0{fill:#32C3F2;}
</style>
<g>
	<path class="st0" d="M56.9,21.7c3.7,11.5-0.4,24.1-10.1,31.2C37,60,23.7,60,14,52.9C4.2,45.8,0.1,33.2,3.8,21.7
		C7.6,10.3,18.3,2.5,30.3,2.5S53.1,10.3,56.9,21.7z M30.3,5c-11,0-20.7,7.1-24.1,17.5C2.8,33,6.6,44.4,15.4,50.9
		c8.9,6.5,20.9,6.5,29.8,0S57.8,33,54.4,22.5C51.1,12.1,41.3,5,30.3,5z"/>
</g>
<path class="st0" d="M23.7,40.2c-3.6-0.1-6-2.7-6.5-4.9c1,0.1,2.1,0.1,3-0.1c0,0,0,0,0.1,0c-1.9-0.5-3.5-1.6-4.5-3.2
	c-0.6-1.2-1-2.3-1-3.8c1,0.5,2.1,0.8,3.1,0.9c-1.4-1-2.5-2.5-2.8-4.3c-0.4-1.8-0.1-3.5,0.8-5.1c3.8,4.4,8.5,6.9,14.4,7.3
	c0-0.3-0.1-0.5-0.1-0.8c-0.3-1.7,0.1-3.2,1-4.5c1.2-1.7,2.7-2.8,4.8-3.1c2.3-0.4,4.4,0.3,6.1,1.9c0.1,0.1,0.3,0.1,0.4,0.1
	c1.4-0.3,2.8-0.8,4-1.6c0,0,0,0,0.1,0l0,0c-0.5,1.7-1.6,2.8-3,3.8c1.3-0.1,2.6-0.5,3.9-1l0,0c-0.3,0.4-0.5,0.6-0.8,1
	c-0.8,0.9-1.6,1.7-2.6,2.5c-0.1,0-0.1,0.1-0.1,0.3c0,1,0,2.1-0.1,3.1c-0.3,2.2-0.9,4.3-1.8,6.2c-0.9,2.1-2.2,3.9-3.8,5.6
	c-2.7,2.7-5.8,4.5-9.6,5.3c-1.3,0.3-2.6,0.4-3.9,0.5c-4,0.1-7.8-0.9-11.1-3c0,0-0.1,0-0.1-0.1c2.5,0.3,4.8,0,7-0.9
	C21.6,41.6,22.6,41,23.7,40.2z"/>
</svg>
