<?xml version="1.0" encoding="utf-8"?>
<!-- Generator: Adobe Illustrator 24.0.0, SVG Export Plug-In . SVG Version: 6.00 Build 0)  -->
<svg version="1.1" id="icon_x5F_Deleat" xmlns="http://www.w3.org/2000/svg" xmlns:xlink="http://www.w3.org/1999/xlink" x="0px"
	 y="0px" viewBox="0 0 34 34" style="enable-background:new 0 0 34 34;" xml:space="preserve">
<style type="text/css">
	.st0{fill:none;stroke:#1D4F95;stroke-width:0.9755;stroke-miterlimit:10;}
	.st1{fill:none;stroke:#1D4F95;stroke-width:1.5;stroke-miterlimit:10;}
</style>
<circle class="st0" cx="16.84" cy="17.7" r="16.6"/>
<g>
	<path class="st1" d="M30.99,17.42c-0.44-2.17-6.54-7.54-14.12-7.54S3.33,15.04,2.72,17.3c-0.04,0.12-0.07,0.25-0.07,0.38v0.03
		c0,0.09,0.02,0.17,0.04,0.26v0.04c0.49,2.23,6.5,7.52,14.18,7.52c7.51,0,13.55-5.25,14.1-7.46c0.04-0.11,0.06-0.23,0.06-0.35v-0.05
		c0-0.08-0.02-0.15-0.04-0.23V17.42z"/>
	<path class="st1" d="M16.84,10.79c-3.82,0-6.91,3.09-6.91,6.91s3.09,6.91,6.91,6.91s6.91-3.09,6.91-6.91l0,0
		C23.74,13.89,20.65,10.8,16.84,10.79z"/>
</g>
</svg>
