<?xml version="1.0" encoding="utf-8"?>
<!-- Generator: Adobe Illustrator 26.2.1, SVG Export Plug-In . SVG Version: 6.00 Build 0)  -->
<svg version="1.1" id="icon_x5F_Deleat" xmlns="http://www.w3.org/2000/svg" xmlns:xlink="http://www.w3.org/1999/xlink" x="0px"
	 y="0px" viewBox="0 0 34 34" style="enable-background:new 0 0 34 34;" xml:space="preserve">
<style type="text/css">
	.st0{fill:none;stroke:#0097C3;stroke-width:0.9755;stroke-miterlimit:10;}
	.st1{fill:none;stroke:#C6C6C6;stroke-width:1.5;stroke-miterlimit:10;}
</style>
<g>
	<circle class="st0" cx="17" cy="17" r="16.6"/>
	<g>
		<path class="st1" d="M31.1,16.7c-0.4-2.2-6.5-7.5-14.1-7.5S3.5,14.3,2.9,16.6c0,0.1-0.1,0.3-0.1,0.4l0,0c0,0.1,0,0.2,0,0.3l0,0
			c0.5,2.2,6.5,7.5,14.2,7.5c7.5,0,13.6-5.3,14.1-7.5c0-0.1,0.1-0.2,0.1-0.4l0,0C31.2,16.9,31.2,16.8,31.1,16.7L31.1,16.7z"/>
		<path class="st1" d="M17,10.1c-3.8,0-6.9,3.1-6.9,6.9s3.1,6.9,6.9,6.9s6.9-3.1,6.9-6.9l0,0C23.9,13.2,20.8,10.1,17,10.1z"/>
	</g>
</g>
</svg>
