<?xml version="1.0" encoding="utf-8"?>
<!-- Generator: Adobe Illustrator 21.0.1, SVG Export Plug-In . SVG Version: 6.00 Build 0)  -->
<svg version="1.1" id="Layer_1" xmlns="http://www.w3.org/2000/svg" xmlns:xlink="http://www.w3.org/1999/xlink" x="0px" y="0px"
	 viewBox="0 0 60.7 60.7" style="enable-background:new 0 0 60.7 60.7;" xml:space="preserve">
<style type="text/css">
	.st0{fill:#EE3E38;}
</style>
<g>
	<path class="st0" d="M56.9,21.7c3.7,11.5-0.4,24.1-10.1,31.2C37,60,23.7,60,14,52.9C4.2,45.8,0.1,33.2,3.8,21.7
		C7.6,10.3,18.3,2.5,30.4,2.5S53.1,10.3,56.9,21.7z M30.4,5c-11,0-20.7,7.1-24.1,17.5C2.8,33,6.6,44.4,15.4,50.9
		c8.9,6.5,20.9,6.5,29.8,0S57.8,33,54.4,22.5C51.1,12.1,41.3,5,30.4,5z"/>
</g>
<g>
	<path class="st0" d="M27.3,12.5h-2.1l-1.4,5.3l-1.4-5.3h-2.1c0.4,1.3,0.9,2.5,1.3,3.8c0.6,1.8,1,3.2,1.2,4.3V26h1.9v-5.5L27.3,12.5
		z M32.6,22.6v-3.5c0-1-0.1-1.8-0.5-2.3c-0.5-0.6-1.2-1-2.1-1c-0.9,0-1.6,0.4-2.1,1c-0.4,0.5-0.5,1.3-0.5,2.3v3.5
		c0,1,0.1,1.8,0.5,2.3c0.5,0.6,1.2,1,2.1,1c0.9,0,1.6-0.4,2.1-1C32.5,24.4,32.6,23.7,32.6,22.6z M30.8,23c0,0.9-0.3,1.4-0.9,1.4
		c-0.5,0-0.9-0.5-0.9-1.4v-4.2c0-0.9,0.3-1.4,0.9-1.4s0.9,0.5,0.9,1.4V23z M39.2,25.9v-10h-1.8v7.7c-0.4,0.5-0.8,0.9-1.2,0.9
		c-0.3,0-0.4-0.1-0.4-0.4c0,0,0-0.3,0-0.6V16H34v7.9c0,0.6,0,1.2,0.1,1.4c0.1,0.5,0.5,0.8,1.2,0.8c0.6,0,1.3-0.4,2.1-1.2v1h1.8V25.9
		z"/>
	<g>
		<path class="st0" d="M33.6,35.9c-0.3,0-0.6,0.1-0.9,0.4v6c0.3,0.3,0.6,0.4,0.9,0.4c0.5,0,0.8-0.4,0.8-1.3v-4.2
			C34.4,36.4,34.2,35.9,33.6,35.9z"/>
		<path class="st0" d="M40.3,35.9c-0.6,0-0.9,0.5-0.9,1.4v0.9h1.8v-0.9C41.2,36.4,40.8,35.9,40.3,35.9z"/>
		<path class="st0" d="M44.7,30.9c-0.4-1.6-1.7-2.7-3.2-2.9c-3.6-0.4-7.4-0.4-11-0.4c-3.8,0-7.4,0-11,0.4c-1.6,0.1-2.9,1.3-3.2,2.9
			c-0.5,2.2-0.5,4.7-0.5,7c0,2.3,0,4.8,0.5,7c0.4,1.6,1.7,2.7,3.2,2.9c3.6,0.4,7.4,0.4,11,0.4c3.8,0,7.4,0,11-0.4
			c1.6-0.1,2.9-1.3,3.2-2.9c0.5-2.2,0.5-4.7,0.5-7C45.2,35.6,45.2,33.1,44.7,30.9z M24,32.9h-2.2v11.4h-1.9V32.9h-2.1v-1.8H24V32.9z
			 M29.4,44.3h-1.8v-1c-0.6,0.8-1.4,1.2-2.1,1.2c-0.5,0-0.9-0.3-1.2-0.8c-0.1-0.3-0.1-0.8-0.1-1.4v-7.8H26v7.3c0,0.4,0,0.6,0,0.6
			c0,0.3,0.1,0.4,0.4,0.4c0.4,0,0.8-0.3,1.2-0.8v-7.5h1.8C29.4,34.4,29.4,44.3,29.4,44.3z M36.2,41.3c0,0.9,0,1.6-0.1,1.9
			c-0.3,0.8-0.8,1.2-1.4,1.2c-0.6,0-1.3-0.4-1.8-1v0.9H31V31.1h1.8v4.3c0.5-0.6,1.2-1,1.8-1c0.6,0,1.2,0.4,1.4,1.2
			c0.1,0.4,0.1,1,0.1,1.9V41.3z M43,39.8h-3.6v1.7c0,0.9,0.3,1.4,0.9,1.4c0.4,0,0.6-0.3,0.8-0.8c0-0.1,0-0.5,0-1.2h1.8v0.3
			c0,0.5,0,0.9,0,1.2c0,0.4-0.3,0.8-0.4,1c-0.5,0.8-1.2,1-2.2,1c-0.9,0-1.7-0.4-2.2-1c-0.4-0.5-0.5-1.3-0.5-2.3v-3.4
			c0-1,0.1-1.8,0.5-2.3c0.5-0.6,1.2-1,2.2-1c0.9,0,1.6,0.4,2.1,1c0.4,0.5,0.5,1.3,0.5,2.3v2.1H43z"/>
	</g>
</g>
</svg>
