<?xml version="1.0" encoding="utf-8"?>
<!-- Generator: Adobe Illustrator 21.1.0, SVG Export Plug-In . SVG Version: 6.00 Build 0)  -->
<svg version="1.1" id="Layer_1" xmlns="http://www.w3.org/2000/svg" xmlns:xlink="http://www.w3.org/1999/xlink" x="0px" y="0px"
	 viewBox="0 0 100 100" style="enable-background:new 0 0 100 100;" xml:space="preserve">
<g>
	<path style="fill:#FFFFFF;" d="M1.8,38.1C8.4,11.5,35.3-4.7,61.9,1.8c26.6,6.6,42.8,33.5,36.2,60.1c-6.6,26.6-33.5,42.8-60.1,36.2
		C11.5,91.6-4.7,64.7,1.8,38.1"/>
	<g>
		<polyline style="fill-rule:evenodd;clip-rule:evenodd;fill:#FCEE1F;" points="29.9,42 29.6,41.6 29.2,41.2 28.8,40.6 28.5,40.2 
			28.1,39.8 27.6,39.3 27.2,38.8 27.6,39.1 28.1,39.3 28.6,39.8 29.1,39.9 29.6,40.2 30,40.3 30.6,40.6 31.2,40.6 31.7,40.9 
			32.2,40.9 32.7,41 33.3,41.2 33.9,41.2 34.4,41.2 34.8,41.3 35.4,41.3 36,41.3 36.5,41.2 37.1,41 37.7,41 38.1,41 38.6,41 
			39.4,41.2 39.9,41.5 40.5,42 40.6,42 29.9,42 		"/>
		<polyline style="fill-rule:evenodd;clip-rule:evenodd;fill:#FCEE1F;" points="44.1,42 43.6,41.5 43,40.9 42.5,40.2 42,39.6 
			41.5,38.5 41.5,37.2 41.6,36.1 41.7,35 41.7,33.8 41.6,32.9 41.5,31.7 41.2,30.7 40.8,29.6 40.3,28.6 39.9,27.6 39.4,26.8 
			40.2,27.6 41,28.3 41.9,29.1 42.6,29.8 43.3,30.6 43.9,31.5 44.1,32.4 44.4,33.6 44.3,34.3 44.1,34.8 44,35.3 43.9,35.8 
			43.9,36.4 43.9,36.8 44,37.2 44.4,37.8 45.1,38.4 45.8,38.9 46.5,39.6 47.2,40.3 48,41 48.7,41.9 48.7,42 44.1,42 		"/>
		<polyline style="fill-rule:evenodd;clip-rule:evenodd;fill:#FCEE1F;" points="51.2,42 51.3,41.9 51.9,41 52.6,40.3 53.3,39.6 
			54.2,38.9 54.7,38.4 55.4,37.8 55.9,37.2 56,36.8 56,36.4 56,35.8 55.9,35.3 55.6,34.8 55.4,34.3 55.4,33.6 55.7,32.4 56,31.5 
			56.6,30.6 57.3,29.8 58,29.1 58.8,28.3 59.8,27.6 60.6,26.8 60.1,27.6 59.5,28.6 59.1,29.6 58.8,30.7 58.5,31.7 58.4,32.9 
			58.3,33.8 58.3,35 58.3,36.1 58.4,37.2 58.3,38.4 57.8,39.5 57.3,40.2 56.8,40.8 56.3,41.5 55.7,42 51.2,42 		"/>
		<polyline style="fill-rule:evenodd;clip-rule:evenodd;fill:#FCEE1F;" points="59.5,42 60.1,41.6 60.6,41.3 61.2,41.2 61.8,41 
			62.3,41 62.9,41.2 63.5,41.2 63.9,41.3 64.5,41.3 65,41.3 65.6,41.2 66.1,41.2 66.7,41.2 67.3,41 67.7,40.9 68.3,40.9 68.8,40.6 
			69.4,40.6 69.8,40.3 70.4,40.2 70.8,39.9 71.4,39.8 71.8,39.3 72.2,39.1 72.8,38.8 71.9,39.8 71.2,40.6 70.5,41.5 70,42 59.5,42 
					"/>
		<polyline style="fill-rule:evenodd;clip-rule:evenodd;fill:#FCEE1F;" points="29.9,42 30.3,42.5 30.7,42.9 31.2,43.2 31.6,43.6 
			32,43.9 32.4,44 33,44.1 33.6,44.3 34.1,44.4 34.7,44.4 35.4,44.3 35.8,44 36.4,43.9 36.8,43.7 37.4,43.7 37.8,43.9 38.4,44.3 
			38.9,44.8 39.5,45.6 40.2,46.3 40.8,47 41.6,47.7 42.3,48.2 43.2,48.7 44,48.9 44.9,47 45.7,45.1 44.9,45.1 44,44.8 43.3,44.4 
			42.6,43.9 41.9,43.2 41.2,42.6 40.6,42 29.9,42 		"/>
		<polyline style="fill-rule:evenodd;clip-rule:evenodd;fill:#FCEE1F;" points="44.1,42 44.3,42.2 44.9,42.9 45.3,43.6 45.6,44.4 
			45.6,45.3 47.4,44.4 49.4,43.4 49.1,42.7 48.7,42 44.1,42 		"/>
		<polyline style="fill-rule:evenodd;clip-rule:evenodd;fill:#FCEE1F;" points="51.2,42 50.9,42.7 50.6,43.4 52.5,44.4 54.4,45.3 
			54.4,44.4 54.7,43.6 55,42.9 55.6,42.2 55.7,42 51.2,42 		"/>
		<polyline style="fill-rule:evenodd;clip-rule:evenodd;fill:#FCEE1F;" points="59.5,42 59.4,42.2 58.8,42.7 58.1,43.3 57.4,43.9 
			56.7,44.4 55.9,44.8 55,45.1 54.2,45.1 55.1,47 56,48.9 56.8,48.7 57.7,48.2 58.4,47.7 59.2,47 60.1,46.4 60.6,45.7 61.4,45 
			61.9,44.4 62.3,44 62.9,43.7 63.5,43.7 63.9,43.7 64.5,43.9 65,44 65.6,44 66.1,44 67.3,43.9 68.3,43.6 69.1,43 69.8,42.3 70,42 
			59.5,42 		"/>
		<polyline style="fill-rule:evenodd;clip-rule:evenodd;fill:#FCEE1F;" points="30.3,57 30.5,57 30.7,56.7 31.2,56.3 31.6,56.1 
			32.2,55.8 32.6,55.7 33.1,55.4 33.7,55.4 34.3,55.3 34.8,55.3 35.4,55.4 36,55.4 36.4,55.6 36.8,55.6 37.2,55.4 37.7,55.1 
			38.2,54.7 38.8,54.2 39.4,53.5 40.1,52.7 40.8,52 41.5,51.5 42.3,50.9 43.2,50.3 44,50.2 44.9,52 45.7,54 44.9,54 44,54.3 
			43.3,54.9 42.6,55.4 41.9,56 41.3,56.7 40.9,57 30.3,57 		"/>
		<polyline style="fill-rule:evenodd;clip-rule:evenodd;fill:#FCEE1F;" points="44.1,57 44.7,56.3 45.3,55.4 45.6,54.6 45.6,53.7 
			47.4,54.7 49.4,55.6 49.1,56.4 48.8,57 44.1,57 		"/>
		<polyline style="fill-rule:evenodd;clip-rule:evenodd;fill:#FCEE1F;" points="51.2,57 50.9,56.4 50.6,55.6 52.5,54.7 54.4,53.7 
			54.4,54.6 54.7,55.4 55.1,56.3 55.9,57 51.2,57 		"/>
		<polyline style="fill-rule:evenodd;clip-rule:evenodd;fill:#FCEE1F;" points="59.5,57 59,56.6 58.3,55.8 57.5,55.3 56.7,54.7 
			55.9,54.3 55,54 54.2,54 55.1,52 56,50.2 56.8,50.3 57.7,50.9 58.5,51.5 59.2,52 60.1,52.7 60.8,53.5 61.5,54.2 62.1,54.7 
			62.5,55.1 62.9,55.4 63.3,55.4 63.8,55.4 64,55.4 64.5,55.3 65,55.1 65.6,55.1 66.1,55.3 66.9,55.4 67.3,55.6 67.8,55.7 68.3,56 
			68.7,56.3 69.1,56.6 69.5,57 69.7,57 59.5,57 		"/>
		<polyline style="fill-rule:evenodd;clip-rule:evenodd;fill:#FCEE1F;" points="30.3,57 30,57.4 29.6,57.7 29.2,58.1 28.8,58.5 
			28.5,59 28.1,59.4 27.6,59.8 27.2,60.2 27.6,59.9 28.1,59.7 28.6,59.4 29.1,59.1 29.6,59 30,58.7 30.6,58.5 31.2,58.4 31.7,58.2 
			32.2,58.1 32.7,58 33.3,58 33.9,57.8 34.4,57.8 34.8,57.8 35.4,57.8 36,57.8 36.5,58 37.1,58 37.7,58.1 38.2,58.2 38.8,58.2 
			39.4,58.1 40.1,57.8 40.6,57.3 40.9,57 30.3,57 		"/>
		<polyline style="fill-rule:evenodd;clip-rule:evenodd;fill:#FCEE1F;" points="44.1,57 43.6,57.7 42.9,58.4 42.3,59 41.9,59.7 
			41.5,60.8 41.5,61.9 41.6,63 41.7,64 41.7,65.2 41.6,66.3 41.5,67.3 41.2,68.4 40.8,69.4 40.3,70.4 39.9,71.4 39.4,72.2 
			40.2,71.4 41,70.7 42,69.8 42.9,69 43.6,68.1 44.1,67.3 44.6,66.1 44.9,65 44.9,64.5 44.9,63.9 44.7,63.5 44.7,63.2 44.7,62.8 
			44.9,62.5 45.1,62.1 45.6,61.6 46.1,61.1 46.7,60.4 47.2,59.7 47.8,58.8 48.4,58 48.8,57.1 48.8,57 44.1,57 		"/>
		<polyline style="fill-rule:evenodd;clip-rule:evenodd;fill:#FCEE1F;" points="51.2,57 51.3,57.1 51.9,58 52.6,58.8 53.3,59.5 
			54.2,60.2 54.7,60.8 55.4,61.3 55.9,61.8 56,62.3 56,62.8 56,63.2 55.9,63.6 55.6,64.2 55.4,64.7 55.4,65.3 55.7,66.4 56,67.4 
			56.6,68.4 57.3,69.1 58,70 58.8,70.7 59.8,71.4 60.6,72.2 60.1,71.4 59.5,70.4 59.1,69.4 58.8,68.4 58.5,67.3 58.4,66.3 
			58.3,65.2 58.3,64 58.4,63 58.5,61.9 58.5,60.8 58.1,59.7 57.7,59 57.1,58.4 56.4,57.7 55.9,57 51.2,57 		"/>
		<polyline style="fill-rule:evenodd;clip-rule:evenodd;fill:#FCEE1F;" points="59.5,57 59.7,57.1 60.2,57.5 60.9,57.8 61.4,58 
			61.9,58.1 62.5,58 62.9,58 63.5,58 63.9,57.8 64.5,57.8 65,57.8 65.6,57.8 66.1,57.8 66.7,58 67.3,58 67.7,58.1 68.3,58.2 
			68.8,58.4 69.4,58.5 69.8,58.7 70.4,59 70.8,59.1 71.4,59.4 71.8,59.7 72.2,59.9 72.8,60.2 72.4,59.8 71.9,59.4 71.5,59 
			71.1,58.5 70.7,58.1 70.2,57.7 70,57.3 69.7,57 59.5,57 		"/>
		<polyline style="fill-rule:evenodd;clip-rule:evenodd;fill:#FCEE1F;" points="27.6,49.8 25,49.5 44.3,47.4 44.3,49.8 27.6,49.8 		
			"/>
		<polyline style="fill-rule:evenodd;clip-rule:evenodd;fill:#FCEE1F;" points="55.6,49.8 55.6,47.4 75,49.5 72.4,49.8 55.6,49.8 		
			"/>
		<polyline style="fill-rule:evenodd;clip-rule:evenodd;fill:#FCEE1F;" points="44.4,47 47.4,44 32.3,31.9 44.4,47 		"/>
		<polyline style="fill-rule:evenodd;clip-rule:evenodd;fill:#FCEE1F;" points="47.8,43.9 52,43.9 49.9,24.5 47.8,43.9 		"/>
		<polyline style="fill-rule:evenodd;clip-rule:evenodd;fill:#FCEE1F;" points="55.4,47 52.5,44 67.7,31.9 55.4,47 		"/>
		<polyline style="fill-rule:evenodd;clip-rule:evenodd;fill:#FCEE1F;" points="27.6,49.8 44.3,51.6 44.3,49.8 27.6,49.8 		"/>
		<polyline style="fill-rule:evenodd;clip-rule:evenodd;fill:#FCEE1F;" points="55.6,49.8 55.6,51.6 72.4,49.8 55.6,49.8 		"/>
		<polyline style="fill-rule:evenodd;clip-rule:evenodd;fill:#FCEE1F;" points="47.4,55 44.4,52 32.3,67.3 47.4,55 		"/>
		<polyline style="fill-rule:evenodd;clip-rule:evenodd;fill:#FCEE1F;" points="52.5,55 55.4,52 67.7,67.3 52.5,55 		"/>
		<polyline style="fill-rule:evenodd;clip-rule:evenodd;fill:#FCEE1F;" points="47.8,55.1 52,55.1 49.9,74.6 47.8,55.1 		"/>
		<polyline style="fill-rule:evenodd;clip-rule:evenodd;fill:#FCEE1F;" points="50.1,36.7 51.3,36.7 52.6,36.8 53.9,37.2 55,37.7 
			56.1,38.2 57.3,38.8 58.3,39.5 59.1,40.3 59.9,41.3 60.6,42.3 61.4,43.3 61.9,44.4 62.3,45.7 62.6,47 62.8,48.2 62.9,49.5 
			62.8,50.8 62.6,52 62.3,53.3 61.9,54.4 61.4,55.6 60.6,56.7 59.9,57.7 59.1,58.5 58.3,59.4 57.3,60.1 56.1,60.8 55,61.3 
			53.9,61.8 52.6,62.1 51.3,62.2 50.1,62.3 48.7,62.2 47.4,62.1 46.3,61.8 45,61.3 43.9,60.8 42.9,60.1 41.9,59.4 40.9,58.5 
			40.1,57.7 39.4,56.7 38.8,55.6 38.2,54.4 37.8,53.3 37.4,52 37.2,50.8 37.2,49.5 37.2,48.2 37.4,47 37.8,45.7 38.2,44.4 
			38.8,43.3 39.4,42.3 40.1,41.3 40.9,40.3 41.9,39.5 42.9,38.8 43.9,38.2 45,37.7 46.3,37.2 47.4,36.8 48.7,36.7 50.1,36.7 		"/>
		<polyline style="fill-rule:evenodd;clip-rule:evenodd;fill:#231F20;" points="45,43.9 45.3,43.9 45.7,43.9 46,44 46.3,44.1 
			46.5,44.3 46.8,44.4 47,44.4 47.4,44.6 47,44.7 46.8,44.8 46.5,45 46.1,45.1 45.8,45.3 45.6,45.3 45.3,45.4 45,45.4 44.6,45.4 
			44.3,45.3 44,45.3 43.6,45.1 43.3,45 43,44.8 42.7,44.7 42.6,44.6 42.7,44.6 43,44.4 43.2,44.3 43.6,44.1 43.9,44 44.1,43.9 
			44.6,43.9 45,43.9 		"/>
		<polyline style="fill:none;" points="45.1,43.9 45.3,43.9 45.8,43.9 46.1,44.1 46.3,44.2 46.6,44.4 46.9,44.5 47,44.5 47.5,44.6 
			47,44.8 46.9,44.9 46.6,45.1 46.2,45.2 45.9,45.3 45.6,45.3 45.3,45.5 45.1,45.5 44.6,45.5 44.4,45.3 44.1,45.3 43.7,45.2 
			43.4,45.1 43.1,44.9 42.8,44.8 42.7,44.6 42.8,44.6 43.1,44.5 43.2,44.4 43.7,44.2 43.9,44.1 44.2,43.9 44.6,43.9 45.1,43.9 		"/>
		<polyline style="fill-rule:evenodd;clip-rule:evenodd;fill:#231F20;" points="55.3,43.9 54.9,43.9 54.6,43.9 54.2,44 53.9,44.1 
			53.7,44.3 53.5,44.4 53.2,44.4 52.9,44.6 53.2,44.7 53.5,44.8 53.7,45 54,45.1 54.3,45.3 54.6,45.3 54.9,45.4 55.3,45.4 
			55.6,45.4 55.9,45.3 56.3,45.3 56.6,45.1 56.8,45 57.1,44.8 57.4,44.7 57.5,44.6 57.4,44.6 57.3,44.4 57,44.3 56.7,44.1 56.3,44 
			56,43.9 55.6,43.9 55.3,43.9 		"/>
		<polyline style="fill:none;" points="55.4,43.9 54.9,43.9 54.7,43.9 54.2,44.1 53.9,44.2 53.8,44.4 53.5,44.5 53.2,44.5 53,44.6 
			53.2,44.8 53.5,44.9 53.8,45.1 54.1,45.2 54.4,45.3 54.7,45.3 54.9,45.5 55.4,45.5 55.6,45.5 55.9,45.3 56.3,45.3 56.6,45.2 
			56.9,45.1 57.2,44.9 57.5,44.8 57.6,44.6 57.5,44.6 57.3,44.5 57.1,44.4 56.8,44.2 56.3,44.1 56.1,43.9 55.6,43.9 55.4,43.9 		"/>
		<polyline style="fill-rule:evenodd;clip-rule:evenodd;fill:#231F20;" points="47.7,49.8 47.8,49.6 48,49.8 47.7,49.8 		"/>
		<polyline style="fill-rule:evenodd;clip-rule:evenodd;fill:#231F20;" points="50.9,49.8 50.8,49.1 50.8,48.4 50.9,47.7 51.1,47 
			51.3,46.3 51.6,45.7 52,45.1 52.9,44 53.2,43.7 53.3,43.6 53.7,43.4 54,43.3 54.3,43.2 54.6,43.2 55,43 55.3,43 55.6,43 
			55.9,43.2 56.3,43.2 56.6,43.3 56.8,43.4 57.1,43.6 57.4,43.7 57.5,43.9 57.7,44 57.7,44.1 57.7,44.3 57.5,44.3 57.3,44.1 
			57.1,44 56.7,43.9 56.4,43.7 56.1,43.6 55.9,43.6 55.6,43.4 55.3,43.4 55,43.4 54.7,43.6 54.4,43.6 54.2,43.7 53.7,43.9 53.5,44 
			53.2,44.1 52.9,44.3 52.2,45.3 51.9,45.8 51.6,46.5 51.5,47.2 51.2,47.8 51.2,48.7 51.2,49.2 51.2,49.8 50.9,49.8 		"/>
		<polyline style="fill-rule:evenodd;clip-rule:evenodd;fill:#231F20;" points="42.6,44.3 42.7,44.1 43.2,44 43.4,43.9 43.7,43.7 
			44,43.6 44.3,43.6 44.6,43.4 44.9,43.4 45.1,43.4 45.4,43.6 45.7,43.6 46.1,43.7 46.4,43.9 46.7,44 47,44.1 47.2,44.3 47.4,44.4 
			47.4,44.3 47.4,44 47.2,44 47,43.7 46.8,43.6 46.5,43.4 46.1,43.3 45.8,43.2 45.6,43.2 45.3,43 44.9,43 44.6,43 44.3,43.2 
			44,43.2 43.6,43.3 43.3,43.4 43,43.6 42.7,43.7 42.5,43.9 42.3,44 42.3,44.1 42.5,44.3 42.6,44.3 		"/>
		<polyline style="fill-rule:evenodd;clip-rule:evenodd;fill:#231F20;" points="47.7,49.8 48.2,50.8 48.4,50.9 48.8,50.9 49.1,51.1 
			49.5,51.2 50.1,51.2 50.5,51.1 50.9,50.9 51.3,50.8 51.2,50.1 51.2,49.8 50.9,49.8 51.2,50.6 50.8,50.8 50.4,50.8 49.9,50.9 
			49.6,50.9 49.2,50.8 48.8,50.8 48.5,50.6 48.2,50.5 48,49.8 47.7,49.8 		"/>
		<polyline style="fill-rule:evenodd;clip-rule:evenodd;fill:#231F20;" points="46.5,55.1 47,55.3 47.2,55.4 47.5,55.4 47.8,55.6 
			48.2,55.6 48.5,55.6 48.8,55.6 49.2,55.6 49.6,55.6 50.1,55.6 50.5,55.6 50.9,55.4 51.3,55.4 51.8,55.4 52.2,55.3 52.6,55.3 
			52.8,55.3 52.9,55.3 52.8,55.4 52.5,55.6 52.2,55.7 51.8,55.8 51.3,56 51.1,56 50.6,56.1 50.2,56.1 49.8,56.1 49.2,56.1 
			48.8,56.1 48.4,56.1 48.1,56 47.8,56 47.4,56 47.1,55.8 46.8,55.7 46.5,55.6 46.3,55.4 46.3,55.3 46.3,55.1 46.5,55.1 		"/>
		<polyline style="fill-rule:evenodd;clip-rule:evenodd;fill:#231F20;" points="45.6,53.9 45.3,54 45.3,54.2 45.4,54.4 45.7,54.4 
			46,54.3 46.3,54.2 46.5,54 47,54 47.2,53.9 47.5,53.9 47.8,53.9 48.1,54 48.5,54.2 48.8,54.3 49.2,54.3 49.5,54.3 49.9,54.3 
			50.2,54.3 50.5,54.2 50.8,54 51.2,53.9 51.5,53.9 51.8,53.9 52,54 52.3,54 52.6,54.2 52.9,54.2 53.3,54.3 53.5,54.3 53.6,54.3 
			53.5,54.2 53.3,54 52.9,53.9 52.6,53.7 52.3,53.6 52,53.5 51.6,53.5 51.3,53.3 51.1,53.3 50.8,53.5 50.5,53.6 50.1,53.7 
			49.8,53.9 49.4,53.9 49.1,53.9 48.7,53.7 48.4,53.7 48.1,53.5 47.8,53.3 47.5,53.3 47.2,53.3 47,53.5 46.5,53.6 46.1,53.7 
			45.8,53.9 45.6,53.9 		"/>
		<polyline style="fill:none;" points="46.6,55.2 47,55.4 47.3,55.5 47.6,55.5 47.9,55.6 48.3,55.6 48.6,55.6 48.9,55.6 49.3,55.6 
			49.7,55.6 50.1,55.6 50.6,55.6 51,55.5 51.4,55.5 51.8,55.5 52.3,55.4 52.7,55.4 52.8,55.4 53,55.4 52.8,55.5 52.5,55.6 
			52.3,55.8 51.8,55.9 51.4,56.1 51.1,56.1 50.7,56.2 50.3,56.2 49.9,56.2 49.3,56.2 48.9,56.2 48.4,56.2 48.2,56.1 47.9,56.1 
			47.5,56.1 47.2,55.9 46.9,55.8 46.6,55.6 46.3,55.5 46.3,55.4 46.3,55.2 46.6,55.2 		"/>
		<polyline style="fill:none;" points="45.6,53.9 45.3,54.1 45.3,54.2 45.5,54.5 45.8,54.5 46.1,54.4 46.3,54.2 46.6,54.1 47,54.1 
			47.3,53.9 47.6,53.9 47.9,53.9 48.2,54.1 48.6,54.2 48.9,54.4 49.3,54.4 49.6,54.4 50,54.4 50.3,54.4 50.6,54.2 50.8,54.1 
			51.3,53.9 51.6,53.9 51.8,53.9 52.1,54.1 52.4,54.1 52.7,54.2 53,54.2 53.4,54.4 53.5,54.4 53.7,54.4 53.5,54.2 53.4,54.1 
			53,53.9 52.7,53.8 52.4,53.7 52.1,53.5 51.7,53.5 51.4,53.4 51.1,53.4 50.8,53.5 50.6,53.7 50.1,53.8 49.9,53.9 49.4,53.9 
			49.2,53.9 48.7,53.8 48.4,53.8 48.2,53.5 47.9,53.4 47.6,53.4 47.3,53.4 47,53.5 46.6,53.7 46.2,53.8 45.9,53.9 45.6,53.9 		"/>
		<polyline style="fill:none;" points="42.7,44.4 42.8,44.2 43.2,44.1 43.5,43.9 43.8,43.8 44.1,43.6 44.4,43.6 44.6,43.5 
			44.9,43.5 45.2,43.5 45.5,43.6 45.8,43.6 46.2,43.8 46.5,43.9 46.8,44.1 47,44.2 47.3,44.4 47.5,44.5 47.5,44.4 47.5,44.1 
			47.3,44.1 47,43.8 46.9,43.6 46.6,43.5 46.2,43.4 45.9,43.2 45.6,43.2 45.3,43.1 44.9,43.1 44.6,43.1 44.4,43.2 44.1,43.2 
			43.7,43.4 43.4,43.5 43.1,43.6 42.8,43.8 42.5,43.9 42.4,44.1 42.4,44.2 42.5,44.4 42.7,44.4 		"/>
		<polyline style="fill:none;" points="51.4,50.8 51.3,50.1 51.3,49.3 51.3,48.7 51.3,47.9 51.6,47.3 51.7,46.6 52,45.9 52.3,45.3 
			53,44.4 53.2,44.2 53.5,44.1 53.8,43.9 54.2,43.8 54.5,43.6 54.8,43.6 55.1,43.5 55.4,43.5 55.6,43.5 55.9,43.6 56.2,43.6 
			56.5,43.8 56.8,43.9 57.2,44.1 57.3,44.2 57.6,44.4 57.8,44.4 57.8,44.2 57.8,44.1 57.6,43.9 57.5,43.8 57.2,43.6 56.9,43.5 
			56.6,43.4 56.3,43.2 55.9,43.2 55.6,43.1 55.4,43.1 55.1,43.1 54.7,43.2 54.4,43.2 54.1,43.4 53.8,43.5 53.4,43.6 53.2,43.8 
			53,44.1 52.1,45.2 51.7,45.8 51.4,46.3 51.1,47 51,47.7 50.8,48.4 50.8,49.1 51,49.9 51.3,50.7 50.8,50.8 50.4,50.8 50,51 
			49.7,51 49.3,50.8 48.9,50.8 48.6,50.7 48.3,50.6 47.9,49.7 47.7,49.9 48.3,50.8 48.4,51 48.9,51 49.2,51.1 49.6,51.3 50.1,51.3 
			50.6,51.1 51,51 51.4,50.8 		"/>
	</g>
	<path style="fill:#A0C6E9;" d="M9.7,21.1h80.7C83.7,11.8,73.9,4.8,61.9,1.8C41.6-3.2,21.2,5.1,9.7,21.1z"/>
	<path style="fill:#A0C6E9;" d="M9.7,78.9c6.6,9.3,16.5,16.3,28.4,19.3c20.3,5,40.8-3.2,52.3-19.3H9.7z"/>
</g>
</svg>
