<?xml version="1.0" encoding="utf-8"?>
<!-- Generator: Adobe Illustrator 21.1.0, SVG Export Plug-In . SVG Version: 6.00 Build 0)  -->
<svg version="1.1" id="Layer_1" xmlns="http://www.w3.org/2000/svg" xmlns:xlink="http://www.w3.org/1999/xlink" x="0px" y="0px"
	 viewBox="0 0 100 100" style="enable-background:new 0 0 100 100;" xml:space="preserve">
<g>
	<g>
		<path style="fill:#223D73;" d="M1.7,38.1C8.3,11.4,35.3-4.9,61.9,1.7c26.7,6.6,42.9,33.6,36.3,60.2c-6.6,26.7-33.6,42.9-60.2,36.3
			C11.4,91.7-4.9,64.7,1.7,38.1"/>
	</g>
	<polyline style="fill-rule:evenodd;clip-rule:evenodd;fill:#FFFFFF;" points="89.7,50.7 91.2,52 91.2,50 93.2,49.5 91.7,48.1 
		92.5,46.5 90.5,46.8 89.5,44.9 88.7,46.8 86.7,46.3 87.5,48.1 86,49.5 88,50 88,52 89.7,50.7 	"/>
	<polyline style="fill-rule:evenodd;clip-rule:evenodd;fill:#FFFFFF;" points="68.6,40.8 71,43.2 71,39.7 74.2,39.2 71.8,37 
		73.1,34.1 69.9,34.6 68.6,31.7 67,34.6 63.8,34.1 65.4,37 62.7,39.2 65.9,39.7 65.9,43.2 68.6,40.8 	"/>
	<polyline style="fill-rule:evenodd;clip-rule:evenodd;fill:#FFFFFF;" points="84,23.2 86.4,25.6 86.4,22.1 89.6,21.6 87.2,19.5 
		88.5,16.5 85.3,17.1 84,14.1 82.4,17.1 79.2,16.5 80.8,19.5 78.1,21.6 81.3,22.1 81.3,25.6 84,23.2 	"/>
	<polyline style="fill-rule:evenodd;clip-rule:evenodd;fill:#FFFFFF;" points="33.8,81.2 39.2,86 39.2,79 45.8,77.4 40.4,72.9 
		43.6,66.6 36.9,68.2 33.8,61.8 30.6,68.2 23.9,66.6 26.8,72.9 21.4,77.4 28.4,79 28,86 33.8,81.2 	"/>
	<g>
		<path style="fill:none;" d="M12.8,16.7c-0.4,0.5-0.8,0.9-1.2,1.4h3.1L12.8,16.7z"/>
		<path style="fill:none;" d="M5.7,27c-1.6,3-2.9,6.3-3.9,9.7l13-9.7H5.7z"/>
		<path style="fill:none;" d="M20.1,10.2c-1,0.7-1.9,1.5-2.9,2.3l2.9,2.1V10.2z"/>
		<path style="fill:#FFFFFF;" d="M20.1,14.6l-2.9-2.1c-0.7,0.6-1.4,1.3-2.1,1.9l5,3.7V14.6z"/>
		<polygon style="fill:#FFFFFF;" points="31.7,27 31.7,30.7 50.8,44.8 55.2,44.8 43.6,36.2 		"/>
		<polygon style="fill:#FFFFFF;" points="47,36.2 55.2,42.4 55.2,41 36.6,27 35.4,27 		"/>
		<path style="fill:#FFFFFF;" d="M16,18.2l-2.6-2c-0.2,0.2-0.4,0.4-0.6,0.6l1.9,1.4H16z"/>
		<polygon style="fill:#FFFFFF;" points="31.7,18.2 37.1,18.2 55.2,5.5 55.2,0.8 43.6,9.3 		"/>
		<polygon style="fill:#FFFFFF;" points="39.5,9.3 51.5,0.8 50.1,0.8 31.7,14.5 31.7,15.4 		"/>
		<polygon style="fill:#FFFFFF;" points="11.9,36.2 0.3,44.8 1.7,44.8 20.1,31.2 20.1,30.1 		"/>
		<path style="fill:#FFFFFF;" d="M20.1,27h-5.3l-13,9.7c-0.1,0.5-0.3,1-0.4,1.5c-0.3,1.2-0.5,2.3-0.7,3.5l7.5-5.5L20.1,27z"/>
		<path style="fill:#FFFFFF;" d="M29.3,19.9h25.9v-1.7H37.1h-5.4v-2.7v-0.9V3.8c-0.8,0.3-1.6,0.6-2.4,1v4.5V19.9z"/>
		<path style="fill:#FFFFFF;" d="M20.1,27v3.1v1.1v13.6h2.4v-8.5V25.3H6.6C6.3,25.9,6,26.4,5.7,27h9.2H20.1z"/>
		<path style="fill:#FFFFFF;" d="M22.5,20.2V9.3V8.5c-0.8,0.5-1.6,1.1-2.4,1.6v4.4v3.5H16h-1.2h-3.1c-0.6,0.7-1.1,1.3-1.6,2H22.5z"
			/>
		<polygon style="fill:#FFFFFF;" points="29.3,25.3 29.3,36.2 29.3,44.8 31.7,44.8 31.7,30.7 31.7,27 35.4,27 36.6,27 55.2,27 
			55.2,25.3 		"/>
		<path style="fill:#EB2227;" d="M29.3,9.3V4.8c-2.4,1.1-4.6,2.3-6.8,3.7v0.7H29.3z"/>
		<polygon style="fill:#EB2227;" points="43.6,9.3 55.2,0.8 51.5,0.8 39.5,9.3 		"/>
		<polygon style="fill:#EB2227;" points="20.1,27 8.2,36.2 11.9,36.2 20.1,30.1 		"/>
		<path style="fill:#EB2227;" d="M22.5,25.3v10.9h6.8V25.3h25.9v-5.5H29.3V9.3h-6.8v10.9H10c-1.2,1.6-2.3,3.3-3.4,5.1H22.5z"/>
		<polygon style="fill:#EB2227;" points="47,36.2 35.4,27 31.7,27 43.6,36.2 		"/>
		<path style="fill:#EB2227;" d="M20.1,18.2l-5-3.7c-0.6,0.6-1.1,1.1-1.7,1.7l2.6,2H20.1z"/>
		<polygon style="fill:#EB2227;" points="39.5,9.3 31.7,15.4 31.7,18.2 43.6,9.3 		"/>
		<path style="fill:#EB2227;" d="M11.9,36.2H8.2l-7.5,5.5c-0.2,1-0.3,2-0.4,3h0.1L11.9,36.2z"/>
		<rect x="22.5" y="36.2" style="fill:#EB2227;" width="6.8" height="8.5"/>
		<polygon style="fill:#EB2227;" points="43.6,36.2 55.2,44.8 55.2,42.4 47,36.2 		"/>
	</g>
</g>
</svg>
