<?xml version="1.0" encoding="utf-8"?>
<!-- Generator: Adobe Illustrator 21.1.0, SVG Export Plug-In . SVG Version: 6.00 Build 0)  -->
<svg version="1.1" id="Layer_1" xmlns="http://www.w3.org/2000/svg" xmlns:xlink="http://www.w3.org/1999/xlink" x="0px" y="0px"
	 viewBox="0 0 100 100" style="enable-background:new 0 0 100 100;" xml:space="preserve">
<g>
	<path style="fill:#EC3B27;" d="M1.8,38.1C8.4,11.4,35.3-4.8,61.9,1.8c26.6,6.6,42.9,33.5,36.3,60.2c-6.6,26.6-33.5,42.9-60.2,36.3
		C11.4,91.6-4.8,64.7,1.8,38.1"/>
	<path style="fill:#FFFFFF;" d="M98.6,60.2c0-0.1,0-0.2,0.1-0.3c0-0.2,0.1-0.4,0.1-0.6c0-0.1,0-0.2,0.1-0.3c0-0.2,0.1-0.4,0.1-0.6
		c0-0.1,0-0.2,0-0.3c0-0.2,0.1-0.5,0.1-0.7c0,0,0-0.1,0-0.1c0-0.3,0.1-0.6,0.1-0.9c0-0.1,0-0.2,0-0.2c0-0.2,0.1-0.4,0.1-0.6
		c0-0.1,0-0.2,0-0.3c0-0.2,0-0.4,0.1-0.6c0-0.1,0-0.2,0-0.3c0-0.2,0-0.4,0-0.6c0-0.1,0-0.2,0-0.3c0-0.2,0-0.4,0-0.7
		c0-0.1,0-0.1,0-0.2c0-0.3,0-0.6,0-0.9c0,0,0-0.1,0-0.1c0-0.2,0-0.5,0-0.7c0-0.1,0-0.2,0-0.3c0-0.2,0-0.4,0-0.6v-0.3
		c0-0.2,0-0.4,0-0.6c0-0.1,0-0.2,0-0.3c0-0.2,0-0.4,0-0.6c0-0.1,0-0.1,0-0.2c0-0.6-0.1-1.1-0.1-1.7c0-0.1,0-0.1,0-0.2
		c0-0.2,0-0.4-0.1-0.6c0-0.1,0-0.2,0-0.3c0-0.2,0-0.4-0.1-0.6c0-0.1,0-0.2,0-0.3c0-0.2,0-0.4-0.1-0.6c0-0.1,0-0.1,0-0.2
		c-0.1-0.6-0.2-1.1-0.2-1.7c0-0.1,0-0.1,0-0.2c0-0.2-0.1-0.5-0.1-0.7c0-0.1,0-0.2,0-0.2c0-0.2-0.1-0.4-0.1-0.6c0-0.1,0-0.2,0-0.2
		c0-0.2-0.1-0.4-0.1-0.6c0-0.1,0-0.1,0-0.2c-0.1-0.3-0.1-0.5-0.2-0.8l0-0.1c-0.1-0.3-0.1-0.5-0.2-0.8h0c-0.4-1.5-0.8-2.9-1.3-4.3
		H3.2c-0.5,1.5-1,3.1-1.4,4.8c-1.7,6.7-1.9,13.4-0.9,19.7c0,0,0,0.1,0,0.1c0,0.2,0.1,0.5,0.1,0.7c0,0,0,0.1,0,0.1
		c0,0.2,0.1,0.4,0.1,0.7c0,0.1,0,0.1,0,0.2c0,0.2,0.1,0.4,0.1,0.6c0,0.1,0,0.2,0,0.2c0,0.2,0.1,0.4,0.1,0.6c0,0.1,0,0.2,0.1,0.3
		c0,0.2,0.1,0.4,0.1,0.5c0,0.1,0.1,0.3,0.1,0.4c0.1,0.2,0.1,0.4,0.2,0.6c0.1,0.2,0.1,0.4,0.2,0.6c0,0.1,0.1,0.2,0.1,0.3
		c0.1,0.2,0.1,0.4,0.2,0.6c0,0.1,0.1,0.2,0.1,0.3c0.1,0.2,0.1,0.4,0.2,0.6c0,0.1,0.1,0.2,0.1,0.3c0.1,0.2,0.1,0.4,0.2,0.6
		C3,66,3,66.1,3,66.2c0.1,0.2,0.1,0.4,0.2,0.6c0,0,0,0.1,0,0.1h0c0,0.1,0.1,0.2,0.1,0.3h93.2c0-0.1,0.1-0.2,0.1-0.3h0
		c0.1-0.3,0.2-0.6,0.3-0.9c0,0,0-0.1,0-0.1c0.1-0.4,0.3-0.8,0.4-1.2c0-0.1,0-0.1,0.1-0.2c0.1-0.4,0.2-0.7,0.3-1.1
		c0-0.1,0-0.2,0.1-0.2c0.1-0.4,0.2-0.9,0.3-1.3c0.1-0.3,0.1-0.6,0.2-0.9c0-0.1,0-0.2,0.1-0.3C98.5,60.6,98.6,60.4,98.6,60.2"/>
</g>
</svg>
