<?xml version="1.0" encoding="utf-8"?>
<!-- Generator: Adobe Illustrator 21.1.0, SVG Export Plug-In . SVG Version: 6.00 Build 0)  -->
<svg version="1.1" id="Layer_1" xmlns="http://www.w3.org/2000/svg" xmlns:xlink="http://www.w3.org/1999/xlink" x="0px" y="0px"
	 viewBox="0 0 100 100" style="enable-background:new 0 0 100 100;" xml:space="preserve">
<g>
	<path style="fill:#EC3B27;" d="M1283.2,168.4c6.6-26.5,33.4-42.7,59.9-36.1c26.5,6.6,42.7,33.4,36.1,59.9
		c-6.6,26.5-33.4,42.7-59.9,36.1C1292.8,221.8,1276.7,195,1283.2,168.4"/>
	<path style="fill:#FFFFFF;" d="M1326.1,202c-11.5,0-20.8-9.3-20.8-20.8c0-11.5,9.3-20.8,20.8-20.8c5.7,0,10.9,2.3,14.7,6.1
		c-4.7-6.7-12.4-11-21.2-11c-14.3,0-25.8,11.6-25.8,25.8c0,14.3,11.6,25.8,25.8,25.8c8.8,0,16.5-4.4,21.2-11
		C1337.1,199.6,1331.9,202,1326.1,202"/>
	<polygon style="fill:#FFFFFF;" points="1350.4,174.9 1352.6,168.4 1355,174.8 1361.1,171.7 1358.3,177.9 1364.7,180.1 
		1358.4,182.5 1361.4,188.6 1355.2,185.8 1353,192.3 1350.6,185.9 1344.5,188.9 1347.3,182.7 1340.9,180.6 1347.2,178.2 
		1344.2,172.1 	"/>
	<path style="fill:#07B9E4;" d="M1291,151.5h80.4c-6.6-9.2-16.4-16.3-28.3-19.2C1322.9,127.3,1302.5,135.5,1291,151.5z"/>
	<path style="fill:#409C46;" d="M1291,209.2c6.6,9.2,16.4,16.3,28.3,19.2c20.2,5,40.7-3.2,52.1-19.2H1291z"/>
</g>
<g>
	<path style="fill:#EC3B27;" d="M2,38.1C8.5,11.6,35.4-4.6,61.9,2C88.4,8.5,104.6,35.4,98,61.9C91.5,88.4,64.6,104.6,38.1,98
		C11.6,91.5-4.6,64.6,2,38.1"/>
	<path style="fill:#FFFFFF;" d="M44.9,71.6C33.4,71.6,24,62.3,24,50.8c0-11.5,9.3-20.8,20.8-20.8c5.7,0,10.9,2.3,14.7,6.1
		c-4.7-6.7-12.4-11-21.2-11c-14.3,0-25.8,11.6-25.8,25.8c0,14.3,11.6,25.8,25.8,25.8c8.8,0,16.5-4.4,21.2-11
		C55.8,69.3,50.6,71.6,44.9,71.6"/>
	<polygon style="fill:#FFFFFF;" points="69.1,44.5 71.3,38.1 73.7,44.4 79.8,41.4 77,47.6 83.5,49.8 77.1,52.2 80.2,58.3 73.9,55.5 
		71.8,61.9 69.4,55.6 63.3,58.6 66.1,52.4 59.6,50.2 66,47.8 62.9,41.7 	"/>
	<path style="fill:#07B9E4;" d="M9.8,21.2h80.4C83.6,11.9,73.8,4.9,61.9,2C41.6-3,21.2,5.2,9.8,21.2z"/>
	<path style="fill:#409C46;" d="M9.8,78.8c6.6,9.2,16.4,16.3,28.3,19.2c20.2,5,40.7-3.2,52.1-19.2H9.8z"/>
</g>
</svg>
