<?xml version="1.0" encoding="utf-8"?>
<!-- Generator: Adobe Illustrator 21.1.0, SVG Export Plug-In . SVG Version: 6.00 Build 0)  -->
<svg version="1.1" id="Layer_1" xmlns="http://www.w3.org/2000/svg" xmlns:xlink="http://www.w3.org/1999/xlink" x="0px" y="0px"
	 viewBox="0 0 100 100" style="enable-background:new 0 0 100 100;" xml:space="preserve">
<g>
	<path style="fill:#EC3B27;" d="M1283.2,168.4c6.6-26.5,33.4-42.7,59.9-36.1c26.5,6.6,42.7,33.4,36.1,59.9
		c-6.6,26.5-33.4,42.7-59.9,36.1C1292.8,221.8,1276.7,195,1283.2,168.4"/>
	<path style="fill:#FFFFFF;" d="M1326.1,202c-11.5,0-20.8-9.3-20.8-20.8c0-11.5,9.3-20.8,20.8-20.8c5.7,0,10.9,2.3,14.7,6.1
		c-4.7-6.7-12.4-11-21.2-11c-14.3,0-25.8,11.6-25.8,25.8c0,14.3,11.6,25.8,25.8,25.8c8.8,0,16.5-4.4,21.2-11
		C1337.1,199.6,1331.9,202,1326.1,202"/>
	<polygon style="fill:#FFFFFF;" points="1350.4,174.9 1352.6,168.4 1355,174.8 1361.1,171.7 1358.3,177.9 1364.7,180.1 
		1358.4,182.5 1361.4,188.6 1355.2,185.8 1353,192.3 1350.6,185.9 1344.5,188.9 1347.3,182.7 1340.9,180.6 1347.2,178.2 
		1344.2,172.1 	"/>
	<path style="fill:#07B9E4;" d="M1291,151.5h80.4c-6.6-9.2-16.4-16.3-28.3-19.2C1322.9,127.3,1302.5,135.5,1291,151.5z"/>
	<path style="fill:#409C46;" d="M1291,209.2c6.6,9.2,16.4,16.3,28.3,19.2c20.2,5,40.7-3.2,52.1-19.2H1291z"/>
</g>
<g>
	<path style="fill:#BA2025;" d="M1.9,38.1c6.6-26.6,33.4-42.8,60-36.2c26.6,6.6,42.8,33.4,36.2,60c-6.6,26.6-33.4,42.8-60,36.2
		C11.5,91.5-4.7,64.7,1.9,38.1"/>
	<path style="fill:#409B46;" d="M3.9,67.2c2.7,5.8,8.3,24.8,34.2,30.9c22.8,5.4,48.1-4.1,58.4-30.9L3.9,67.2z"/>
	<g>
		<defs>
			<path id="SVGID_1_" d="M21.1,10.1C11.9,16.7,4.8,26.6,1.9,38.5c-5,20.3,3.2,40.7,19.2,52.2V10.1z"/>
		</defs>
		<clipPath id="SVGID_2_">
			<use xlink:href="#SVGID_1_"  style="overflow:visible;"/>
		</clipPath>
		<rect x="-3.3" y="-13.1" style="clip-path:url(#SVGID_2_);fill:#FFFFFF;" width="23.4" height="140.1"/>
		<path style="clip-path:url(#SVGID_2_);fill:#BA2025;" d="M-3.3,124.4h1.4v-3.9h-1.4V124.4z M7.7,124.4h1.4v-3.9H7.7V124.4z
			 M18.7,124.4h1.4v-3.9h-1.4V124.4z M2.2,114.1h1.4v-3.2H2.2V114.1z M13.2,114.1h1.4v-3.2h-1.4V114.1z M-3.3,105.7h1.4v-3.9h-1.4
			V105.7z M7.7,105.7h1.4v-3.9H7.7V105.7z M18.7,105.7h1.4v-3.9h-1.4V105.7z M-0.6,110.9h1.4v-3.2h1.4v-3.2h1.4v3.2h1.4v3.2h1.4v3.2
			H4.9v3.2H3.6v3.2H2.2v-3.2H0.8v-3.2h-1.4V110.9z M10.4,110.9h1.4v-3.2h1.4v-3.2h1.4v3.2h1.4v3.2h1.4v3.2h-1.4v3.2h-1.4v3.2h-1.4
			v-3.2h-1.4v-3.2h-1.4V110.9z M13.2,98v3.2h-1.4v3.2h-1.4v3.2H9.1v3.2H7.7v-3.2H6.3v-3.2H4.9v-3.2H3.6V98H2.2v3.2H0.8v3.2h-1.4v3.2
			h-1.4v3.2h-1.4v3.2h1.4v3.2h1.4v3.2h1.4v3.2h1.4v3.2h1.4v-3.2h1.4v-3.2h1.4v-3.2h1.4v-3.2h1.4v3.2h1.4v3.2h1.4v3.2h1.4v3.2h1.4
			v-3.2h1.4v-3.2h1.4v-3.2h1.4v-3.2h1.4v-3.2h-1.4v-3.2h-1.4v-3.2h-1.4v-3.2h-1.4V98H13.2z M16.6,94.7h0.7v-1.3H18v1.3h0.7V96H18
			v1.3h-0.7V96h-0.7V94.7z M16.6,90.2v1.9h-0.7v1.9h-0.7v2.6h0.7v1.9h0.7v1.9h2.1v-1.9h0.7v-1.9H20v-2.6h-0.7v-1.9h-0.7v-1.9H16.6z
			 M-1.9,94.7h0.7v-1.3h0.7v1.3h0.7V96h-0.7v1.3h-0.7V96h-0.7V94.7z M-1.9,90.2v1.9h-0.7v1.9h-0.7v2.6h0.7v1.9h0.7v1.9h2.1v-1.9h0.7
			v-1.9h0.7v-2.6H0.8v-1.9H0.1v-1.9H-1.9z M5.6,94.7h0.7v-1.3H7v1.3h0.7V96H7v1.3H6.3V96H5.6V94.7z M9.1,94.7h0.7v-1.3h0.7v1.3h0.7
			V96h-0.7v1.3H9.7V96H9.1V94.7z M9.1,90.2v1.9H7.7v-1.9H5.6v1.9H4.9v1.9H4.2v2.6h0.7v1.9h0.7v1.9h2.1v-1.9h1.4v1.9h2.1v-1.9h0.7
			v-1.9h0.7v-2.6h-0.7v-1.9h-0.7v-1.9H9.1z M-3.3,88.9h1.4V85h-1.4V88.9z M7.7,88.9h1.4V85H7.7V88.9z M18.7,88.9h1.4V85h-1.4V88.9z
			 M-3.3,72.8h1.4v-2.6h-1.4V72.8z M18.7,72.8h1.4v-2.6h-1.4V72.8z M7.7,63.7h1.4v-3.2H7.7V63.7z M-3.3,55v1.9v0v1.9h1.4V57v0V55
			H-3.3z M4.3,55v1.9v0v1.9h1.4V57v0V55H4.3z M11.1,55v1.9v0v1.9h1.4V57v0V55H11.1z M18.7,55v1.9v0v1.9h1.4V57v0V55H18.7z M9.7,52.8
			V54H9.1v1H7.7v-1H7v-1.3H5.6v1.9h0.7v1H7v1.3v0v1.3H6.3v1H5.6v1.9H7v-1.3h0.7v-1h1.4v1h0.7v1.3h1.4v-1.9h-0.7v-1H9.7V57v0v-1.3
			h0.7v-1h0.7v-1.9H9.7z M7.7,53.4h1.4v-3.2H7.7V53.4z M-3.3,43.7h1.4v-2.6h-1.4V43.7z M18.7,43.7h1.4v-2.6h-1.4V43.7z M-3.3,28.9
			h1.4V25h-1.4V28.9z M7.7,28.9h1.4V25H7.7V28.9z M18.7,28.9h1.4V25h-1.4V28.9z M2.2,57L2.2,57L2.2,57v-1.3h1.4v-2.3h1.4v-2.6H7v-3
			h0.7v-1.5h0.7h0.7v1.4h0.7v3.1h2.1v1.3v1.3h1.4v2.3h1.4v1.3v1.3h-1.4v2.3h-1.4v1.3v1.3H9.7v3.1H9.1v1.5H8.4H7.7v-1.5H7v-3H4.9
			v-2.6H3.6v-2.3H2.2V57z M13.2,21.1v3.2h-1.4v3.2h-1.4v3.2H9.1v2.6V34H7.7v-3.2H6.3v-3.2H4.9v-3.2H3.6v-3.2H2.2v3.2H0.8v3.2h-1.4
			v3.2h-1.4v2.6V34h-1.4v3.2h1.4v3.2h1.4v3.2h1.4v3.2h1.4v-3.2h1.4v-3.2h1.4v-3.2H3.6v-3.9h1.4V34V36h1.4v5.2H7l0,3.2l-2.1,0v2.6
			H3.6v1.9H2.2v3.2H0.8v-3.2h-1.4v-1.9h-1.4V45h-1.4v5.8h1.4v2.6h1.4v2.3h1.4v1.3v0v1.3h-1.4v2.3h-1.4v2.6h-1.4v5.8h1.4V67h1.4V65
			h1.4v-3.2h1.4V65h1.4V67h1.4v2.6l2.1,0l0,3.2H6.3v5.2H4.9v1.9v0.6H3.6v-3.9h1.4v-3.2H3.6v-3.2H2.2V67H0.8v3.2h-1.4v3.2h-1.4v3.2
			h-1.4v3.2h1.4v0.6v2.6h1.4v3.2h1.4v3.2h1.4v3.2l0,0l0,0h1.4v-3.2h1.4v-3.2h1.4v-3.2h1.4v-3.2h1.4v0.6v2.6h1.4v3.2h1.4v3.2h1.4v3.2
			h1.4v-3.2h1.4v-3.2h1.4v-3.2h1.4v-3.2h1.4v-3.2h-1.4v-3.2h-1.4v-3.2h-1.4V67h-1.4v3.2h-1.4v3.2h-1.4v3.2h1.4v3.2v0.6h-1.4v-0.6
			v-1.9h-1.4v-5.2h-0.2H9.7v-3.2h0.5h0.4h0.5h0.7V67h1.4V65h1.4v-3.2h1.4V65h1.4V67h1.4v1.9h1.4v-5.8h-1.4v-2.6h-1.4v-2.3h-1.4V57v0
			v-1.3h1.4v-2.3h1.4v-2.6h1.4V45h-1.4v1.9h-1.4v1.9h-1.4v3.2h-1.4v-3.2h-1.4v-1.9h-1.4v-2.6h-0.7h-0.5h-0.4H9.7v-3.2h0.5h0.2V36
			h1.4V34v-0.6h1.4V34v3.2h-1.4v3.2h1.4v3.2h1.4v3.2h1.4v-3.2h1.4v-3.2h1.4v-3.2h1.4V34h-1.4v-3.2h-1.4v-3.2h-1.4v-3.2h-1.4v-3.2
			H13.2z M-1.9,17.9h0.7v-1.3h0.7v1.3h0.7v1.3h-0.7v1.3h-0.7v-1.3h-0.7V17.9z M-1.9,15.3h-0.7v1.9h-0.7v2.6h0.7v1.9h0.7v1.9h2.1
			v-1.9h0.7v-1.9h0.7v-2.6H0.8v-1.9H0.1v-1.9h-2.1V15.3z M5.6,17.9h0.7v-1.3H7v1.3h0.7v1.3H7v1.3H6.3v-1.3H5.6V17.9z M9.1,17.9h0.7
			v-1.3h0.7v1.3h0.7v1.3h-0.7v1.3H9.7v-1.3H9.1V17.9z M5.6,15.3H4.9v1.9H4.2v2.6h0.7v1.9h0.7v1.9h2.1v-1.9h1.4v1.9h2.1v-1.9h0.7
			v-1.9h0.7v-2.6h-0.7v-1.9h-0.7v-1.9H9.1v1.9H7.7v-1.9H5.6V15.3z M16.6,17.9h0.7v-1.3H18v1.3h0.7v1.3H18v1.3h-0.7v-1.3h-0.7V17.9z
			 M16.6,13.3v1.9h-0.7v1.9h-0.7v2.6h0.7v1.9h0.7v1.9h2.1v-1.9h0.7v-1.9H20v-2.6h-0.7v-1.9h-0.7v-1.9H16.6z M-3.3,12.1h1.4V8.2h-1.4
			V12.1z M7.7,12.1h1.4V8.2H7.7V12.1z M18.7,12.1h1.4V8.2h-1.4V12.1z M2.2,3h1.4v-3.2H2.2V3z M13.2,3h1.4v-3.2h-1.4V3z M-3.3-6.7
			h1.4v-3.9h-1.4V-6.7z M7.7-6.7h1.4v-3.9H7.7V-6.7z M18.7-6.7h1.4v-3.9h-1.4V-6.7z M-0.6-0.2h1.4v-3.2h1.4v-3.2h1.4v3.2h1.4v3.2
			h1.4V3H4.9v3.2H3.6v3.2H2.2V6.2H0.8V3h-1.4V-0.2z M10.4-0.2h1.4v-3.2h1.4v-3.2h1.4v3.2h1.4v3.2h1.4V3h-1.4v3.2h-1.4v3.2h-1.4V6.2
			h-1.4V3h-1.4V-0.2z M13.2-13.1v3.2h-1.4v3.2h-1.4v3.2H9.1v3.2H7.7v-3.2H6.3v-3.2H4.9v-3.2H3.6v-3.2H2.2v3.2H0.8v3.2h-1.4v3.2h-1.4
			v3.2h-1.4V3h1.4v3.2h1.4v3.2h1.4v3.2h1.4v3.2h1.4v-3.2h1.4V9.5h1.4V6.2h1.4V3h1.4v3.2h1.4v3.2h1.4v3.2h1.4v3.2h1.4v-3.2h1.4V9.5
			h1.4V6.2h1.4V3h1.4v-3.2h-1.4v-3.2h-1.4v-3.2h-1.4v-3.2h-1.4v-3.2H13.2z"/>
	</g>
</g>
</svg>
