<?xml version="1.0" encoding="utf-8"?>
<!-- Generator: Adobe Illustrator 21.1.0, SVG Export Plug-In . SVG Version: 6.00 Build 0)  -->
<svg version="1.1" id="Layer_1" xmlns="http://www.w3.org/2000/svg" xmlns:xlink="http://www.w3.org/1999/xlink" x="0px" y="0px"
	 viewBox="0 0 100 100" style="enable-background:new 0 0 100 100;" xml:space="preserve">
<g>
	<path style="fill:#EC3B27;" d="M1283.2,168.4c6.6-26.5,33.4-42.7,59.9-36.1c26.5,6.6,42.7,33.4,36.1,59.9
		c-6.6,26.5-33.4,42.7-59.9,36.1C1292.8,221.8,1276.7,195,1283.2,168.4"/>
	<path style="fill:#FFFFFF;" d="M1326.1,202c-11.5,0-20.8-9.3-20.8-20.8c0-11.5,9.3-20.8,20.8-20.8c5.7,0,10.9,2.3,14.7,6.1
		c-4.7-6.7-12.4-11-21.2-11c-14.3,0-25.8,11.6-25.8,25.8c0,14.3,11.6,25.8,25.8,25.8c8.8,0,16.5-4.4,21.2-11
		C1337.1,199.6,1331.9,202,1326.1,202"/>
	<polygon style="fill:#FFFFFF;" points="1350.4,174.9 1352.6,168.4 1355,174.8 1361.1,171.7 1358.3,177.9 1364.7,180.1 
		1358.4,182.5 1361.4,188.6 1355.2,185.8 1353,192.3 1350.6,185.9 1344.5,188.9 1347.3,182.7 1340.9,180.6 1347.2,178.2 
		1344.2,172.1 	"/>
	<path style="fill:#07B9E4;" d="M1291,151.5h80.4c-6.6-9.2-16.4-16.3-28.3-19.2C1322.9,127.3,1302.5,135.5,1291,151.5z"/>
	<path style="fill:#409C46;" d="M1291,209.2c6.6,9.2,16.4,16.3,28.3,19.2c20.2,5,40.7-3.2,52.1-19.2H1291z"/>
</g>
<g>
	<g>
		<path style="fill:#55B948;" d="M1.8,38.1C8.4,11.5,35.3-4.7,61.9,1.8c26.6,6.6,42.8,33.5,36.2,60.1c-6.6,26.6-33.5,42.8-60.1,36.2
			C11.5,91.6-4.7,64.7,1.8,38.1"/>
	</g>
	<polygon style="fill:#FED20B;" points="3.8,50.2 49.6,79.5 95.4,50.2 49.6,20.9 	"/>
	<g>
		<path style="fill:#2D368F;" d="M49.6,30.6c10.8,0,19.6,8.8,19.6,19.6c0,10.8-8.8,19.6-19.6,19.6C38.8,69.8,30,61,30,50.2
			C30,39.4,38.8,30.6,49.6,30.6"/>
		<path style="fill:#FFFFFF;" d="M69.2,52.2c-8.6-6.8-19.6-10.8-31.4-10.4c-2.1,0.1-4.2,0.3-6.2,0.6c-0.4,1-0.8,2-1,3
			c2.4-0.5,4.8-0.8,7.3-0.9c11.7-0.4,22.5,3.7,30.7,10.7C68.9,54.3,69,53.2,69.2,52.2"/>
	</g>
	<path style="fill:#0A9C50;" d="M32.6,43.7l0.2,0.5l0.4,0.1l0.4-0.2l0.1-0.5L33.4,43L33,42.9l-0.4,0.2L32.6,43.7z M32.2,43.7l0-0.5
		l0.1-0.3l0.2-0.2l0.4-0.1l0.7,0.2l0.4,0.7l-0.2,0.8l-0.6,0.4l-0.7-0.2L32.2,43.7z"/>
	<path style="fill:#0A9C50;" d="M35.2,43.2l0.3,0l0.3-0.1l0.1-0.1l0-0.1l-0.1-0.2l-0.2-0.1l-0.3,0l-0.3,0L35.2,43.2z M34.9,44.3
		l-0.2-1.9l0.8-0.1l0.5,0l0.2,0.2l0.1,0.3l-0.1,0.4l-0.4,0.2l0.2,0.1l0.2,0.3l0.3,0.4l-0.5,0l-0.3-0.4l-0.2-0.3l-0.1-0.1l-0.2,0
		l-0.1,0l0.1,0.8L34.9,44.3z"/>
	<path style="fill:#0A9C50;" d="M37.6,42.5l0,1.3l0.3,0l0.2,0l0.2-0.1l0.1-0.2l0-0.3l0-0.3l-0.1-0.2l-0.2-0.1l-0.3,0L37.6,42.5z
		 M37.2,42.2l0.7,0l0.4,0l0.3,0.2l0.2,0.3l0.1,0.5l-0.1,0.4l-0.2,0.3l-0.3,0.2L38,44.1l-0.7,0L37.2,42.2z"/>
	<polygon style="fill:#0A9C50;" points="39.6,44.1 39.6,42.2 41.1,42.2 41,42.5 40,42.5 40,42.9 41,42.9 41,43.3 40,43.2 40,43.8 
		41.1,43.8 41.1,44.1 	"/>
	<polygon style="fill:#0A9C50;" points="41.8,44.1 42,42.2 42.5,42.3 42.8,43.6 43.2,42.3 43.8,42.3 43.7,44.3 43.3,44.2 43.4,42.7 
		42.9,44.2 42.6,44.2 42.3,42.7 42.2,44.2 	"/>
	<polygon style="fill:#0A9C50;" points="45.7,44.5 46,42.6 47.4,42.8 47.3,43.1 46.3,43 46.2,43.4 47.2,43.5 47.1,43.9 46.2,43.7 
		46.1,44.2 47.2,44.4 47.1,44.7 	"/>
	<path style="fill:#0A9C50;" d="M49.7,43.6l-0.1,0.5l0.2,0l0.3,0l0.1-0.1l0.1-0.1l0-0.2l-0.1-0.1l-0.3-0.1L49.7,43.6z M49,45.1
		l0.4-1.9l0.6,0.1l0.4,0.1l0.2,0.2l0,0.4l-0.1,0.3l-0.2,0.1l-0.2,0l-0.4-0.1l-0.2-0.1l-0.2,0.7L49,45.1z"/>
	<path style="fill:#0A9C50;" d="M51.9,44.6l0.3,0.1l0.3,0.1l0.1,0l0.1-0.1l0-0.2l-0.1-0.1l-0.3-0.1L52,44.2L51.9,44.6z M51.2,45.6
		l0.5-1.8l0.8,0.2l0.4,0.2l0.2,0.2v0.3L52.8,45l-0.4,0.1l0.2,0.2l0.1,0.4l0.1,0.4l-0.4-0.1l-0.2-0.5l-0.1-0.3L52,45L51.8,45l-0.1,0
		l-0.2,0.8L51.2,45.6z"/>
	<path style="fill:#0A9C50;" d="M54.1,45.5l0,0.5l0.3,0.3l0.4,0l0.3-0.4l0-0.5L54.8,45l-0.4,0L54.1,45.5z M53.7,45.3l0.2-0.4
		l0.3-0.2l0.3-0.1l0.4,0.1l0.6,0.5v0.8L55,46.5l-0.7,0l-0.6-0.5V45.3z"/>
	<polygon style="fill:#0A9C50;" points="56.9,46.8 57,46.5 57.8,46.8 57.5,47.5 57.1,47.6 56.6,47.5 56.2,47.2 56,46.7 56.1,46.2 
		56.4,45.8 56.9,45.6 57.4,45.6 57.8,46 57.9,46.5 57.5,46.4 57.5,46.1 57.3,46 56.8,45.9 56.5,46.3 56.4,46.9 56.7,47.2 57,47.2 
		57.2,47.2 57.3,47 	"/>
	<path style="fill:#0A9C50;" d="M59,47.3l0.3,0.1l0.3,0.1l0.1,0l0.1-0.1l0-0.2l-0.1-0.1L59.5,47l-0.3-0.1L59,47.3z M58.1,48.1
		l0.8-1.7l0.7,0.3l0.4,0.2l0.1,0.3l-0.1,0.3l-0.3,0.3l-0.4,0l0.1,0.2l0.1,0.4l0.1,0.4l-0.4-0.2l-0.1-0.5l-0.1-0.3l-0.1-0.1l-0.2-0.1
		l-0.1,0l-0.3,0.7L58.1,48.1z"/>
	<polygon style="fill:#0A9C50;" points="60.3,49.1 61.2,47.4 62.4,48.1 62.3,48.4 61.4,47.9 61.2,48.3 62,48.7 61.9,49 61,48.6 
		60.8,49 61.7,49.5 61.5,49.8 	"/>
	<polygon style="fill:#0A9C50;" points="62.4,49.6 62.8,49.8 62.8,50.1 62.9,50.3 63.2,50.4 63.4,50.3 63.4,50.2 63.4,50 63.1,49.8 
		62.9,49.4 62.9,49 63.1,48.8 63.4,48.7 63.8,48.9 64.2,49.3 64.1,49.8 63.8,49.6 63.8,49.3 63.6,49.2 63.4,49.1 63.2,49.2 
		63.2,49.3 63.5,49.6 63.8,49.9 63.8,50.2 63.7,50.5 63.5,50.7 63.2,50.8 62.8,50.6 62.4,50.2 	"/>
	<polygon style="fill:#0A9C50;" points="64.4,50.8 64.7,51 64.7,51.3 64.8,51.5 65.1,51.6 65.3,51.5 65.3,51.4 65.3,51.3 65.1,51 
		64.8,50.6 64.9,50.2 65.1,50 65.4,50 65.7,50.1 66.1,50.6 66,51 65.7,50.8 65.7,50.6 65.6,50.4 65.3,50.3 65.2,50.4 65.2,50.5 
		65.4,50.8 65.7,51.2 65.7,51.4 65.6,51.7 65.4,51.9 65,52 64.7,51.8 64.3,51.3 	"/>
	<path style="fill:#0A9C50;" d="M66.8,52.1l-0.2,0.5l0.2,0.4l0.4,0.1l0.4-0.3l0.2-0.5l-0.2-0.4l-0.4-0.1L66.8,52.1z M66.4,51.8
		l0.4-0.3l0.3-0.1l0.3,0l0.4,0.2l0.4,0.6L67.9,53l-0.6,0.4l-0.7-0.2l-0.4-0.6L66.4,51.8z"/>
	<polygon style="fill:#FFFFFF;" points="55.9,42.8 56,43.3 56.6,43.3 56.2,43.6 56.3,44.2 55.9,43.9 55.4,44.2 55.6,43.6 55.1,43.3 
		55.7,43.3 	"/>
	<polygon style="fill:#FFFFFF;" points="49.7,58.6 49.9,59.2 50.5,59.2 50,59.5 50.2,60.1 49.7,59.7 49.2,60.1 49.4,59.5 48.9,59.2 
		49.5,59.2 	"/>
	<polygon style="fill:#FFFFFF;" points="63.6,56.7 63.8,57.2 64.4,57.2 63.9,57.6 64.1,58.1 63.6,57.8 63.2,58.1 63.3,57.6 
		62.9,57.2 63.5,57.2 	"/>
	<polygon style="fill:#FFFFFF;" points="66.4,57.1 66.5,57.5 66.9,57.5 66.6,57.7 66.7,58.1 66.4,57.8 66.1,58.1 66.2,57.7 
		65.9,57.5 66.3,57.5 	"/>
	<polygon style="fill:#FFFFFF;" points="64.4,58.5 64.6,59 65.1,59 64.7,59.3 64.9,59.8 64.4,59.5 64,59.8 64.2,59.3 63.8,59 
		64.3,59 	"/>
	<polygon style="fill:#FFFFFF;" points="63.2,60.1 63.4,60.6 63.9,60.6 63.5,60.9 63.6,61.4 63.2,61.1 62.8,61.4 63,60.9 62.5,60.6 
		63.1,60.6 	"/>
	<polygon style="fill:#FFFFFF;" points="61.6,61.3 61.8,61.7 62.1,61.7 61.8,61.9 62,62.3 61.6,62.1 61.3,62.3 61.4,61.9 61.1,61.7 
		61.5,61.7 	"/>
	<polygon style="fill:#FFFFFF;" points="59.6,60.9 59.7,61.3 60.1,61.3 59.8,61.5 59.9,61.9 59.6,61.7 59.3,61.9 59.4,61.5 
		59.1,61.3 59.5,61.3 	"/>
	<polygon style="fill:#FFFFFF;" points="57.3,61.6 57.5,62 57.9,62 57.6,62.2 57.7,62.6 57.3,62.4 57,62.6 57.1,62.2 56.8,62 
		57.2,62 	"/>
	<polygon style="fill:#FFFFFF;" points="59.6,64.8 59.7,65.2 60.1,65.2 59.8,65.4 59.9,65.8 59.6,65.6 59.3,65.8 59.4,65.4 
		59.1,65.2 59.5,65.2 	"/>
	<polygon style="fill:#FFFFFF;" points="55.6,63.1 55.8,63.6 56.3,63.6 55.9,63.9 56,64.5 55.6,64.1 55.2,64.5 55.3,63.9 54.9,63.6 
		55.4,63.6 	"/>
	<polygon style="fill:#FFFFFF;" points="54.1,61.1 54.2,61.5 54.6,61.5 54.3,61.7 54.4,62.1 54.1,61.9 53.7,62.1 53.9,61.7 
		53.5,61.5 53.9,61.5 	"/>
	<polygon style="fill:#FFFFFF;" points="59.7,62.7 59.8,63.2 60.3,63.2 59.9,63.5 60.1,64 59.7,63.7 59.3,64 59.4,63.5 59,63.2 
		59.5,63.2 	"/>
	<polygon style="fill:#FFFFFF;" points="49.7,65.8 49.7,66 49.9,66 49.8,66.1 49.8,66.3 49.7,66.2 49.5,66.3 49.6,66.1 49.4,66 
		49.6,66 	"/>
	<polygon style="fill:#FFFFFF;" points="54.9,48.7 55,49.1 55.4,49.1 55.1,49.4 55.2,49.8 54.9,49.5 54.6,49.8 54.7,49.4 54.3,49.1 
		54.8,49.1 	"/>
	<polygon style="fill:#FFFFFF;" points="49.7,53 49.8,53.5 50.3,53.5 49.9,53.7 50.1,54.2 49.7,53.9 49.3,54.2 49.5,53.7 49.1,53.5 
		49.6,53.5 	"/>
	<polygon style="fill:#FFFFFF;" points="52,54.8 52.2,55.3 52.6,55.3 52.2,55.6 52.4,56 52,55.7 51.6,56 51.8,55.6 51.4,55.3 
		51.9,55.3 	"/>
	<polygon style="fill:#FFFFFF;" points="47.7,54.9 47.8,55.3 48.2,55.3 47.9,55.5 48,55.8 47.7,55.6 47.4,55.8 47.5,55.5 47.2,55.3 
		47.6,55.3 	"/>
	<polygon style="fill:#FFFFFF;" points="48.7,56.5 48.7,56.8 49,56.8 48.8,56.9 48.9,57.1 48.7,57 48.5,57.1 48.5,56.9 48.3,56.8 
		48.6,56.8 	"/>
	<polygon style="fill:#FFFFFF;" points="33.4,46.2 33.6,46.7 34.2,46.7 33.7,47.1 33.9,47.6 33.4,47.3 32.9,47.6 33.1,47.1 
		32.7,46.7 33.2,46.7 	"/>
	<polygon style="fill:#FFFFFF;" points="42,50.6 42.1,51.1 42.6,51.1 42.2,51.4 42.4,51.8 42,51.5 41.6,51.8 41.8,51.4 41.4,51.1 
		41.9,51.1 	"/>
	<polygon style="fill:#FFFFFF;" points="35.2,54.5 35.4,55.1 36,55.1 35.5,55.4 35.7,56 35.2,55.6 34.7,56 34.9,55.4 34.4,55.1 
		35,55.1 	"/>
	<polygon style="fill:#FFFFFF;" points="37.1,53.7 37.2,54 37.5,54 37.3,54.1 37.4,54.4 37.1,54.2 36.9,54.4 37,54.1 36.7,54 37,54 
			"/>
	<polygon style="fill:#FFFFFF;" points="39.4,56.6 39.5,57.1 40,57.1 39.6,57.4 39.8,57.8 39.4,57.5 39,57.8 39.1,57.4 38.7,57.1 
		39.2,57.1 	"/>
	<polygon style="fill:#FFFFFF;" points="41.7,60.2 41.9,60.8 42.5,60.8 42,61.1 42.2,61.7 41.7,61.4 41.2,61.7 41.4,61.1 40.9,60.8 
		41.5,60.8 	"/>
	<polygon style="fill:#FFFFFF;" points="38.7,58.6 38.9,59 39.4,59 39,59.3 39.1,59.8 38.7,59.5 38.3,59.8 38.5,59.3 38.1,59 
		38.6,59 	"/>
	<polygon style="fill:#FFFFFF;" points="32.7,56.5 32.9,56.9 33.2,56.9 32.9,57.1 33,57.5 32.7,57.3 32.4,57.5 32.5,57.1 32.2,56.9 
		32.6,56.9 	"/>
	<path style="fill:#118544;" d="M51.7,43.8l-0.5,1.8l0.4,0.1l0.2-0.8l0.1,0L52,45l0.1,0.1l0.1,0.3l0.2,0.5l0.4,0.1l-0.1-0.4
		l-0.1-0.4l-0.2-0.2l0.4-0.1l0.2-0.3v-0.3l-0.2-0.2L52.5,44L51.7,43.8z M52.5,44.8l-0.3-0.1l-0.3-0.1l0.1-0.5l0.3,0.1l0.3,0.1
		l0.1,0.1l0,0.2l-0.1,0.1L52.5,44.8z"/>
	<path style="fill:#118544;" d="M54.5,44.6l-0.3,0.1l-0.3,0.2l-0.2,0.4v0.8l0.6,0.5l0.7,0l0.5-0.6v-0.8l-0.6-0.5L54.5,44.6z
		 M54.3,46.3L54,46l0-0.5l0.3-0.4l0.4,0l0.3,0.3l0,0.5l-0.3,0.4L54.3,46.3z"/>
	<polygon style="fill:#118544;" points="56.9,45.6 56.4,45.8 56.1,46.2 56,46.7 56.2,47.2 56.6,47.5 57.1,47.6 57.5,47.5 57.8,46.8 
		57,46.5 56.9,46.8 57.3,47 57.2,47.2 57,47.2 56.7,47.2 56.4,46.9 56.5,46.3 56.8,45.9 57.3,46 57.5,46.1 57.5,46.4 57.9,46.5 
		57.8,46 57.4,45.6 	"/>
	<path style="fill:#118544;" d="M59,46.4l-0.8,1.7l0.3,0.2l0.3-0.7l0.1,0l0.2,0.1l0.1,0.1l0.1,0.3l0.1,0.5l0.4,0.2l-0.1-0.4L59.6,48
		l-0.1-0.2l0.4,0l0.3-0.3l0.1-0.3L60.1,47l-0.4-0.2L59,46.4z M59.6,47.5l-0.3-0.1L59,47.3l0.2-0.4l0.3,0.1l0.2,0.1l0.1,0.1l0,0.2
		l-0.1,0.1L59.6,47.5z"/>
	<polygon style="fill:#118544;" points="61.2,47.4 60.3,49.1 61.5,49.8 61.7,49.5 60.8,49 61,48.6 61.9,49 62,48.7 61.2,48.3 
		61.4,47.9 62.3,48.4 62.4,48.1 	"/>
	<polygon style="fill:#118544;" points="63.4,48.7 63.1,48.8 62.9,49 62.9,49.4 63.1,49.8 63.4,50 63.4,50.2 63.4,50.3 63.2,50.4 
		62.9,50.3 62.8,50.1 62.8,49.8 62.4,49.6 62.4,50.2 62.8,50.6 63.2,50.8 63.5,50.7 63.7,50.5 63.8,50.2 63.8,49.9 63.5,49.6 
		63.2,49.3 63.2,49.2 63.4,49.1 63.6,49.2 63.8,49.3 63.8,49.6 64.1,49.8 64.2,49.3 63.8,48.9 	"/>
	<polygon style="fill:#118544;" points="65.4,50 65.1,50 64.9,50.2 64.8,50.6 65.1,51 65.3,51.3 65.3,51.4 65.3,51.5 65.1,51.6 
		64.8,51.5 64.7,51.3 64.7,51 64.4,50.8 64.3,51.3 64.7,51.8 65,52 65.4,51.9 65.6,51.7 65.7,51.4 65.7,51.2 65.4,50.8 65.2,50.5 
		65.2,50.4 65.3,50.3 65.6,50.4 65.7,50.6 65.7,50.8 66,51 66.1,50.6 65.7,50.1 	"/>
	<path style="fill:#118544;" d="M67.1,51.4l-0.3,0.1l-0.4,0.3l-0.2,0.7l0.4,0.6l0.7,0.2l0.6-0.4l0.2-0.7l-0.4-0.6l-0.4-0.2
		L67.1,51.4z M67.2,53l-0.4-0.1l-0.2-0.4l0.2-0.5l0.4-0.3l0.4,0.1l0.2,0.4l-0.2,0.5L67.2,53z"/>
</g>
</svg>
