<?xml version="1.0" encoding="utf-8"?>
<!-- Generator: Adobe Illustrator 21.0.1, SVG Export Plug-In . SVG Version: 6.00 Build 0)  -->
<svg version="1.1" id="Layer_1" xmlns="http://www.w3.org/2000/svg" xmlns:xlink="http://www.w3.org/1999/xlink" x="0px" y="0px"
	 viewBox="0 0 100 100" style="enable-background:new 0 0 100 100;" xml:space="preserve">
<style type="text/css">
	.st0{fill:#EC3B27;}
	.st1{fill:#FFFFFF;}
	.st2{fill:#07B9E4;}
	.st3{fill:#409C46;}
	.st4{clip-path:url(#SVGID_2_);}
	.st5{fill:#0E2292;}
	.st6{fill:#FFFFFF;stroke:#FFFFFF;stroke-width:0.2626;stroke-miterlimit:10;}
	.st7{fill:#F5CC10;}
</style>
<g>
	<path class="st0" d="M1283.2,168.4c6.6-26.5,33.4-42.7,59.9-36.1c26.5,6.6,42.7,33.4,36.1,59.9s-33.4,42.7-59.9,36.1
		C1292.8,221.8,1276.7,195,1283.2,168.4"/>
	<path class="st1" d="M1326.1,202c-11.5,0-20.8-9.3-20.8-20.8s9.3-20.8,20.8-20.8c5.7,0,10.9,2.3,14.7,6.1c-4.7-6.7-12.4-11-21.2-11
		c-14.3,0-25.8,11.6-25.8,25.8c0,14.3,11.6,25.8,25.8,25.8c8.8,0,16.5-4.4,21.2-11C1337.1,199.6,1331.9,202,1326.1,202"/>
	<polygon class="st1" points="1350.4,174.9 1352.6,168.4 1355,174.8 1361.1,171.7 1358.3,177.9 1364.7,180.1 1358.4,182.5 
		1361.4,188.6 1355.2,185.8 1353,192.3 1350.6,185.9 1344.5,188.9 1347.3,182.7 1340.9,180.6 1347.2,178.2 1344.2,172.1 	"/>
	<path class="st2" d="M1291,151.5h80.4c-6.6-9.2-16.4-16.3-28.3-19.2C1322.9,127.3,1302.5,135.5,1291,151.5z"/>
	<path class="st3" d="M1291,209.2c6.6,9.2,16.4,16.3,28.3,19.2c20.2,5,40.7-3.2,52.1-19.2H1291z"/>
</g>
<g>
	<defs>
		<path id="SVGID_1_" d="M38.1,97.9c-26.4-6.5-42.6-33.3-36-59.8c6.5-26.4,33.3-42.6,59.8-36S104.5,35.4,98,61.9
			C91.4,88.3,64.6,104.5,38.1,97.9"/>
	</defs>
	<clipPath id="SVGID_2_">
		<use xlink:href="#SVGID_1_"  style="overflow:visible;"/>
	</clipPath>
	<g class="st4">
		<polygon class="st5" points="113.2,100 -51.2,100 -51.2,0.1 89.8,0.1 113.2,0.1 		"/>
		<polygon class="st6" points="-15.6,2.1 -14,9.6 -6.3,8.8 -13,12.7 -9.9,19.8 -15.6,14.6 -21.4,19.8 -18.3,12.7 -25,8.8 -17.3,9.6 
					"/>
		<polygon class="st6" points="-3.3,14.3 -1.7,21.8 6,21.1 -0.7,24.9 2.5,32 -3.3,26.8 -9.1,32 -5.9,24.9 -12.6,21.1 -4.9,21.8 		
			"/>
		<polygon class="st6" points="9.4,26.8 11.1,34.3 18.7,33.5 12.1,37.4 15.2,44.5 9.4,39.3 3.7,44.5 6.8,37.4 0.1,33.5 7.8,34.3 		
			"/>
		<polygon class="st6" points="22,39.2 23.7,46.8 31.3,46 24.7,49.9 27.8,56.9 22,51.8 16.3,56.9 19.4,49.9 12.7,46 20.4,46.8 		"/>
		<polygon class="st6" points="34.1,51.8 35.7,59.4 43.4,58.6 36.7,62.5 39.9,69.5 34.1,64.4 28.4,69.5 31.5,62.5 24.8,58.6 
			32.5,59.4 		"/>
		<polygon class="st6" points="47,64.5 48.6,72 56.3,71.2 49.6,75.1 52.7,82.2 47,77 41.2,82.2 44.4,75.1 37.7,71.2 45.4,72 		"/>
		<polygon class="st6" points="59.6,76.7 61.2,84.2 68.9,83.4 62.2,87.3 65.4,94.4 59.6,89.2 53.8,94.4 57,87.3 50.3,83.4 58,84.2 
					"/>
		<polygon class="st6" points="71.9,89.5 73.6,97.1 81.3,96.3 74.6,100.2 77.7,107.2 71.9,102.1 66.2,107.2 69.3,100.2 62.6,96.3 
			70.3,97.1 		"/>
		<polygon class="st6" points="-28.5,-11.1 -26.9,-3.5 -19.2,-4.3 -25.9,-0.4 -22.8,6.6 -28.5,1.5 -34.3,6.6 -31.1,-0.4 -37.8,-4.3 
			-30.1,-3.5 		"/>
		<polyline class="st7" points="89.9,100 -10.3,0.1 89.8,0.1 		"/>
	</g>
</g>
</svg>
