<?xml version="1.0" encoding="utf-8"?>
<!-- Generator: Adobe Illustrator 21.1.0, SVG Export Plug-In . SVG Version: 6.00 Build 0)  -->
<svg version="1.1" id="Layer_1" xmlns="http://www.w3.org/2000/svg" xmlns:xlink="http://www.w3.org/1999/xlink" x="0px" y="0px"
	 viewBox="0 0 100 100" style="enable-background:new 0 0 100 100;" xml:space="preserve">
<g>
	<path style="fill:#EC3B27;" d="M1283.2,168.4c6.6-26.5,33.4-42.7,59.9-36.1c26.5,6.6,42.7,33.4,36.1,59.9
		c-6.6,26.5-33.4,42.7-59.9,36.1C1292.8,221.8,1276.7,195,1283.2,168.4"/>
	<path style="fill:#FFFFFF;" d="M1326.1,202c-11.5,0-20.8-9.3-20.8-20.8c0-11.5,9.3-20.8,20.8-20.8c5.7,0,10.9,2.3,14.7,6.1
		c-4.7-6.7-12.4-11-21.2-11c-14.3,0-25.8,11.6-25.8,25.8c0,14.3,11.6,25.8,25.8,25.8c8.8,0,16.5-4.4,21.2-11
		C1337.1,199.6,1331.9,202,1326.1,202"/>
	<polygon style="fill:#FFFFFF;" points="1350.4,174.9 1352.6,168.4 1355,174.8 1361.1,171.7 1358.3,177.9 1364.7,180.1 
		1358.4,182.5 1361.4,188.6 1355.2,185.8 1353,192.3 1350.6,185.9 1344.5,188.9 1347.3,182.7 1340.9,180.6 1347.2,178.2 
		1344.2,172.1 	"/>
	<path style="fill:#07B9E4;" d="M1291,151.5h80.4c-6.6-9.2-16.4-16.3-28.3-19.2C1322.9,127.3,1302.5,135.5,1291,151.5z"/>
	<path style="fill:#409C46;" d="M1291,209.2c6.6,9.2,16.4,16.3,28.3,19.2c20.2,5,40.7-3.2,52.1-19.2H1291z"/>
</g>
<g>
	<g>
		<path style="fill:#EC3B27;" d="M38.1,97.9C11.7,91.4-4.5,64.6,2.1,38.1C8.6,11.7,35.4-4.5,61.9,2.1c26.5,6.6,42.6,33.3,36.1,59.8
			C91.4,88.3,64.6,104.5,38.1,97.9"/>
		<path style="fill:#EC3B27;" d="M33.4,96.5v-93C18.4,8.9,6.2,21.4,2.1,38.1C-4.1,63,9.8,88.1,33.4,96.5"/>
		<path style="fill:#FFFFFF;" d="M60.2,1.7c-0.1,0-0.2,0-0.3-0.1c-0.2,0-0.4-0.1-0.6-0.1c-0.1,0-0.2,0-0.3-0.1
			c-0.2,0-0.4-0.1-0.6-0.1c-0.1,0-0.2,0-0.3,0c-0.2,0-0.5-0.1-0.7-0.1c0,0-0.1,0-0.1,0c-0.3,0-0.6-0.1-0.9-0.1c-0.1,0-0.2,0-0.2,0
			C56,1,55.8,1,55.5,0.9c-0.1,0-0.2,0-0.3,0c-0.2,0-0.4,0-0.6-0.1c-0.1,0-0.2,0-0.3,0c-0.2,0-0.4,0-0.6,0c-0.1,0-0.2,0-0.3,0
			c-0.2,0-0.4,0-0.7,0c-0.1,0-0.1,0-0.2,0c-0.3,0-0.6,0-0.9,0c0,0-0.1,0-0.1,0c-0.2,0-0.5,0-0.7,0c-0.1,0-0.2,0-0.3,0
			c-0.2,0-0.4,0-0.6,0c-0.1,0-0.2,0-0.3,0c-0.2,0-0.4,0-0.6,0c-0.1,0-0.2,0-0.3,0c-0.2,0-0.4,0-0.6,0c-0.1,0-0.1,0-0.2,0
			c-0.6,0-1.1,0.1-1.7,0.1c-0.1,0-0.1,0-0.2,0c-0.2,0-0.4,0-0.6,0.1c-0.1,0-0.2,0-0.3,0c-0.2,0-0.4,0-0.6,0.1c-0.1,0-0.2,0-0.3,0
			c-0.2,0-0.4,0-0.6,0.1c-0.1,0-0.1,0-0.2,0c-0.6,0.1-1.1,0.2-1.7,0.2c0,0-0.1,0-0.1,0c-0.2,0-0.4,0.1-0.7,0.1c-0.1,0-0.2,0-0.2,0
			c-0.2,0-0.4,0.1-0.6,0.1c-0.1,0-0.2,0-0.2,0c-0.2,0-0.4,0.1-0.6,0.1c-0.1,0-0.1,0-0.2,0C39,1.8,38.8,1.9,38.5,2l-0.1,0
			c-0.3,0.1-0.5,0.1-0.8,0.2v0c-1.4,0.4-2.9,0.8-4.3,1.3v93c1.5,0.5,3.1,1,4.7,1.4c6.6,1.6,13.3,1.9,19.6,0.8c0,0,0.1,0,0.1,0
			c0.2,0,0.5-0.1,0.7-0.1c0,0,0.1,0,0.1,0c0.2,0,0.4-0.1,0.6-0.1c0.1,0,0.1,0,0.2,0c0.2,0,0.4-0.1,0.6-0.1c0.1,0,0.2,0,0.2,0
			c0.2,0,0.4-0.1,0.6-0.1c0.1,0,0.2,0,0.3-0.1c0.2,0,0.4-0.1,0.5-0.1c0.1,0,0.3-0.1,0.4-0.1c0.2-0.1,0.4-0.1,0.6-0.2
			c0.2-0.1,0.4-0.1,0.6-0.2c0.1,0,0.2-0.1,0.3-0.1c0.2-0.1,0.4-0.1,0.6-0.2c0.1,0,0.2-0.1,0.3-0.1c0.2-0.1,0.4-0.1,0.6-0.2
			c0.1,0,0.2-0.1,0.3-0.1c0.2-0.1,0.4-0.1,0.6-0.2c0.1,0,0.2-0.1,0.3-0.1c0.2-0.1,0.4-0.1,0.6-0.2c0,0,0.1,0,0.1,0v0
			c0.1,0,0.2-0.1,0.3-0.1V3.7c-0.1,0-0.2-0.1-0.3-0.1v0c-0.3-0.1-0.6-0.2-0.9-0.3c0,0-0.1,0-0.1,0C65.4,3.1,65,3,64.7,2.8
			c-0.1,0-0.1,0-0.2-0.1c-0.4-0.1-0.7-0.2-1.1-0.3c-0.1,0-0.2,0-0.2-0.1c-0.4-0.1-0.9-0.2-1.3-0.3C61.6,2,61.3,1.9,61,1.9
			c-0.1,0-0.2,0-0.3-0.1C60.5,1.8,60.3,1.7,60.2,1.7"/>
		<path style="fill:#EC3B27;" d="M50.5,68.6h0.6l-0.2-8.5l0.6-0.5c2.7,0.3,5,0.6,7.7,0.9l-0.7-2.3c-0.1-0.4,0-0.9,0.4-1.1l7.7-6.6
			L65,49.7c-0.7-0.3-0.5-0.7-0.3-1.7l1.2-4.5l-4.5,1c-0.4,0.1-0.7-0.2-0.8-0.5L60.1,42l-3.5,4.2c-0.5,0.7-1.5,0.7-1.2-0.9l1.5-8.4
			l-2,1.1c-0.6,0.3-1.1,0.4-1.5-0.2l-2.9-5.5l-2.9,5.5c-0.3,0.6-0.9,0.5-1.5,0.2l-2-1.1l1.5,8.4c0.3,1.5-0.7,1.5-1.2,0.9L40.9,42
			l-0.6,2.1c-0.1,0.3-0.4,0.6-0.8,0.5l-4.5-1l1.2,4.5c0.3,1,0.5,1.4-0.3,1.7l-1.6,0.8l7.7,6.6c0.3,0.2,0.5,0.7,0.4,1.1l-0.7,2.3
			c2.7-0.3,5-0.6,7.7-0.9l0.6,0.5l-0.2,8.5H50.5z"/>
	</g>
</g>
</svg>
