<?xml version="1.0" encoding="utf-8"?>
<!-- Generator: Adobe Illustrator 21.0.2, SVG Export Plug-In . SVG Version: 6.00 Build 0)  -->
<svg version="1.1" id="Layer_1" xmlns="http://www.w3.org/2000/svg" xmlns:xlink="http://www.w3.org/1999/xlink" x="0px" y="0px"
	 viewBox="0 0 100 100" style="enable-background:new 0 0 100 100;" xml:space="preserve">
<style type="text/css">
	.st0{fill:#F1F1F2;}
	.st1{fill:#ED3726;}
	.st2{fill:#223C72;}
	.st3{fill:#FFFFFF;}
</style>
<path class="st0" d="M2.2,38.2c6.5-26.4,33.3-42.5,59.7-36s42.5,33.3,36,59.7s-33.3,42.5-59.7,36C11.7,91.3-4.4,64.6,2.2,38.2"/>
<path class="st1" d="M95.6,31.3H57.4v7.5H98C97.4,36.2,96.6,33.7,95.6,31.3 M85.8,16.2H57.4v7.6h34.3C90,21,88,18.5,85.8,16.2
	 M14.4,84.1h71.2c2.2-2.3,4.2-4.8,5.9-7.5h-83C10.2,79.2,12.2,81.8,14.4,84.1 M61.8,2.2c-1.5-0.4-3-0.7-4.4-0.9v7.3h19.4
	C72.3,5.7,67.3,3.5,61.8,2.2 M99.2,46.3H57.4v7.6h41.7C99.3,51.4,99.3,48.8,99.2,46.3 M4.5,69h91c1-2.3,1.7-4.7,2.4-7.2
	c0-0.1,0.1-0.3,0.1-0.4H2.1C2.7,64,3.5,66.6,4.5,69 M38.2,97.8c2.9,0.7,5.8,1.2,8.7,1.4h6.3c8.3-0.5,16.3-3.2,23.2-7.6H23.6
	C28,94.4,32.9,96.5,38.2,97.8"/>
<path class="st2" d="M57.4,1.3c-0.5-0.1-4.1-0.5-4.6-0.5L44,1.1c-9.2,1.1-17.8,4.8-24.9,10.5l0.2,0.6l-0.5-0.3
	c-1.6,1.3-3.2,2.8-4.6,4.3h0.7L13.8,17l0.4,1.3l-1.1-0.8l-0.4,0.3c-1,1.1-1.9,2.3-2.8,3.6H10l-0.3,0.2c-0.2,0.3-0.4,0.6-0.6,0.9
	l0.3,0.9L8.8,23c-3,4.6-5.3,9.7-6.7,15.3c0,0.1,0,0.1-0.1,0.2h0.8l0.4-1.3l0.4,1.3h1.3L4,39.1l0.4,1.3l-1.1-0.8l-1.1,0.8l0.4-1.3
	L2,38.7C0.8,43.8,0.5,49,0.9,54h56.5V1.3z"/>
<polygon class="st3" points="53.7,51.1 52.6,50.3 51.5,51.1 51.9,49.8 50.8,49 52.1,49 52.5,47.7 52.9,49 54.2,49 53.1,49.8 "/>
<polygon class="st3" points="48.4,11.4 48.8,12.7 47.7,11.9 46.6,12.7 47,11.4 46,10.6 47.3,10.6 47.7,9.3 48.1,10.6 49.4,10.6 "/>
<polygon class="st3" points="48.4,22.8 48.8,24.1 47.7,23.3 46.7,24 47.1,22.7 46,22 47.3,22 47.7,20.7 48.1,22 49.4,22 "/>
<polygon class="st3" points="48.3,33.9 48.7,35.2 47.6,34.4 46.5,35.2 46.9,33.9 45.8,33.1 47.1,33.1 47.5,31.9 47.9,33.1 
	49.2,33.1 "/>
<polygon class="st3" points="48.6,46.1 47.5,45.3 46.4,46.1 46.8,44.8 45.7,44 47,44 47.4,42.7 47.8,44 49.1,44 48,44.8 "/>
<polygon class="st3" points="43.4,16.9 43.8,18.2 42.7,17.4 41.6,18.2 42,16.9 41,16.1 42.3,16.1 42.7,14.9 43.1,16.1 44.4,16.1 "/>
<polygon class="st3" points="43.4,27.9 43.8,29.2 42.7,28.4 41.6,29.2 42,27.9 41,27.1 42.3,27.1 42.7,25.8 43.1,27.1 44.4,27.1 "/>
<polygon class="st3" points="43.4,39.1 43.8,40.4 42.7,39.6 41.6,40.4 42,39.1 41,38.4 42.3,38.4 42.7,37.1 43.1,38.4 44.4,38.4 "/>
<polygon class="st3" points="43.8,51.1 42.7,50.3 41.6,51.1 42,49.8 41,49.1 42.3,49.1 42.7,47.8 43.1,49.1 44.4,49.1 43.3,49.9 "/>
<polygon class="st3" points="38.6,11.4 39,12.7 37.9,11.9 36.8,12.7 37.2,11.4 36.1,10.6 37.4,10.6 37.8,9.3 38.2,10.6 39.5,10.6 
	"/>
<polygon class="st3" points="38.6,22.8 39,24 37.9,23.2 36.8,24 37.2,22.7 36.2,22 37.5,22 37.9,20.7 38.3,22 39.6,22 "/>
<polygon class="st3" points="38.5,33.9 38.9,35.2 37.8,34.4 36.7,35.2 37.1,33.9 36,33.1 37.3,33.1 37.7,31.9 38.1,33.1 39.4,33.1 
	"/>
<polygon class="st3" points="38.8,46.1 37.7,45.3 36.6,46.1 37,44.8 36,44.1 37.3,44.1 37.7,42.8 38.1,44.1 39.4,44.1 38.3,44.9 "/>
<polygon class="st3" points="33.6,5.9 34,7.2 32.9,6.4 31.8,7.2 32.2,5.9 31.1,5.1 32.4,5.1 32.8,3.8 33.2,5.1 34.5,5.1 "/>
<polygon class="st3" points="33.6,16.9 34,18.2 32.9,17.4 31.8,18.2 32.2,16.9 31.1,16.1 32.4,16.1 32.8,14.9 33.2,16.1 34.5,16.1 
	"/>
<polygon class="st3" points="33.6,27.9 34,29.2 32.9,28.4 31.8,29.2 32.2,27.9 31.1,27.1 32.4,27.1 32.8,25.8 33.2,27.1 34.5,27.1 
	"/>
<polygon class="st3" points="33.6,39.1 34,40.4 32.9,39.6 31.8,40.4 32.2,39.1 31.1,38.3 32.4,38.3 32.8,37 33.2,38.3 34.5,38.3 "/>
<polygon class="st3" points="34,51.1 32.9,50.3 31.8,51.1 32.2,49.8 31.1,49 32.4,49 32.8,47.7 33.2,49 34.5,49 33.4,49.8 "/>
<polygon class="st3" points="28.7,11 29.1,12.3 28,11.5 27,12.3 27.4,11 26.3,10.2 27.6,10.2 28.1,9 28.5,10.3 29.8,10.3 "/>
<polygon class="st3" points="28.7,22.4 29.1,23.7 28,22.9 27,23.6 27.4,22.3 26.3,21.5 27.6,21.5 28,20.2 28.4,21.5 29.7,21.5 "/>
<polygon class="st3" points="28.6,33.5 29,34.8 28,34 26.9,34.8 27.3,33.5 26.2,32.7 27.5,32.7 27.9,31.4 28.3,32.7 29.6,32.7 "/>
<polygon class="st3" points="28.9,45.7 27.9,45 26.8,45.8 27.2,44.5 26.1,43.7 27.4,43.7 27.8,42.4 28.2,43.7 29.5,43.7 28.4,44.5 
	"/>
<polygon class="st3" points="23.7,16.9 24.1,18.2 23,17.4 22,18.2 22.4,16.9 21.3,16.1 22.6,16.1 23,14.9 23.4,16.1 24.7,16.1 "/>
<polygon class="st3" points="23.7,27.9 24.1,29.2 23,28.4 22,29.2 22.4,27.9 21.3,27.1 22.6,27.1 23,25.8 23.4,27.1 24.7,27.1 "/>
<polygon class="st3" points="23.7,39.1 24.1,40.4 23,39.6 22,40.4 22.4,39.1 21.3,38.3 22.6,38.3 23,37 23.4,38.3 24.7,38.3 "/>
<polygon class="st3" points="24.1,51.1 23,50.4 22,51.1 22.4,49.8 21.3,49 22.6,49 23,47.7 23.4,49 24.7,49 23.6,49.8 "/>
<polygon class="st3" points="18.9,22.3 19.3,23.6 18.2,22.8 17.1,23.6 17.5,22.3 16.4,21.5 17.7,21.5 18.1,20.2 18.5,21.5 
	19.8,21.5 "/>
<polygon class="st3" points="18.8,33.4 19.2,34.7 18.1,33.9 17,34.6 17.4,33.3 16.3,32.5 17.6,32.5 18,31.2 18.4,32.5 19.7,32.5 "/>
<polygon class="st3" points="19.1,45.6 18,44.8 17,45.6 17.4,44.3 16.3,43.5 17.6,43.5 18,42.2 18.4,43.5 19.7,43.5 18.6,44.3 "/>
<polygon class="st3" points="42.3,5.1 42.7,3.8 43.1,5.1 44.4,5.1 43.3,5.9 43.7,7.2 42.6,6.4 41.5,7.2 41.9,5.9 41,5.1 "/>
<polygon class="st3" points="52.2,38.4 52.6,37.1 53,38.4 54.3,38.4 53.2,39.2 53.6,40.5 52.5,39.7 51.4,40.5 51.8,39.2 50.7,38.4 
	"/>
<polygon class="st3" points="52.2,27.1 52.6,25.8 53,27.1 54.3,27.1 53.2,27.9 53.6,29.2 52.5,28.4 51.4,29.2 51.8,27.9 50.7,27.1 
	"/>
<polygon class="st3" points="52.2,16.1 52.6,14.9 53,16.1 54.3,16.1 53.2,16.9 53.6,18.2 52.5,17.4 51.4,18.2 51.8,16.9 50.7,16.1 
	"/>
<polygon class="st3" points="52.2,5.1 52.6,3.8 53,5.1 54.3,5.1 53.2,5.9 53.6,7.2 52.5,6.4 51.4,7.2 51.8,5.9 50.7,5.1 "/>
<polygon class="st3" points="13.8,27.9 14.2,29.2 13.1,28.4 12,29.2 12.4,27.9 11.3,27.1 12.6,27.1 13,25.8 13.4,27.1 14.7,27.1 "/>
<polygon class="st3" points="13.8,39.1 14.2,40.4 13.1,39.6 12,40.4 12.4,39.1 11.3,38.3 12.6,38.3 13,37 13.4,38.3 14.7,38.3 "/>
<polygon class="st3" points="14.3,51.1 13.2,50.3 12.1,51.1 12.5,49.8 11.4,49 12.7,49 13.1,47.7 13.5,49 14.8,49 13.7,49.8 "/>
<polygon class="st3" points="8.9,33.2 9.3,34.5 8.2,33.7 7.1,34.5 7.5,33.2 6.4,32.4 7.7,32.4 8.1,31.1 8.5,32.4 10,32.4 "/>
<polygon class="st3" points="9.2,45.4 8.1,44.6 7,45.4 7.4,44.1 6.3,43.3 7.6,43.3 8,42 8.4,43.3 9.7,43.3 8.6,44.1 "/>
<polygon class="st3" points="4.4,51.1 3.3,50.3 2.2,51.1 2.6,49.8 1.5,49 2.8,49 3.2,47.7 3.6,49 4.9,49 4,49.9 "/>
</svg>
