<?xml version="1.0" encoding="utf-8"?>
<!-- Generator: Adobe Illustrator 21.1.0, SVG Export Plug-In . SVG Version: 6.00 Build 0)  -->
<svg version="1.1" id="Layer_1" xmlns="http://www.w3.org/2000/svg" xmlns:xlink="http://www.w3.org/1999/xlink" x="0px" y="0px"
	 viewBox="0 0 100 100" style="enable-background:new 0 0 100 100;" xml:space="preserve">
<g>
	<g>
		<g>
			<defs>
				<path id="SVGID_1_" d="M50,0.6C27.8,0.6,7.6,15.6,2,38.1C-4.5,64.6,11.6,91.4,38.1,98c26.5,6.6,53.3-9.6,59.8-36.1
					C104.5,35.4,88.4,8.6,61.9,2C57.9,1,53.9,0.6,50,0.6C50,0.6,50,0.6,50,0.6"/>
			</defs>
			<clipPath id="SVGID_2_">
				<use xlink:href="#SVGID_1_"  style="overflow:visible;"/>
			</clipPath>
			
				<radialGradient id="SVGID_3_" cx="-1938.8269" cy="2037.2487" r="0.2503" gradientTransform="matrix(197.4678 0 0 -197.4678 382905.875 402341)" gradientUnits="userSpaceOnUse">
				<stop  offset="0" style="stop-color:#FFFFFF"/>
				<stop  offset="0.7809" style="stop-color:#FFFFFF"/>
				<stop  offset="0.8188" style="stop-color:#F9F8F8"/>
				<stop  offset="0.8756" style="stop-color:#E9E6E3"/>
				<stop  offset="0.9441" style="stop-color:#CFC8C2"/>
				<stop  offset="1" style="stop-color:#B5ABA1"/>
			</radialGradient>
			<rect x="-4.5" y="0.6" style="clip-path:url(#SVGID_2_);fill:url(#SVGID_3_);" width="109.1" height="104"/>
		</g>
		<g>
			<path style="fill:#223C72;" d="M2,38.1C8.6,11.6,35.4-4.5,61.9,2C88.4,8.6,104.5,35.4,98,61.9C91.4,88.4,64.6,104.5,38.1,98
				C11.6,91.4-4.5,64.6,2,38.1"/>
		</g>
		<g>
			<path style="fill:#FFFFFF;" d="M85.1,15.2L65.2,28.4V3C64.1,2.6,63,2.3,61.9,2c-9.3-2.3-18.7-1.8-27.2,1v25.4L14.9,15.2
				c-4.5,4.6-8.2,10.1-10.7,16.3L9.4,35H2.9c-0.3,1-0.6,2.1-0.9,3.1c-2.3,9.4-1.8,18.8,1,27.4h6.5L4.4,69c2.5,6,6.2,11.6,10.9,16.2
				l19.5-13V97c1.1,0.4,2.3,0.7,3.4,1c9.3,2.3,18.6,1.8,27.1-0.9V72.2l19.5,13c4.6-4.5,8.3-10,10.9-16.2l-5.3-3.5h6.6
				c0.4-1.2,0.7-2.4,1-3.6c2.3-9.2,1.8-18.5-0.9-26.9h-6.6l5.3-3.6C93.3,25.4,89.7,19.8,85.1,15.2"/>
		</g>
		<g>
			<path style="fill:#ED3726;" d="M27.1,35L8.7,22.8c-1.2,1.9-2.3,3.8-3.3,5.8L15,35H27.1z M91.2,22.7c-1.2-1.9-2.6-3.6-4.1-5.3
				L65.2,32v3h7.5L91.2,22.7z M8.9,77.4c1.2,1.9,2.6,3.6,4.1,5.3l21.7-14.5v-2.8h-7.9L8.9,77.4z M98.7,41.3H58.8v-40
				c-6-1.1-12.1-1.1-17.8,0v40H1.3c-1.1,6-1,12,0.1,17.8H41v39.5c6,1.1,12.1,1.1,17.8,0V59.1h39.7C99.7,53.1,99.7,47.1,98.7,41.3
				 M73.1,65.5l18,12c1.2-1.8,2.3-3.8,3.3-5.8l-9.2-6.1L73.1,65.5z"/>
		</g>
		<g>
			<path style="fill:#2F3E67;" d="M65.2,8.1L65.2,8.1v3.2c0.2-0.6,0.3-1.2,0.3-1.7C65.5,9.1,65.4,8.6,65.2,8.1"/>
		</g>
	</g>
</g>
</svg>
