<?xml version="1.0" encoding="utf-8"?>
<!-- Generator: Adobe Illustrator 21.1.0, SVG Export Plug-In . SVG Version: 6.00 Build 0)  -->
<svg version="1.1" id="Layer_1" xmlns="http://www.w3.org/2000/svg" xmlns:xlink="http://www.w3.org/1999/xlink" x="0px" y="0px"
	 viewBox="0 0 100 100" style="enable-background:new 0 0 100 100;" xml:space="preserve">
<g>
	<path style="fill:#EC3B27;" d="M1283.2,168.4c6.6-26.5,33.4-42.7,59.9-36.1c26.5,6.6,42.7,33.4,36.1,59.9
		c-6.6,26.5-33.4,42.7-59.9,36.1C1292.8,221.8,1276.7,195,1283.2,168.4"/>
	<path style="fill:#FFFFFF;" d="M1326.1,202c-11.5,0-20.8-9.3-20.8-20.8c0-11.5,9.3-20.8,20.8-20.8c5.7,0,10.9,2.3,14.7,6.1
		c-4.7-6.7-12.4-11-21.2-11c-14.3,0-25.8,11.6-25.8,25.8c0,14.3,11.6,25.8,25.8,25.8c8.8,0,16.5-4.4,21.2-11
		C1337.1,199.6,1331.9,202,1326.1,202"/>
	<polygon style="fill:#FFFFFF;" points="1350.4,174.9 1352.6,168.4 1355,174.8 1361.1,171.7 1358.3,177.9 1364.7,180.1 
		1358.4,182.5 1361.4,188.6 1355.2,185.8 1353,192.3 1350.6,185.9 1344.5,188.9 1347.3,182.7 1340.9,180.6 1347.2,178.2 
		1344.2,172.1 	"/>
	<path style="fill:#07B9E4;" d="M1291,151.5h80.4c-6.6-9.2-16.4-16.3-28.3-19.2C1322.9,127.3,1302.5,135.5,1291,151.5z"/>
	<path style="fill:#409C46;" d="M1291,209.2c6.6,9.2,16.4,16.3,28.3,19.2c20.2,5,40.7-3.2,52.1-19.2H1291z"/>
</g>
<g>
	<path style="fill:#FFFFFF;" d="M1.8,38.1C8.4,11.5,35.3-4.7,61.9,1.8c26.6,6.6,42.8,33.5,36.2,60.1c-6.6,26.6-33.5,42.8-60.1,36.2
		C11.5,91.6-4.7,64.7,1.8,38.1"/>
	<path style="fill:#0B98D5;" d="M9.7,21.1h80.7C83.7,11.8,73.9,4.8,61.9,1.8C41.6-3.2,21.2,5.1,9.7,21.1z"/>
	<path style="fill:#0B98D5;" d="M9.7,78.9c6.6,9.3,16.5,16.3,28.4,19.3c20.3,5,40.8-3.2,52.3-19.3H9.7z"/>
</g>
<path style="fill:#0B98D5;" d="M62,45.7l-2.3-3.9h4.6L62,45.7z M59.7,58.2l2.3-3.9l2.3,3.9H59.7z M54.8,58.2h-9.6L40.5,50l4.7-8.2
	h9.6l4.7,8.2L54.8,58.2z M50,66.5l-2.4-4.1h4.7L50,66.5z M38,45.7l-2.3-3.9h4.6L38,45.7z M35.7,58.2l2.3-3.9l2.3,3.9H35.7z M50,33.5
	l2.4,4.1h-4.7L50,33.5z M64.5,50l7.2-12.4H57.3L50,25l-7.3,12.6H28.3l1.8,3.2l5.3,9.3l-7.2,12.5H32h10.7L50,75l7.3-12.6h14.4
	L64.5,50z"/>
</svg>
