<?xml version="1.0" encoding="utf-8"?>
<!-- Generator: Adobe Illustrator 21.1.0, SVG Export Plug-In . SVG Version: 6.00 Build 0)  -->
<svg version="1.1" id="Layer_1" xmlns="http://www.w3.org/2000/svg" xmlns:xlink="http://www.w3.org/1999/xlink" x="0px" y="0px"
	 viewBox="0 0 100 100" style="enable-background:new 0 0 100 100;" xml:space="preserve">
<g>
	<g>
		<path style="fill-rule:evenodd;clip-rule:evenodd;fill:#01A78D;" d="M50,99.4V0.6C22.7,0.6,0.6,22.7,0.6,49.9v0.1
			C0.6,77.3,22.7,99.4,50,99.4L50,99.4z"/>
		<path style="fill-rule:evenodd;clip-rule:evenodd;fill:#EB2227;" d="M99.4,51.1v-2.1C98.8,22.1,76.9,0.6,50,0.6h0v98.8h0
			C76.9,99.4,98.8,77.9,99.4,51.1L99.4,51.1z"/>
	</g>
	<g>
		<polyline style="fill-rule:evenodd;clip-rule:evenodd;fill:#FCEE1F;" points="21.3,50 21.3,48.5 21.4,47 21.6,45.7 21.9,44.2 
			22.2,42.8 22.6,41.5 23.1,40.1 23.5,38.8 24.2,37.5 24.8,36.3 25.5,35.1 26.2,33.9 27,32.8 27.9,31.7 28.8,30.7 29.7,29.7 
			30.7,28.8 31.8,27.8 32.9,26.9 34.1,26.2 35.2,25.4 36.4,24.7 37.7,24 38.9,23.5 40.2,22.9 41.5,22.5 42.8,22.1 44.2,21.8 
			45.7,21.5 47.1,21.4 48.6,21.3 50,21.2 51.5,21.3 52.9,21.4 54.4,21.5 55.8,21.8 57.2,22.1 58.5,22.5 59.8,22.9 61.1,23.5 
			62.4,24 63.6,24.7 64.8,25.4 66,26.2 67.1,26.9 68.2,27.8 69.3,28.8 70.3,29.7 71.2,30.7 72.1,31.7 73,32.8 73.8,33.9 74.5,35.1 
			75.3,36.3 75.8,37.5 76.5,38.8 76.9,40.1 77.4,41.5 77.8,42.8 78.1,44.2 78.4,45.7 78.6,47 78.7,48.5 78.7,50 75.1,50 75.1,48.7 
			75,47.4 74.8,46.2 74.6,44.9 74.3,43.7 74,42.5 73.6,41.3 73.1,40.2 72.6,39.1 72,38 71.5,37 70.8,36 70.1,34.9 69.3,34 
			68.6,33.1 67.8,32.2 66.9,31.3 65.9,30.6 65,29.9 64,29.1 63,28.5 62,27.8 60.8,27.3 59.7,26.8 58.6,26.4 57.4,25.9 56.2,25.6 
			55,25.3 53.8,25.1 52.5,25 51.2,24.8 50,24.8 48.7,24.8 47.5,25 46.3,25.1 45,25.3 43.8,25.6 42.6,25.9 41.4,26.4 40.3,26.8 
			39.1,27.3 38,27.8 37,28.5 36,29.1 35,29.9 34.1,30.6 33.1,31.3 32.3,32.2 31.5,33.1 30.6,34 29.9,34.9 29.2,36 28.5,37 28,38 
			27.4,39.1 26.9,40.2 26.4,41.3 26,42.5 25.7,43.7 25.4,44.9 25.2,46.2 25,47.4 24.9,48.7 24.9,50 21.3,50 		"/>
		<polyline style="fill-rule:evenodd;clip-rule:evenodd;fill:#FCEE1F;" points="21.3,50.2 21.3,50 24.9,50 24.9,50.2 21.3,50.2 		
			"/>
		<polyline style="fill-rule:evenodd;clip-rule:evenodd;fill:#FCEE1F;" points="75.1,50.2 75.1,50 78.7,50 78.7,50.2 75.1,50.2 		
			"/>
		<polyline style="fill-rule:evenodd;clip-rule:evenodd;fill:#FCEE1F;" points="21.3,50.2 21.3,51.5 21.4,53 21.6,54.3 21.9,55.8 
			22.2,57.2 22.6,58.5 23.1,59.9 23.5,61.2 24.2,62.5 24.8,63.7 25.5,64.9 26.2,66.1 27,67.2 27.9,68.3 28.8,69.3 29.7,70.3 
			30.7,71.2 31.8,72.2 32.9,73.1 34.1,73.8 35.2,74.6 36.4,75.3 37.7,76 38.9,76.5 40.2,77.1 41.5,77.5 42.8,77.9 44.2,78.2 
			45.7,78.5 47.1,78.6 48.6,78.7 50,78.8 51.5,78.7 52.9,78.6 54.4,78.5 55.8,78.2 57.2,77.9 58.5,77.5 59.8,77.1 61.1,76.5 
			62.4,76 63.6,75.3 64.8,74.6 66,73.8 67.1,73.1 68.2,72.2 69.3,71.2 70.3,70.3 71.2,69.3 72.1,68.3 73,67.2 73.8,66.1 74.5,64.9 
			75.3,63.7 75.8,62.5 76.5,61.2 76.9,59.9 77.4,58.5 77.8,57.2 78.1,55.8 78.4,54.3 78.6,53 78.7,51.5 78.7,50.2 75.1,50.2 
			75.1,51.3 75,52.6 74.8,53.8 74.6,55.1 74.3,56.3 74,57.5 73.6,58.7 73.1,59.8 72.6,60.9 72,62 71.5,63 70.8,64 70.1,65.1 
			69.3,66 68.6,66.9 67.8,67.8 66.9,68.7 65.9,69.4 65,70.1 64,70.9 63,71.5 62,72.2 60.8,72.7 59.7,73.2 58.6,73.6 57.4,74.1 
			56.2,74.4 55,74.7 53.8,74.9 52.5,75.1 51.2,75.2 50,75.2 48.7,75.2 47.5,75.1 46.3,74.9 45,74.7 43.8,74.4 42.6,74.1 41.4,73.6 
			40.3,73.2 39.1,72.7 38,72.2 37,71.5 36,70.9 35,70.1 34.1,69.4 33.1,68.7 32.3,67.8 31.5,66.9 30.6,66 29.9,65.1 29.2,64 
			28.5,63 28,62 27.4,60.9 26.9,59.8 26.4,58.7 26,57.5 25.7,56.3 25.4,55.1 25.2,53.8 25,52.6 24.9,51.3 24.9,50.2 21.3,50.2 		"/>
		<polyline style="fill:none;stroke:#231F20;stroke-width:5.541564e-02;stroke-miterlimit:3.8637;" points="50,24.8 51.2,24.8 
			52.5,25 53.8,25.1 55,25.3 56.2,25.6 57.4,25.9 58.6,26.4 59.7,26.8 60.8,27.3 62,27.8 63,28.5 64,29.1 65,29.9 65.9,30.6 
			66.9,31.3 67.8,32.2 68.6,33.1 69.3,34 70.1,34.9 70.8,36 71.5,37 72,38 72.6,39.1 73.1,40.2 73.6,41.3 74,42.5 74.3,43.7 
			74.6,44.9 74.8,46.2 75,47.4 75.1,48.7 75.1,50 75.1,51.3 75,52.6 74.8,53.8 74.6,55.1 74.3,56.3 74,57.5 73.6,58.7 73.1,59.8 
			72.6,60.9 72,62 71.5,63 70.8,64 70.1,65.1 69.3,66 68.6,66.9 67.8,67.8 66.9,68.7 65.9,69.4 65,70.1 64,70.9 63,71.5 62,72.2 
			60.8,72.7 59.7,73.2 58.6,73.6 57.4,74.1 56.2,74.4 55,74.7 53.8,74.9 52.5,75.1 51.2,75.2 50,75.2 48.7,75.2 47.5,75.1 
			46.3,74.9 45,74.7 43.8,74.4 42.6,74.1 41.4,73.6 40.3,73.2 39.1,72.7 38,72.2 37,71.5 36,70.9 35,70.1 34.1,69.4 33.1,68.7 
			32.3,67.8 31.5,66.9 30.6,66 29.9,65.1 29.2,64 28.5,63 28,62 27.4,60.9 26.9,59.8 26.4,58.7 26,57.5 25.7,56.3 25.4,55.1 
			25.2,53.8 25,52.6 24.9,51.3 24.9,50 24.9,48.7 25,47.4 25.2,46.2 25.4,44.9 25.7,43.7 26,42.5 26.4,41.3 26.9,40.2 27.4,39.1 
			28,38 28.5,37 29.2,36 29.9,34.9 30.6,34 31.5,33.1 32.3,32.2 33.1,31.3 34.1,30.6 35,29.9 36,29.1 37,28.5 38,27.8 39.1,27.3 
			40.3,26.8 41.4,26.4 42.6,25.9 43.8,25.6 45,25.3 46.3,25.1 47.5,25 48.7,24.8 50,24.8 		"/>
		<polyline style="fill:none;stroke:#231F20;stroke-width:5.541564e-02;stroke-miterlimit:3.8637;" points="50,21.2 51.5,21.3 
			52.9,21.4 54.4,21.5 55.8,21.8 57.2,22.1 58.5,22.5 59.8,22.9 61.1,23.5 62.4,24 63.6,24.7 64.8,25.4 66,26.2 67.1,26.9 
			68.2,27.8 69.3,28.8 70.3,29.7 71.2,30.7 72.1,31.7 73,32.8 73.8,33.9 74.5,35.1 75.3,36.3 75.8,37.5 76.5,38.8 76.9,40.1 
			77.4,41.5 77.8,42.8 78.1,44.2 78.4,45.7 78.6,47 78.7,48.5 78.7,50 78.7,51.5 78.6,53 78.4,54.3 78.1,55.8 77.8,57.2 77.4,58.5 
			76.9,59.9 76.5,61.2 75.8,62.5 75.3,63.7 74.5,64.9 73.8,66.1 73,67.2 72.1,68.3 71.2,69.3 70.3,70.3 69.3,71.2 68.2,72.2 
			67.1,73.1 66,73.8 64.8,74.6 63.6,75.3 62.4,76 61.1,76.5 59.8,77.1 58.5,77.5 57.2,77.9 55.8,78.2 54.4,78.5 52.9,78.6 
			51.5,78.7 50,78.8 48.6,78.7 47.1,78.6 45.7,78.5 44.2,78.2 42.8,77.9 41.5,77.5 40.2,77.1 38.9,76.5 37.7,76 36.4,75.3 
			35.2,74.6 34.1,73.8 32.9,73.1 31.8,72.2 30.7,71.2 29.7,70.3 28.8,69.3 27.9,68.3 27,67.2 26.2,66.1 25.5,64.9 24.8,63.7 
			24.2,62.5 23.5,61.2 23.1,59.9 22.6,58.5 22.2,57.2 21.9,55.8 21.6,54.3 21.4,53 21.3,51.5 21.3,50 21.3,48.5 21.4,47 21.6,45.7 
			21.9,44.2 22.2,42.8 22.6,41.5 23.1,40.1 23.5,38.8 24.2,37.5 24.8,36.3 25.5,35.1 26.2,33.9 27,32.8 27.9,31.7 28.8,30.7 
			29.7,29.7 30.7,28.8 31.8,27.8 32.9,26.9 34.1,26.2 35.2,25.4 36.4,24.7 37.7,24 38.9,23.5 40.2,22.9 41.5,22.5 42.8,22.1 
			44.2,21.8 45.7,21.5 47.1,21.4 48.6,21.3 50,21.2 		"/>
		<polyline style="fill-rule:evenodd;clip-rule:evenodd;fill:#FCEE1F;" points="75.2,36.3 76.6,39.1 74.7,38.5 73,38 71.2,37.5 
			69.4,37.1 67.7,36.6 66,36.2 64.3,35.8 62.6,35.5 60.9,35.1 59.4,34.8 57.7,34.6 56,34.4 54.5,34.2 52.9,34 51.2,33.9 49.7,33.8 
			48.1,33.8 46.5,33.8 44.9,33.8 43.3,33.8 41.7,34 40.2,34.1 38.6,34.3 37,34.6 35.4,34.8 33.8,35.1 32.2,35.5 30.6,35.9 29,36.3 
			27.3,36.8 25.7,37.3 24,37.9 25.3,35.5 26.8,34.9 28.2,34.4 29.8,33.9 31.3,33.5 32.9,33.1 34.3,32.7 35.9,32.4 37.4,32.2 
			39,31.9 40.4,31.7 42,31.5 43.6,31.4 45.1,31.3 46.7,31.3 48.2,31.3 49.8,31.3 51.3,31.4 52.9,31.5 54.5,31.7 56,31.9 57.6,32.1 
			59.2,32.3 60.8,32.5 62.4,32.9 64,33.2 65.6,33.6 67.1,33.9 68.8,34.4 70.4,34.8 71.9,35.3 73.6,35.8 75.2,36.3 		"/>
		<polyline style="fill:none;stroke:#231F20;stroke-width:5.541564e-02;stroke-miterlimit:3.8637;" points="75.2,36.3 76.6,39.1 
			74.7,38.5 73,38 71.2,37.5 69.4,37.1 67.7,36.6 66,36.2 64.3,35.8 62.6,35.5 60.9,35.1 59.4,34.8 57.7,34.6 56,34.4 54.5,34.2 
			52.9,34 51.2,33.9 49.7,33.8 48.1,33.8 46.5,33.8 44.9,33.8 43.3,33.8 41.7,34 40.2,34.1 38.6,34.3 37,34.6 35.4,34.8 33.8,35.1 
			32.2,35.5 30.6,35.9 29,36.3 27.3,36.8 25.7,37.3 24,37.9 25.3,35.5 26.8,34.9 28.2,34.4 29.8,33.9 31.3,33.5 32.9,33.1 
			34.3,32.7 35.9,32.4 37.4,32.2 39,31.9 40.4,31.7 42,31.5 43.6,31.4 45.1,31.3 46.7,31.3 48.2,31.3 49.8,31.3 51.3,31.4 
			52.9,31.5 54.5,31.7 56,31.9 57.6,32.1 59.2,32.3 60.8,32.5 62.4,32.9 64,33.2 65.6,33.6 67.1,33.9 68.8,34.4 70.4,34.8 
			71.9,35.3 73.6,35.8 75.2,36.3 		"/>
		<polyline style="fill-rule:evenodd;clip-rule:evenodd;fill:#FCEE1F;" points="75.2,49.4 75,52.3 73.5,52.8 72,53.1 70.5,53.6 
			69,54 67.5,54.2 65.9,54.6 64.5,54.9 62.9,55.2 61.3,55.4 59.7,55.5 58.2,55.7 56.6,55.8 55,55.9 53.4,56 51.8,56.1 50.2,56.1 
			48.6,56.1 47,56 45.4,55.9 43.8,55.8 42.2,55.7 40.6,55.5 39,55.4 37.4,55.2 35.8,54.9 34.2,54.6 32.7,54.2 31.1,54 29.5,53.6 
			28,53.1 26.5,52.8 24.9,52.3 24.8,49.4 26.3,49.9 27.8,50.3 29.3,50.7 30.9,51.1 32.4,51.4 34.1,51.8 35.6,51.9 37.1,52.2 
			38.8,52.4 40.3,52.6 41.9,52.8 43.6,52.9 45.1,53 46.7,53 48.4,53 49.9,53 51.6,53 53.2,53 54.8,52.9 56.4,52.8 58,52.7 
			59.6,52.5 61.2,52.3 62.8,52 64.4,51.8 65.9,51.6 67.5,51.3 69.1,50.9 70.6,50.6 72.1,50.3 73.7,49.9 75.2,49.4 		"/>
		<polyline style="fill:none;stroke:#231F20;stroke-width:5.541564e-02;stroke-miterlimit:3.8637;" points="75.2,49.4 75,52.3 
			73.5,52.8 72,53.1 70.5,53.6 69,54 67.5,54.2 65.9,54.6 64.5,54.9 62.9,55.2 61.3,55.4 59.7,55.5 58.2,55.7 56.6,55.8 55,55.9 
			53.4,56 51.8,56.1 50.2,56.1 48.6,56.1 47,56 45.4,55.9 43.8,55.8 42.2,55.7 40.6,55.5 39,55.4 37.4,55.2 35.8,54.9 34.2,54.6 
			32.7,54.2 31.1,54 29.5,53.6 28,53.1 26.5,52.8 24.9,52.3 24.8,49.4 26.3,49.9 27.8,50.3 29.3,50.7 30.9,51.1 32.4,51.4 
			34.1,51.8 35.6,51.9 37.1,52.2 38.8,52.4 40.3,52.6 41.9,52.8 43.6,52.9 45.1,53 46.7,53 48.4,53 49.9,53 51.6,53 53.2,53 
			54.8,52.9 56.4,52.8 58,52.7 59.6,52.5 61.2,52.3 62.8,52 64.4,51.8 65.9,51.6 67.5,51.3 69.1,50.9 70.6,50.6 72.1,50.3 
			73.7,49.9 75.2,49.4 		"/>
		<polyline style="fill-rule:evenodd;clip-rule:evenodd;fill:#FCEE1F;" points="71.5,63.1 69.7,65.7 68.4,66 67.1,66.3 65.9,66.4 
			64.6,66.7 63.4,66.9 62.1,67 60.9,67.2 59.6,67.3 58.4,67.4 57.2,67.5 56,67.6 54.8,67.6 53.6,67.6 52.4,67.6 51.1,67.6 
			49.9,67.6 48.7,67.6 47.5,67.6 46.3,67.5 45.1,67.4 43.8,67.4 42.6,67.2 41.4,67.1 40.2,67 39,66.8 37.8,66.7 36.6,66.5 
			35.3,66.4 34.1,66.3 32.9,66.1 31.6,65.9 30.4,65.7 28.5,63 29.9,63.2 31.2,63.5 32.5,63.6 33.9,63.8 35.2,63.9 36.5,64 
			37.8,64.2 39.1,64.3 40.4,64.4 41.8,64.5 43.1,64.6 44.4,64.7 45.8,64.8 47.1,64.8 48.5,64.9 49.8,64.9 51.1,64.9 52.4,64.9 
			53.7,64.9 55.1,64.8 56.5,64.8 57.8,64.7 59.2,64.6 60.5,64.5 61.9,64.4 63.3,64.2 64.5,64.1 65.9,63.9 67.3,63.8 68.7,63.6 
			70.1,63.3 71.5,63.1 		"/>
		<polyline style="fill:none;stroke:#231F20;stroke-width:5.541564e-02;stroke-miterlimit:3.8637;" points="71.5,63.1 69.7,65.7 
			68.4,66 67.1,66.3 65.9,66.4 64.6,66.7 63.4,66.9 62.1,67 60.9,67.2 59.6,67.3 58.4,67.4 57.2,67.5 56,67.6 54.8,67.6 53.6,67.6 
			52.4,67.6 51.1,67.6 49.9,67.6 48.7,67.6 47.5,67.6 46.3,67.5 45.1,67.4 43.8,67.4 42.6,67.2 41.4,67.1 40.2,67 39,66.8 
			37.8,66.7 36.6,66.5 35.3,66.4 34.1,66.3 32.9,66.1 31.6,65.9 30.4,65.7 28.5,63 29.9,63.2 31.2,63.5 32.5,63.6 33.9,63.8 
			35.2,63.9 36.5,64 37.8,64.2 39.1,64.3 40.4,64.4 41.8,64.5 43.1,64.6 44.4,64.7 45.8,64.8 47.1,64.8 48.5,64.9 49.8,64.9 
			51.1,64.9 52.4,64.9 53.7,64.9 55.1,64.8 56.5,64.8 57.8,64.7 59.2,64.6 60.5,64.5 61.9,64.4 63.3,64.2 64.5,64.1 65.9,63.9 
			67.3,63.8 68.7,63.6 70.1,63.3 71.5,63.1 		"/>
		<polyline style="fill-rule:evenodd;clip-rule:evenodd;fill:#FCEE1F;" points="76.2,61.9 74.8,64.5 73.4,63.9 71.9,63.2 70.5,62.7 
			69,62.1 67.4,61.6 65.8,61.3 64.3,60.9 62.7,60.5 61.1,60.2 59.5,59.9 57.9,59.7 56.2,59.5 54.6,59.4 52.9,59.3 51.2,59.2 
			49.6,59.2 47.9,59.2 46.3,59.3 44.7,59.4 43,59.6 41.5,59.8 39.9,60 38.3,60.3 36.7,60.5 35.2,60.9 33.7,61.3 32.2,61.7 
			30.7,62.2 29.3,62.7 28,63.3 26.6,63.9 25.3,64.6 25,64.1 24.8,63.8 24.6,63.5 24.5,63.1 24.3,62.7 24.1,62.3 23.9,61.9 
			23.7,61.5 25.1,60.9 26.6,60.3 28.1,59.8 29.6,59.3 31.2,58.9 32.9,58.5 34.4,58 36.1,57.8 37.8,57.4 39.5,57.1 41.2,56.9 
			42.9,56.7 44.6,56.6 46.3,56.5 48.1,56.4 49.9,56.3 51.6,56.3 53.4,56.4 55.1,56.5 56.8,56.6 58.5,56.7 60.3,57 62,57.3 
			63.6,57.6 65.3,57.9 66.9,58.3 68.5,58.8 70.1,59.3 71.7,59.9 73.2,60.5 74.7,61.2 76.2,61.9 		"/>
		<polyline style="fill:none;stroke:#231F20;stroke-width:5.541564e-02;stroke-miterlimit:3.8637;" points="76.2,61.9 74.8,64.5 
			73.4,63.9 71.9,63.2 70.5,62.7 69,62.1 67.4,61.6 65.8,61.3 64.3,60.9 62.7,60.5 61.1,60.2 59.5,59.9 57.9,59.7 56.2,59.5 
			54.6,59.4 52.9,59.3 51.2,59.2 49.6,59.2 47.9,59.2 46.3,59.3 44.7,59.4 43,59.6 41.5,59.8 39.9,60 38.3,60.3 36.7,60.5 
			35.2,60.9 33.7,61.3 32.2,61.7 30.7,62.2 29.3,62.7 28,63.3 26.6,63.9 25.3,64.6 25,64.1 24.8,63.8 24.6,63.5 24.5,63.1 
			24.3,62.7 24.1,62.3 23.9,61.9 23.7,61.5 25.1,60.9 26.6,60.3 28.1,59.8 29.6,59.3 31.2,58.9 32.9,58.5 34.4,58 36.1,57.8 
			37.8,57.4 39.5,57.1 41.2,56.9 42.9,56.7 44.6,56.6 46.3,56.5 48.1,56.4 49.9,56.3 51.6,56.3 53.4,56.4 55.1,56.5 56.8,56.6 
			58.5,56.7 60.3,57 62,57.3 63.6,57.6 65.3,57.9 66.9,58.3 68.5,58.8 70.1,59.3 71.7,59.9 73.2,60.5 74.7,61.2 76.2,61.9 		"/>
		<polyline style="fill-rule:evenodd;clip-rule:evenodd;fill:#FCEE1F;" points="78.6,47.5 78.7,50.6 77,49.9 75.3,49.4 73.5,48.9 
			71.8,48.4 69.9,48 68.1,47.6 66.4,47.2 64.5,47 62.8,46.7 60.9,46.4 59.1,46.2 57.3,46.1 55.5,46 53.6,45.9 51.8,45.8 50,45.8 
			48.2,45.9 46.3,46 44.5,46 42.7,46.2 40.9,46.4 39,46.6 37.3,46.9 35.4,47.1 33.6,47.4 31.8,47.7 30.1,48.1 28.2,48.4 26.6,48.9 
			24.7,49.4 23,49.8 21.3,50.3 21.4,47.2 23.2,46.8 24.9,46.3 26.6,45.9 28.4,45.6 30.2,45.2 31.9,44.9 33.7,44.5 35.4,44.3 
			37.3,44.1 39,43.8 40.9,43.6 42.7,43.5 44.4,43.3 46.3,43.3 48,43.2 49.9,43.2 51.7,43.2 53.5,43.2 55.3,43.3 57.1,43.3 
			58.9,43.5 60.7,43.6 62.5,43.8 64.3,44.1 66.1,44.4 67.9,44.7 69.7,45.1 71.5,45.5 73.3,45.9 75.1,46.4 76.8,47 78.6,47.5 		"/>
		<polyline style="fill:none;stroke:#231F20;stroke-width:5.541564e-02;stroke-miterlimit:3.8637;" points="78.6,47.5 78.7,50.6 
			77,49.9 75.3,49.4 73.5,48.9 71.8,48.4 69.9,48 68.1,47.6 66.4,47.2 64.5,47 62.8,46.7 60.9,46.4 59.1,46.2 57.3,46.1 55.5,46 
			53.6,45.9 51.8,45.8 50,45.8 48.2,45.9 46.3,46 44.5,46 42.7,46.2 40.9,46.4 39,46.6 37.3,46.9 35.4,47.1 33.6,47.4 31.8,47.7 
			30.1,48.1 28.2,48.4 26.6,48.9 24.7,49.4 23,49.8 21.3,50.3 21.4,47.2 23.2,46.8 24.9,46.3 26.6,45.9 28.4,45.6 30.2,45.2 
			31.9,44.9 33.7,44.5 35.4,44.3 37.3,44.1 39,43.8 40.9,43.6 42.7,43.5 44.4,43.3 46.3,43.3 48,43.2 49.9,43.2 51.7,43.2 
			53.5,43.2 55.3,43.3 57.1,43.3 58.9,43.5 60.7,43.6 62.5,43.8 64.3,44.1 66.1,44.4 67.9,44.7 69.7,45.1 71.5,45.5 73.3,45.9 
			75.1,46.4 76.8,47 78.6,47.5 		"/>
		<polyline style="fill-rule:evenodd;clip-rule:evenodd;fill:#FCEE1F;" points="28,38 29.3,38.4 30.6,38.7 31.8,39 33.1,39.3 
			34.4,39.5 35.7,39.7 37.1,39.9 38.4,40.1 39.7,40.3 41,40.4 42.4,40.6 43.7,40.7 45.1,40.8 46.4,40.8 47.7,40.8 49.1,40.8 
			50.5,40.8 51.9,40.8 53.3,40.8 54.7,40.7 56,40.6 57.4,40.4 58.9,40.3 60.3,40.1 61.8,39.9 63.2,39.7 64.6,39.5 66.1,39.3 
			67.6,39 69.1,38.7 70.6,38.4 72.1,38 73.2,40.6 72.1,40.8 70.9,41 69.6,41.2 68.4,41.4 67.1,41.6 65.7,41.9 64.5,42.1 63.1,42.1 
			61.7,42.3 60.3,42.5 58.9,42.7 57.4,42.8 56,42.9 54.5,43 53,43.1 51.5,43.2 49.9,43.2 48.5,43.2 46.9,43.2 45.4,43.2 43.9,43.1 
			42.3,43 40.7,42.9 39.1,42.8 37.6,42.6 36,42.4 34.4,42.2 33,42 31.4,41.7 29.8,41.3 28.2,40.9 26.8,40.6 26.9,40.2 26.9,39.9 
			27.1,39.7 27.2,39.3 27.4,39 27.6,38.6 27.8,38.4 28,38 		"/>
		<polyline style="fill:none;stroke:#231F20;stroke-width:5.541564e-02;stroke-miterlimit:3.8637;" points="28,38 29.3,38.4 
			30.6,38.7 31.8,39 33.1,39.3 34.4,39.5 35.7,39.7 37.1,39.9 38.4,40.1 39.7,40.3 41,40.4 42.4,40.6 43.7,40.7 45.1,40.8 
			46.4,40.8 47.7,40.8 49.1,40.8 50.5,40.8 51.9,40.8 53.3,40.8 54.7,40.7 56,40.6 57.4,40.4 58.9,40.3 60.3,40.1 61.8,39.9 
			63.2,39.7 64.6,39.5 66.1,39.3 67.6,39 69.1,38.7 70.6,38.4 72.1,38 73.2,40.6 72.1,40.8 70.9,41 69.6,41.2 68.4,41.4 67.1,41.6 
			65.7,41.9 64.5,42.1 63.1,42.1 61.7,42.3 60.3,42.5 58.9,42.7 57.4,42.8 56,42.9 54.5,43 53,43.1 51.5,43.2 49.9,43.2 48.5,43.2 
			46.9,43.2 45.4,43.2 43.9,43.1 42.3,43 40.7,42.9 39.1,42.8 37.6,42.6 36,42.4 34.4,42.2 33,42 31.4,41.7 29.8,41.3 28.2,40.9 
			26.8,40.6 26.9,40.2 26.9,39.9 27.1,39.7 27.2,39.3 27.4,39 27.6,38.6 27.8,38.4 28,38 		"/>
		<polyline style="fill-rule:evenodd;clip-rule:evenodd;fill:#FCEE1F;" points="53.1,25 52.7,25 52.4,24.9 52,24.9 51.6,24.9 
			51.2,24.8 50.8,24.8 50.4,24.8 50,24.8 49.6,24.8 49.2,24.8 48.8,24.8 48.5,24.8 48,24.9 47.6,24.9 47.3,25 46.9,25 46.9,75 
			47.3,75 47.6,75.1 48,75.1 48.5,75.1 48.7,75.1 49.2,75.2 49.6,75.2 49.9,75.2 50.3,75.2 50.7,75.2 51.1,75.1 51.5,75.1 
			51.9,75.1 52.3,75.1 52.6,75 53.1,75 53.1,25 		"/>
		<polyline style="fill:none;stroke:#231F20;stroke-width:5.541564e-02;stroke-miterlimit:3.8637;" points="53.1,25 52.7,25 
			52.4,24.9 52,24.9 51.6,24.9 51.2,24.8 50.8,24.8 50.4,24.8 50,24.8 49.6,24.8 49.2,24.8 48.8,24.8 48.5,24.8 48,24.9 47.6,24.9 
			47.3,25 46.9,25 46.9,75 47.3,75 47.6,75.1 48,75.1 48.5,75.1 48.7,75.1 49.2,75.2 49.6,75.2 49.9,75.2 50.3,75.2 50.7,75.2 
			51.1,75.1 51.5,75.1 51.9,75.1 52.3,75.1 52.6,75 53.1,75 53.1,25 		"/>
		<polyline style="fill-rule:evenodd;clip-rule:evenodd;fill:#FCEE1F;" points="23.8,38.1 74.6,64.7 76.6,61.1 25.7,34.7 23.8,38.1 
					"/>
		<polyline style="fill:none;stroke:#231F20;stroke-width:5.541564e-02;stroke-miterlimit:3.8637;" points="23.8,38.1 74.6,64.7 
			76.6,61.1 25.7,34.7 23.8,38.1 		"/>
		<polyline style="fill-rule:evenodd;clip-rule:evenodd;fill:#EB2227;" points="63.3,57.7 62.8,58.6 62.2,59.5 61.6,60.4 60.9,61.3 
			60.2,62.1 59.5,62.8 58.6,63.6 57.8,64.2 56.9,64.9 56,65.5 55,66.1 54.1,66.6 53.1,67.2 52,67.6 51,68.1 49.9,68.5 48.7,68.1 
			47.5,67.6 46.3,67.1 45.3,66.6 44.3,66.1 43.3,65.4 42.4,64.9 41.5,64.1 40.7,63.5 39.9,62.7 39.2,62 38.5,61.3 37.9,60.4 
			37.5,59.6 37,58.8 36.6,57.9 36.6,31.5 63.3,31.5 63.3,57.7 		"/>
		<polyline style="fill:none;stroke:#FFFFFF;stroke-width:0.739;stroke-miterlimit:3.8637;" points="63.3,57.7 62.8,58.6 62.2,59.5 
			61.6,60.4 60.9,61.3 60.2,62.1 59.5,62.8 58.6,63.6 57.8,64.2 56.9,64.9 56,65.5 55,66.1 54.1,66.6 53.1,67.2 52,67.6 51,68.1 
			49.9,68.5 48.7,68.1 47.5,67.6 46.3,67.1 45.3,66.6 44.3,66.1 43.3,65.4 42.4,64.9 41.5,64.1 40.7,63.5 39.9,62.7 39.2,62 
			38.5,61.3 37.9,60.4 37.5,59.6 37,58.8 36.6,57.9 36.6,31.5 63.3,31.5 63.3,57.7 		"/>
		<polyline style="fill-rule:evenodd;clip-rule:evenodd;fill:#FFFFFF;" points="42.4,38.3 57.4,38.2 57.4,56 57.2,56.6 56.9,57.1 
			56.5,57.6 56.1,58 55.7,58.5 55.2,59 54.8,59.4 54.3,59.8 53.7,60.2 53.3,60.4 52.7,60.8 52.2,61.1 51.7,61.3 51.2,61.5 
			50.7,61.7 50.1,61.8 49.5,61.7 48.9,61.5 48.3,61.3 47.7,61 47.2,60.7 46.6,60.4 46.1,60.1 45.6,59.7 45.1,59.3 44.6,58.9 
			44.2,58.5 43.8,58 43.4,57.7 43,57.2 42.7,56.8 42.4,56.4 42.4,38.3 		"/>
		<polyline style="fill:none;stroke:#FCEE1F;stroke-width:5.541564e-02;stroke-miterlimit:3.8637;" points="42.4,38.3 57.4,38.2 
			57.4,56 57.2,56.6 56.9,57.1 56.5,57.6 56.1,58 55.7,58.5 55.2,59 54.8,59.4 54.3,59.8 53.7,60.2 53.3,60.4 52.7,60.8 52.2,61.1 
			51.7,61.3 51.2,61.5 50.7,61.7 50.1,61.8 49.5,61.7 48.9,61.5 48.3,61.3 47.7,61 47.2,60.7 46.6,60.4 46.1,60.1 45.6,59.7 
			45.1,59.3 44.6,58.9 44.2,58.5 43.8,58 43.4,57.7 43,57.2 42.7,56.8 42.4,56.4 42.4,38.3 		"/>
		<polyline style="fill-rule:evenodd;clip-rule:evenodd;fill:#29ABE2;" points="43.5,50.2 43.5,47.7 46.9,47.7 46.9,50.2 43.5,50.2 
					"/>
		<polyline style="fill-rule:evenodd;clip-rule:evenodd;fill:#29ABE2;" points="48.2,50.2 48.2,47.7 51.7,47.7 51.7,50.2 48.2,50.2 
					"/>
		<polyline style="fill-rule:evenodd;clip-rule:evenodd;fill:#29ABE2;" points="53.2,50.2 53.2,47.7 56.6,47.7 56.6,50.2 53.2,50.2 
					"/>
		<polyline style="fill-rule:evenodd;clip-rule:evenodd;fill:#29ABE2;" points="48.2,40.7 51.7,40.7 51.7,44.1 51.5,44.4 51.3,44.5 
			51.2,44.7 51,44.9 50.7,45.1 50.4,45.2 50.1,45.3 49.9,45.4 49.7,45.3 49.4,45.2 49.1,45.1 48.9,44.9 48.7,44.7 48.5,44.6 
			48.4,44.4 48.2,44.2 48.2,40.7 		"/>
		<polyline style="fill-rule:evenodd;clip-rule:evenodd;fill:#29ABE2;" points="43.5,50.2 43.5,51.2 43.6,51.4 43.8,51.6 43.9,51.8 
			44.1,51.9 44.4,52.1 44.6,52.2 44.9,52.3 45.1,52.4 45.4,52.3 45.7,52.2 46,52.1 46.2,51.9 46.4,51.8 46.6,51.6 46.8,51.4 
			46.9,51.1 46.9,50.2 43.5,50.2 		"/>
		<polyline style="fill-rule:evenodd;clip-rule:evenodd;fill:#29ABE2;" points="48.2,50.2 48.2,51.2 48.4,51.4 48.5,51.6 48.7,51.8 
			48.9,51.9 49.1,52.1 49.4,52.2 49.7,52.3 49.9,52.4 50.1,52.3 50.4,52.2 50.7,52.1 51,51.9 51.2,51.8 51.3,51.6 51.5,51.4 
			51.7,51.1 51.7,50.2 48.2,50.2 		"/>
		<polyline style="fill-rule:evenodd;clip-rule:evenodd;fill:#29ABE2;" points="53.2,50.2 53.2,51.2 53.3,51.4 53.5,51.6 53.6,51.8 
			53.8,51.9 54,52.1 54.3,52.2 54.6,52.3 54.8,52.4 55.1,52.3 55.4,52.2 55.7,52.1 55.9,51.9 56.1,51.8 56.3,51.6 56.5,51.4 
			56.6,51.1 56.6,50.2 53.2,50.2 		"/>
		<polyline style="fill-rule:evenodd;clip-rule:evenodd;fill:#29ABE2;" points="48.2,54.6 51.7,54.6 51.7,58 51.5,58.2 51.3,58.4 
			51.2,58.7 51,58.8 50.7,59 50.4,59.1 50.1,59.2 49.9,59.3 49.7,59.2 49.4,59.1 49.1,59.1 48.9,58.9 48.7,58.7 48.5,58.5 
			48.4,58.3 48.2,58.1 48.2,54.6 		"/>
		<polyline style="fill:none;stroke:#FCEE1F;stroke-width:5.541564e-02;stroke-miterlimit:3.8637;" points="48.2,47.7 51.7,47.7 
			51.7,51.1 51.5,51.4 51.3,51.6 51.2,51.8 51,51.9 50.7,52.1 50.4,52.2 50.1,52.3 49.9,52.4 49.7,52.3 49.4,52.2 49.1,52.1 
			48.9,51.9 48.7,51.8 48.5,51.6 48.4,51.4 48.2,51.2 48.2,47.7 		"/>
		<polyline style="fill:none;stroke:#FCEE1F;stroke-width:5.541564e-02;stroke-miterlimit:3.8637;" points="53.2,47.7 56.6,47.7 
			56.6,51.1 56.5,51.4 56.3,51.6 56.1,51.8 55.9,51.9 55.7,52.1 55.4,52.2 55.1,52.3 54.8,52.4 54.6,52.3 54.3,52.2 54,52.1 
			53.8,51.9 53.6,51.8 53.5,51.6 53.3,51.4 53.2,51.2 53.2,47.7 		"/>
		<polyline style="fill:none;stroke:#FCEE1F;stroke-width:5.541564e-02;stroke-miterlimit:3.8637;" points="48.2,54.6 51.7,54.6 
			51.7,58 51.5,58.2 51.3,58.4 51.2,58.7 51,58.8 50.7,59 50.4,59.1 50.1,59.2 49.9,59.3 49.7,59.2 49.4,59.1 49.1,59.1 48.9,58.9 
			48.7,58.7 48.5,58.5 48.4,58.3 48.2,58.1 48.2,54.6 		"/>
		<polyline style="fill:none;stroke:#FCEE1F;stroke-width:5.541564e-02;stroke-miterlimit:3.8637;" points="43.5,47.7 46.9,47.7 
			46.9,51.1 46.8,51.4 46.6,51.6 46.4,51.8 46.2,51.9 46,52.1 45.7,52.2 45.4,52.3 45.1,52.4 44.9,52.3 44.6,52.2 44.4,52.1 
			44.1,51.9 43.9,51.8 43.8,51.6 43.6,51.4 43.5,51.2 43.5,47.7 		"/>
		<polyline style="fill:none;stroke:#FCEE1F;stroke-width:5.541564e-02;stroke-miterlimit:3.8637;" points="48.2,40.7 51.7,40.7 
			51.7,44.1 51.5,44.4 51.3,44.5 51.2,44.7 51,44.9 50.7,45.1 50.4,45.2 50.1,45.3 49.9,45.4 49.7,45.3 49.4,45.2 49.1,45.1 
			48.9,44.9 48.7,44.7 48.5,44.6 48.4,44.4 48.2,44.2 48.2,40.7 		"/>
		<polyline style="fill-rule:evenodd;clip-rule:evenodd;fill:#FCEE1F;" points="37.8,35.3 38,33.3 37.4,32.7 38.5,32.7 38.7,32.6 
			38.9,32.4 39.1,32.4 39.5,32.4 39.8,32.4 40.2,32.4 40.3,32.6 40.5,32.7 41.6,32.7 41,33.3 41.4,35.3 40.8,35.3 40.7,34.5 
			38.4,34.5 38.2,35.3 37.8,35.3 		"/>
		<polyline style="fill-rule:evenodd;clip-rule:evenodd;fill:#FCEE1F;" points="48.2,35.3 48.6,33.3 47.9,32.7 49,32.7 49.1,32.6 
			49.4,32.4 49.7,32.4 49.9,32.4 50.3,32.4 50.6,32.4 50.9,32.6 51.1,32.7 52.1,32.7 51.5,33.3 51.8,35.3 51.3,35.3 51.2,34.5 
			48.8,34.5 48.7,35.3 48.2,35.3 		"/>
		<polyline style="fill-rule:evenodd;clip-rule:evenodd;fill:#FCEE1F;" points="58.4,35.3 58.7,33.3 58.1,32.7 59.2,32.7 59.3,32.6 
			59.6,32.4 59.8,32.4 60.1,32.4 60.5,32.4 60.8,32.4 61,32.6 61.2,32.7 62.3,32.7 61.7,33.3 62.1,35.3 61.5,35.3 61.4,34.5 
			59,34.5 58.9,35.3 58.4,35.3 		"/>
		<polyline style="fill-rule:evenodd;clip-rule:evenodd;fill:#FCEE1F;" points="37.8,47.7 38,45.7 37.4,45.1 38.5,45.1 38.7,44.9 
			38.9,44.8 39.1,44.7 39.5,44.7 39.8,44.7 40.2,44.8 40.3,44.9 40.5,45.1 41.6,45.1 41,45.7 41.4,47.7 40.8,47.7 40.7,46.9 
			38.4,46.9 38.2,47.7 37.8,47.7 		"/>
		<polyline style="fill-rule:evenodd;clip-rule:evenodd;fill:#FCEE1F;" points="58.4,47.7 58.7,45.3 58.1,44.7 59.2,44.7 59.3,44.5 
			59.6,44.5 59.8,44.4 60.1,44.4 60.5,44.4 60.8,44.4 61,44.5 61.2,44.7 62.3,44.7 61.7,45.3 62.1,47.7 61.5,47.7 61.4,46.5 
			59,46.5 58.9,47.7 58.4,47.7 		"/>
		<polyline style="fill-rule:evenodd;clip-rule:evenodd;fill:#FCEE1F;" points="37.8,35.3 37.6,36.3 37.1,36.8 42,36.8 41.5,36.3 
			41.4,35.3 40.8,35.3 40.9,36.1 38.1,36.1 38.2,35.3 37.8,35.3 		"/>
		<polyline style="fill-rule:evenodd;clip-rule:evenodd;fill:#FCEE1F;" points="48.2,35.3 48.1,36.3 47.5,36.8 52.4,36.8 52,36.3 
			51.8,35.3 51.3,35.3 51.4,36.1 48.7,36.1 48.7,35.3 48.2,35.3 		"/>
		<polyline style="fill-rule:evenodd;clip-rule:evenodd;fill:#FCEE1F;" points="58.4,35.3 58.3,36.3 57.7,36.8 62.6,36.8 62.1,36.3 
			62.1,35.3 61.5,35.3 61.6,36.1 58.8,36.1 58.9,35.3 58.4,35.3 		"/>
		<polyline style="fill-rule:evenodd;clip-rule:evenodd;fill:#FCEE1F;" points="37.8,47.7 37.6,48.7 37.1,49.1 42,49.1 41.5,48.7 
			41.4,47.7 40.8,47.7 40.9,48.4 38.1,48.4 38.2,47.7 37.8,47.7 		"/>
		<polyline style="fill-rule:evenodd;clip-rule:evenodd;fill:#FCEE1F;" points="58.4,47.7 58.3,48.2 57.7,48.7 62.6,48.7 62.1,48.2 
			62.1,47.7 61.5,47.7 61.6,48 58.8,48 58.9,47.7 58.4,47.7 		"/>
		<polyline style="fill-rule:evenodd;clip-rule:evenodd;fill:#FCEE1F;" points="40.5,61.2 40.2,60.7 39.3,60.6 40.2,60 40.2,59.7 
			40.2,59.4 40.3,59.2 40.6,59 40.8,58.8 41.1,58.6 41.4,58.5 41.6,58.5 42.5,57.9 42.4,58.7 44.8,60.6 45.3,60.6 44.7,61.2 
			43.7,61.2 44,60.8 42.9,59.8 41.4,61.2 40.5,61.2 		"/>
		<polyline style="fill-rule:evenodd;clip-rule:evenodd;fill:#FCEE1F;" points="54.8,61.2 54.2,60.6 54.8,60.6 57.2,58.8 57.2,57.9 
			57.9,58.7 58.2,58.7 58.4,58.8 58.7,59 59,59.1 59.2,59.4 59.4,59.6 59.5,59.9 59.5,60.2 60.2,60.8 59.4,60.8 59.1,61.2 
			58.4,61.2 56.5,59.9 55.5,61 55.7,61.2 54.8,61.2 		"/>
		<polyline style="fill-rule:evenodd;clip-rule:evenodd;fill:#FCEE1F;" points="40.5,61.2 41.8,63.2 41.7,63.9 44.7,61.2 43.7,61.2 
			42.1,62.7 41.2,61.4 41.4,61.2 40.5,61.2 		"/>
		<polyline style="fill-rule:evenodd;clip-rule:evenodd;fill:#FCEE1F;" points="54.8,61.2 57.7,63.9 57.6,63.3 59.1,61.2 58.4,61.2 
			58.4,61.3 57.6,62.7 55.7,61.2 54.8,61.2 		"/>
	</g>
</g>
</svg>
