<?xml version="1.0" encoding="utf-8"?>
<!-- Generator: Adobe Illustrator 21.0.2, SVG Export Plug-In . SVG Version: 6.00 Build 0)  -->
<svg version="1.1" id="Layer_1" xmlns="http://www.w3.org/2000/svg" xmlns:xlink="http://www.w3.org/1999/xlink" x="0px" y="0px"
	 viewBox="0 0 100 100" style="enable-background:new 0 0 100 100;" xml:space="preserve">
<style type="text/css">
	.st0{fill:#01A78D;}
	.st1{fill:#EB2227;}
	.st2{fill:#FCEE1F;}
	.st3{fill:#FFFFFF;}
	.st4{fill:#29ABE2;}
</style>
<path class="st0" d="M50,99.4V0.6C22.7,0.6,0.6,22.7,0.6,49.9V50C0.6,77.3,22.7,99.4,50,99.4L50,99.4z"/>
<path class="st1" d="M99.4,51.1V49C98.8,22.1,76.9,0.6,50,0.6l0,0v98.8l0,0C76.9,99.4,98.8,77.9,99.4,51.1L99.4,51.1z"/>
<path class="st2" d="M78.7,50c0-3.7-0.7-7.4-2.1-10.9l0,0C64.2,18,41.5,16,25.7,34.7l0,0c-0.6,1.1-1.3,2.3-1.9,3.4l0.1,0
	c-1.7,3.7-2.6,7.8-2.6,11.9h0l0,0.2h0c0.1,5.1,1.4,10.1,4,14.4l0,0c14.4,18.2,35.1,18.1,49.5-0.1l0,0c2.5-4.3,3.8-9.3,3.9-14.3h0
	L78.7,50L78.7,50z M75.1,49.4c-5,1.4-10,2.4-15.2,3L57.1,51l0.2-4.9C63.3,46.5,69.3,47.6,75.1,49.4L75.1,49.4z M70.1,63.3
	c-5.6,0.9-11.3,1.5-17,1.6v-5.6c6.3,0.3,12.5,1.5,18.4,3.7l0,0.1L70.1,63.3z M29,36.3c5.8-1.7,11.9-2.5,17.9-2.5v7
	C40.5,41.1,34.4,39.6,29,36.3L29,36.3L29,36.3z M71.2,37.5l0.6,0.2c0.1,0.1,0.1,0.2,0.2,0.3c-6.2,1.5-12.5,2.4-18.9,2.8V34
	C59.2,34.7,65.3,35.8,71.2,37.5z M42.7,43.5c-0.4,0-0.8-0.2-1.1-0.5l0.7,0L42.7,43.5z M57.4,42.8c5.3-0.5,10.6-1.2,15.8-2.2
	c0.9,1.8,1.4,3.7,1.6,5.7c-5.8-1.6-11.7-2.6-17.7-3L57.4,42.8z M28.2,40.9c2.7,0.5,5.2,1.7,7.4,3.4c-3.5,0.5-7,1.2-10.4,2
	c0.2-1.9,0.8-3.9,1.6-5.6L28.2,40.9z M24.9,49.3c4.9-1.3,9.9-2.3,15-2.8l2.7,1.4l-0.1,4.9C36.5,52.4,30.6,51.2,24.9,49.3L24.9,49.3z
	 M26.9,59.8c-1-2.4-1.7-4.9-1.9-7.5c5.7,1.8,11.7,2.9,17.6,3.4l0.3,1c-5.4,0.6-10.7,1.7-15.8,3.4L26.9,59.8z M57.5,55.7l2.2,1.2
	c-1-0.2-1.9-0.3-2.9-0.3L57.5,55.7z M29.3,62.7c5.7-2,11.6-3.2,17.6-3.4v5.5C40.8,64.6,34.7,64,28.6,63L29.3,62.7z M55,25.3
	c6,1.3,11.1,4.6,14.9,9.4c-5.5-1.6-11.1-2.6-16.8-3.1V25C53.7,25.1,54.4,25.2,55,25.3z M32.3,32.2c4-4,9-6.4,14.6-7.2v6.3
	c-5.4,0-10.7,0.8-15.9,2.3C31.5,33.1,31.9,32.7,32.3,32.2z M46.3,74.9c-6.3-1-11.9-4.2-15.9-9.2c5.5,0.9,11,1.5,16.5,1.8V75
	L46.3,74.9z M68.6,66.9c-4.1,4.4-9.5,7.3-15.5,8.1v-7.4c5.5,0,11.1-0.6,16.4-1.9C69.2,66.1,68.9,66.5,68.6,66.9z M64.6,54.9
	c3.5-0.7,7-1.5,10.4-2.6c-0.2,2.4-0.8,4.8-1.7,7.1L64.6,54.9z"/>
<path class="st1" d="M36.7,31.6h26.4v27.3c0,0-1.7,3.7-6.2,6.8c-1.6,1.1-7.4,3-7.4,3s-5.2-1.7-6.8-2.8c-4.8-3.3-6-6.2-6-6.2V31.6z"
	/>
<path class="st2" d="M48.1,36.3l-0.6,0.5h4.9L52,36.3c-0.2-1-0.3-2-0.5-3l0.6-0.6h-1c-0.2-0.1-0.3-0.2-0.5-0.3c-0.4,0-0.8,0-1.2,0
	l-0.3,0.2L49,32.7h-1.1l0.7,0.6C48.4,34.3,48.2,35.3,48.1,36.3z M48.8,34.5h2.4c0.1,0.5,0.1,1.1,0.2,1.6h-2.7
	C48.7,35.6,48.7,35,48.8,34.5z"/>
<path class="st2" d="M41.7,63.3l-0.1,0.8l3.7-3.2l-0.6-0.1c-0.8-0.6-1.6-1.3-2.3-1.9l0.1-0.8l-0.8,0.7c-0.2,0.1-0.4,0.1-0.6,0.1
	c-0.3,0.3-0.6,0.5-0.9,0.8L40,59.8l0,0.1l-0.8,0.7l0.9,0C40.6,61.6,41.1,62.5,41.7,63.3z M41,61.5l1.8-1.6c0.4,0.4,0.8,0.7,1.2,1.1
	l-2,1.8C41.6,62.3,41.3,61.9,41,61.5z"/>
<path class="st2" d="M59.4,60.7l0.9,0L59.5,60l0-0.1l-0.1-0.3c-0.3-0.3-0.6-0.5-0.9-0.8c-0.2,0-0.4-0.1-0.6-0.1l-0.8-0.7l0.1,0.8
	c-0.8,0.7-1.5,1.3-2.3,1.9l-0.6,0.1l3.7,3.2l-0.1-0.8C58.5,62.5,58.9,61.6,59.4,60.7z M57.5,62.7l-2-1.8c0.4-0.4,0.8-0.7,1.2-1.1
	l1.8,1.6C58.2,61.9,57.9,62.3,57.5,62.7z"/>
<path class="st2" d="M37.7,36.3l-0.6,0.5H42l-0.4-0.5c-0.2-1-0.3-2-0.5-3l0.6-0.6h-1c-0.2-0.1-0.3-0.2-0.5-0.3c-0.4,0-0.8,0-1.2,0
	l-0.3,0.2l-0.1,0.1h-1.1l0.7,0.6C38,34.3,37.8,35.3,37.7,36.3z M38.4,34.5h2.4c0.1,0.5,0.1,1.1,0.2,1.6h-2.7
	C38.3,35.6,38.3,35,38.4,34.5z"/>
<path class="st2" d="M58.2,36.3l-0.6,0.5h4.9l-0.4-0.5c-0.2-1-0.3-2-0.5-3l0.6-0.6h-1c-0.2-0.1-0.3-0.2-0.5-0.3c-0.4,0-0.8,0-1.2,0
	l-0.3,0.2l-0.1,0.1H58l0.7,0.6C58.5,34.3,58.3,35.3,58.2,36.3z M58.9,34.5h2.4c0.1,0.5,0.1,1.1,0.2,1.6h-2.7
	C58.8,35.6,58.8,35,58.9,34.5z"/>
<path class="st2" d="M37.7,48.5L37.1,49H42l-0.4-0.5c-0.2-1-0.3-2-0.5-3l0.6-0.6h-1c-0.2-0.1-0.3-0.2-0.5-0.3c-0.4,0-0.8,0-1.2,0
	l-0.3,0.2l-0.1,0.1h-1.1l0.7,0.6C38,46.5,37.8,47.5,37.7,48.5z M38.4,46.7h2.4c0.1,0.5,0.1,1.1,0.2,1.6h-2.7
	C38.3,47.8,38.3,47.2,38.4,46.7z"/>
<path class="st2" d="M58.2,48.5L57.6,49h4.9l-0.4-0.5c-0.2-1-0.3-2-0.5-3l0.6-0.6h-1c-0.2-0.1-0.3-0.2-0.5-0.3c-0.4,0-0.8,0-1.2,0
	l-0.3,0.2l-0.1,0.1H58l0.7,0.6C58.5,46.5,58.3,47.5,58.2,48.5z M58.9,46.7h2.4c0.1,0.5,0.1,1.1,0.2,1.6h-2.7
	C58.8,47.8,58.8,47.2,58.9,46.7z"/>
<path class="st3" d="M42.2,38.6h15.5v17.2c0,0-1,2.1-3.6,4c-0.9,0.6-4.3,1.8-4.3,1.8s-3.1-1-4-1.7c-2.8-1.9-3.5-3.7-3.5-3.7V39.6"/>
<path class="st4" d="M48.2,47.7h3.5v3.4c0,0-0.2,0.5-0.8,0.9c-0.2,0.1-1,0.4-1,0.4S49.2,52.2,49,52c-0.6-0.4-0.8-0.8-0.8-0.8V47.7"
	/>
<path class="st4" d="M48.2,40.7h3.5v3.4c0,0-0.2,0.5-0.8,0.9c-0.2,0.1-1,0.4-1,0.4S49.2,45.2,49,45c-0.6-0.4-0.8-0.8-0.8-0.8V40.7"
	/>
<path class="st4" d="M43.5,47.7H47v3.4c0,0-0.2,0.5-0.8,0.9c-0.2,0.1-1,0.4-1,0.4s-0.7-0.2-0.9-0.4c-0.6-0.4-0.8-0.8-0.8-0.8V47.7"
	/>
<path class="st4" d="M53.2,47.7h3.5v3.4c0,0-0.2,0.5-0.8,0.9c-0.2,0.1-1,0.4-1,0.4S54.2,52.2,54,52c-0.6-0.4-0.8-0.8-0.8-0.8V47.7"
	/>
<path class="st4" d="M48.2,54.6h3.5V58c0,0-0.2,0.5-0.8,0.9c-0.2,0.1-1,0.4-1,0.4s-0.7-0.2-0.9-0.4c-0.6-0.4-0.8-0.8-0.8-0.8V54.6"
	/>
</svg>
