<?xml version="1.0" encoding="utf-8"?>
<!-- Generator: Adobe Illustrator 21.0.2, SVG Export Plug-In . SVG Version: 6.00 Build 0)  -->
<svg version="1.1" id="Layer_1" xmlns="http://www.w3.org/2000/svg" xmlns:xlink="http://www.w3.org/1999/xlink" x="0px" y="0px"
	 viewBox="0 0 100 100" style="enable-background:new 0 0 100 100;" xml:space="preserve">
<style type="text/css">
	.st0{fill:#2D368F;}
	.st1{fill:#FFFFFF;}
	.st2{fill:#EB2227;}
	.st3{fill:#EDB92E;}
	.st4{fill:#C6363C;}
	.st5{fill:#21231E;}
</style>
<g>
	<path class="st0" d="M1.8,61.9C-4.8,35.3,11.5,8.4,38.1,1.8c26.6-6.5,53.5,9.7,60.1,36.3c6.5,26.6-9.7,53.5-36.3,60.1
		S8.4,88.5,1.8,61.9"/>
	<path class="st1" d="M3.2,66.7c8.5,23.7,33.7,37.7,58.7,31.5C78.7,94,91.3,81.8,96.7,66.7H3.2"/>
	<path class="st2" d="M96.6,32.8C87.9,9.4,62.9-4.3,38.1,1.8C21.5,5.9,8.9,17.9,3.4,32.8H96.6z"/>
</g>
<g>
	<path class="st3" d="M49.7,20.4c0,0,0-0.2,0-0.3c-0.1-0.2-0.3-0.3-0.6-0.3c0,0,0,0.1,0,0.1c0,0,0,0,0-0.1c0,0-0.2,0.1-0.3,0
		c0.1-0.1,0.1-0.2,0.1-0.4c0,0-0.1,0-0.1,0c0,0,0,0,0.1,0c0-0.4-0.3-0.7-0.7-0.7c-0.1,0-0.3,0-0.4,0.1c0.1-0.6,0,0,0-0.1
		c0,0,0.1,0,0,0c0-0.7-0.9-0.9-1.2-0.3c0-0.1,0-0.2,0-0.2c0,0-0.1,0-0.1,0c0,0,0,0,0.1,0c0-0.4-0.3-0.7-0.7-0.7c0,0,0,0.1,0,0.1
		c0,0,0,0,0-0.1c-0.2,0-0.4,0.1-0.5,0.2c0,0,0,0,0,0c0,0,0,0,0,0c0-0.4-0.3-0.7-0.7-0.7c0,0,0,0.1,0,0.1c0,0,0,0,0-0.1
		c-0.2,0-0.4,0.1-0.5,0.3c0,0-0.1,0,0,0c0-0.4-0.3-0.7-0.7-0.7c0,0,0,0.1,0,0.1c0,0,0,0,0-0.1c-0.1,0-0.1,0-0.2,0
		c0-0.1-0.1-0.1-0.1-0.1c-0.1-0.1-0.2-0.1-0.4-0.1c0,0,0,0.1,0,0.1c0,0,0,0,0-0.1c-0.1,0-0.3,0-0.4,0.1c0-0.3-0.3-0.6-0.7-0.6
		c0,0,0,0.1,0,0.1c0,0,0,0,0-0.1c-0.2,0-0.4,0.1-0.5,0.2c0-0.3-0.3-0.6-0.7-0.6c0,0,0,0.1,0,0.1c0,0,0,0,0-0.1
		c-0.2,0-0.4,0.1-0.5,0.3c-0.1-0.3-0.3-0.5-0.6-0.5c0,0,0,0.1,0,0.1c0,0,0,0,0-0.1c-0.3,0-0.5,0.2-0.6,0.4c-0.2-0.6-1.1-0.7-1.3-0.1
		c-0.1-0.3-0.3-0.5-0.6-0.5c0,0,0,0.1,0,0.1c0,0,0,0,0-0.1c-0.4,0-0.7,0.3-0.7,0.7c0,0,0,0,0.1,0c0,0.1-0.1,0.1-0.2,0.1
		c0.4-0.6,0.3-1.4-0.1-2c-0.1-0.2-0.3-0.3-0.4-0.4c-0.1-0.1-0.4-0.1-0.5-0.2c-0.1-0.1-0.1-0.4-0.1-0.5c0-0.2,0-0.2,0.3-0.2
		c0.1,0,0.1,0,0.2,0.1c0,0,0.3,0.4,0.3,0.2c0,0.1,0.8-0.6,0.6-0.6c0.1,0-0.6-0.8-0.6-0.6c0-0.1-0.4,0.3-0.4,0.3c-0.1,0-0.3,0-0.4,0
		c0,0,0-0.5,0-0.5c0,0,0.5-0.3,0.3-0.4c0.1,0-0.6-0.8-0.6-0.6c0-0.1-0.8,0.6-0.6,0.6c-0.1,0,0.3,0.4,0.3,0.4c0,0.1,0,0.4,0,0.5
		c0,0-0.4,0-0.4,0c0,0-0.3-0.5-0.4-0.3c0-0.1-0.8,0.6-0.6,0.6c-0.1,0,0.6,0.8,0.6,0.6c0,0.1,0.3-0.1,0.3-0.2c0.2-0.2,0-0.1,0.1-0.1
		c0.1,0,0.3,0,0.3,0.1c0,0.1,0,0.5,0,0.6c-0.1,0.1-0.5,0.2-0.7,0.4c-0.4,0.3-0.6,0.7-0.7,1.1c0,0-0.1,0.6,0,0.6
		c0,0.2,0.1,0.5,0.2,0.7c-0.1,0-0.2-0.1-0.2-0.1c0,0,0,0,0.1,0c0-0.4-0.3-0.7-0.7-0.7c0,0,0,0,0,0.1c0,0,0-0.1,0-0.1
		c-0.3,0-0.5,0.2-0.6,0.5c-0.2-0.6-1.1-0.6-1.3,0.1c-0.1-0.2-0.3-0.4-0.6-0.4c0,0,0,0,0,0.1c0,0,0-0.1,0-0.1c-0.3,0-0.5,0.2-0.6,0.5
		c-0.1-0.2-0.3-0.3-0.5-0.3c0,0,0,0,0,0.1c0,0,0-0.1,0-0.1c-0.3,0-0.6,0.3-0.7,0.6c-0.1-0.1-0.3-0.2-0.5-0.2c0,0,0,0,0,0.1
		c0,0,0-0.1,0-0.1c-0.3,0-0.6,0.3-0.7,0.6c-0.1-0.1-0.2-0.1-0.4-0.1c0,0,0,0,0,0.1c0,0,0-0.1,0-0.1c-0.2,0-0.3,0.1-0.4,0.1
		c-0.1,0-0.1,0.1-0.1,0.1c-0.1,0-0.1,0-0.2,0c0,0,0,0,0,0.1c0,0,0-0.1,0-0.1c-0.4,0-0.7,0.3-0.7,0.7c0,0,0,0,0,0c0,0-0.1,0,0,0
		c-0.1-0.1-0.3-0.3-0.5-0.3c0,0,0,0,0,0.1c0,0,0-0.1,0-0.1c-0.4,0-0.7,0.3-0.7,0.7c0,0,0,0,0,0c0,0,0,0,0,0
		c-0.1-0.2-0.3-0.3-0.5-0.2c0,0,0,0,0,0.1c0,0-0.1-0.1-0.2,0c-0.2,0.1-0.4,0.4-0.4,0.6c0,0,0,0,0.1,0c0,0-0.1,0-0.1,0
		c0,0.1,0,0.2,0,0.2c-0.3-0.6-1.2-0.3-1.2,0.3c0,0,0,0,0,0c-0.1,0.1-0.1-0.3,0,0.1c-0.1-0.1-0.3-0.1-0.4-0.1c-0.4,0-0.7,0.3-0.7,0.7
		c0,0,0,0,0.1,0c0,0-0.1,0-0.1,0c0,0.1,0,0.3,0.1,0.4c0,0-0.2,0-0.3,0c0,0,0,0,0,0.1c0,0,0-0.1,0-0.1c-0.4,0-0.7,0.3-0.7,0.7
		c0,0,0,0,0.1,0c0,0-0.1,0-0.1,0c0,0.2,0.1,0.4,0.2,0.5c0.3,0.3,0.1,0.1,0,0.4c-0.2,0.4,0.1,0.9,0.6,0.9c0,0,0,0,0,0
		c0.1,0-0.2,0.1,0.1,0c-0.4,0.4-0.1,1.1,0.4,1.1l0,0c0,0,0,0,0,0c0,0,0.1,0,0.1,0c-0.1,0.1-0.2,0.3-0.2,0.4c0,0.2,0.1,0.3,0.1,0.4
		c0,0-0.1,0.4,0,0.4c0,0,0,0,0,0c0.2,0.4,0.6,0.1,0.9,0.3c-0.2,0.1,0.5,1,0.5,1c0,0,0.2,0.4,0.1,0.4c0.1,0.2,0.2,0.3,0.3,0.4
		c0.2,0.2,0.2,0.3,0.3,0.5c0,0.1,0.1,0.3,0.2,0.4c0.1,0.1,0.2,0.1,0.1,0.2c0.3,0.4,0.6,0.8,0.9,1.3c-0.3,0.1-0.5,0.4-0.2,0.6
		c0.1,0.1,0.3,0,0.4,0.1c0,0.1-0.1,0.5-0.2,0.6c-0.1,0.1-0.2,0.2-0.2,0.4c0,0.2,0,0.4,0.1,0.5c0.1,0.2,0.2,0.2,0.3,0.4
		c0.1,0.1,0.5,0.4,0.5,0.5c0,0.2-0.2,0.2-0.2,0.4c0.1,0.2,0.3,0.2,0.4,0.2c0.6,0.1,1.2,0.1,1.8,0.1c1.1,0.1,2.2,0.1,3.4,0.2
		c2.3,0.1,4.6,0.1,6.9,0c1.1,0,2.2-0.1,3.3-0.1c0.5,0,1.1-0.1,1.6-0.1c0.3,0,0.6,0,0.9-0.1c0.2,0,0.6,0,0.8-0.1
		c0.2-0.1,0.1-0.2,0.1-0.4c0-0.1-0.1,0-0.1-0.2c0,0,0.2-0.2,0.3-0.3c0.3-0.3,0.7-0.5,0.6-1c0-0.2-0.5-0.9-0.4-1
		c0.1-0.1,0.3,0,0.5-0.1c0.2-0.2,0-0.4-0.3-0.5c0.2-0.5,0.5-1,0.8-1.3c0,0,0.2-0.2,0.2-0.2c0.1-0.2,0.1-0.4,0.2-0.5
		c0.1-0.1,0.6-0.7,0.5-0.7c0,0.1,0.1-0.4,0.2-0.4c0,0,0.4-0.5,0.4-0.5c0.1-0.1,0.2-0.4,0.1-0.4c0.1,0,0.5,0,0.7,0
		c0.1,0,0.2-0.2,0.2-0.3c0.2,0.1,0-0.3,0-0.4c0-0.1,0.1-0.3,0.1-0.4c0-0.2-0.1-0.3-0.2-0.4c0.6,0.1,1-0.7,0.5-1.1c0.2,0,0,0,0.1,0
		c0,0,0,0,0,0c0.5,0,0.8-0.6,0.5-1c0-0.1-0.2-0.1-0.2-0.2c0,0,0.3-0.2,0.3-0.3C49.8,20.6,49.9,20.4,49.7,20.4z M45,27L45,27
		C45,27,45,27,45,27C45,27,45,27,45,27z M45,26.7C45,26.7,45,26.7,45,26.7C45,26.7,45,26.7,45,26.7z M24.8,27
		C24.8,27,24.8,27,24.8,27C24.8,27,24.8,27,24.8,27L24.8,27z M24.8,26.7C24.8,26.7,24.8,26.7,24.8,26.7
		C24.8,26.7,24.8,26.7,24.8,26.7z M24.3,26.7c0.1,0.1,0.4,0.5,0.6,0.3c0,0,0.1,0,0-0.1c0,0,0,0,0,0c0,0,0,0,0,0
		c0.1,0-0.2-0.6-0.2-0.6c0,0,0-0.3,0-0.3c0.1,0,0.1-0.3,0.1-0.3c0.3,0-0.4-0.8-0.4-0.6c0,0-0.3-0.1-0.3-0.2
		c-0.1-0.1-0.1-0.3-0.2-0.4c-0.3-0.2-0.3,0.2-0.3,0.2c-0.1,0,0,0.4,0,0.5c-0.1-0.2-0.2-0.4-0.1-0.7c0-0.1,0.2-0.3,0.1-0.5
		c0-0.1-0.1-0.1-0.2-0.2c-0.1-0.1-0.1-0.4-0.1-0.5c0-0.1,0.1-0.4,0.1-0.5c0.1,0,0-0.2,0-0.2c-0.1-0.2-0.3-0.4-0.4-0.7
		c-0.3-0.4-0.9-1.1-0.5-1.6c0.5-0.7,1.7-1.1,2.5-1.4c0,0,0,0.3,0.1,0.4c-0.1,0.1,0.7,2.2,0.8,2.4c0,0,0.2,1,0.4,0.9
		c0,0,0.5,0.5,0.6,0.6c-0.5,0.1,0,0.8,0.1,0.7c0,0,0.5,0.5,0.6,0.5c0,0,0,0.1,0.1,0.1c0.1,0.1,0.1,0.1,0,0.2c0,0-0.3-0.2-0.3-0.2
		c0,0-0.2-0.3-0.3-0.2c0,0-0.3-0.3-0.3-0.2c0-0.1-0.3-0.2-0.4-0.1c-0.1,0.1,0,0.2,0,0.3c0.1,0.2,0.1,0.2,0,0.5
		c-0.1,0.2-0.2,0.4,0,0.7c0,0.1,0.5,0.5,0.5,0.5c0,0,0.3,0.7,0.3,0.6c0,0.1,0.5-0.2,0.4-0.3c0,0,0.3-0.4,0.2-0.5c0,0,0,0,0,0
		c0,0,0.1-0.1,0.1-0.1c0,0.4,0.1,1-0.1,1.4c-0.3,0.5-0.9-0.1-1.2-0.4c-0.1-0.1-0.3-0.3-0.3-0.5c0-0.1,0.1-0.2,0.1-0.2
		c0.1-0.1,0.2-0.1,0.1-0.3c0,0-0.3-0.1-0.3-0.1c0.1-0.4,0-0.8-0.1-1.2c-0.1-0.2-0.3-0.3-0.4-0.5c-0.1-0.1-0.2-0.3-0.4-0.3
		c-0.2,0-0.2,0.1-0.2,0.3c0,0.1,0,0.2,0,0.3c0,0.1-0.1,0.2-0.1,0.4c0,0.2,0.5,1.4,0.6,1.2c0,0-0.2,0.1-0.2,0.2
		c-0.1-0.1-0.1,0.1-0.1,0.1c0,0.1,0.1,0.1,0.2,0.1c0,0,0.1,0,0.1,0c0.1,0,0.1,0.2,0.2,0.2c-0.2,0.2,0,1.1-0.5,1.1
		c-0.4,0-0.7-0.8-0.8-1.1C24.1,26.6,24.2,26.7,24.3,26.7z M23.8,24.8C23.8,24.8,23.9,24.8,23.8,24.8C23.9,24.8,23.8,24.8,23.8,24.8z
		 M29.6,17.2c0.7-0.1,1.3-0.2,2-0.2c0.5,0,1.1,0.1,1.5,0c0.1,1.3,0.2,2.7-0.1,4c-0.1,0.2-0.2,0.5-0.2,0.8c0,0.2,0.2,0.3,0.4,0.4
		c0.1,0.1,0.5,0.3,0.4,0.5c0,0-0.1,0.2-0.1,0.3c0,0.1,0.1,0.4,0.2,0.4c0,0,0.5,0.5,0.5,0.5c0,0,0.2,0.3,0.1,0.4
		c-0.1,0.2-0.2,0.1-0.3,0c-0.2-0.1-0.4-0.4-0.6-0.6c-0.3-0.2-0.8-0.3-0.7,0.2c0.1,0,0,0.3,0,0.3c-0.1,0-0.5,0.4-0.5,0.4
		c0,0,0,0.5,0,0.6c0,0,0,0,0,0c0,0.1,0.2,0.2,0.2,0.2c0,0,0,0,0,0c0,0,0,0,0,0c0.3,0.2,0.2,0.2,0.2,0.6c0,0.3,0.3,0.4,0.6,0.2
		c0.1-0.1,0.3-0.2,0.4-0.4c0.2-0.2,0.2-0.2,0.5-0.4c0,0.6,0,1.3-0.5,1.7c-0.5,0.4-1.1,0.2-1.5-0.2c-0.3-0.2-0.8-0.9-0.4-1.2
		c0.1-0.1,0.5-0.2,0.2-0.4c0.1-0.1-0.3-0.1-0.3-0.1c0.2-0.4,0.2-1,0-1.4c0-0.1-0.1-0.2-0.2-0.2c0-0.1-0.1-0.1-0.1-0.2
		c-0.1-0.1-0.1-0.2-0.3-0.2c-0.2,0-0.2,0.2-0.2,0.3c-0.1,0.1-0.2,0.3-0.2,0.4c-0.1,0.4,0,1,0.2,1.4c-0.2,0-0.5,0.2-0.3,0.4
		c0.1,0.1,0.1,0,0.2,0c0.1,0.1,0.1,0.3,0.2,0.3c-0.2,0.2-0.3,0.6-0.4,0.9c-0.2,0.3-0.4,0.6-0.8,0.5c-0.3-0.1-0.6-0.4-0.8-0.7
		c-0.1-0.2-0.5-0.7-0.5-0.9c0,0,0.3,0.2,0.3,0.1c0,0.1,0.5,0.5,0.5,0.4c0,0,0.5,0.3,0.6-0.1c0,0,0-0.2-0.1-0.2c0,0,0-0.3,0-0.3
		c0,0,0.2-0.1,0.2-0.1c0,0,0.2-0.2,0.2-0.3c0.1,0,0-0.3,0-0.3c0,0,0-0.3-0.1-0.3c0,0-0.4-0.4-0.5-0.3c0,0-0.1-0.3-0.1-0.3
		c0,0,0-0.3,0-0.3c-0.2-0.3-0.6,0.1-0.6,0.2c0,0,0,0,0,0c0,0-0.4,0.6-0.3,0.6c-0.1,0-0.2,0.2-0.2,0.2c-0.3,0,0-0.3-0.1-0.3
		c0,0,0.4-0.6,0.4-0.6c0.1,0,0.1-0.5,0.1-0.6c-0.1-0.2-0.1-0.1-0.2-0.3c0-0.1,0.1-0.3,0.1-0.5c0,0,0.3-0.6,0.1-0.5
		c0,0-0.7-1-0.8-1.1c-0.3-0.5-0.7-1.1-0.7-1.8C27.4,17.8,28.7,17.4,29.6,17.2z M40.1,17.2c0.9,0.2,2.3,0.5,2.3,1.6
		c0,0.6-0.3,1.3-0.6,1.8c0,0.1-0.9,1.3-0.8,1.3c-0.2-0.1,0.1,0.6,0.1,0.5c0.1,0.1,0.1,0.3,0.1,0.4c0,0.2-0.1,0.1-0.2,0.3
		c0,0.1,0,0.6,0.1,0.6c-0.1,0,0.3,0.6,0.4,0.6c-0.1,0.1,0.2,0.3-0.1,0.3c-0.1,0-0.2-0.3-0.2-0.2c0,0-0.3-0.6-0.4-0.6
		c0-0.1-0.4-0.4-0.6-0.2c0,0.1-0.1,0.3,0,0.3c0,0-0.1,0.3-0.1,0.3c-0.1,0-0.5,0.3-0.5,0.3c-0.1,0-0.1,0.3-0.1,0.3
		c-0.1,0,0,0.3,0,0.3c0,0,0.2,0.3,0.2,0.3c0,0,0.2,0.2,0.2,0.1c0,0,0,0.3,0,0.3c0,0-0.1,0.2-0.1,0.2c0.1,0.4,0.6,0.1,0.6,0.1
		c0,0,0.6-0.4,0.5-0.4c0.1,0.1,0.3-0.2,0.3-0.1c0,0.1-0.3,0.5-0.3,0.5c-0.2,0.3-0.5,0.8-0.8,0.9c-0.8,0.4-1-0.9-1.3-1.3
		c0.1,0,0.2-0.2,0.3-0.3c0,0,0.1,0.1,0.2,0c0.1-0.2-0.1-0.4-0.3-0.4c0.2-0.4,0.3-0.9,0.2-1.3c0-0.2-0.2-0.3-0.2-0.4
		c-0.1-0.1,0-0.4-0.2-0.4c-0.1,0-0.2,0.1-0.3,0.2c0,0.1-0.1,0.2-0.1,0.2c0,0.1-0.1,0.1-0.2,0.2c-0.2,0.4-0.2,1.1,0,1.5
		c-0.2,0-0.5,0.1-0.4,0.3c0,0.1,0.1,0.1,0.2,0.1c0,0,0.1,0.1,0.2,0.1c0.3,0.4-0.3,1.2-0.7,1.4c-0.5,0.3-1.1,0.3-1.4-0.2
		c-0.3-0.4-0.4-1-0.3-1.5c0.2,0.2,0.3,0.3,0.6,0.5c0.1,0.1,0.3,0.3,0.5,0.3c0.4,0.1,0.5-0.1,0.4-0.4c0,0,0-0.3,0-0.3
		c0,0,0.2-0.1,0.2-0.1c0,0,0,0,0,0c0,0,0,0,0,0c0.1,0,0.2-0.2,0.2-0.2c0,0,0,0.1,0,0c0-0.1,0.1-0.6,0-0.6c0,0-0.4-0.4-0.5-0.4
		c0,0-0.1-0.3,0-0.3c0.1-0.6-0.5-0.4-0.8-0.2c-0.2,0.2-0.4,0.5-0.6,0.6c-0.5,0.1,0-0.3-0.1-0.4c0,0,0.6-0.5,0.5-0.5
		c0,0,0.1-0.2,0.2-0.3c0-0.1,0-0.1,0-0.2c0-0.1-0.1-0.2-0.1-0.2c0-0.2,0.3-0.4,0.5-0.5c0.2-0.1,0.4-0.2,0.4-0.4
		c0-0.3-0.2-0.6-0.2-0.9c-0.3-1.3-0.2-2.6-0.1-3.9c0.4,0.1,1,0,1.4,0C38.7,17,39.4,17,40.1,17.2z M39.8,24.4
		C39.8,24.4,39.8,24.4,39.8,24.4C39.8,24.4,39.8,24.4,39.8,24.4C39.8,24.4,39.8,24.4,39.8,24.4z M38.2,25C38.2,25,38.2,25,38.2,25z
		 M31.6,25C31.6,25,31.6,25,31.6,25z M30,24.4C30,24.4,30,24.4,30,24.4C30,24.4,30,24.4,30,24.4C30,24.4,30,24.4,30,24.4z
		 M27.2,24.8C27.2,24.8,27.2,24.8,27.2,24.8C27.2,24.8,27.2,24.8,27.2,24.8z M26,25.7C26,25.7,26,25.7,26,25.7
		C26,25.7,26,25.7,26,25.7z M26.3,25.8C26.3,25.8,26.3,25.8,26.3,25.8C26.3,25.8,26.3,25.8,26.3,25.8z M26.5,26
		C26.5,26,26.5,26,26.5,26C26.5,26,26.5,26,26.5,26z M23.2,24.5C23.2,24.5,23.2,24.5,23.2,24.5C23.2,24.5,23.2,24.5,23.2,24.5z
		 M24.9,26.1C24.9,26.1,24.9,26.1,24.9,26.1C24.9,26.1,24.9,26.1,24.9,26.1z M43.3,26C43.3,26,43.3,26,43.3,26
		C43.3,26,43.3,26,43.3,26z M43.5,25.8C43.5,25.8,43.5,25.8,43.5,25.8C43.5,25.8,43.5,25.8,43.5,25.8z M43.8,25.7
		C43.8,25.7,43.8,25.7,43.8,25.7C43.8,25.7,43.8,25.7,43.8,25.7z M42.6,24.8C42.6,24.8,42.6,24.8,42.6,24.8
		C42.6,24.8,42.6,24.8,42.6,24.8z M46.6,24.5C46.6,24.5,46.6,24.5,46.6,24.5C46.6,24.5,46.6,24.5,46.6,24.5z M44.6,27.1
		c0-0.2-0.1-0.5-0.1-0.6c0-0.1,0.1-0.2,0.2-0.2c0,0,0.3,0,0.2-0.2c0,0-0.2-0.1-0.2-0.2c0.1,0.2,0.6-1,0.6-1.2c0-0.1,0-0.2-0.1-0.3
		c-0.1,0-0.1-0.1-0.1-0.2c0,0,0-0.1,0-0.1c0-0.2,0-0.3-0.2-0.3c-0.2,0-0.2,0.2-0.3,0.3c-0.2,0.2-0.3,0.2-0.5,0.5
		c0,0.1-0.3,1.1-0.1,1.1c0,0-0.4,0.1-0.4,0.2c0,0.1,0.1,0.1,0.2,0.1c0,0.1,0.1,0.3,0.1,0.3c-0.5,0.2-0.7,1.1-1.3,1
		c-0.5-0.1-0.4-1.2-0.4-1.6c0,0,0.1,0.1,0.1,0.1c0,0,0,0,0,0c-0.1,0,0.2,0.5,0.2,0.5c-0.1,0.1,0.4,0.3,0.4,0.3
		c0,0.1,0.4-0.5,0.3-0.6c0,0,0.5-0.4,0.5-0.4c0.2-0.2,0.2-0.5,0.1-0.7c-0.1-0.2-0.2-0.2-0.1-0.5c0-0.1,0.2-0.3,0-0.4
		c-0.1-0.1-0.5,0-0.4,0.1c0-0.1-0.3,0.2-0.3,0.2c0,0-0.3,0.2-0.3,0.2c0,0-0.3,0.1-0.3,0.2c-0.1-0.1-0.1-0.2,0-0.2
		c0.1,0,0.1-0.1,0.1-0.1c0,0,0.6-0.4,0.6-0.5c0,0,0.6-0.7,0.1-0.7c0-0.1,0.6-0.6,0.6-0.6c0.2,0.1,0.5-1,0.4-0.9
		c0.1-0.2,0.9-2.4,0.8-2.4c0.1,0,0.1-0.3,0.1-0.4c0.8,0.3,1.9,0.7,2.5,1.4c0.3,0.5-0.1,1.1-0.4,1.5c-0.2,0.2-0.4,0.5-0.5,0.7
		c0,0-0.2,0.3-0.1,0.3c0,0.1,0.1,0.4,0.1,0.5c0,0.1,0,0.4-0.1,0.5c0,0.1-0.1,0.1-0.2,0.2c-0.1,0.2,0.1,0.4,0.1,0.5
		c0.1,0.3,0,0.4-0.1,0.7c0-0.1,0.1-0.5,0-0.5c0,0-0.1-0.4-0.3-0.2c-0.1,0.1-0.1,0.2-0.2,0.3c-0.1,0.1-0.4,0.2-0.4,0.2
		c0-0.2-0.7,0.6-0.4,0.6c-0.1,0,0,0.3,0.1,0.3c0,0,0,0.3,0,0.3c0,0-0.3,0.6-0.2,0.6c0,0,0,0,0,0c0,0,0,0,0,0c0,0.1,0,0,0,0.1
		c0.2,0.2,0.7-0.4,0.8-0.4c-0.1,0.3-0.4,1-0.7,1.1C44.8,27.7,44.7,27.3,44.6,27.1z M46,24.8C46,24.8,45.9,24.8,46,24.8
		C45.9,24.8,46,24.8,46,24.8z M39,16.2C39,16.2,39,16.2,39,16.2z M30.8,16.2C30.8,16.2,30.8,16.2,30.8,16.2z M45.2,29.4
		C45.2,29.4,45.2,29.4,45.2,29.4C45.2,29.4,45.2,29.4,45.2,29.4z M46.7,18.5C46.6,18.5,46.7,18.5,46.7,18.5
		C46.7,18.5,46.7,18.5,46.7,18.5z M23.1,18.5C23.2,18.5,23.1,18.5,23.1,18.5C23.1,18.5,23.1,18.5,23.1,18.5z M20.2,21.6L20.2,21.6
		C20.2,21.6,20.2,21.6,20.2,21.6z M49.6,21.6C49.6,21.6,49.6,21.6,49.6,21.6L49.6,21.6z"/>
	<path class="st4" d="M18.3,32.7v26.8v0c0,4.8,1.9,9.2,4.9,12.3S30.3,77,34.9,77h0c4.6,0,8.7-2,11.7-5.1c3-3.2,4.9-7.5,4.9-12.3
		V32.7C40.4,32.7,29.4,32.7,18.3,32.7L18.3,32.7z"/>
	<g>
		<path class="st3" d="M24.6,66.7c0.1-0.2,0.2-0.5,0.3-0.6c0.2-0.3,1.2-0.8,1.5-0.6c0.5,0.3,0.9,0.1,0.9-0.4c0,0,0,0,0,0
			c0.3-0.2,0.6-0.2,0.8-0.1c0.1,0.1,0.2,0,0.1-0.1c-0.4-0.5-0.7-0.6-1.1-0.5c0-0.1-0.1-0.1-0.2-0.1c-0.3,0-0.4,0.1-0.7,0.3
			c-0.4,0.3-0.6,0.5-0.7,0.5c-0.3-0.1,0.6-0.5,1.4-1.6C28,62,28,61.2,28,60.8l0,0c-0.3,0-0.7,0.2-1.8,1.2c-0.5,1-1,2-1.7,2.9
			c-0.2,0.2-0.4,0.3-0.6,0.3c-0.2,0.1-1.6,0-1.7,0c-0.3-0.3-0.6-0.2-0.8-0.1c-0.3-0.2-0.7,0-0.9,0.5c-0.1,0.1,0,0.2,0.1,0.1
			c0.1-0.2,0.3-0.2,0.7,0c0.1,0.2,0.3,0.5,0.6,0.3c0.3-0.2,1.3,0,1.6-0.1c-0.1,0.3-1,0.5-1.7,0.5c-0.4,0-0.5,0.3-0.5,0.6
			c-0.1,0.2-0.1,0.5,0.1,1c0.1,0.2,0.2,0.1,0.1,0c0-0.1,0-0.3,0.1-0.4c0.3,0.3,0.7,0.2,0.8-0.1c0-0.4,1.4-0.9,1.6-1.2
			c-0.2,0.6-0.8,1.1-1.1,1.7c-0.3,0.3-0.5,0.4-0.2,0.9c-0.1,0.4,0.1,0.8,0.5,1.1c0.2,0.1,0.2,0,0.2-0.2c-0.1-0.2,0-0.4,0.1-0.8
			c0,0,0,0,0,0c0.6-0.1,0.7-0.2,0.6-0.7C24,67.8,24.5,66.9,24.6,66.7z"/>
		<path class="st3" d="M27.3,69.6c-0.1,0.2-0.1,0.4-0.2,0.7c0-0.1,0-0.1,0-0.1c0.1-0.4,0.2-0.8,0.6-1.3c0.3-0.4,0.4-1.1,0-1.6
			c-0.3-0.3-0.7-0.7-0.8-1.1l0,0c0-0.1,0-0.1-0.1-0.1c0,0-0.1,0-0.1,0.1h0l0,0c-0.1,0.3-0.5,0.7-0.8,1.1c-0.5,0.5-0.4,1.2,0,1.6
			c0.3,0.4,0.5,0.9,0.6,1.3c0,0,0,0.1,0,0.2c0-0.2-0.1-0.4-0.2-0.7c-0.5-1.4-3-0.9-1.6,1c0.1,0.1,0.2,0,0.1-0.1
			c-0.1-0.4,0.2-0.6,0.6-0.5c0.4,0.1,0.6,0.4,0.7,0.8c-0.1,0-0.2,0.2-0.2,0.3v0c0,0.2,0.1,0.3,0.2,0.3c-0.1,0.3-0.4,0.5-0.8,0.3
			c-0.2,0,0,0.4,0.2,0.6h0l0,0c0.2,0.2,0.4,0.2,0.6,0.1c-0.1,0.1,0.1,0.3,0.4,0.6c0,0,0.2,0.1,0.2,0.3c0,0,0.2,0,0.2,0
			c0.1-0.2,0.2-0.3,0.2-0.3c0.4-0.3,0.5-0.5,0.4-0.6c0.2,0.1,0.4,0,0.6-0.1l0,0h0c0.2-0.2,0.4-0.6,0.2-0.6c-0.4,0.2-0.7,0-0.8-0.3
			c0.1,0,0.2-0.2,0.2-0.3v0c0-0.2-0.1-0.3-0.2-0.3c0.1-0.4,0.3-0.7,0.7-0.8c0.4-0.1,0.6,0.2,0.6,0.5c0,0.1,0.1,0.1,0.1,0.1
			C30.4,68.7,27.9,68.2,27.3,69.6z"/>
	</g>
	<g>
		<path class="st3" d="M49.4,65.5c-0.2-0.5-0.6-0.7-0.9-0.5c-0.2-0.2-0.6-0.2-0.8,0.1c0,0.1-1.5,0.1-1.7,0c-0.2-0.1-0.4-0.2-0.6-0.3
			c-0.7-0.9-1.2-1.9-1.7-2.9c-1.1-1-1.5-1.2-1.8-1.2l0,0c-0.1,0.5,0,1.2,1.1,2.7c0.8,1,1.7,1.5,1.4,1.6c-0.1,0-0.3-0.1-0.7-0.5
			c-0.3-0.2-0.4-0.3-0.7-0.3c-0.1,0-0.1,0.1-0.2,0.1c-0.3-0.2-0.7,0-1.1,0.5c-0.1,0.1,0,0.2,0.1,0.1c0.2-0.1,0.5-0.1,0.8,0.1
			c0,0,0,0,0,0c0.1,0.5,0.4,0.6,0.9,0.4c0.3-0.1,1.3,0.4,1.5,0.6c0.1,0.1,0.2,0.4,0.3,0.6c0.1,0.3,0.6,1.2,0.5,1.7
			c-0.1,0.5,0,0.6,0.6,0.7c0,0,0,0,0,0c0.1,0.3,0.2,0.6,0.1,0.8c-0.1,0.2,0,0.3,0.2,0.2c0.4-0.4,0.6-0.8,0.5-1.1
			c0.3-0.5,0.1-0.6-0.2-0.9c-0.3-0.6-0.9-1.1-1.1-1.7c0.2,0.3,1.5,0.8,1.6,1.2c0,0.3,0.5,0.4,0.8,0.1c0.1,0.1,0.1,0.2,0.1,0.4
			c0,0.1,0.1,0.2,0.1,0c0.2-0.5,0.2-0.9,0.1-1c0-0.3-0.1-0.6-0.5-0.6c-0.6,0-1.5-0.2-1.7-0.5c0.3,0.1,1.3-0.1,1.6,0.1
			c0.2,0.2,0.5-0.1,0.6-0.3c0.3-0.2,0.5-0.2,0.7,0C49.3,65.7,49.4,65.7,49.4,65.5z"/>
		<path class="st3" d="M43.4,69.6c-0.1,0.2-0.2,0.5-0.2,0.7c0-0.1,0-0.1,0-0.2c0.1-0.4,0.2-0.8,0.6-1.3c0.3-0.4,0.4-1.1,0-1.6
			c-0.3-0.3-0.7-0.7-0.8-1.1l0,0h0c0-0.1,0-0.1-0.1-0.1s-0.1,0-0.1,0.1l0,0c-0.1,0.3-0.5,0.7-0.8,1.1c-0.5,0.5-0.4,1.2,0,1.6
			c0.3,0.4,0.5,0.9,0.6,1.3c0,0,0,0.1,0,0.1c0-0.2-0.1-0.4-0.2-0.7c-0.5-1.4-3-0.9-1.6,1c0.1,0.1,0.2,0,0.1-0.1
			c-0.1-0.4,0.2-0.6,0.6-0.5c0.4,0.1,0.6,0.4,0.7,0.8c-0.1,0-0.2,0.2-0.2,0.3v0c0,0.2,0.1,0.3,0.2,0.3c-0.1,0.3-0.4,0.5-0.8,0.3
			c-0.2,0,0,0.4,0.2,0.6h0l0,0c0.2,0.2,0.4,0.2,0.6,0.1c-0.1,0.1,0.1,0.3,0.4,0.6c0,0,0.2,0.1,0.2,0.3c0,0,0.2,0,0.2,0
			c0.1-0.2,0.2-0.3,0.2-0.3c0.4-0.3,0.5-0.5,0.4-0.6c0.2,0.1,0.4,0,0.6-0.1l0,0h0c0.2-0.2,0.4-0.6,0.2-0.6c-0.4,0.2-0.7,0-0.8-0.3
			c0.1,0,0.2-0.2,0.2-0.3v0c0-0.2-0.1-0.3-0.2-0.3c0.1-0.4,0.3-0.7,0.7-0.8c0.4-0.1,0.6,0.2,0.6,0.5c0,0.1,0.1,0.1,0.1,0.1
			C46.5,68.7,43.9,68.2,43.4,69.6z"/>
	</g>
	<path class="st1" d="M50.7,44.3c0.1,0,0.2,0.1,0.3,0.1c-0.3-2.2-0.5-4.4-1.3-6.4c-0.6-1.5-1.7-3.2-3.3-3.6
		c-0.4-0.1-1.4-0.3-1.4,0.4c0.1,0.6,0.6,1.2,0.8,1.8c0.7,1.6-0.6,3.3-1.5,4.5c-0.4,0.5-0.8,1-1.2,1.5c-0.3,0.4-0.6,0.9-1,1.3
		c-0.3,0.3-0.5,0.6-0.9,0.5c-0.3-0.1-0.6-0.1-0.8-0.3c0.2,0,0.3-0.1,0.5-0.1c-1.1-0.7-2.5-2-2.4-3.4c0-0.7,0.3-1.4,0.6-2.1
		c0.1-0.3,0.2-0.6,0.4-0.9c0.2-0.3,0.5-0.5,0.7-0.7c0.6-0.6,1.1-1.2,1.3-2c0.2-0.6,0.2-0.9-0.5-1c-1.5-0.1-2.7,0.8-4,1.1
		c-0.3,0.1-0.9,0-1.1,0.2c-0.2,0.1-0.2,0.7,0,0.9c0.1,0.2,0.4,0.2,0.6,0.2c-1,1.5-1.3,3.3-1.5,5.1c-0.2-1.8-0.5-3.5-1.5-5.1
		c0.6,0.1,0.8-0.3,0.7-0.8c0-0.3-0.1-0.3-0.4-0.3c-0.2,0-0.3,0-0.5-0.1c-0.6-0.1-1.2-0.4-1.8-0.7c-0.6-0.3-1.4-0.5-2.1-0.6
		c-0.3,0-1-0.1-1.1,0.4c0,0.3,0.2,0.8,0.3,1c0.2,0.4,0.4,0.7,0.7,1c0.2,0.3,0.5,0.6,0.8,0.8c0.3,0.2,0.4,0.5,0.5,0.8
		c0.3,0.7,0.6,1.3,0.7,2c0.2,0.9,0,1.5-0.5,2.2c-0.5,0.7-1.1,1.3-1.8,1.8c0.2,0.1,0.3,0.1,0.5,0.1c-0.1,0.2-0.5,0.3-0.7,0.3
		c-0.4,0.1-0.5,0-0.8-0.3c-0.7-0.7-1.2-1.6-1.9-2.3c-1-1.2-2.7-3-2.3-4.7c0.2-0.7,0.7-1.3,0.9-1.9c0.3-0.7-0.1-0.8-0.8-0.8
		c-1.7,0.1-2.8,1.6-3.5,3c-1.1,2.2-1.3,4.7-1.7,7.1c0.1,0,0.2-0.1,0.3-0.1C19,45.1,19,46,19,46.9c0,0.2,0.1,1.5,0,1.5
		c0,0.7,0.1,1.4,0.2,2c0.1,0.7,0,1.4,0,2.2c0.1,1.6,0.3,3.2,0.6,4.8c0.2,1.2,0.4,2.3,0.4,3.5c0,0.8,0,1.5-0.1,2.3
		c-0.1,0.5-0.1,1.1-0.3,1.6c0,0,0,0,0-0.1c0,0,0,0.1,0,0.1c0.9-0.1,1.5-0.7,1.9-1.4c0,0.1,0.5,1.3,0.5,1.3c0.3,0.2,0.9-0.8,0.9-1
		c0.2-0.5,0.4-1,0.5-1.5c0.1,0.1,0.1,0.5,0.3,0.5c0,0,0,0,0-0.1c0,0,0.1,0.1,0.1,0.1c0.3-0.2,0.8-1,0.7-1.3c0,0,0,0,0,0.1
		c1.2-0.5,1.3-2.5,1.3-3.5c0,0.1,0.2,0.4,0.3,0.4c0.2,0.1,0.5-0.6,0.6-0.7c0.3-0.6,0.3-1.3,0.3-1.9c0.1,0.3,0.1,0.5,0.2,0.8
		c0,0.1,0.2,0.3,0.2,0.4c0,0.1-0.3,0.7-0.3,0.9c-0.1,0.5-0.3,0.9-0.5,1.3c-0.1,0.2-0.2,0.5-0.4,0.7c-0.1,0.1-0.4,0.4-0.4,0.6
		c0,0-0.1,0,0,0.1c0,0,0.3,0,0.2,0c-0.2,0.5-0.5,0.9-0.8,1.3c-0.1,0.1-0.8,0.8-0.8,0.8c0.1,0,0.1,0,0.1,0c0.1,0.2,1,0.1,1.1,0
		c0.4-0.1,0.8-0.3,1.1-0.6c-0.1,0.3-0.1,0.6-0.2,0.8c0,0.2-0.1,0.8,0.1,0.9c0.2,0.2,0.8-0.3,1-0.5c0,0.1,0.2,1.1,0.3,1c0,0,0,0,0,0
		c0.1,0.1,0.6-0.4,0.6-0.5c0.2-0.2,0.3-0.5,0.4-0.8c0.1,0.1,0.5,0.9,0.7,0.8c0,0,0,0,0,0c0.2-0.1,0.2-1.1,0.3-1.3
		c0.1-0.5,0.4-0.9,0.6-1.4c0.3,0.4,0.6,0.9,0.9,1.4c0.2,0.4,0.5,0.9,0.3,1.3c-0.3,0.9-1,1.6-1.1,2.6c0,0.1,0,0.3,0.1,0.4
		c0.1,0.2,0.2,0.1,0.2,0.3c0,0.2-0.3,0.6-0.4,0.8c-0.1,0.2-0.3,0.4-0.4,0.6c-0.3,0.4-0.5,0.7-0.6,1.1c-0.1,0.5,0,0.6,0.4,0.8
		c-0.2,0.5-0.4,1.1-0.7,1.6c-0.2,0.4-0.5,0.8-0.7,1.3c-0.1,0.3-0.3,0.8-0.2,1.1c0.1,0.3,0.6,0.4,0.8,0.4c0.3,0.1,0.6,0.2,0.8-0.1
		c0.2-0.4,0.2-0.8,0.4-1.2c-0.2,0.6-0.5,1.5,0.2,1.8c0.2,0.1,0.4,0.1,0.5,0.1c0.5,0.1,0.7-0.1,0.8-0.6c0,0.7,0.4,0.8,1,0.9
		c0.6,0,0.8-0.2,0.8-0.8c0,0.7,0.3,0.9,0.9,0.9c0.6,0,0.9-0.2,0.8-0.9c0.1,0.6,0.2,0.8,0.9,0.8c0.6,0,1-0.2,1-0.8
		c0.1,0.5,0.2,0.6,0.7,0.6c0.2,0,0.4-0.1,0.6-0.1c0.8-0.3,0.4-1.2,0.2-1.8c0.2,0.4,0.2,0.8,0.4,1.2c0.2,0.3,0.5,0.2,0.8,0.1
		c0.3-0.1,0.7-0.1,0.8-0.4c0.2-0.3,0-0.8-0.1-1.1c-0.2-0.4-0.5-0.8-0.7-1.2c-0.3-0.5-0.5-1.1-0.7-1.6c0.4-0.2,0.5-0.3,0.5-0.7
		c-0.1-0.5-0.3-0.8-0.6-1.2c-0.3-0.4-0.7-0.9-0.8-1.4c-0.1-0.3,0-0.1,0.1-0.3c0.1-0.1,0.1-0.3,0.1-0.5c-0.1-1-0.8-1.7-1.1-2.6
		c-0.1-0.4,0.1-0.9,0.3-1.2c0.2-0.5,0.5-1,0.9-1.4c0.2,0.4,0.4,0.9,0.6,1.4c0.1,0.3,0.1,1.3,0.3,1.3c0,0,0,0,0,0
		c0.1,0.1,0.6-0.7,0.7-0.8c0.1,0.3,0.2,0.6,0.4,0.8c0.1,0.1,0.6,0.6,0.6,0.5c0,0,0,0,0,0c0.1,0.1,0.3-0.9,0.3-1
		c0.2,0.2,0.8,0.6,1,0.5C43,63.7,43,63.2,43,63c0-0.3-0.1-0.6-0.2-0.9c0.3,0.3,0.7,0.5,1.1,0.6c0.2,0,1,0.1,1.1,0c0,0,0,0,0.1,0
		c0,0-0.7-0.7-0.8-0.8c-0.3-0.4-0.6-0.9-0.8-1.3c-0.1,0,0.2,0,0.2,0c0,0,0-0.1,0-0.1c0-0.1-0.3-0.5-0.4-0.6
		c-0.1-0.2-0.2-0.4-0.4-0.6c-0.2-0.4-0.4-0.9-0.5-1.4c-0.1-0.2-0.3-0.7-0.3-0.9c0,0,0.2-0.3,0.2-0.4c0.1-0.2,0.2-0.5,0.2-0.8
		c0,0.7,0,1.3,0.3,1.9c0.1,0.2,0.4,0.8,0.6,0.7c0,0,0.2-0.4,0.3-0.4c0.1,1.1,0.2,3,1.3,3.5c0,0,0,0,0-0.1c-0.1,0.3,0.5,1.1,0.7,1.3
		c0,0,0-0.1,0.1-0.1c0,0,0,0,0,0.1c0.2-0.1,0.2-0.4,0.3-0.5c0.1,0.5,0.2,1,0.5,1.5c0.1,0.2,0.7,1.2,0.9,1c0,0,0.4-1.2,0.5-1.3
		c0.4,0.8,1,1.3,1.9,1.4c0,0,0-0.1,0-0.1c0,0.2,0-0.2,0-0.3c-0.1-0.4-0.1-0.7-0.2-1.1c-0.1-0.8-0.1-1.5-0.1-2.3
		c0-1.3,0.2-2.4,0.4-3.6c0.2-1.5,0.5-3.1,0.6-4.7c0-0.8-0.1-1.6,0-2.3c0.1-0.7,0.2-1.3,0.2-2C50.8,48.4,50.8,44.7,50.7,44.3z"/>
	<path class="st4" d="M41.5,44.7v10.7v0c0,1.9-0.7,3.7-1.9,4.9c-1.2,1.3-2.9,2-4.7,2h0c-1.8,0-3.5-0.8-4.7-2c-1.2-1.3-1.9-3-1.9-4.9
		V44.7L41.5,44.7L41.5,44.7z"/>
	<path class="st5" d="M40.1,35.7l0.2-0.2c0.1-0.1,0-0.3-0.2-0.5c-0.2,0.1-0.3,0.1-0.4,0.2C39.8,35.4,39.9,35.6,40.1,35.7L40.1,35.7z
		"/>
	<path class="st5" d="M39.9,35.8c0,0,0.1,0.1,0.1,0.1c0.3-0.1,0.5-0.4,0.6-0.7c0.1-0.1,0.1-0.3,0.2-0.4c0,0-0.1,0-0.1-0.1
		c-0.2,0.3-0.3,0.6-0.6,0.8C40.1,35.7,40,35.7,39.9,35.8L39.9,35.8z M39.2,35.3c0,0-0.1,0-0.1,0.1c0.1,0.2,0.3,0.4,0.5,0.5
		c0.1,0.1,0.3,0.1,0.4,0.1c0,0,0.1,0,0.1,0c0,0,0-0.1-0.1-0.1c-0.1,0.1-0.2,0-0.3,0c-0.2-0.1-0.3-0.2-0.4-0.4
		C39.2,35.3,39.2,35.3,39.2,35.3L39.2,35.3z"/>
	<path class="st5" d="M41.1,34.7c0,0.1,0,0.1,0,0.2C41.2,34.9,41.2,34.8,41.1,34.7C41.1,34.7,41.1,34.7,41.1,34.7z M39.6,35.1
		c0,0,0,0.1,0.1,0.1c0.4-0.1,0.7-0.3,1.1-0.3c0.1,0,0.3,0,0.4,0c0-0.1,0-0.1,0-0.2c-0.4,0-0.7,0.1-1.1,0.2
		C39.9,35,39.7,35.1,39.6,35.1L39.6,35.1z M38.7,35.4c0,0.1,0,0.1,0,0.2c0.1,0,0.3,0,0.4-0.1c0.2-0.1,0.4-0.1,0.5-0.2
		c0,0,0-0.1-0.1-0.1C39.3,35.2,39.1,35.3,38.7,35.4C38.8,35.4,38.7,35.4,38.7,35.4L38.7,35.4z M38.7,35.5c0-0.1,0-0.1,0-0.2
		C38.6,35.3,38.6,35.4,38.7,35.5C38.6,35.5,38.7,35.5,38.7,35.5z"/>
	<path class="st3" d="M41.3,37.9c-1-0.2-1.6-0.4-1.8-0.4c0,0,0,0,0,0c0.2-0.2,0.4-0.3,0.6-0.5c0.7,0.1,0.6-0.1,0.9-0.3
		c0.3-0.4,0.9-0.1,1,0.4c0.1,0.3,0.2,0.3,0.5,0c1.5-1.5,1.6-2.6,0-2.8l0,0c-0.4-0.7-1.4,0-1.3,0.4c0,0.2-3.6,4.2-2.2,4
		c0.6-0.1,1.3,0.3,2,0.2c0.1,0,0.1-0.1,0.3-0.5c-0.1,0-0.2,0-0.3,0c1.4,0,2.2-0.4,2.4-1.3C42.7,37.8,42.1,38.1,41.3,37.9z"/>
	<path class="st5" d="M29.7,35.7l-0.2-0.2c-0.1-0.1,0-0.3,0.2-0.5c0.2,0.1,0.3,0.1,0.4,0.2C30,35.4,29.9,35.6,29.7,35.7L29.7,35.7z"
		/>
	<path class="st5" d="M29.9,35.8c0,0-0.1,0.1-0.1,0.1c-0.3-0.1-0.5-0.4-0.6-0.7c-0.1-0.1-0.1-0.3-0.2-0.4c0,0,0.1,0,0.1-0.1
		c0.2,0.3,0.3,0.6,0.6,0.8C29.8,35.7,29.8,35.7,29.9,35.8L29.9,35.8z M30.7,35.3c0,0,0.1,0,0.1,0.1c-0.1,0.2-0.3,0.4-0.5,0.5
		C30.2,36,30,36,29.9,35.9c0,0-0.1,0-0.1,0c0,0,0-0.1,0.1-0.1c0.1,0.1,0.2,0,0.3,0c0.2-0.1,0.3-0.2,0.4-0.4
		C30.6,35.3,30.6,35.3,30.7,35.3L30.7,35.3z"/>
	<path class="st3" d="M28.6,34.8c0.1-0.4-0.9-1.1-1.3-0.4l0,0c-1.6,0.2-1.6,1.3,0,2.8c0.3,0.3,0.4,0.3,0.5,0c0.1-0.5,0.7-0.8,1-0.4
		C29,37,29,37.1,29.7,37c0.2,0.2,0.5,0.4,0.6,0.5c0,0,0,0,0,0c-0.2,0-0.8,0.1-1.8,0.4c-0.7,0.2-1.4-0.1-2-0.8c0.2,0.9,1,1.4,2.4,1.3
		c-0.1,0-0.2,0-0.3,0c0.2,0.4,0.2,0.4,0.3,0.5c0.6,0.1,1.3-0.3,2-0.2C32.2,39.1,28.6,35,28.6,34.8z"/>
	<path class="st5" d="M28.7,34.7c0,0.1,0,0.1,0,0.2C28.7,34.9,28.6,34.8,28.7,34.7C28.7,34.7,28.7,34.7,28.7,34.7z M30.2,35.1
		c0,0,0,0.1-0.1,0.1c-0.4-0.1-0.7-0.3-1.1-0.3c-0.1,0-0.3,0-0.4,0c0-0.1,0-0.1,0-0.2c0.4,0,0.7,0.1,1.1,0.2
		C29.9,35,30.1,35.1,30.2,35.1L30.2,35.1z M31.1,35.4c0,0.1,0,0.1,0,0.2c-0.1,0-0.3,0-0.4-0.1c-0.2-0.1-0.4-0.1-0.5-0.2
		c0,0,0-0.1,0.1-0.1C30.5,35.2,30.7,35.3,31.1,35.4C31,35.4,31.1,35.4,31.1,35.4L31.1,35.4z M31.1,35.5c0-0.1,0-0.1,0-0.2
		C31.2,35.3,31.2,35.4,31.1,35.5C31.2,35.5,31.1,35.5,31.1,35.5z"/>
	<path id="e" class="st1" d="M37.2,50.1v-3.9c0.8-0.2,2.9-1,3,0.8c0,0.8-1,1.4-1.3,0.6c-0.1-0.3,0-0.6,0.2-0.7
		c0.2-0.1,0.4,0.1,0.4,0.4c0.9-0.5-0.8-1.4-1.5-0.2c-0.2,0.4,0.4,0.8,0.4,1c0,0.3-0.6,0.7-0.4,1c0.8,1.3,2.4,0.3,1.5-0.2
		c0.1,0.3-0.2,0.4-0.4,0.4c-0.2-0.1-0.4-0.3-0.2-0.7c0.3-0.7,1.4-0.2,1.3,0.6C40.1,51.2,38,50.4,37.2,50.1L37.2,50.1z"/>
	<path id="e_1_" class="st1" d="M32.6,50.1v-3.9c-0.8-0.2-2.9-1-3,0.8c0,0.8,1,1.4,1.3,0.6c0.1-0.3,0-0.6-0.2-0.7
		c-0.2-0.1-0.4,0.1-0.4,0.4c-0.9-0.5,0.8-1.4,1.5-0.2c0.2,0.4-0.4,0.8-0.4,1c0,0.3,0.6,0.7,0.4,1c-0.8,1.3-2.4,0.3-1.5-0.2
		c-0.1,0.3,0.2,0.4,0.4,0.4c0.2-0.1,0.4-0.3,0.2-0.7c-0.3-0.7-1.4-0.2-1.3,0.6C29.7,51.2,31.8,50.4,32.6,50.1L32.6,50.1z"/>
	<path id="e_2_" class="st1" d="M32.6,59.1v-3.9c-0.8-0.2-2.9-1-3,0.8c0,0.8,1,1.4,1.3,0.6c0.1-0.3,0-0.6-0.2-0.7
		c-0.2-0.1-0.4,0.1-0.4,0.4c-0.9-0.5,0.8-1.4,1.5-0.2c0.2,0.4-0.4,0.8-0.4,1c0,0.3,0.6,0.7,0.4,1c-0.8,1.3-2.4,0.3-1.5-0.2
		c-0.1,0.3,0.2,0.4,0.4,0.4c0.2-0.1,0.4-0.3,0.2-0.7c-0.3-0.7-1.4-0.2-1.3,0.6C29.7,60.1,31.8,59.3,32.6,59.1L32.6,59.1z"/>
	<path id="e_3_" class="st1" d="M37.2,59.1v-3.9c0.8-0.2,2.9-1,3,0.8c0,0.8-1,1.4-1.3,0.6c-0.1-0.3,0-0.6,0.2-0.7
		c0.2-0.1,0.4,0.1,0.4,0.4c0.9-0.5-0.8-1.4-1.5-0.2c-0.2,0.4,0.4,0.8,0.4,1c0,0.3-0.6,0.7-0.4,1c0.8,1.3,2.4,0.3,1.5-0.2
		c0.1,0.3-0.2,0.4-0.4,0.4c-0.2-0.1-0.4-0.3-0.2-0.7c0.3-0.7,1.4-0.2,1.3,0.6C40.1,60.1,38,59.3,37.2,59.1L37.2,59.1z"/>
	<rect x="33.5" y="44.1" class="st1" width="2.8" height="18.8"/>
	
		<rect x="33.5" y="43.3" transform="matrix(-1.836970e-16 1 -1 -1.836970e-16 87.5778 17.8049)" class="st1" width="2.8" height="18.8"/>
</g>
</svg>
