<?xml version="1.0" encoding="utf-8"?>
<!-- Generator: Adobe Illustrator 21.1.0, SVG Export Plug-In . SVG Version: 6.00 Build 0)  -->
<svg version="1.1" id="Layer_1" xmlns="http://www.w3.org/2000/svg" xmlns:xlink="http://www.w3.org/1999/xlink" x="0px" y="0px"
	 viewBox="0 0 100 100" style="enable-background:new 0 0 100 100;" xml:space="preserve">
<g>
	<g>
		<g>
			<path style="fill:#EB2227;" d="M1.8,38.1C8.4,11.5,35.3-4.8,61.9,1.8c26.6,6.6,42.8,33.5,36.3,60.1
				c-6.6,26.6-33.5,42.8-60.1,36.3C11.5,91.6-4.8,64.7,1.8,38.1"/>
			<path style="fill:#FFFFFF;" d="M3.2,33.3h93.5C91.3,18.2,78.7,6,61.9,1.8C36.9-4.4,11.7,9.6,3.2,33.3"/>
			<path style="fill:#2D368F;" d="M98.6,60.2c0-0.1,0-0.2,0.1-0.3c0-0.2,0.1-0.4,0.1-0.6c0-0.1,0-0.2,0.1-0.3c0-0.2,0.1-0.4,0.1-0.6
				c0-0.1,0-0.2,0-0.3c0-0.2,0.1-0.5,0.1-0.7c0,0,0-0.1,0-0.1c0-0.3,0.1-0.6,0.1-0.9c0-0.1,0-0.2,0-0.2c0-0.2,0.1-0.4,0.1-0.6
				c0-0.1,0-0.2,0-0.3c0-0.2,0-0.4,0.1-0.6c0-0.1,0-0.2,0-0.3c0-0.2,0-0.4,0-0.6c0-0.1,0-0.2,0-0.3c0-0.2,0-0.4,0-0.7
				c0-0.1,0-0.1,0-0.2c0-0.3,0-0.6,0-0.9c0,0,0-0.1,0-0.1c0-0.2,0-0.5,0-0.7c0-0.1,0-0.2,0-0.3c0-0.2,0-0.4,0-0.6c0-0.1,0-0.2,0-0.3
				c0-0.2,0-0.4,0-0.6c0-0.1,0-0.2,0-0.3c0-0.2,0-0.4,0-0.6c0-0.1,0-0.1,0-0.2c0-0.6-0.1-1.1-0.1-1.7c0-0.1,0-0.1,0-0.2
				c0-0.2,0-0.4-0.1-0.6c0-0.1,0-0.2,0-0.3c0-0.2,0-0.4-0.1-0.6c0-0.1,0-0.2,0-0.3c0-0.2,0-0.4-0.1-0.6c0-0.1,0-0.1,0-0.2
				c-0.1-0.6-0.2-1.1-0.2-1.7c0-0.1,0-0.1,0-0.2c0-0.2-0.1-0.5-0.1-0.7c0-0.1,0-0.2,0-0.2c0-0.2-0.1-0.4-0.1-0.6c0-0.1,0-0.2,0-0.2
				c0-0.2-0.1-0.4-0.1-0.6c0-0.1,0-0.1,0-0.2c-0.1-0.3-0.1-0.5-0.2-0.8l0-0.1c-0.1-0.3-0.1-0.5-0.2-0.8h0c-0.4-1.5-0.8-2.9-1.3-4.3
				H3.2c-0.5,1.5-1,3.1-1.4,4.7C0.2,44.7,0,51.4,1,57.8c0,0,0,0.1,0,0.1c0,0.2,0.1,0.5,0.1,0.7c0,0,0,0.1,0,0.1
				c0,0.2,0.1,0.4,0.1,0.7c0,0.1,0,0.1,0,0.2c0,0.2,0.1,0.4,0.1,0.6c0,0.1,0,0.2,0.1,0.2c0,0.2,0.1,0.4,0.1,0.6c0,0.1,0,0.2,0.1,0.3
				c0,0.2,0.1,0.4,0.1,0.5c0,0.1,0.1,0.3,0.1,0.4C1.9,62.4,2,62.6,2,62.8c0.1,0.2,0.1,0.4,0.2,0.6c0,0.1,0.1,0.2,0.1,0.3
				c0.1,0.2,0.1,0.4,0.2,0.6c0,0.1,0.1,0.2,0.1,0.3c0.1,0.2,0.1,0.4,0.2,0.6c0,0.1,0.1,0.2,0.1,0.3c0.1,0.2,0.1,0.4,0.2,0.6
				C3,66,3,66.1,3.1,66.2c0.1,0.2,0.1,0.4,0.2,0.6c0,0,0,0.1,0,0.1h0c0,0.1,0.1,0.2,0.1,0.3h93.1c0-0.1,0.1-0.2,0.1-0.3h0
				c0.1-0.3,0.2-0.6,0.3-0.9c0,0,0-0.1,0-0.1c0.1-0.4,0.3-0.8,0.4-1.2c0-0.1,0-0.1,0.1-0.2c0.1-0.4,0.2-0.7,0.3-1.1
				c0-0.1,0-0.2,0.1-0.2c0.1-0.4,0.2-0.9,0.3-1.3c0.1-0.3,0.1-0.6,0.2-0.9c0-0.1,0-0.2,0.1-0.3C98.5,60.6,98.5,60.4,98.6,60.2"/>
		</g>
	</g>
	<g>
		<polyline style="fill:none;stroke:#231F20;stroke-width:0.1539;stroke-miterlimit:3.8637;" points="25.7,47.4 26,47.4 26,47.6 
			26.5,47.6 26.7,47.9 27,47.9 27.2,47.9 27.7,47.9 28,47.9 28.2,47.9 28.5,47.9 28.7,47.9 28.7,47.6 29,47.6 29.3,47.6 29.5,47.4 
					"/>
		<polyline style="fill:none;stroke:#231F20;stroke-width:0.1539;stroke-miterlimit:3.8637;" points="33.5,47.4 33.8,47.6 
			34.1,47.6 34.6,47.9 35.1,47.9 35.3,47.9 35.6,47.9 35.8,47.9 36.3,47.9 36.6,47.9 36.6,47.6 36.8,47.6 37.1,47.6 37.3,47.4 		"/>
		<polyline style="fill:none;stroke:#231F20;stroke-width:0.1539;stroke-miterlimit:3.8637;" points="41.1,47.4 41.4,47.6 
			41.6,47.6 41.9,47.6 42.1,47.9 42.4,47.9 42.6,47.9 42.9,47.9 43.1,47.9 43.4,47.9 43.6,47.9 43.9,47.9 44.2,47.9 44.4,47.6 
			44.7,47.6 44.9,47.4 45.2,47.4 		"/>
		<polyline style="fill:none;stroke:#231F20;stroke-width:0.1539;stroke-miterlimit:3.8637;" points="33.5,47.4 33.3,47.4 33,47.1 
			32.8,47.1 32.5,46.9 32.3,46.9 32,46.9 31.8,46.9 31.5,46.9 31.3,46.9 31,46.9 30.8,46.9 30.5,46.9 30.3,47.1 30,47.1 29.8,47.4 
			29.5,47.4 		"/>
		<polyline style="fill:none;stroke:#231F20;stroke-width:0.1539;stroke-miterlimit:3.8637;" points="41.1,47.4 40.9,47.1 
			40.6,47.1 40.4,46.9 40.1,46.9 39.9,46.9 39.6,46.9 39.4,46.9 39.1,46.9 38.9,46.9 38.6,46.9 38.3,46.9 38.1,47.1 37.8,47.1 
			37.6,47.4 37.3,47.4 		"/>
		<polyline style="fill-rule:evenodd;clip-rule:evenodd;fill:#EB2227;" points="35.2,57.8 34.7,57.6 33.9,57.3 33.2,57.1 32.4,56.8 
			31.9,56.6 31.1,56.1 30.6,55.8 29.9,55.3 29.4,54.8 28.9,54.3 28.1,54.1 27.6,53.6 27.1,53 26.6,52.5 26.1,51.8 25.6,51.3 
			25.3,50.8 24.8,50 24.3,49.5 23.8,49 23.6,48.2 23.3,47.5 22.8,47 22.6,46.2 22.3,45.5 22.1,44.7 22.1,44.2 21.8,43.4 21.5,42.7 
			21.5,41.9 21.3,41.2 21.3,40.4 19.8,21.7 20.3,21.5 20.8,21.2 21,21.2 21.5,21 22.1,20.7 22.6,20.7 23.1,20.5 23.6,20.2 23.8,20 
			24.3,20 24.8,19.7 25.3,19.7 25.8,19.4 26.3,19.4 26.8,19.2 27.4,19.2 27.9,18.9 28.4,18.9 28.9,18.7 29.4,18.7 29.9,18.7 
			30.4,18.4 30.9,18.4 31.4,18.4 31.7,18.4 32.4,18.2 32.9,18.2 33.2,18.2 33.7,18.2 34.2,18.2 34.9,18.2 35.2,18.2 35.7,18.2 
			36.2,18.2 36.7,18.2 37.2,18.2 37.7,18.2 38.2,18.2 38.7,18.4 39.2,18.4 39.7,18.4 40.2,18.4 40.7,18.7 41.3,18.7 41.8,18.7 
			42.3,18.9 42.8,18.9 43.3,19.2 43.8,19.2 44.3,19.4 44.8,19.4 45.3,19.7 45.8,19.7 46.3,20 46.8,20 47.3,20.2 47.6,20.5 
			48.1,20.7 48.6,20.7 49.1,21 49.6,21.2 50.1,21.2 50.3,21.5 50.9,21.7 49.3,40.4 49.3,41.2 49.1,41.9 49.1,42.7 48.8,43.4 
			48.6,44.2 48.6,44.7 48.3,45.5 47.8,46.2 47.6,47 47.3,47.5 47.1,48.2 46.6,49 46.3,49.5 45.8,50 45.5,50.8 45,51.3 44.5,51.8 
			44,52.5 43.5,53 43,53.6 42.5,54.1 41.8,54.3 41.3,54.8 40.7,55.3 40,55.8 39.5,56.1 38.7,56.6 38.2,56.8 37.5,57.1 36.7,57.3 
			35.9,57.6 35.2,57.8 		"/>
		<polyline style="fill:none;stroke:#231F20;stroke-width:0.1539;stroke-miterlimit:3.8637;" points="35.2,57.8 34.7,57.6 
			33.9,57.3 33.2,57.1 32.4,56.8 31.9,56.6 31.1,56.1 30.6,55.8 29.9,55.3 29.4,54.8 28.9,54.3 28.1,54.1 27.6,53.6 27.1,53 
			26.6,52.5 26.1,51.8 25.6,51.3 25.3,50.8 24.8,50 24.3,49.5 23.8,49 23.6,48.2 23.3,47.5 22.8,47 22.6,46.2 22.3,45.5 22.1,44.7 
			22.1,44.2 21.8,43.4 21.5,42.7 21.5,41.9 21.3,41.2 21.3,40.4 19.8,21.7 20.3,21.5 20.8,21.2 21,21.2 21.5,21 22.1,20.7 
			22.6,20.7 23.1,20.5 23.6,20.2 23.8,20 24.3,20 24.8,19.7 25.3,19.7 25.8,19.4 26.3,19.4 26.8,19.2 27.4,19.2 27.9,18.9 
			28.4,18.9 28.9,18.7 29.4,18.7 29.9,18.7 30.4,18.4 30.9,18.4 31.4,18.4 31.7,18.4 32.4,18.2 32.9,18.2 33.2,18.2 33.7,18.2 
			34.2,18.2 34.9,18.2 35.2,18.2 35.7,18.2 36.2,18.2 36.7,18.2 37.2,18.2 37.7,18.2 38.2,18.2 38.7,18.4 39.2,18.4 39.7,18.4 
			40.2,18.4 40.7,18.7 41.3,18.7 41.8,18.7 42.3,18.9 42.8,18.9 43.3,19.2 43.8,19.2 44.3,19.4 44.8,19.4 45.3,19.7 45.8,19.7 
			46.3,20 46.8,20 47.3,20.2 47.6,20.5 48.1,20.7 48.6,20.7 49.1,21 49.6,21.2 50.1,21.2 50.3,21.5 50.9,21.7 49.3,40.4 49.3,41.2 
			49.1,41.9 49.1,42.7 48.8,43.4 48.6,44.2 48.6,44.7 48.3,45.5 47.8,46.2 47.6,47 47.3,47.5 47.1,48.2 46.6,49 46.3,49.5 45.8,50 
			45.5,50.8 45,51.3 44.5,51.8 44,52.5 43.5,53 43,53.6 42.5,54.1 41.8,54.3 41.3,54.8 40.7,55.3 40,55.8 39.5,56.1 38.7,56.6 
			38.2,56.8 37.5,57.1 36.7,57.3 35.9,57.6 35.2,57.8 		"/>
		<polyline style="fill-rule:evenodd;clip-rule:evenodd;fill:#2D368F;" points="35.4,56.6 34.7,56.6 33.9,56.1 33.4,56.1 32.7,55.6 
			32.2,55.3 31.7,55.1 30.9,54.6 30.4,54.3 29.9,53.8 29.1,53.3 28.6,53 28.1,52.5 27.6,52 27.1,51.5 26.8,51 26.3,50.5 25.8,49.8 
			25.6,49.3 25.1,48.7 24.8,48.2 24.6,47.5 24.1,47 23.8,46.2 23.6,45.7 23.3,45 23.1,44.5 23.1,43.7 22.8,42.9 22.6,42.4 
			22.6,41.7 22.3,40.9 22.3,40.2 20.8,21.2 21.3,21 21.8,21 22.3,20.7 22.6,20.7 23.1,20.5 23.6,20.2 23.8,20.2 24.3,20 24.8,20 
			25.3,19.7 25.6,19.7 26.1,19.4 26.6,19.4 27.1,19.2 27.4,19.2 27.9,18.9 28.4,18.9 28.9,18.9 29.4,18.7 29.9,18.7 30.1,18.7 
			30.6,18.4 31.1,18.4 31.7,18.4 31.9,18.4 32.4,18.2 32.9,18.2 33.4,18.2 33.9,18.2 34.4,18.2 34.9,18.2 35.2,18.2 35.7,18.2 
			36.2,18.2 36.7,18.2 37.2,18.2 37.7,18.2 38,18.2 38.5,18.4 39,18.4 39.5,18.4 40,18.4 40.2,18.7 40.7,18.7 41.3,18.7 41.8,18.9 
			42.3,18.9 42.5,18.9 43,19.2 43.5,19.2 44,19.2 44.5,19.4 44.8,19.4 45.3,19.7 45.8,19.7 46.3,20 46.6,20.2 47.1,20.2 47.6,20.5 
			48.1,20.5 48.3,20.7 48.8,20.7 49.3,21 49.6,21.2 48.1,40.2 48.1,40.9 48.1,41.7 47.8,42.2 47.8,42.9 47.6,43.7 47.3,44.2 
			47.3,45 47.1,45.7 46.8,46.2 46.3,47 46,47.5 45.8,48 45.5,48.7 45,49.3 44.5,49.8 44.3,50.3 43.8,51 43.3,51.3 42.8,52 
			42.5,52.5 41.8,52.8 41.3,53.3 40.7,53.8 40.2,54.3 39.7,54.6 39.2,54.8 38.5,55.3 38,55.6 37.2,56.1 36.7,56.1 35.9,56.3 
			35.4,56.6 		"/>
		<polyline style="fill:none;stroke:#231F20;stroke-width:0.1539;stroke-miterlimit:3.8637;" points="35.4,56.6 34.7,56.6 
			33.9,56.1 33.4,56.1 32.7,55.6 32.2,55.3 31.7,55.1 30.9,54.6 30.4,54.3 29.9,53.8 29.1,53.3 28.6,53 28.1,52.5 27.6,52 
			27.1,51.5 26.8,51 26.3,50.5 25.8,49.8 25.6,49.3 25.1,48.7 24.8,48.2 24.6,47.5 24.1,47 23.8,46.2 23.6,45.7 23.3,45 23.1,44.5 
			23.1,43.7 22.8,42.9 22.6,42.4 22.6,41.7 22.3,40.9 22.3,40.2 20.8,21.2 21.3,21 21.8,21 22.3,20.7 22.6,20.7 23.1,20.5 
			23.6,20.2 23.8,20.2 24.3,20 24.8,20 25.3,19.7 25.6,19.7 26.1,19.4 26.6,19.4 27.1,19.2 27.4,19.2 27.9,18.9 28.4,18.9 
			28.9,18.9 29.4,18.7 29.9,18.7 30.1,18.7 30.6,18.4 31.1,18.4 31.7,18.4 31.9,18.4 32.4,18.2 32.9,18.2 33.4,18.2 33.9,18.2 
			34.4,18.2 34.9,18.2 35.2,18.2 35.7,18.2 36.2,18.2 36.7,18.2 37.2,18.2 37.7,18.2 38,18.2 38.5,18.4 39,18.4 39.5,18.4 40,18.4 
			40.2,18.7 40.7,18.7 41.3,18.7 41.8,18.9 42.3,18.9 42.5,18.9 43,19.2 43.5,19.2 44,19.2 44.5,19.4 44.8,19.4 45.3,19.7 
			45.8,19.7 46.3,20 46.6,20.2 47.1,20.2 47.6,20.5 48.1,20.5 48.3,20.7 48.8,20.7 49.3,21 49.6,21.2 48.1,40.2 48.1,40.9 
			48.1,41.7 47.8,42.2 47.8,42.9 47.6,43.7 47.3,44.2 47.3,45 47.1,45.7 46.8,46.2 46.3,47 46,47.5 45.8,48 45.5,48.7 45,49.3 
			44.5,49.8 44.3,50.3 43.8,51 43.3,51.3 42.8,52 42.5,52.5 41.8,52.8 41.3,53.3 40.7,53.8 40.2,54.3 39.7,54.6 39.2,54.8 
			38.5,55.3 38,55.6 37.2,56.1 36.7,56.1 35.9,56.3 35.4,56.6 		"/>
		<polyline style="fill-rule:evenodd;clip-rule:evenodd;fill:#FCEE1F;" points="34.4,27.3 33.7,26.3 34.9,26.3 35.2,25.5 35.7,26.3 
			36.7,26.3 36.2,27.3 36.7,28 35.7,27.8 35.2,28.8 34.9,27.8 33.7,28 34.4,27.3 		"/>
		<polyline style="fill:none;stroke:#231F20;stroke-width:0.1539;stroke-miterlimit:3.8637;" points="34.4,27.3 33.7,26.3 
			34.9,26.3 35.2,25.5 35.7,26.3 36.7,26.3 36.2,27.3 36.7,28 35.7,27.8 35.2,28.8 34.9,27.8 33.7,28 34.4,27.3 		"/>
		<polyline style="fill-rule:evenodd;clip-rule:evenodd;fill:#FCEE1F;" points="30.6,21 31.1,20 31.7,21 32.7,20.7 32.2,21.7 
			32.7,22.5 31.7,22.5 31.1,23.5 30.6,22.5 29.6,22.5 30.4,21.7 29.6,20.7 30.6,21 		"/>
		<polyline style="fill:none;stroke:#231F20;stroke-width:0.1539;stroke-miterlimit:3.8637;" points="30.6,21 31.1,20 31.7,21 
			32.7,20.7 32.2,21.7 32.7,22.5 31.7,22.5 31.1,23.5 30.6,22.5 29.6,22.5 30.4,21.7 29.6,20.7 30.6,21 		"/>
		<polyline style="fill-rule:evenodd;clip-rule:evenodd;fill:#FCEE1F;" points="39,21 39.5,20 39.7,21 41,20.7 40.2,21.7 41,22.5 
			39.7,22.5 39.5,23.5 39,22.5 38,22.5 38.5,21.7 38,20.7 39,21 		"/>
		<polyline style="fill:none;stroke:#231F20;stroke-width:0.1539;stroke-miterlimit:3.8637;" points="39,21 39.5,20 39.7,21 
			41,20.7 40.2,21.7 41,22.5 39.7,22.5 39.5,23.5 39,22.5 38,22.5 38.5,21.7 38,20.7 39,21 		"/>
		<polyline style="fill-rule:evenodd;clip-rule:evenodd;fill:#FFFFFF;" points="23.6,42.7 29.4,34.9 31.7,38.1 35.2,31.1 38.7,38.1 
			41,34.9 47.1,42.7 47.1,43.2 46.8,43.4 46.8,44 46.6,44.2 46.6,44.7 46.3,45 46,45.2 45.8,45.5 45.5,45.7 45.3,46 45,46.2 
			44.5,46.2 44.3,46.5 43.8,46.5 43.5,46.5 43,46.5 42.8,46.5 42.5,46.5 42.3,46.5 42,46.5 41.8,46.5 41.5,46.2 41.3,46.2 41,46.2 
			41,46 40.7,46 40.5,45.7 40.2,45.7 40,45.7 39.7,45.7 39.5,45.5 39.2,45.5 39,45.5 38.7,45.7 38.5,45.7 38.2,45.7 38,45.7 
			37.7,46 37.5,46 37.2,46.2 37,46.2 36.7,46.2 36.4,46.5 36.2,46.5 35.9,46.5 35.7,46.5 35.4,46.5 35.2,46.5 34.9,46.5 34.4,46.5 
			34.2,46.5 33.9,46.5 33.7,46.2 33.4,46.2 33.2,46 32.9,46 32.7,45.7 32.4,45.7 32.2,45.7 31.9,45.7 31.7,45.5 31.4,45.5 
			31.1,45.5 30.9,45.7 30.6,45.7 30.4,45.7 30.1,45.7 29.9,46 29.6,46 29.4,46.2 29.1,46.2 28.9,46.2 28.6,46.5 28.4,46.5 
			28.1,46.5 27.9,46.5 27.6,46.5 27.1,46.5 26.8,46.5 26.3,46.5 26.1,46.2 25.6,46.2 25.3,46 25.1,45.7 24.8,45.5 24.6,45.2 
			24.3,44.7 24.1,44.5 23.8,44.2 23.8,44 23.8,43.4 23.6,43.2 23.6,42.7 		"/>
		<polyline style="fill:none;stroke:#231F20;stroke-width:0.1539;stroke-miterlimit:3.8637;" points="23.6,42.7 29.4,34.9 
			31.7,38.1 35.2,31.1 38.7,38.1 41,34.9 47.1,42.7 47.1,43.2 46.8,43.4 46.8,44 46.6,44.2 46.6,44.7 46.3,45 46,45.2 45.8,45.5 
			45.5,45.7 45.3,46 45,46.2 44.5,46.2 44.3,46.5 43.8,46.5 43.5,46.5 43,46.5 42.8,46.5 42.5,46.5 42.3,46.5 42,46.5 41.8,46.5 
			41.5,46.2 41.3,46.2 41,46.2 41,46 40.7,46 40.5,45.7 40.2,45.7 40,45.7 39.7,45.7 39.5,45.5 39.2,45.5 39,45.5 38.7,45.7 
			38.5,45.7 38.2,45.7 38,45.7 37.7,46 37.5,46 37.2,46.2 37,46.2 36.7,46.2 36.4,46.5 36.2,46.5 35.9,46.5 35.7,46.5 35.4,46.5 
			35.2,46.5 34.9,46.5 34.4,46.5 34.2,46.5 33.9,46.5 33.7,46.2 33.4,46.2 33.2,46 32.9,46 32.7,45.7 32.4,45.7 32.2,45.7 
			31.9,45.7 31.7,45.5 31.4,45.5 31.1,45.5 30.9,45.7 30.6,45.7 30.4,45.7 30.1,45.7 29.9,46 29.6,46 29.4,46.2 29.1,46.2 
			28.9,46.2 28.6,46.5 28.4,46.5 28.1,46.5 27.9,46.5 27.6,46.5 27.1,46.5 26.8,46.5 26.3,46.5 26.1,46.2 25.6,46.2 25.3,46 
			25.1,45.7 24.8,45.5 24.6,45.2 24.3,44.7 24.1,44.5 23.8,44.2 23.8,44 23.8,43.4 23.6,43.2 23.6,42.7 		"/>
		<polyline style="fill-rule:evenodd;clip-rule:evenodd;fill:#FFFFFF;" points="26.6,48.7 26.3,48.5 26.1,48.2 26.1,48 25.8,47.7 
			25.8,47.5 25.6,47.5 25.6,47.2 25.8,47.2 26.1,47.5 26.3,47.5 26.6,47.7 26.8,47.7 27.1,47.7 27.6,47.7 27.9,47.7 28.1,47.7 
			28.4,47.7 28.6,47.7 28.6,47.5 28.9,47.5 29.1,47.5 29.4,47.2 29.6,47.2 29.9,47 30.1,47 30.4,47 30.6,46.7 30.9,46.7 31.1,46.7 
			31.4,46.7 31.7,46.7 31.9,46.7 32.2,46.7 32.4,46.7 32.7,47 32.9,47 33.2,47.2 33.4,47.2 33.7,47.5 33.9,47.5 34.2,47.7 
			34.4,47.7 34.9,47.7 35.2,47.7 35.4,47.7 35.7,47.7 35.9,47.7 36.2,47.7 36.4,47.5 36.7,47.5 37,47.5 37.2,47.2 37.5,47.2 
			37.7,47 38,47 38.2,46.7 38.5,46.7 38.7,46.7 39,46.7 39.2,46.7 39.5,46.7 39.7,46.7 40,46.7 40.2,46.7 40.5,47 40.7,47 41,47.2 
			41.3,47.5 41.5,47.5 41.8,47.5 42,47.7 42.3,47.7 42.5,47.7 42.8,47.7 43,47.7 43.3,47.7 43.5,47.7 43.8,47.7 44,47.7 44.3,47.5 
			44.5,47.5 44.8,47.2 45,47.2 45,47.5 44.8,47.5 44.8,47.7 44.5,48 44.5,48.2 44.3,48.5 44,48.7 43.8,48.7 43.5,49 43.3,49 43,49 
			42.8,49 42.5,49 42.3,48.7 42,48.7 41.8,48.7 41.5,48.7 41.3,48.5 41,48.5 41,48.2 40.7,48.2 40.5,48 40.2,48 40,48 39.7,48 
			39.5,48 39.2,48 39,48 38.7,48 38.5,48 38.2,48 38,48 37.7,48.2 37.5,48.2 37.2,48.5 37,48.5 36.7,48.7 36.4,48.7 36.2,48.7 
			35.9,48.7 35.7,49 35.4,49 35.2,49 34.9,49 34.4,48.7 34.2,48.7 33.7,48.7 33.7,48.5 33.4,48.5 33.2,48.2 32.9,48.2 32.7,48 
			32.4,48 32.2,48 31.9,48 31.7,48 31.4,48 31.1,48 30.9,48 30.6,48 30.4,48 30.1,48 29.9,48.2 29.6,48.2 29.4,48.5 29.1,48.5 
			28.9,48.7 28.6,48.7 28.4,48.7 28.1,49 27.9,49 27.6,49 27.4,49 27.1,49 26.8,48.7 26.6,48.7 		"/>
		<polyline style="fill:none;stroke:#231F20;stroke-width:0.1539;stroke-miterlimit:3.8637;" points="26.6,48.7 26.3,48.5 
			26.1,48.2 26.1,48 25.8,47.7 25.8,47.5 25.6,47.5 25.6,47.2 25.8,47.2 26.1,47.5 26.3,47.5 26.6,47.7 26.8,47.7 27.1,47.7 
			27.6,47.7 27.9,47.7 28.1,47.7 28.4,47.7 28.6,47.7 28.6,47.5 28.9,47.5 29.1,47.5 29.4,47.2 29.6,47.2 29.9,47 30.1,47 30.4,47 
			30.6,46.7 30.9,46.7 31.1,46.7 31.4,46.7 31.7,46.7 31.9,46.7 32.2,46.7 32.4,46.7 32.7,47 32.9,47 33.2,47.2 33.4,47.2 
			33.7,47.5 33.9,47.5 34.2,47.7 34.4,47.7 34.9,47.7 35.2,47.7 35.4,47.7 35.7,47.7 35.9,47.7 36.2,47.7 36.4,47.5 36.7,47.5 
			37,47.5 37.2,47.2 37.5,47.2 37.7,47 38,47 38.2,46.7 38.5,46.7 38.7,46.7 39,46.7 39.2,46.7 39.5,46.7 39.7,46.7 40,46.7 
			40.2,46.7 40.5,47 40.7,47 41,47.2 41.3,47.5 41.5,47.5 41.8,47.5 42,47.7 42.3,47.7 42.5,47.7 42.8,47.7 43,47.7 43.3,47.7 
			43.5,47.7 43.8,47.7 44,47.7 44.3,47.5 44.5,47.5 44.8,47.2 45,47.2 45,47.5 44.8,47.5 44.8,47.7 44.5,48 44.5,48.2 44.3,48.5 
			44,48.7 43.8,48.7 43.5,49 43.3,49 43,49 42.8,49 42.5,49 42.3,48.7 42,48.7 41.8,48.7 41.5,48.7 41.3,48.5 41,48.5 41,48.2 
			40.7,48.2 40.5,48 40.2,48 40,48 39.7,48 39.5,48 39.2,48 39,48 38.7,48 38.5,48 38.2,48 38,48 37.7,48.2 37.5,48.2 37.2,48.5 
			37,48.5 36.7,48.7 36.4,48.7 36.2,48.7 35.9,48.7 35.7,49 35.4,49 35.2,49 34.9,49 34.4,48.7 34.2,48.7 33.7,48.7 33.7,48.5 
			33.4,48.5 33.2,48.2 32.9,48.2 32.7,48 32.4,48 32.2,48 31.9,48 31.7,48 31.4,48 31.1,48 30.9,48 30.6,48 30.4,48 30.1,48 
			29.9,48.2 29.6,48.2 29.4,48.5 29.1,48.5 28.9,48.7 28.6,48.7 28.4,48.7 28.1,49 27.9,49 27.6,49 27.4,49 27.1,49 26.8,48.7 
			26.6,48.7 		"/>
		<polyline style="fill-rule:evenodd;clip-rule:evenodd;fill:#FFFFFF;" points="27.6,50 27.9,50.5 28.4,51 28.6,51.3 29.1,51.8 
			29.6,52.3 30.1,52.8 30.6,53 31.1,53.3 31.7,53.8 32.2,54.1 32.7,54.3 33.2,54.6 33.7,54.8 34.2,55.1 34.7,55.3 35.2,55.6 
			35.9,55.3 36.4,55.1 37,54.8 37.5,54.6 38,54.3 38.5,54.1 39,53.8 39.5,53.3 40,53 40.5,52.8 41,52.3 41.5,51.8 42,51.3 42.3,51 
			42.8,50.5 43,50 42.8,50 42.5,50 42.3,50 42,50 41.8,50 41.5,49.8 41.3,49.8 41,49.5 40.7,49.5 40.5,49.3 40.2,49.3 40,49.3 
			39.7,49 39.5,49 39.2,49 39,49 38.7,49 38.5,49.3 38.2,49.3 38,49.3 37.7,49.5 37.5,49.5 37.2,49.5 37,49.8 36.7,49.8 36.4,50 
			36.2,50 35.9,50 35.7,50 35.4,50 35.2,50 34.9,50 34.4,50 34.2,50 33.9,50 33.7,49.8 33.4,49.5 33.2,49.5 32.9,49.5 32.7,49.3 
			32.4,49.3 32.2,49.3 31.9,49 31.7,49 31.4,49 31.1,49 30.9,49 30.6,49.3 30.4,49.3 30.1,49.3 29.9,49.5 29.6,49.5 29.4,49.5 
			29.1,49.8 28.9,49.8 28.6,50 28.4,50 28.1,50 27.9,50 27.6,50 		"/>
		<polyline style="fill:none;stroke:#231F20;stroke-width:0.1539;stroke-miterlimit:3.8637;" points="27.6,50 27.9,50.5 28.4,51 
			28.6,51.3 29.1,51.8 29.6,52.3 30.1,52.8 30.6,53 31.1,53.3 31.7,53.8 32.2,54.1 32.7,54.3 33.2,54.6 33.7,54.8 34.2,55.1 
			34.7,55.3 35.2,55.6 35.9,55.3 36.4,55.1 37,54.8 37.5,54.6 38,54.3 38.5,54.1 39,53.8 39.5,53.3 40,53 40.5,52.8 41,52.3 
			41.5,51.8 42,51.3 42.3,51 42.8,50.5 43,50 42.8,50 42.5,50 42.3,50 42,50 41.8,50 41.5,49.8 41.3,49.8 41,49.5 40.7,49.5 
			40.5,49.3 40.2,49.3 40,49.3 39.7,49 39.5,49 39.2,49 39,49 38.7,49 38.5,49.3 38.2,49.3 38,49.3 37.7,49.5 37.5,49.5 37.2,49.5 
			37,49.8 36.7,49.8 36.4,50 36.2,50 35.9,50 35.7,50 35.4,50 35.2,50 34.9,50 34.4,50 34.2,50 33.9,50 33.7,49.8 33.4,49.5 
			33.2,49.5 32.9,49.5 32.7,49.3 32.4,49.3 32.2,49.3 31.9,49 31.7,49 31.4,49 31.1,49 30.9,49 30.6,49.3 30.4,49.3 30.1,49.3 
			29.9,49.5 29.6,49.5 29.4,49.5 29.1,49.8 28.9,49.8 28.6,50 28.4,50 28.1,50 27.9,50 27.6,50 		"/>
	</g>
</g>
</svg>
