<?xml version="1.0" encoding="utf-8"?>
<!-- Generator: Adobe Illustrator 21.1.0, SVG Export Plug-In . SVG Version: 6.00 Build 0)  -->
<svg version="1.1" id="Layer_1" xmlns="http://www.w3.org/2000/svg" xmlns:xlink="http://www.w3.org/1999/xlink" x="0px" y="0px"
	 viewBox="0 0 100 100" style="enable-background:new 0 0 100 100;" xml:space="preserve">
<g>
	<g>
		<path style="fill:#FFFFFF;" d="M2.2,38.2c6.5-26.4,33.3-42.5,59.7-36c26.4,6.5,42.5,33.3,36,59.7c-6.5,26.4-33.3,42.5-59.7,36
			C11.7,91.3-4.4,64.6,2.2,38.2"/>
	</g>
	<g>
		<path style="fill:#EC3B27;" d="M68.5,48.3c0.9,10.2-6.6,19.3-16.9,20.2c-10.2,0.9-19.3-6.6-20.2-16.9
			c-0.9-10.2,6.6-19.3,16.9-20.2C58.6,30.5,67.6,38.1,68.5,48.3"/>
		<path style="fill:#223D73;" d="M34.1,40.4c-2.7,4.4-1.3,10.1,3.1,12.8c4.4,2.7,10.1,1.3,12.8-3.1c2.7-4.4,8.4-5.8,12.8-3.1
			c4.4,2.7,5.8,8.4,3.1,12.8c-5.3,8.8-16.8,11.6-25.5,6.3C31.6,60.6,28.7,49.2,34.1,40.4"/>
		<path style="fill:#3F3F40;" d="M19.8,70.8l4.8,7.2l2.4-1.6l-4.8-7.2L19.8,70.8z M19,69.7l2.4-1.6l-4.8-7.2l-2.4,1.6L19,69.7z
			 M10.4,65l10.5,15.5l2.4-1.6L12.8,63.4L10.4,65z M17.9,60l10.5,15.5l2.4-1.6L20.3,58.3L17.9,60z M82.1,40l-4.8-7.2l-2.4,1.6
			l4.8,7.2L82.1,40z M76.5,31.7l-4.8-7.2l-2.4,1.6l4.8,7.2L76.5,31.7z M87.2,36.6l2.4-1.6l-4.8-7.2l-2.4,1.6L87.2,36.6z M84,26.7
			l-4.8-7.2l-2.4,1.6l4.8,7.2L84,26.7z M85.9,37.5L75.4,22L73,23.7l10.5,15.5L85.9,37.5z M76.7,78.9l2.4,1.6l4.8-7.2l-2.4-1.6
			L76.7,78.9z M82.3,70.5l2.4,1.6l4.8-7.2l-2.4-1.6L82.3,70.5z M77.8,69.2L73,76.3l2.4,1.6l4.8-7.2L77.8,69.2z M85.9,62.5l-2.4-1.6
			L78.6,68l2.4,1.6L85.9,62.5z M74.1,66.7l-4.8,7.2l2.4,1.6l4.8-7.2L74.1,66.7z M77.3,67.2l4.8-7.2l-2.4-1.6l-4.8,7.2L77.3,67.2z
			 M17.9,40l2.4,1.6l10.4-15.5l-2.4-1.6L17.9,40z M16.6,39.1L27,23.7L24.6,22L14.1,37.5L16.6,39.1z M23.3,21.1l-2.4-1.6L10.4,35
			l2.4,1.6L23.3,21.1z"/>
	</g>
</g>
</svg>
