<?xml version="1.0" encoding="utf-8"?>
<!-- Generator: Adobe Illustrator 21.1.0, SVG Export Plug-In . SVG Version: 6.00 Build 0)  -->
<svg version="1.1" id="Layer_1" xmlns="http://www.w3.org/2000/svg" xmlns:xlink="http://www.w3.org/1999/xlink" x="0px" y="0px"
	 viewBox="0 0 100 100" style="enable-background:new 0 0 100 100;" xml:space="preserve">
<g>
	<path style="fill:#009F58;" d="M30.2,4.5C16.6,10.5,5.9,22.4,2.1,37.9c-1,3.9-1.4,7.7-1.4,11.6v1.2c0.3,18.4,11,35.3,27.7,43.5
		l43.1-27.7h25c0.6-1.6,1-3.2,1.5-4.8c2.4-9.7,1.7-19.4-1.3-28.1L63,33.7L30.2,4.5z"/>
	<path style="fill:#FFCC05;" d="M0.8,54.8c0.9,9.3,4.4,18.1,10,25.4l41-30.1L10.9,20c-4.1,5.3-7.1,11.4-8.8,18.3
		c-0.6,2.4-1,4.8-1.2,7.2V54.8z"/>
	<path style="fill:#231F20;" d="M0.6,50.9c0.1,8.8,2.6,17.3,7,24.7L42,50.3L7.6,25c-2.4,4.1-4.3,8.6-5.5,13.4
		c-1,4.1-1.5,8.1-1.5,12.1V50.9z"/>
	<path style="fill-rule:evenodd;clip-rule:evenodd;fill:#ED2027;" d="M26.4,6.7l36.5,26.2h33.5c-5.5-14.8-18-26.8-34.5-30.8
		C49.4-1,35.3,1.4,26.4,6.7z"/>
	<path style="fill-rule:evenodd;clip-rule:evenodd;fill:#0B72BA;" d="M64,64.4L24.3,91.9c4.3,2.7,9.1,4.8,14.3,6
		C63.5,104.1,89,88.8,97.3,65L64,64.4z"/>
	<path style="fill:#FFFFFF;" d="M96.6,65.7c0.5-1.3,0.9-2.7,1.2-4.1c0.1-0.5,0.2-1,0.3-1.4H63.8L22.2,90.7c1.8,1.2,3.7,2.3,5.7,3.3
		l38.6-28.2H96.6z"/>
	<path style="fill:#FFFFFF;" d="M98.1,38.2c-0.5-1.9-1-3.8-1.7-5.6H66.7L29.1,5c-2,0.9-3.9,2-5.8,3.2L64,38.2H98.1z"/>
</g>
</svg>
