<?xml version="1.0" encoding="utf-8"?>
<!-- Generator: Adobe Illustrator 21.0.2, SVG Export Plug-In . SVG Version: 6.00 Build 0)  -->
<svg version="1.1" id="Layer_1" xmlns="http://www.w3.org/2000/svg" xmlns:xlink="http://www.w3.org/1999/xlink" x="0px" y="0px"
	 viewBox="0 0 100 100" style="enable-background:new 0 0 100 100;" xml:space="preserve">
<style type="text/css">
	.st0{fill:#FFCE0E;}
	.st1{fill:#E42226;}
</style>
<path class="st0" d="M1.8,38.1C8.4,11.5,35.3-4.7,61.9,1.8c26.6,6.6,42.8,33.5,36.2,60.1C91.5,88.5,64.6,104.7,38,98.1
	C11.5,91.6-4.7,64.7,1.8,38.1"/>
<path class="st1" d="M9.7,21.1h80.7C83.7,11.8,73.9,4.8,61.9,1.8C41.6-3.2,21.2,5.1,9.7,21.1z"/>
<path class="st1" d="M9.7,78.9c6.6,9.3,16.5,16.3,28.4,19.3c20.3,5,40.8-3.2,52.3-19.3C90.4,78.9,9.7,78.9,9.7,78.9z"/>
</svg>
