<?xml version="1.0" encoding="utf-8"?>
<!-- Generator: Adobe Illustrator 21.1.0, SVG Export Plug-In . SVG Version: 6.00 Build 0)  -->
<svg version="1.1" id="Layer_1" xmlns="http://www.w3.org/2000/svg" xmlns:xlink="http://www.w3.org/1999/xlink" x="0px" y="0px"
	 viewBox="0 0 100 100" style="enable-background:new 0 0 100 100;" xml:space="preserve">
<g>
	<path style="fill:#7BAEDE;" d="M1.7,38.5C8,11.8,34.8-4.7,61.5,1.7C88.2,8,104.7,34.8,98.4,61.5C92,88.2,65.2,104.7,38.5,98.3
		C11.8,92-4.7,65.2,1.7,38.5"/>
	<path style="fill:#FCEE1F;" d="M46.3,99.4l-0.4-40.1L98.8,59c1.2-6.1,1.1-12.2,0.1-18l-53.1,0.3L45.4,0.5c-0.7-0.1-1.4,0.2-2.1,0.1
		c-5.6,0.8-11,2.5-15.9,5l0.3,35.8L1.1,41.8c-0.5,3-0.8,6.1-0.8,9c0.1,3.1,0.4,6.1,1,9l26.5-0.4l0.3,35c3.2,1.6,6.7,2.8,10.3,3.7
		C41.1,98.8,43.7,99.2,46.3,99.4z"/>
</g>
</svg>
