<?xml version="1.0" encoding="utf-8"?>
<!-- Generator: Adobe Illustrator 21.1.0, SVG Export Plug-In . SVG Version: 6.00 Build 0)  -->
<svg version="1.1" id="Layer_1" xmlns="http://www.w3.org/2000/svg" xmlns:xlink="http://www.w3.org/1999/xlink" x="0px" y="0px"
	 viewBox="0 0 100 100" style="enable-background:new 0 0 100 100;" xml:space="preserve">
<g>
	<path style="fill:#EB2227;" d="M2,38.1C8.5,11.6,35.4-4.6,61.9,2C88.4,8.5,104.6,35.4,98,61.9C91.5,88.4,64.6,104.6,38.1,98
		C11.6,91.5-4.6,64.6,2,38.1"/>
	<path style="fill-rule:evenodd;clip-rule:evenodd;fill:#03679A;" d="M51,47.5v-47C28.3,0,7.6,15.2,1.9,38.1
		c-0.8,3.1-1.2,6.3-1.4,9.4H51z"/>
	<polyline style="fill-rule:evenodd;clip-rule:evenodd;fill:#FFFFFF;" points="13.7,16.7 13.7,16.4 14.4,16.7 13.7,16.7 	"/>
	<polyline style="fill-rule:evenodd;clip-rule:evenodd;fill:#FFFFFF;" points="21.6,16.7 19.5,10.2 25.3,15.7 23.6,16.7 21.6,16.7 	
		"/>
	<polyline style="fill-rule:evenodd;clip-rule:evenodd;fill:#FFFFFF;" points="34.6,16.7 32.5,15.3 38,9.9 36.3,16.7 34.6,16.7 	"/>
	<polyline style="fill-rule:evenodd;clip-rule:evenodd;fill:#FFFFFF;" points="41.1,16.7 43.8,15.7 43.1,16.7 41.1,16.7 	"/>
	<polyline style="fill-rule:evenodd;clip-rule:evenodd;fill:#FFFFFF;" points="29.1,7.5 27.1,15 31.2,15 29.1,7.5 	"/>
	<polyline style="fill-rule:evenodd;clip-rule:evenodd;fill:#FFFFFF;" points="16.8,32.1 19.2,29.4 20.9,32.1 16.8,32.1 	"/>
	<polyline style="fill-rule:evenodd;clip-rule:evenodd;fill:#FFFFFF;" points="37.3,32.1 39,28.7 42.1,32.1 37.3,32.1 	"/>
	<polyline style="fill-rule:evenodd;clip-rule:evenodd;fill:#FFFFFF;" points="13.7,16.7 19.2,22.2 21.2,18.4 14.4,16.7 13.7,16.7 	
		"/>
	<polyline style="fill-rule:evenodd;clip-rule:evenodd;fill:#FFFFFF;" points="21.6,16.7 21.9,17.7 23.6,16.7 21.6,16.7 	"/>
	<polyline style="fill-rule:evenodd;clip-rule:evenodd;fill:#FFFFFF;" points="34.6,16.7 36,17.7 36.3,16.7 34.6,16.7 	"/>
	<polyline style="fill-rule:evenodd;clip-rule:evenodd;fill:#FFFFFF;" points="41.1,16.7 36.6,18.1 39,21.5 43.1,16.7 41.1,16.7 	
		"/>
	<polyline style="fill-rule:evenodd;clip-rule:evenodd;fill:#FFFFFF;" points="11.3,25.3 18.8,27.7 18.8,23.2 11.3,25.3 	"/>
	<polyline style="fill-rule:evenodd;clip-rule:evenodd;fill:#FFFFFF;" points="46.9,25.3 39.4,27.7 39.4,23.2 46.9,25.3 	"/>
	<polyline style="fill-rule:evenodd;clip-rule:evenodd;fill:#FFFFFF;" points="15.1,34.2 16.8,32.1 20.9,32.1 21.6,32.8 17.8,34.2 
		15.1,34.2 	"/>
	<polyline style="fill-rule:evenodd;clip-rule:evenodd;fill:#FFFFFF;" points="21.9,34.2 21.9,33.5 23.3,34.2 21.9,34.2 	"/>
	<polyline style="fill-rule:evenodd;clip-rule:evenodd;fill:#FFFFFF;" points="34.9,34.2 36.3,33.1 36.6,34.2 34.9,34.2 	"/>
	<polyline style="fill-rule:evenodd;clip-rule:evenodd;fill:#FFFFFF;" points="43.5,34.2 37,32.4 37.3,32.1 42.1,32.1 44.2,34.2 
		43.5,34.2 	"/>
	<polyline style="fill-rule:evenodd;clip-rule:evenodd;fill:#FFFFFF;" points="15.1,34.2 14.1,35.2 17.8,34.2 15.1,34.2 	"/>
	<polyline style="fill-rule:evenodd;clip-rule:evenodd;fill:#FFFFFF;" points="21.9,34.2 20.2,41 25.7,35.5 23.3,34.2 21.9,34.2 	
		"/>
	<polyline style="fill-rule:evenodd;clip-rule:evenodd;fill:#FFFFFF;" points="34.9,34.2 32.9,35.5 38.7,40.7 36.6,34.2 34.9,34.2 	
		"/>
	<polyline style="fill-rule:evenodd;clip-rule:evenodd;fill:#FFFFFF;" points="43.5,34.2 44.5,34.5 44.2,34.2 43.5,34.2 	"/>
	<polyline style="fill-rule:evenodd;clip-rule:evenodd;fill:#FFFFFF;" points="29.1,43.4 27.1,35.9 31.2,35.9 29.1,43.4 	"/>
	<circle style="fill-rule:evenodd;clip-rule:evenodd;fill:#FFFFFF;" cx="29.1" cy="25.4" r="9.4"/>
</g>
</svg>
