<?xml version="1.0" encoding="utf-8"?>
<!-- Generator: Adobe Illustrator 21.1.0, SVG Export Plug-In . SVG Version: 6.00 Build 0)  -->
<svg version="1.1" id="Layer_1" xmlns="http://www.w3.org/2000/svg" xmlns:xlink="http://www.w3.org/1999/xlink" x="0px" y="0px"
	 viewBox="0 0 100 100" style="enable-background:new 0 0 100 100;" xml:space="preserve">
<style type="text/css">
	.st0{fill:#FFFFFF;}
	.st1{fill:#EC1C24;}
	.st2{fill:#005B94;}
</style>
<g>
	<path class="st0" d="M1.8,38.1C8.4,11.5,35.3-4.7,61.9,1.8c26.6,6.6,42.8,33.5,36.2,60.1c-6.6,26.6-33.5,42.8-60.1,36.2
		C11.5,91.6-4.7,64.7,1.8,38.1"/>
	<path class="st1" d="M9.7,21.1h80.7C83.7,11.8,73.9,4.8,61.9,1.8C41.6-3.2,21.2,5.1,9.7,21.1z"/>
	<path class="st1" d="M9.7,78.9c6.6,9.3,16.5,16.3,28.4,19.3c20.3,5,40.8-3.2,52.3-19.3H9.7z"/>
</g>
<path class="st2" d="M98.6,60.2c0-0.1,0-0.2,0.1-0.3c0-0.2,0.1-0.4,0.1-0.6c0-0.1,0-0.2,0.1-0.3c0-0.2,0.1-0.4,0.1-0.6
	c0-0.1,0-0.2,0-0.3c0-0.2,0.1-0.5,0.1-0.7c0,0,0-0.1,0-0.1c0-0.3,0.1-0.6,0.1-0.9c0-0.1,0-0.2,0-0.2c0-0.2,0.1-0.4,0.1-0.6
	c0-0.1,0-0.2,0-0.3c0-0.2,0-0.4,0.1-0.6c0-0.1,0-0.2,0-0.3c0-0.2,0-0.4,0-0.6c0-0.1,0-0.2,0-0.3c0-0.2,0-0.4,0-0.7
	c0-0.1,0-0.1,0-0.2c0-0.3,0-0.6,0-0.9c0,0,0-0.1,0-0.1c0-0.2,0-0.5,0-0.7c0-0.1,0-0.2,0-0.3c0-0.2,0-0.4,0-0.6c0-0.1,0-0.2,0-0.3
	c0-0.2,0-0.4,0-0.6c0-0.1,0-0.2,0-0.3c0-0.2,0-0.4,0-0.6c0-0.1,0-0.1,0-0.2c0-0.6-0.1-1.1-0.1-1.7c0-0.1,0-0.1,0-0.2
	c0-0.2,0-0.4-0.1-0.6c0-0.1,0-0.2,0-0.3c0-0.2,0-0.4-0.1-0.6c0-0.1,0-0.2,0-0.3c0-0.2,0-0.4-0.1-0.6c0-0.1,0-0.1,0-0.2
	c-0.1-0.6-0.2-1.1-0.2-1.7c0-0.1,0-0.1,0-0.2c0-0.2-0.1-0.5-0.1-0.7c0-0.1,0-0.2,0-0.2c0-0.2-0.1-0.4-0.1-0.6c0-0.1,0-0.2,0-0.2
	c0-0.2-0.1-0.4-0.1-0.6c0-0.1,0-0.1,0-0.2c-0.1-0.3-0.1-0.5-0.2-0.8l0-0.1c-0.1-0.3-0.1-0.5-0.2-0.8h0c-0.4-1.5-0.8-2.9-1.3-4.3H3.3
	c-0.5,1.5-1,3.1-1.4,4.7C0.2,44.8,0,51.4,1,57.8c0,0,0,0.1,0,0.1c0,0.2,0.1,0.5,0.1,0.7c0,0,0,0.1,0,0.1c0,0.2,0.1,0.4,0.1,0.7
	c0,0.1,0,0.1,0,0.2c0,0.2,0.1,0.4,0.1,0.6c0,0.1,0,0.2,0.1,0.2c0,0.2,0.1,0.4,0.1,0.6c0,0.1,0,0.2,0.1,0.3c0,0.2,0.1,0.4,0.1,0.5
	c0,0.1,0.1,0.3,0.1,0.4c0.1,0.2,0.1,0.4,0.2,0.6c0.1,0.2,0.1,0.4,0.2,0.6c0,0.1,0.1,0.2,0.1,0.3c0.1,0.2,0.1,0.4,0.2,0.6
	c0,0.1,0.1,0.2,0.1,0.3c0.1,0.2,0.1,0.4,0.2,0.6c0,0.1,0.1,0.2,0.1,0.3c0.1,0.2,0.1,0.4,0.2,0.6C3,66,3,66.1,3.1,66.2
	c0.1,0.2,0.1,0.4,0.2,0.6c0,0,0,0.1,0,0.1h0c0,0.1,0.1,0.2,0.1,0.3h93.1c0-0.1,0.1-0.2,0.1-0.3h0c0.1-0.3,0.2-0.6,0.3-0.9
	c0,0,0-0.1,0-0.1c0.1-0.4,0.3-0.8,0.4-1.2c0-0.1,0-0.1,0.1-0.2c0.1-0.4,0.2-0.7,0.3-1.1c0-0.1,0-0.2,0.1-0.2
	c0.1-0.4,0.2-0.9,0.3-1.3c0.1-0.3,0.1-0.6,0.2-0.9c0-0.1,0-0.2,0.1-0.3C98.5,60.6,98.5,60.4,98.6,60.2"/>
</svg>
