<?xml version="1.0" encoding="utf-8"?>
<!-- Generator: Adobe Illustrator 21.1.0, SVG Export Plug-In . SVG Version: 6.00 Build 0)  -->
<svg version="1.1" id="Layer_1" xmlns="http://www.w3.org/2000/svg" xmlns:xlink="http://www.w3.org/1999/xlink" x="0px" y="0px"
	 viewBox="0 0 100 100" style="enable-background:new 0 0 100 100;" xml:space="preserve">
<g>
	<linearGradient id="SVGID_1_" gradientUnits="userSpaceOnUse" x1="0.5983" y1="50" x2="99.4017" y2="50">
		<stop  offset="0" style="stop-color:#CF1400"/>
		<stop  offset="1" style="stop-color:#CF1400"/>
	</linearGradient>
	<path style="fill:url(#SVGID_1_);" d="M2.1,38.1C8.6,11.6,35.4-4.5,61.9,2.1c26.5,6.6,42.6,33.3,36.1,59.8
		c-6.6,26.5-33.3,42.6-59.8,36.1C11.7,91.4-4.5,64.6,2.1,38.1"/>
	<path style="fill:#FFFFFF;" d="M48.5,70C37.3,70,28.2,61,28.2,50c0-11,9.1-20,20.3-20c5.6,0,10.7,2.2,14.3,5.8
		c-4.5-6.4-12.1-10.6-20.6-10.6c-13.9,0-25.1,11.1-25.1,24.7c0,13.7,11.3,24.7,25.1,24.7c8.5,0,16.1-4.2,20.6-10.6
		C59.1,67.7,54.1,70,48.5,70"/>
	<polygon style="fill:#FFFFFF;" points="72.8,39.4 77.5,46 85.4,43.7 80.4,50.1 85.1,56.8 77.3,54.1 72.3,60.6 72.5,52.5 64.7,49.8 
		72.6,47.5 	"/>
</g>
</svg>
