<?xml version="1.0" encoding="utf-8"?>
<!-- Generator: Adobe Illustrator 21.1.0, SVG Export Plug-In . SVG Version: 6.00 Build 0)  -->
<svg version="1.1" id="Layer_1" xmlns="http://www.w3.org/2000/svg" xmlns:xlink="http://www.w3.org/1999/xlink" x="0px" y="0px"
	 viewBox="0 0 100 100" style="enable-background:new 0 0 100 100;" xml:space="preserve">
<g>
	<g>
		<path style="fill:#F1F1F2;" d="M2.2,38.2c6.5-26.4,33.3-42.5,59.7-36c26.4,6.5,42.5,33.3,36,59.7c-6.5,26.4-33.3,42.5-59.7,36
			C11.7,91.3-4.4,64.6,2.2,38.2"/>
		<path style="fill:#ED3726;" d="M95.6,31.3H57.4v7.5H98C97.4,36.2,96.6,33.7,95.6,31.3 M85.8,16.2H57.4v7.6h34.3
			C90,21,88,18.5,85.8,16.2 M14.4,84.1h71.2c2.2-2.3,4.2-4.8,5.9-7.5H8.5C10.2,79.2,12.2,81.8,14.4,84.1 M61.8,2.2
			c-1.5-0.4-3-0.7-4.4-0.9v7.3h19.4C72.3,5.7,67.3,3.5,61.8,2.2 M99.2,46.3H57.4v7.6h41.7C99.3,51.4,99.3,48.8,99.2,46.3 M4.5,69h91
			c1-2.3,1.7-4.7,2.4-7.2c0-0.1,0.1-0.3,0.1-0.4H2.1C2.7,64,3.5,66.6,4.5,69 M38.2,97.8c2.9,0.7,5.8,1.2,8.7,1.4h6.3
			c8.3-0.5,16.3-3.2,23.2-7.6H23.6C28,94.4,32.9,96.5,38.2,97.8"/>
		<path style="fill:#223C72;" d="M53.7,51.1l-1.1-0.8l-1.1,0.8l0.4-1.3l-1.1-0.8h1.3l0.4-1.3l0.4,1.3h1.3l-1.1,0.8L53.7,51.1z
			 M48.4,11.4l0.4,1.3l-1.1-0.8l-1.1,0.8l0.4-1.3L46,10.6h1.3l0.4-1.3l0.4,1.3h1.3L48.4,11.4z M48.4,22.8l0.4,1.3l-1.1-0.8L46.7,24
			l0.4-1.3L46,22h1.3l0.4-1.3l0.4,1.3h1.3L48.4,22.8z M48.3,33.9l0.4,1.3l-1.1-0.8l-1.1,0.8l0.4-1.3l-1.1-0.8h1.3l0.4-1.2l0.4,1.2
			h1.3L48.3,33.9z M48.6,46.1l-1.1-0.8l-1.1,0.8l0.4-1.3l-1.1-0.8h1.3l0.4-1.3l0.4,1.3h1.3l-1.1,0.8L48.6,46.1z M43.4,16.9l0.4,1.3
			l-1.1-0.8l-1.1,0.8l0.4-1.3L41,16.1h1.3l0.4-1.2l0.4,1.2h1.3L43.4,16.9z M43.4,27.9l0.4,1.3l-1.1-0.8l-1.1,0.8l0.4-1.3L41,27.1
			h1.3l0.4-1.3l0.4,1.3h1.3L43.4,27.9z M43.4,39.1l0.4,1.3l-1.1-0.8l-1.1,0.8l0.4-1.3L41,38.4h1.3l0.4-1.3l0.4,1.3h1.3L43.4,39.1z
			 M43.8,51.1l-1.1-0.8l-1.1,0.8l0.4-1.3L41,49.1h1.3l0.4-1.3l0.4,1.3h1.3l-1.1,0.8L43.8,51.1z M38.6,11.4l0.4,1.3l-1.1-0.8
			l-1.1,0.8l0.4-1.3l-1.1-0.8h1.3l0.4-1.3l0.4,1.3h1.3L38.6,11.4z M38.6,22.8L39,24l-1.1-0.8L36.8,24l0.4-1.3L36.2,22h1.3l0.4-1.3
			l0.4,1.3h1.3L38.6,22.8z M38.5,33.9l0.4,1.3l-1.1-0.8l-1.1,0.8l0.4-1.3l-1.1-0.8h1.3l0.4-1.2l0.4,1.2h1.3L38.5,33.9z M38.8,46.1
			l-1.1-0.8l-1.1,0.8l0.4-1.3L36,44.1h1.3l0.4-1.3l0.4,1.3h1.3l-1.1,0.8L38.8,46.1z M33.6,5.9L34,7.2l-1.1-0.8l-1.1,0.8l0.4-1.3
			l-1.1-0.8h1.3l0.4-1.3l0.4,1.3h1.3L33.6,5.9z M33.6,16.9l0.4,1.3l-1.1-0.8l-1.1,0.8l0.4-1.3l-1.1-0.8h1.3l0.4-1.2l0.4,1.2h1.3
			L33.6,16.9z M33.6,27.9l0.4,1.3l-1.1-0.8l-1.1,0.8l0.4-1.3l-1.1-0.8h1.3l0.4-1.3l0.4,1.3h1.3L33.6,27.9z M33.6,39.1l0.4,1.3
			l-1.1-0.8l-1.1,0.8l0.4-1.3l-1.1-0.8h1.3l0.4-1.3l0.4,1.3h1.3L33.6,39.1z M34,51.1l-1.1-0.8l-1.1,0.8l0.4-1.3l-1.1-0.8h1.3
			l0.4-1.3l0.4,1.3h1.3l-1.1,0.8L34,51.1z M28.7,11l0.4,1.3l-1.1-0.8L27,12.3l0.4-1.3l-1.1-0.8h1.3L28.1,9l0.4,1.3h1.3L28.7,11z
			 M28.7,22.4l0.4,1.3l-1.1-0.8L27,23.6l0.4-1.3l-1.1-0.8h1.3l0.4-1.3l0.4,1.3h1.3L28.7,22.4z M28.6,33.5l0.4,1.3L28,34l-1.1,0.8
			l0.4-1.3l-1.1-0.8h1.3l0.4-1.3l0.4,1.3h1.3L28.6,33.5z M28.9,45.7L27.9,45l-1.1,0.8l0.4-1.3l-1.1-0.8h1.3l0.4-1.3l0.4,1.3h1.3
			l-1.1,0.8L28.9,45.7z M23.7,16.9l0.4,1.3L23,17.4L22,18.2l0.4-1.3l-1.1-0.8h1.3l0.4-1.2l0.4,1.2h1.3L23.7,16.9z M23.7,27.9
			l0.4,1.3L23,28.4L22,29.2l0.4-1.3l-1.1-0.8h1.3l0.4-1.3l0.4,1.3h1.3L23.7,27.9z M23.7,39.1l0.4,1.3L23,39.6L22,40.4l0.4-1.3
			l-1.1-0.8h1.3l0.4-1.3l0.4,1.3h1.3L23.7,39.1z M24.1,51.1L23,50.4L22,51.1l0.4-1.3l-1.1-0.8h1.3l0.4-1.3l0.4,1.3h1.3l-1.1,0.8
			L24.1,51.1z M18.9,22.3l0.4,1.3l-1.1-0.8l-1.1,0.8l0.4-1.3l-1.1-0.8h1.3l0.4-1.3l0.4,1.3h1.3L18.9,22.3z M18.8,33.4l0.4,1.3
			l-1.1-0.8L17,34.6l0.4-1.3l-1.1-0.8h1.3l0.4-1.3l0.4,1.3h1.3L18.8,33.4z M19.1,45.6L18,44.8L17,45.6l0.4-1.3l-1.1-0.8h1.3l0.4-1.3
			l0.4,1.3h1.3l-1.1,0.8L19.1,45.6z M42.3,5.1l0.4-1.3l0.4,1.3h1.3l-1.1,0.8l0.4,1.3l-1.1-0.8l-1.1,0.8l0.4-1.3L41,5.1H42.3z
			 M52.2,38.4l0.4-1.3l0.4,1.3h1.3l-1.1,0.8l0.4,1.3l-1.1-0.8l-1.1,0.8l0.4-1.3l-1.1-0.8H52.2z M52.2,27.1l0.4-1.3l0.4,1.3h1.3
			l-1.1,0.8l0.4,1.3l-1.1-0.8l-1.1,0.8l0.4-1.3l-1.1-0.8H52.2z M52.2,16.1l0.4-1.2l0.4,1.2h1.3l-1.1,0.8l0.4,1.3l-1.1-0.8l-1.1,0.8
			l0.4-1.3l-1.1-0.8H52.2z M52.2,5.1l0.4-1.3L53,5.1h1.3l-1.1,0.8l0.4,1.3l-1.1-0.8l-1.1,0.8l0.4-1.3l-1.1-0.8H52.2z M13.8,27.9
			l0.4,1.3l-1.1-0.8l-1.1,0.8l0.4-1.3l-1.1-0.8h1.3l0.4-1.3l0.4,1.3h1.3L13.8,27.9z M13.8,39.1l0.4,1.3l-1.1-0.8l-1.1,0.8l0.4-1.3
			l-1.1-0.8h1.3l0.4-1.3l0.4,1.3h1.3L13.8,39.1z M14.3,51.1l-1.1-0.8l-1.1,0.8l0.4-1.3l-1.1-0.8h1.3l0.4-1.3l0.4,1.3h1.3l-1.1,0.8
			L14.3,51.1z M8.9,33.2l0.4,1.3l-1.1-0.8l-1.1,0.8l0.4-1.3l-1.1-0.8h1.3l0.4-1.3l0.4,1.3H10L8.9,33.2z M9.2,45.4l-1.1-0.8l-1.1,0.8
			l0.4-1.3l-1.1-0.8h1.3l0.4-1.3l0.4,1.3h1.3l-1.1,0.8L9.2,45.4z M4.4,51.1l-1.1-0.8l-1.1,0.8l0.4-1.3l-1.1-0.8h1.3l0.4-1.3l0.4,1.3
			h1.3L4,49.9L4.4,51.1z M57.4,1.3c-0.5-0.1-4.1-0.5-4.6-0.5L44,1.1c-9.2,1.1-17.8,4.8-24.9,10.5l0.2,0.6l-0.5-0.3
			c-1.6,1.3-3.2,2.8-4.6,4.3h0.7l-1.1,0.8l0.4,1.3l-1.1-0.8l-0.4,0.3c-1,1.1-1.9,2.3-2.8,3.6h0.1l-0.3,0.2c-0.2,0.3-0.4,0.6-0.6,0.9
			l0.3,0.9l-0.6-0.4c-3,4.6-5.3,9.7-6.7,15.3c0,0.1,0,0.1-0.1,0.2h0.8l0.4-1.3l0.4,1.3h1.3L4,39.1l0.4,1.3l-1.1-0.8l-1.1,0.8
			l0.4-1.3L2,38.7C0.8,43.8,0.5,49,0.9,54h56.5V1.3z"/>
	</g>
</g>
</svg>
