<?xml version="1.0" encoding="utf-8"?>
<!-- Generator: Adobe Illustrator 21.0.2, SVG Export Plug-In . SVG Version: 6.00 Build 0)  -->
<svg version="1.1" id="Layer_1" xmlns="http://www.w3.org/2000/svg" xmlns:xlink="http://www.w3.org/1999/xlink" x="0px" y="0px"
	 viewBox="0 0 100 100" style="enable-background:new 0 0 100 100;" xml:space="preserve">
<style type="text/css">
	.st0{fill:#FFFFFF;}
	.st1{fill:#2B3681;}
	.st2{fill:#CC202C;}
	.st3{fill:#3B7AA2;}
	.st4{fill:#5572B7;}
	.st5{fill:#F3EB39;}
	.st6{fill:#BFA02F;}
	.st7{fill:#624023;}
	.st8{fill:#2E2C74;}
	.st9{fill:#D3202B;}
	.st10{fill:#BB2027;}
	.st11{fill:#86383D;}
	.st12{fill:#85373E;}
	.st13{fill:#E9D62C;}
	.st14{fill:#635021;}
	.st15{fill:#020303;}
	.st16{fill:#F3C526;}
	.st17{fill:#F2C326;}
</style>
<g>
	<path class="st0" d="M3.6,66.4h92.7c1.8-5.1,2.8-10.6,2.8-16.4s-1-11.3-2.8-16.4H3.6C1.8,38.7,0.8,44.2,0.8,50
		C0.8,55.7,1.8,61.3,3.6,66.4L3.6,66.4z"/>
	<path class="st1" d="M49.2,99.2h1.6c21.1-0.3,38.9-13.9,45.6-32.8H3.6C10.3,85.3,28.1,98.8,49.2,99.2L49.2,99.2z"/>
	<path class="st2" d="M3.6,33.6h92.7C89.6,14.5,71.4,0.8,50,0.8S10.4,14.5,3.6,33.6L3.6,33.6z"/>
	<path class="st0" d="M30.4,33.1c6-2.1,12.7-3.3,19.3-3.3c6.5,0,13.2,1,19.8,3.4l4.9-9.9l-3.5-6l-6.2,2.5c-0.1,0-4.3-4.7-4.3-4.7
		l-5.5,3.3l-5.2-4l-4.9,3.9L39.1,15l-4,5l-6.2-2.6l-3.3,5.9L30.4,33.1L30.4,33.1z"/>
	<path class="st2" d="M28.8,17.5l-3.1,5.9l4.9,9.7c5.9-2.2,12.6-3.4,19.1-3.4c6.9,0,13.5,1.1,19.7,3.3l4.9-9.8l-3.4-5.9
		c-6,2.6-6,2.6-6.1,2.6s-0.1,0-4.5-4.8L55,18.5l-5.3-4l-4.7,4l-5.9-3.3l-4,4.9L28.8,17.5L28.8,17.5z M69.6,33.4L69.6,33.4
		C63.3,31.2,56.7,30,49.9,30c-6.7,0-13.3,1.2-19.4,3.3l-5.1-9.9l3.3-6.1l6.4,2.6l4-4.9l5.9,3.2l4.7-3.9l5.3,3.9l5.4-3.3
		c1.8,1.9,4.3,4.6,4.5,4.7c0-0.1,4.4-1.9,6.1-2.5l3.6,6.1L69.6,33.4L69.6,33.4z"/>
	<path class="st3" d="M61.9,30.4l2.8-9.9l6-2.4l3.2,5.3l-4.6,9.3C66.7,31.6,65.3,31.2,61.9,30.4L61.9,30.4L61.9,30.4z"/>
	<path class="st4" d="M70.7,18l-6,2.5L62,30.4c3.5,0.7,4.8,1.2,7.4,2.2l4.5-9.3L70.7,18L70.7,18z M69.4,32.7L69.4,32.7
		c-2.6-1-4-1.5-7.5-2.3l2.8-10l6-2.5l3.2,5.3L69.4,32.7L69.4,32.7z"/>
	<path class="st3" d="M46.1,29.3l-1-10.3l4.8-3.8l5,3.8L54,29.3C51.3,29.2,49.3,29.2,46.1,29.3L46.1,29.3L46.1,29.3z"/>
	<path class="st4" d="M49.9,15.2L45.1,19l1,10.3c3.1-0.2,5.1-0.2,7.9,0L54.9,19L49.9,15.2L49.9,15.2z M54,29.4L54,29.4
		c-2.8-0.2-4.7-0.1-8,0l-1-10.3l4.8-3.8l5.1,3.8L54,29.4L54,29.4z"/>
	<path class="st3" d="M30.7,32.6l-4.5-9.4l3-5.2l6.2,2.7l2.6,9.7C35.2,31,33.7,31.5,30.7,32.6L30.7,32.6L30.7,32.6z"/>
	<path class="st4" d="M29.2,18l-2.9,5.2l4.4,9.4c2.9-1.1,4.4-1.6,7.3-2.2l-2.6-9.7L29.2,18L29.2,18z M30.7,32.7l-4.5-9.5l3-5.2
		l6.2,2.7l2.6,9.7C35.1,31,33.6,31.5,30.7,32.7L30.7,32.7L30.7,32.7z"/>
	<path class="st0" d="M29.7,27.9c1.4,0.1,2.3,0.1,3.5-0.3c1.4-0.7,1.8-1.4,2.2-2c0.3,1.2,0.2,2.3-1.4,3.2
		C32.7,29.5,30.7,29.3,29.7,27.9L29.7,27.9L29.7,27.9z"/>
	<path class="st0" d="M32.4,29.2c-1.1,0-2.1-0.5-2.7-1.3c0.4,0,0.8,0,1.2,0c0.8,0,1.5-0.1,2.4-0.4c1.3-0.6,1.7-1.3,2.2-1.9l0,0
		c-0.4,0.7-0.9,1.4-2.2,1.9c-1.2,0.4-2.1,0.5-3.5,0.3c0.9,1.2,2.9,1.6,4.4,0.8c1.3-0.7,1.6-1.6,1.5-2.4c0.1,0.8-0.1,1.7-1.5,2.5
		C33.6,29.1,33,29.2,32.4,29.2L32.4,29.2L32.4,29.2z"/>
	<path class="st5" d="M51.2,20.6l-0.3,0.1v0.5l-0.3,0.1l-0.2,0.4l0.1,0.1l-0.1,0.3l0.1,0.1l0.1,0.3h0.2l0.1,0.3l0.4,0.1l0.3,0.2v0.1
		H52l0.3,0.1l0.9-0.1l0.1-0.2v-0.3h0.5l0.1-0.4H54v-0.4h0.2l-0.1-0.2L54,21.6v-0.3L53.6,21l-0.1-0.5l-0.2-0.1v-0.3l0.3-0.4v-0.1
		h-0.3L53,19.7h-0.2v0.1l0.1,0.2h-0.3v-0.3l-0.4-0.2l-0.4,0.3v0.3h-0.2l-0.2-0.3l-0.3-0.1h-0.2v0.2l0.3,0.4L51.2,20.6L51.2,20.6z"/>
	<path class="st6" d="M52,23.2l0.2,0.1l0.9-0.1l0.1-0.1v-0.2l0.6-0.1v-0.3l0.3-0.1L53.9,22l0.3-0.1l-0.3-0.3v-0.3L53.5,21l-0.1-0.5
		c-0.2-0.1-0.2-0.1-0.2-0.1v-0.3l0.3-0.4h-0.2l-0.1,0.1c-0.1,0-0.2,0-0.3,0C53,20,53,20,53,20.1l-0.4,0.1l-0.1-0.4l-0.4-0.1
		c0,0-0.2,0.2-0.3,0.2v0.2v0.1l-0.2,0.1L51.3,20L51,19.8v0.1l0.3,0.4v0.3L51,20.7l0.1,0.4l-0.4,0.1l-0.2,0.4
		c0.2,0.1,0.2,0.1,0.1,0.3c-0.1,0-0.1,0,0,0.2l0.1,0.3h0.1l0.1,0.4h0.3l0.4,0.3v0.2L52,23.2L52,23.2z M52.2,23.4l-0.7-0.1v-0.2
		L51.2,23h-0.3l-0.1-0.4h-0.1L50.4,22l0.1-0.2l-0.2-0.1l0.2-0.5l0.4-0.1l-0.1-0.4l0.3-0.1v-0.2L50.8,20v-0.3v-0.1h0.3l0.4,0.1
		l0.2,0.3l0.1-0.3c0,0,0,0,0.4-0.3l0.5,0.2l0.1,0.4l0.1-0.1l-0.1-0.1c0-0.2,0-0.2,0.3-0.3l0.1-0.1h0.3h0.1v0.2L53.3,20v0.3h0.2
		l0.1,0.5l0.3,0.3l0.2,0.7L53.9,22l0.1,0.4l-0.3,0.1v0.3l-0.5,0.1l0.1,0.2l-0.1,0.2L52.2,23.4L52.2,23.4z"/>
	<path class="st6" d="M50.5,21.8h0.4l0.1,0.3l0.1,0.1v0.6h0.1v-0.3h0.3l0.1,0.5l-0.1,0.1v0.1h0.4l0.1-0.1h0.2l0.1,0.1l0.1-0.2
		l0.2-0.1l0.1,0.2H53L52.9,23l-0.1-0.3l0.4-0.2l0.1,0.3h0.1l-0.2-0.3v-0.6l0.3-0.4h0.4v-0.2L53.6,21l-0.1-0.5l-0.2-0.1l-0.1,0.1H53
		l0.2,0.4v0.2l0.1,0.1v0.6H53v0.4l-0.2,0.2l-0.1,0.3l-0.1,0.2h-0.3l-0.2-0.2v-0.2H52l-0.1-0.3L51.6,22v-0.1l-0.2-0.1v-0.1l-0.1-0.1
		v-0.4h0.2L51.4,21v-0.1v-0.1l0.1-0.1h-0.3L51,20.8v0.5l-0.3,0.1L50.5,21.8L50.5,21.8L50.5,21.8z"/>
	<path class="st6" d="M53.2,20.5l-0.3,0.1l0.3,0.2l0.1,0.9l0.1-0.2l0.4-0.1L53.4,21L53.2,20.5L53.2,20.5L53.2,20.5z M53,21.9v0.3
		l-0.2,0.2c-0.1,0.3-0.1,0.3-0.1,0.4l0.4-0.3l0.1,0.1l0,0V22l0.1-0.1C53.2,21.8,53.1,21.9,53,21.9L53,21.9L53,21.9z M52.8,23.3
		C52.5,23,52.5,23,52.5,23l-0.1,0.1l0,0V23c0.2-0.1,0.2-0.1,0.2-0.1c0.1,0.1,0.2,0.3,0.2,0.3l0.2-0.1h-0.2l-0.1-0.4l0,0
		c0,0,0,0-0.1,0l-0.1,0.2h-0.4C52,22.7,52,22.7,52,22.7v-0.2c-0.1,0-0.1,0-0.2-0.3l-0.2-0.1v-0.2h-0.2v-0.2c-0.1,0-0.1,0-0.1-0.5
		v-0.1h0.2l0,0l0.2,0.1h-0.3v0.3l0.3,0.3V22h0.2c0,0.1,0.1,0.3,0.1,0.3c0.1,0.1,0.2,0.3,0.2,0.3l0.1,0.1h0.3
		c0.1-0.2,0.1-0.2,0.1-0.2c-0.1,0,0-0.3,0-0.3l0.2-0.2v-0.3c0-0.1,0-0.1,0.4-0.1l-0.2-0.8l-0.2-0.3l0.3-0.2l0.3,0.1l0.1,0.5l0.4,0.3
		v0.2l-0.5,0.1L53.3,22v0.5l0.1,0.2l-0.2,0.1L53,22.5l-0.3,0.2l0.2,0.4L52.8,23.3L52.8,23.3z M51.6,23.3v-0.1v-0.6l-0.2,0.1v0.2V23
		l-0.2-0.1L51,22.2l-0.2-0.4l-0.3,0.1l-0.1-0.1l0.2-0.5l0.3-0.1v-0.4c0.1-0.1,0.3-0.2,0.3-0.2c0.1,0,0.3,0,0.3,0L51.4,21l-0.1-0.1
		l0.1-0.2h-0.1c0,0-0.1,0.1-0.2,0.1c0,0,0,0.2,0,0.4l-0.4,0.2l-0.2,0.3h0.4l0.2,0.4l0.1,0.8v-0.2l0.4-0.1l0.1,0.6L51.6,23.3l0.4,0
		v0.2L51.6,23.3L51.6,23.3z"/>
	<path class="st7" d="M52,22.4l0.2-0.1v-0.2L52,22l0,0h0.2h0.3h0.1c0,0.1-0.1,0.1-0.1,0.1l-0.1,0.1v0.2c0,0,0.5,0.1,0.4,0.1v0.1
		l-0.5-0.1l-0.3,0V22.4L52,22.4z"/>
	<path class="st6" d="M51.9,22.6l0.1-0.2l0.2-0.1V22h0.1l0,0l0.2-0.1l0,0L52.4,22v0.2c0.5,0,0.5,0,0.4,0.1s-0.1,0.1-0.5,0L51.9,22.6
		L51.9,22.6z"/>
	<path class="st6" d="M53.2,21.1l-0.3,0.2l-0.2,0.3h-0.1l-0.3-0.3H52l-0.1,0.4h-0.1l-0.3-0.3l-0.1-0.2h0.8v-0.4c0,0-0.1,0-0.2-0.1
		h0.4l-0.1,0.1v0.3h0.6H53.2L53.2,21.1z"/>
	<path class="st6" d="M52.3,21.1l-0.8,0.1l0.4,0.4c0-0.1,0.1-0.2,0.1-0.4L52.3,21.1L52.3,21.1L52.3,21.1z M52,21.7L52,21.7l-0.5-0.4
		l-0.1-0.2h0.9l-0.1-0.3h0.1h-0.1c-0.1-0.2,0.1-0.2,0.3-0.2h0.3l-0.4,0.3v0.2l0.8-0.1l-0.4,0.6h-0.2l-0.3-0.3h-0.2
		C52.2,21.4,52,21.6,52,21.7L52,21.7L52,21.7z"/>
	<path class="st7" d="M51.8,21.2L51.8,21.2C51.9,21.2,51.9,21.2,51.8,21.2l0.1,0.1c0,0,0,0.1-0.1,0.1h-0.1c0,0-0.1,0-0.1-0.1
		L51.8,21.2C51.8,21.3,51.8,21.2,51.8,21.2L51.8,21.2L51.8,21.2z"/>
	<path class="st7" d="M52.7,21.2L52.7,21.2c0.1,0,0.1,0,0.1,0.1v0.1c0,0,0,0.1-0.1,0.1h-0.1c0,0-0.1,0-0.1-0.1L52.7,21.2
		C52.6,21.2,52.6,21.2,52.7,21.2L52.7,21.2L52.7,21.2z"/>
	<path class="st6" d="M51.5,20.7L51.5,20.7l-0.1-0.1c0.3-0.1,0.5-0.2,0.8-0.2s0.6,0,0.9,0.1c-0.3,0.1-0.6,0.1-0.9,0.1
		C51.9,20.5,51.7,20.6,51.5,20.7L51.5,20.7L51.5,20.7z"/>
	<polygon class="st6" points="51.5,20.1 51.3,20.1 51,19.7 51.2,19.8 51.4,19.9 	"/>
	<polygon class="st6" points="51.7,20.2 51.3,20.2 50.8,19.6 51.4,19.8 	"/>
	<polygon class="st6" points="52.9,20 53.4,19.6 53.2,19.5 53,19.7 52.8,19.8 	"/>
	<path class="st6" d="M52.6,20h-0.8v-0.1h0.3v-0.1h0.1l0.1,0.1L52.6,20L52.6,20L52.6,20z"/>
	<polygon class="st6" points="51.7,20.1 51.7,20 52.1,19.9 51.9,20 52.2,20 52.2,19.9 52.6,19.9 52.7,20 52.6,20.1 	"/>
	<polygon class="st6" points="52.5,19.7 52.3,19.7 52.2,19.6 	"/>
	<polygon class="st6" points="52.1,19.6 52.1,19.7 51.8,19.8 	"/>
	<polygon class="st6" points="50.5,22.3 50.7,22 50.6,21.8 50.4,22.1 	"/>
	<polygon class="st6" points="50.8,22.5 51,22.1 50.7,22.4 	"/>
	<polygon class="st6" points="50.9,22.6 50.6,22.5 50.9,22.1 50.7,22.5 50.8,22.5 50.7,22.5 50.9,22.1 	"/>
	<path class="st5" d="M46.8,20.8l-0.3,0.1v0.5l-0.3,0.1L46,21.9l0.1,0.1L46,22.3l0.1,0.1l0.1,0.3h0.2l0.1,0.3l0.4,0.1l0.3,0.2v0.1
		h0.4l0.3,0.1l0.9-0.1l0.1-0.2v-0.3h0.5l0.1-0.4h0.2v-0.4h0.2l-0.1-0.2l-0.1-0.2v-0.3L49.3,21l-0.1-0.5L49,20.4v-0.3l0.3-0.4v-0.1
		H49l-0.2,0.1h-0.2V20l0.1,0.2h-0.3v-0.3L48,19.7L47.6,20v0.3h-0.2L47,20l-0.3-0.1h-0.2v0.2l0.3,0.4V20.8L46.8,20.8z"/>
	<path class="st6" d="M47.5,23.3l0.3,0.1l0.9-0.1l0.1-0.1V23l0.6-0.1v-0.3l0.3-0.1l-0.1-0.4l0.3-0.1l-0.3-0.3v-0.3l-0.4-0.3L49,20.6
		c-0.2-0.1-0.2-0.1-0.2-0.1v-0.3l0.3-0.4h-0.2l-0.1,0.1h-0.3c0.1,0.2,0.1,0.2,0.1,0.3l-0.4,0.1L48,19.9l-0.4-0.1
		c0,0-0.2,0.2-0.3,0.2v0.3l0,0l-0.2,0.1L46.9,20l-0.3-0.1L46.5,20l0.3,0.4v0.3l-0.3,0.1l0.1,0.4l-0.4,0.2L46,21.9
		c0.2,0.1,0.2,0.1,0.1,0.3c-0.1,0-0.1,0,0.1,0.1l0.1,0.3h0.2l0.1,0.4h0.3l0.4,0.3v0.2L47.5,23.3L47.5,23.3z M47.8,23.6l-0.7-0.1
		v-0.2l-0.3-0.2h-0.3l-0.1-0.4h-0.1l-0.2-0.6c0-0.1,0.1-0.2,0.1-0.2l-0.1-0.2l0.2-0.4l0.4-0.1l-0.1-0.4l0.3-0.1v-0.2l-0.3-0.4v-0.3
		v-0.1h0.3l0.4,0.1l0.2,0.3l0.1-0.3c0,0,0,0,0.4-0.3l0.5,0.2l0.1,0.4l0.1-0.1l-0.4,0c0-0.2,0-0.2,0.3-0.3l0.1-0.1H49h0.1v0.2
		l-0.3,0.4v0.3H49l0.1,0.5l0.3,0.3l0.2,0.7l-0.3,0.1l0.1,0.4l-0.3,0.1v0.3L48.5,23l0.1,0.2l-0.1,0.2L47.8,23.6L47.8,23.6z"/>
	<path class="st6" d="M46.1,21.9h0.4l0.1,0.3l0.1,0.1v0.6h0.1v-0.3h0.3l0.1,0.5l-0.1,0.1v0.1h0.4l0.1-0.1h0.2l0.1,0.1l0.1-0.2
		l0.2-0.1l0.1,0.2h0.3l-0.2-0.1l-0.1-0.3l0.4-0.2l0.1,0.3H49l-0.2-0.3V22l0.3-0.4h0.4v-0.2l-0.4-0.3L49,20.6l-0.2-0.1l-0.1,0.1h-0.2
		l0.2,0.4v0.2l0.1,0.1v0.6h-0.3v0.4l-0.2,0.2l-0.1,0.3L48.1,23h-0.3l-0.2-0.2v-0.2h-0.1l-0.1-0.3l-0.2-0.1V22L47,21.9v-0.1l-0.1-0.1
		v-0.4h0.2L47,21.2v-0.1V21l0.1-0.1h-0.3L46.6,21v0.5l-0.3,0.1L46,21.8L46.1,21.9L46.1,21.9z"/>
	<path class="st6" d="M48.8,20.6l-0.3,0.1l0.3,0.2l0.1,0.9l0.1-0.2l0.4-0.1L49,21.1L48.8,20.6L48.8,20.6L48.8,20.6z M48.3,23.5
		c-0.2-0.3-0.2-0.3-0.2-0.3H48l0,0v-0.1c0.2-0.1,0.2-0.1,0.2-0.1l0.2,0.3l0.2-0.1h-0.2l-0.1-0.4l0.4-0.3l0.1,0.1l0,0V22l0.1-0.1
		c-0.1,0-0.2,0.1-0.2,0.1v0.3l-0.2,0.2c-0.1,0.4-0.1,0.4-0.2,0.4L48.2,23h-0.4c-0.3-0.2-0.3-0.2-0.3-0.3v-0.2c-0.1,0-0.1,0-0.2-0.3
		l-0.2-0.1v-0.2h-0.2v-0.2c-0.1,0-0.1,0-0.1-0.5v-0.1H47l0,0l0.2,0.1l-0.3,0.1v0.3l0.3,0.3v0.2l0.1,0.1l0.1,0.3
		c0.1,0.1,0.2,0.3,0.2,0.3l0.1,0.1H48c0.1-0.2,0.1-0.2,0.1-0.2c-0.1,0,0-0.3,0-0.3l0.2-0.2v-0.3c0-0.1,0-0.1,0.4-0.1L48.6,21
		l-0.2-0.3l0.3-0.1H49l0.1,0.5l0.4,0.3v0.2L49,21.7L48.8,22v0.5l0.1,0.2l0,0l0,0.3l-0.2-0.3l-0.2,0.2l0.2,0.3L48.3,23.5L48.3,23.5z
		 M47.1,23.5v-0.1v-0.6l-0.2,0.1v0.2v0.1l-0.2-0.1l-0.1-0.7L46.4,22h-0.3L46,21.9l0.2-0.5l0.3-0.1c0,0,0-0.3,0-0.4
		c0.1-0.1,0.3-0.2,0.3-0.2c0.1,0,0.3,0,0.3,0L47,21.1L46.8,21l0.1-0.2c-0.1,0-0.1,0-0.1,0s-0.1,0.1-0.2,0.1c0,0,0,0.2,0,0.4
		l-0.4,0.2L46,21.9h0.4l0.2,0.4l0.1,0.8v-0.2l0.4-0.1l0.1,0.6L47.1,23.5l0.4,0v0.2L47.1,23.5L47.1,23.5z"/>
	<path class="st7" d="M47.6,22.5l0.2-0.1v-0.2h-0.2l-0.1-0.1h0.2H48h0.1c0,0.1-0.1,0.1-0.1,0.1l-0.1,0.1v0.2c0,0,0.5,0.1,0.4,0.1
		v0.1l-0.5-0.1l-0.3,0.2L47.6,22.5L47.6,22.5z"/>
	<path class="st6" d="M47.5,22.8l0.1-0.2l0.2-0.1l-0.1-0.2h0.1l0,0l0.2-0.1l0,0l-0.1,0.1v0.2c0.5,0,0.5,0,0.4,0.1s-0.1,0.1-0.5,0
		L47.5,22.8L47.5,22.8z"/>
	<path class="st6" d="M48.8,21.2l-0.3,0.2l-0.2,0.3h-0.1L48,21.4h-0.3l-0.2,0.4h-0.1l-0.3-0.3L47,21.3h0.8v-0.4c0,0-0.1,0-0.2-0.1
		H48l-0.1,0.1v0.3h0.7L48.8,21.2L48.8,21.2z"/>
	<path class="st6" d="M47.8,21.3L47,21.4l0.4,0.4c0-0.1,0.1-0.2,0.1-0.4L47.8,21.3L47.8,21.3L47.8,21.3z M47.5,21.9L47.5,21.9
		L47,21.5l-0.1-0.2h0.9L47.7,21h0.1h-0.1c-0.1-0.2,0.1-0.2,0.3-0.2h0.3L47.9,21v0.2l0.8-0.1l-0.4,0.6h-0.2l-0.3-0.3h-0.2
		C47.7,21.5,47.6,21.8,47.5,21.9L47.5,21.9L47.5,21.9z"/>
	<path class="st7" d="M47.4,21.4L47.4,21.4C47.5,21.4,47.5,21.4,47.4,21.4l0.1,0.1c0,0,0,0.1-0.1,0.1h-0.1c0,0-0.1,0-0.1-0.1
		L47.4,21.4C47.3,21.4,47.4,21.4,47.4,21.4L47.4,21.4L47.4,21.4z"/>
	<path class="st7" d="M48.2,21.3L48.2,21.3c0.1,0,0.1,0,0.1,0.1v0.1c0,0,0,0-0.1,0h-0.1H48L48.2,21.3C48.2,21.4,48.2,21.3,48.2,21.3
		L48.2,21.3L48.2,21.3z"/>
	<path class="st6" d="M47,20.9L47,20.9l-0.1-0.1c0.2-0.1,0.4-0.2,0.8-0.2c0.3,0,0.6,0,0.9,0.1c-0.3,0.1-0.6,0.1-0.9,0.1
		C47.5,20.7,47.3,20.8,47,20.9L47,20.9L47,20.9z"/>
	<polygon class="st6" points="47.1,20.2 46.9,20.2 46.5,19.9 46.7,19.9 46.9,20 	"/>
	<polygon class="st6" points="47.3,20.3 46.9,20.3 46.3,19.8 47,19.9 	"/>
	<polygon class="st6" points="48.5,20.1 49,19.7 48.8,19.7 48.6,19.9 48.4,19.9 	"/>
	<path class="st6" d="M48.2,20.2h-0.8v-0.1h0.3V20h0.1l0.1,0.1L48.2,20.2L48.2,20.2L48.2,20.2z"/>
	<polygon class="st6" points="47.3,20.3 47.3,20.1 47.6,20 47.5,20.1 47.7,20.1 47.7,20 48.1,20 48.2,20.2 48.2,20.3 	"/>
	<polygon class="st6" points="48.1,19.9 47.8,19.9 47.8,19.7 	"/>
	<polygon class="st6" points="47.6,19.7 47.6,19.9 47.3,19.9 	"/>
	<polygon class="st6" points="46.1,22.5 46.2,22.1 46.1,21.9 46,22.3 	"/>
	<polygon class="st6" points="46.4,22.7 46.6,22.3 46.2,22.6 	"/>
	<polygon class="st6" points="46.4,22.8 46.2,22.7 46.5,22.2 46.3,22.6 46.4,22.7 46.3,22.6 46.5,22.2 	"/>
	<path class="st1" d="M54.1,29.3L55,19l5.5-3.1l4.2,4.6l-2.8,9.9C59.1,29.8,57.6,29.6,54.1,29.3L54.1,29.3L54.1,29.3z"/>
	<path class="st8" d="M60.4,15.9L55,19l-0.9,10.3c3.4,0.2,5,0.5,7.7,1l2.8-9.9L60.4,15.9L60.4,15.9z M61.9,30.4L61.9,30.4
		c-2.8-0.6-4.3-0.8-7.8-1.1L54.9,19l5.5-3.2l4.3,4.6L61.9,30.4L61.9,30.4z"/>
	<path class="st5" d="M49.1,24.6l-0.3,0.1v0.5l-0.3,0.1l-0.2,0.4l0.1,0.1l-0.1,0.3l0.1,0.1l0.1,0.3h0.2l0.1,0.3h0.4l0.3,0.2v0.1h0.4
		l0.3,0.1l0.9-0.1l0.1-0.2v-0.3h0.5v-0.4H52v-0.4h0.2l-0.2,0l-0.1-0.2v-0.3L51.4,25l-0.1-0.5l-0.2-0.1v-0.3l0.3-0.4v-0.1h-0.2
		L51,23.7h-0.2v0.1l0.1,0.2h-0.3v-0.3L50,23.5l-0.4,0.3v0.3h-0.2l-0.2-0.3l-0.3-0.1h-0.2v0.2l0.3,0.4L49.1,24.6L49.1,24.6z"/>
	<path class="st6" d="M49.8,27.2l0.2,0.1l0.9-0.1L51,27v-0.2l0.6-0.1v-0.3l0.3-0.1L51.7,26l0.3-0.1l-0.3-0.3v-0.3L51.4,25l-0.1-0.5
		C51,24.4,51,24.4,51,24.4v-0.3l0.3-0.4h-0.2H51h-0.3c0.1,0.2,0.1,0.2,0.1,0.3l-0.4,0.1l-0.1-0.4L50,23.6c0,0-0.2,0.2-0.3,0.2V24
		v0.1l-0.2,0.1l-0.3-0.3l-0.3-0.1l-0.1,0.1l0.3,0.4v0.3l-0.3,0.1l0.1,0.4l-0.4,0.1l-0.2,0.4c0.2,0.1,0.2,0.1,0.1,0.3
		c-0.1,0-0.1,0,0,0.2l0.1,0.3h0.1l0.1,0.4H49l0.4,0.3v0.2L49.8,27.2L49.8,27.2z M50.1,27.4l-0.7-0.1v-0.2L49,27h-0.3l-0.1-0.4h-0.1
		l-0.2-0.7v-0.3l0.2-0.4l0.4-0.1l-0.1-0.4l0.3-0.1v-0.2L48.7,24v-0.3v-0.1H49l0.4,0.1l0.2,0.3l0.1-0.3c0,0,0,0,0.4-0.3l0.5,0.2
		l0.1,0.4l0.1-0.1l-0.1-0.1c0-0.2,0-0.2,0.3-0.3l0.1-0.1h0.3h0.1v0.2L51.2,24v0.3c0-0.1,0.2,0,0.2,0l0.1,0.5l0.3,0.3l0.2,0.7
		l-0.3,0.1l0.1,0.4l-0.4,0.1l0.1,0.3l-0.6,0.1L51,27l0,0.3L50.1,27.4L50.1,27.4z"/>
	<path class="st6" d="M48.4,25.8h0.4l0.1,0.3l0.1,0.1v0.6h0.1v-0.3h0.3l0.1,0.5l-0.1,0.1v0.1h0.4l0.1-0.1h0.2l0.1,0.1l0.1-0.2
		l0.2-0.1l0.1,0.3h0.3L50.7,27l-0.1-0.3l0.4-0.2l0.1,0.3h0.1L51,26.5v-0.6l0.3-0.4h0.4v-0.2L51.4,25l-0.1-0.5l-0.2-0.1L51,24.5h-0.2
		l0.2,0.4v0.2l0.1,0.1v0.6h-0.3v0.4l-0.2,0.2l-0.1,0.3l-0.1,0.2h-0.3l-0.2-0.2v-0.2h-0.1l-0.1-0.3L49.5,26v-0.2l-0.2-0.1
		c0,0,0-0.1,0-0.2l-0.1-0.1V25h0.2l-0.2,0v-0.1v-0.1l0.1-0.1H49l-0.3,0.1v0.5l-0.3,0.1l-0.2,0.4H48.4L48.4,25.8z"/>
	<path class="st6" d="M51.1,24.5l-0.3,0.1l0.3,0.2l0.1,0.9l0.1-0.2l0.4-0.1L51.4,25l-0.1-0.5H51.1L51.1,24.5z M50.6,27.3
		C50.4,27,50.4,27,50.4,27l-0.1,0.3l-0.2-0.2H50l0.2-0.1v0.1l0.1,0.1l0,0L50.2,27c0.2-0.1,0.2-0.1,0.2-0.1c0.1,0.1,0.2,0.3,0.2,0.3
		l0.2-0.1h-0.2l-0.1-0.4l0.4-0.3l0.1,0.1l0,0v-0.6l0.1-0.1c-0.1,0-0.2,0.1-0.2,0.1v0.3l-0.2,0.2c-0.1,0.4-0.1,0.4-0.2,0.4L50.4,27
		H50c-0.3-0.2-0.3-0.2-0.3-0.3v-0.2c-0.1,0-0.1,0-0.2-0.3l-0.2-0.1v-0.2h-0.2v-0.2c-0.1,0-0.1,0-0.1-0.5v-0.1h0.2l0,0l0.2,0.1h-0.3
		v0.3c0.1,0,0.1,0,0.1,0.2h0.2v0.2l0.1,0.1l0.1,0.3c0.1,0.1,0.1,0.3,0.1,0.3l0.1,0.1H50c0.1-0.2,0.1-0.2,0.2-0.2c-0.1,0,0-0.3,0-0.3
		l0.2-0.2v-0.3c0-0.1,0-0.1,0.4-0.1l-0.2-0.8l-0.2-0.3l0.3-0.1H51l0.1,0.5l0.4,0.3v0.2l-0.4,0.1l0.1,0.5v0.5l0.1,0.2l-0.2,0.1
		l-0.2-0.3l-0.3,0.2l0.3,0.4L50.6,27.3L50.6,27.3z M49.4,27.3v-0.1v-0.6l-0.2,0.1v0.2V27L49,26.9l-0.1-0.7l-0.2-0.4l-0.3,0.1
		l-0.1-0.1l0.2-0.5l0.3-0.1c0,0,0-0.3,0-0.4c0.1-0.1,0.3-0.2,0.3-0.2c0.1,0,0.3,0,0.3,0L49.2,25l-0.1-0.1l0.1-0.2
		c-0.1,0-0.1,0-0.1,0s-0.1,0.1-0.2,0.1c0,0.1,0,0.2,0,0.4l-0.4,0.2l-0.2,0.4h0.4l0.2,0.4L49,27v-0.2l0.4-0.1V27.3L49.4,27.3l0.4,0.1
		v0.2L49.4,27.3L49.4,27.3z"/>
	<path class="st7" d="M49.9,26.4l0.2-0.1v-0.2h-0.2L49.8,26H50h0.3h0.1c0,0-0.1,0-0.1,0l-0.1,0.1v0.2c0,0,0.5,0.1,0.4,0.1v0.1
		l-0.5-0.1l-0.3,0.2L49.9,26.4L49.9,26.4z"/>
	<path class="st6" d="M49.8,26.6l0.1-0.2l0.2-0.1L50,26h0.1l0,0l0.2-0.1l0,0L50.2,26v0.2c0.4,0,0.4,0,0.4,0.1
		c-0.1,0.1-0.1,0.1-0.5,0L49.8,26.6L49.8,26.6z"/>
	<path class="st6" d="M51.1,25.1l-0.3,0.2l-0.2,0.3h-0.1l-0.3-0.3h-0.3l-0.1,0.4h-0.1l-0.3-0.3l-0.1-0.2h0.8v-0.4c0,0-0.1,0-0.2-0.1
		h0.4l-0.1,0.1v0.3h0.7H51.1L51.1,25.1z"/>
	<path class="st6" d="M50.1,25.1l-0.8,0.1l0.4,0.4c0-0.1,0.1-0.2,0.1-0.4L50.1,25.1L50.1,25.1L50.1,25.1z M49.8,25.7L49.8,25.7
		l-0.5-0.4l-0.1-0.2h0.9L50,24.8h0.1H50c-0.1-0.2,0.1-0.2,0.3-0.2h0.3l-0.4,0.3v0.2L51,25l-0.4,0.6h-0.2l-0.3-0.3h-0.2
		C50,25.3,49.9,25.6,49.8,25.7L49.8,25.7L49.8,25.7z"/>
	<path class="st7" d="M49.7,25.2L49.7,25.2c0.1,0,0.1,0,0.1,0.1v0.1c0,0,0,0.1-0.1,0.1h-0.1c0,0-0.1,0-0.1-0.1L49.7,25.2
		C49.6,25.3,49.7,25.2,49.7,25.2L49.7,25.2L49.7,25.2z"/>
	<path class="st7" d="M50.5,25.2L50.5,25.2c0.1,0,0.1,0,0.1,0.1v0.1c0,0,0,0-0.1,0h-0.1h-0.1L50.5,25.2L50.5,25.2L50.5,25.2
		L50.5,25.2z"/>
	<path class="st6" d="M49.3,24.7L49.3,24.7l-0.1-0.2c0.3-0.1,0.5-0.2,0.8-0.2s0.6,0,0.9,0.1c-0.3,0.1-0.6,0.1-0.9,0.1
		C49.8,24.5,49.6,24.6,49.3,24.7L49.3,24.7L49.3,24.7z"/>
	<polygon class="st6" points="49.4,24.1 49.2,24.1 48.8,23.7 49,23.8 49.2,23.9 	"/>
	<polygon class="st6" points="49.6,24.2 49.2,24.2 48.6,23.6 49.3,23.8 	"/>
	<polygon class="st6" points="50.8,24 51.3,23.6 51.1,23.5 50.9,23.7 50.7,23.8 	"/>
	<path class="st6" d="M50.5,24h-0.8v-0.1H50v-0.1h0.1l0.1,0.1L50.5,24L50.5,24L50.5,24z"/>
	<polygon class="st6" points="49.6,24.1 49.6,24 49.9,23.9 49.8,24 50,24 50,23.9 50.4,23.9 50.5,24 50.5,24.1 	"/>
	<polygon class="st6" points="50.4,23.7 50.1,23.7 50.1,23.6 	"/>
	<polygon class="st6" points="49.9,23.6 49.9,23.7 49.6,23.8 	"/>
	<polygon class="st6" points="48.4,26.3 48.6,26 48.4,25.8 48.3,26.1 	"/>
	<polygon class="st6" points="48.7,26.5 48.8,26.1 48.5,26.4 	"/>
	<polygon class="st6" points="48.7,26.6 48.5,26.5 48.8,26.1 48.6,26.5 48.7,26.5 48.6,26.5 48.8,26.1 	"/>
	<path class="st2" d="M55.4,27.5l-0.3,0.3v0.3h0.6c0.2,0,0.2-0.1,0.3-0.2s0-0.1,0-0.3L55.4,27.5L55.4,27.5z"/>
	<path class="st9" d="M55.1,28.1v-0.3l0.3-0.3l0.7,0.1v0.3l0,0c0,0.1-0.1,0.1-0.3,0.2L55.1,28.1L55.1,28.1z"/>
	<path class="st2" d="M56.8,28.2l-0.2,0.2v0.3h0.5c0.2,0,0.2-0.1,0.2-0.1c0.1-0.1,0.1-0.1,0.1-0.2L56.8,28.2L56.8,28.2z"/>
	<path class="st9" d="M57,28.7h-0.5v-0.3l0.3-0.2l0.6,0.1l-0.1,0.2l0,0C57.2,28.7,57.2,28.7,57,28.7L57,28.7L57,28.7z"/>
	<path class="st2" d="M59,27.6l-0.3,0.3V28h0.5c0.2,0,0.1,0,0.2-0.1c0.1-0.1,0.1-0.1,0.1-0.2L59,27.6L59,27.6z"/>
	<path class="st9" d="M59.3,28.1h-0.5v-0.2l0.3-0.3l0.6,0.1L59.6,28l0,0C59.5,28.1,59.5,28.1,59.3,28.1L59.3,28.1L59.3,28.1z"/>
	<path class="st2" d="M60.6,28l-0.3,0.3v0.3l0.6,0.1c0.2,0,0.2-0.1,0.2-0.2c0.1-0.1,0-0.1,0.1-0.2L60.6,28L60.6,28z"/>
	<path class="st9" d="M60.9,28.7l-0.6-0.1v-0.3l0.3-0.3l0.6,0.2v0.3C61.1,28.6,61,28.6,60.9,28.7L60.9,28.7L60.9,28.7z"/>
	<path class="st2" d="M56.8,21.3l1.1,0.7c0.2-0.2,0.6-0.1,0.8,0c0.3,0.1,0.5,0.2,0.8,0.3c0.5,0.1,1,0.2,1.5,0.2
		c0.4-0.1,0.8-0.3,1.1-0.4V22h-0.2c-0.5,0-1,0-1.3,0c-0.4,0-0.5-0.2-1-0.4v-0.1c0.7,0,0.8,0,1.1-0.1s0.4-0.2,0.5-0.3V21H61
		c-0.3,0.2-0.4,0.2-0.8,0.2c-0.4,0-0.7-0.2-0.9-0.2c-0.3,0-0.2-0.1-0.5-0.1c-0.4,0-0.8,0-1.2,0.1C57.1,21,57,21.1,56.8,21.3
		L56.8,21.3L56.8,21.3z"/>
	<path class="st10" d="M60.6,22.5c-0.4,0-0.8-0.1-1.2-0.2c-0.1,0-0.3-0.1-0.4-0.1c-0.1-0.1-0.2-0.1-0.4-0.1c-0.4-0.1-0.6-0.1-0.7,0
		l-1.1-0.7c0.3-0.3,0.4-0.4,0.8-0.5c0.4-0.1,0.8-0.1,1.2-0.1c0.1,0,0.2,0,0.3,0.1c0.1,0,0.1,0.1,0.2,0.1c0.1,0,0.3,0.1,0.4,0.1
		c0.1,0.1,0.3,0.1,0.5,0.1c0.4,0,0.5,0,0.8-0.1l0,0h0.2l0,0l0,0l0,0l0,0L61,21.2c-0.1,0.1-0.2,0.2-0.4,0.2c-0.2,0.1-0.3,0.1-0.6,0.1
		h-0.2l0.2-0.1c0.3,0,0.4,0,0.6-0.1c0.2,0,0.3-0.1,0.4-0.2l0.1-0.1c-0.5,0.1-0.6,0.2-1,0.1c-0.2,0-0.4-0.1-0.5-0.1
		c-0.1-0.1-0.3-0.1-0.4-0.1c-0.1,0-0.2,0-0.3-0.1c-0.1,0-0.1-0.1-0.2-0.1c-0.4,0-0.8,0-1.2,0.1S57,21,56.8,21.2l1,0.7
		c0.1-0.1,0.4-0.1,0.8,0c0.1,0,0.3,0.1,0.4,0.2c0.1,0.1,0.2,0.1,0.4,0.1c0.5,0.1,1.1,0.2,1.5,0.2s0.7-0.2,0.9-0.4v-0.1
		c-0.4,0.2-0.9,0.1-1.2,0.1c-0.2,0-0.3-0.1-0.5-0.2c-0.1-0.1-0.3-0.1-0.5-0.2h0.1c0.2,0.1,0.4,0.1,0.5,0.2s0.3,0.1,0.4,0.1
		c0.3,0,0.7,0.1,1.2-0.1H62l-0.1,0.3c-0.3,0.1-0.6,0.3-1,0.4C60.8,22.5,60.7,22.5,60.6,22.5L60.6,22.5L60.6,22.5z"/>
	<path class="st11" d="M57,21.1c0.1,0,0.2,0.1,0.3,0.1s0.1,0,0.1,0.1c0-0.1,0-0.1-0.1-0.2s-0.2-0.1-0.2-0.2L57,21.1L57,21.1z"/>
	<path class="st11" d="M57.9,21.9c0-0.1-0.1-0.2-0.1-0.3c0-0.1-0.1-0.1-0.1-0.2c0.1,0,0.1,0.1,0.2,0.1
		C57.9,21.7,57.9,21.7,57.9,21.9L57.9,21.9L57.9,21.9z"/>
	<path class="st11" d="M58.1,20.8c0,0.1,0.1,0.1,0.1,0.2s0.1,0.3,0.1,0.3c0-0.1,0-0.2,0-0.3C58.2,20.9,58.2,20.9,58.1,20.8
		L58.1,20.8L58.1,20.8z"/>
	<polygon class="st11" points="59,20.8 59,21.3 59.1,20.9 	"/>
	<path class="st11" d="M58.8,21.9c0-0.1,0-0.2,0-0.3c0-0.1,0-0.2-0.1-0.3c0.1,0.1,0.1,0.2,0.2,0.3C58.8,21.7,58.8,21.8,58.8,21.9
		L58.8,21.9L58.8,21.9z"/>
	<path class="st11" d="M59.6,21.7c0,0,0,0.2,0,0.3c0,0.1-0.1,0.1-0.1,0.2c0.1-0.1,0.2-0.1,0.2-0.2S59.7,21.7,59.6,21.7L59.6,21.7
		L59.6,21.7z"/>
	<path class="st11" d="M59.8,21.5c-0.1,0-0.1-0.2-0.1-0.4h0.1C59.8,21.2,59.8,21.4,59.8,21.5L59.8,21.5L59.8,21.5z"/>
	<path class="st11" d="M60.4,21.4v-0.2h0.1L60.4,21.4C60.5,21.4,60.4,21.4,60.4,21.4L60.4,21.4L60.4,21.4z"/>
	<path class="st11" d="M60.4,22c0.1,0.1,0.1,0.1,0.1,0.2s0,0.1-0.1,0.2h0.1c0.1-0.1,0.1-0.1,0.1-0.2S60.5,22.1,60.4,22L60.4,22
		L60.4,22z"/>
	<path class="st12" d="M60.5,22.5L60.5,22.5l-0.1-0.2V22c0,0,0,0,0.1,0l0,0l0.2,0.2C60.5,22.3,60.5,22.3,60.5,22.5L60.5,22.5
		L60.5,22.5c0-0.1,0-0.2,0-0.3V22c0.1,0,0.1,0.1,0.1,0.2C60.6,22.3,60.6,22.3,60.5,22.5L60.5,22.5L60.5,22.5z"/>
	<polygon class="st11" points="61.1,22 61.1,22.3 61.2,22.3 61.2,22 	"/>
	<path class="st5" d="M56.7,21.3c-0.2,0.1-0.3,0.2-0.4,0.3l-0.7-0.4c-0.1,0.1-0.1,0.2-0.1,0.4c0.1,0.1,0.3,0.3,0.4,0.4
		c0,0.2-0.1,0.3-0.1,0.5c-0.1,0.2-0.2,0.4-0.2,0.5s-0.1,0.3,0.1,0.3c0.1,0,0.5,0,0.7,0c0,0.1-0.1,0.2-0.1,0.3c0,0,0.1,0.1,0.2,0.1
		c0,0.1-0.1,0.2-0.1,0.2c0.1,0.1,0.2,0.1,0.3,0c0,0.1-0.1,0.1-0.2,0.2c-0.1,0.1-0.3,0.3-0.4,0.4c-0.1,0.2-0.1,0.3,0.1,0.3
		c-0.1,0.1-0.1,0.2-0.1,0.3c0,0.1,0.1,0.2,0.2,0.1c-0.1,0.2,0,0.4,0,0.6c-0.1,0.2,0,0.3-0.1,0.5c-0.2,0.1-0.2,0.2-0.3,0.4
		c-0.1,0.2-0.3,0.3-0.4,0.7l0.6,0.2c0-0.1,0.1-0.1,0.1-0.2s0-0.2,0-0.3c0.1-0.2,0.4-0.5,0.5-0.8c0.1-0.1,0.2-0.1,0.3-0.1
		s0.2,0.1,0.3,0.1c-0.1,0.2-0.2,0.4-0.2,0.6v0.7c0,0.2-0.2,0.2-0.3,0.6l0.6,0.1c0.1-0.2,0.3-0.2,0.3-0.3v-0.7
		c0.1-0.3,0.5-0.6,0.5-0.9c0.2,0,0.2,0,0.3,0s0.1-0.1,0.2-0.1c0,0.1,0.1,0.1,0.2,0.1c0.1,0,0.2-0.1,0.3-0.1c0,0.1,0.1,0.1,0.1,0.1
		c0.1,0,0.3,0,0.4,0l-0.5,0.8c0,0.1,0,0.1,0,0.2s-0.1,0.1-0.1,0.2l0.5,0.1l0.1-0.2c0.1,0,0.2-0.1,0.3-0.1c0-0.2,0-0.3,0-0.4
		c0.2-0.1,0.4-0.4,0.7-0.7c0.1,0,0.3,0.1,0.4,0.3c0,0.2,0,0.5-0.1,0.7l-0.3,0.5v0.1l0.5,0.2l0.3-0.3v-0.4c0.2-0.3,0.4-0.5,0.7-0.7
		v-0.4c0,0-0.1,0-0.1-0.1s0-0.3,0-0.4l0.1-0.1c-0.1-0.1-0.1-0.4,0-0.6c0-0.2,0.3-0.5,0.4-0.6v-0.3c0-0.1-0.1-0.1-0.1-0.1
		c0-0.1,0.1-0.1,0.1-0.2l0.1-0.1v-0.6c0-0.1-0.1-0.2-0.1-0.2c-0.1,0-0.1,0-0.2,0.1L62,23.5c-0.1,0-0.3,0.1-0.5,0h-0.4
		c-0.2,0.1-0.3,0.1-0.5,0h-0.2c-0.1,0-0.2,0.1-0.3,0.1s-0.2,0-0.3,0c-0.6,0-0.5,0.1-0.6,0.1s-0.1-0.1-0.6-0.1l-0.2-0.1
		c-0.3-0.2-0.5-0.5-0.7-0.8c0.6-0.2,0.8-0.3,1-0.7h-0.8L56.7,21.3L56.7,21.3z"/>
	<path class="st13" d="M56.4,23.8l-0.2-0.1c0-0.1,0-0.1,0-0.2c0,0-0.1,0-0.2,0c-0.1,0-0.2,0-0.3,0c-0.3-0.1-0.3-0.3-0.2-0.4
		c0,0,0-0.1,0.1-0.2c0-0.1,0.1-0.2,0.1-0.3c0.1-0.1,0.1-0.3,0.1-0.5c-0.1-0.1-0.4-0.3-0.4-0.4c-0.1-0.1,0-0.3,0.1-0.4l0.4,0.2
		l-0.4-0.2c-0.1,0.1-0.1,0.2-0.1,0.3c0.1,0.1,0.3,0.3,0.4,0.4c0,0.2-0.1,0.4-0.1,0.5s-0.1,0.2-0.1,0.3c0,0.1-0.1,0.2-0.1,0.2
		c0,0.1,0,0.2,0.1,0.3c0.2,0,0.3,0,0.4,0c0.1,0,0.2,0,0.2,0L56.4,23.8L56.4,23.8z M56,24.8c-0.1-0.1-0.1-0.1,0-0.2s0.2-0.2,0.3-0.3
		l0.3-0.3c-0.1,0.1-0.2,0.1-0.3,0l0.1-0.2l0,0l0.2,0.1l-0.1,0.2c-0.3,0.2-0.4,0.3-0.4,0.4C56,24.6,55.9,24.7,56,24.8L56,24.8
		L56,24.8z M56.1,26.3c0-0.2,0-0.4,0.1-0.5c-0.1-0.3-0.1-0.4,0-0.6c-0.1,0.1-0.2,0-0.2-0.1s0-0.1,0.1-0.2c0,0.1,0,0.2,0,0.2h0.1
		l0.1,0.1c-0.1,0.2-0.1,0.3,0,0.5c0,0.2,0,0.3,0,0.4C56.1,26.2,56.1,26.2,56.1,26.3L56.1,26.3L56.1,26.3z M59.2,27.3L59.2,27.3v-0.2
		l0.5-0.8c-0.1,0.1-0.2,0.1-0.3,0.1l-0.2-0.1c-0.2,0.1-0.4,0.3-0.5,0h0.2c0,0,0.1,0,0.3-0.1l0.2,0.1c0.1,0,0.3,0,0.4,0L59.2,27.3
		L59.2,27.3z M61.2,28.2L60.6,28l0.4-0.7c0.1-0.1,0.1-0.4,0-0.7c-0.1-0.1-0.2-0.2-0.4-0.3c-0.1,0.2-0.4,0.5-0.6,0.6v0.4
		c-0.1,0.1-0.1,0.1-0.2,0.1l-0.1,0.2l-0.6-0.1l0.1-0.2v0.1l0.4,0.2v-0.2c0.1-0.1,0.2-0.1,0.3-0.1L60,27c0.2-0.1,0.5-0.4,0.7-0.6
		c0.2,0,0.4,0.1,0.4,0.3c0,0.3,0,0.6-0.1,0.8L60.7,28L61.2,28.2l0.3-0.3v-0.3c0.1-0.3,0.4-0.4,0.6-0.6c0.1-0.4,0.1-0.4,0.1-0.4
		C62,26.3,62,26.1,62,26c0-0.2,0-0.5,0.1-0.7c0-0.1,0.1-0.3,0.2-0.5c0.1-0.1,0.1-0.1,0.1-0.2v-0.2c-0.1-0.2-0.1-0.3,0-0.4l0.1-0.7
		l0,0h-0.3L62,23.5c-0.1,0.1-0.3,0.1-0.6,0H61c-0.2,0.1-0.3,0.1-0.5,0h-0.2c-0.1,0.1-0.2,0.1-0.2,0.1h-0.3l0,0
		c-0.4,0-0.5,0.1-0.5,0.1h-0.2c-0.1,0-0.1-0.1-0.5-0.1l-0.2-0.1c-0.3-0.2-0.5-0.4-0.7-0.8c0.6-0.2,0.8-0.4,1-0.7l-0.8,0.1l-1.1-0.7
		c-0.2,0-0.2,0.1-0.4,0.2l0,0c0.1-0.1,0.2-0.2,0.4-0.3l1.2,0.8h0.8c-0.1,0.4-0.4,0.6-0.9,0.8c0.2,0.3,0.4,0.6,0.7,0.7l0.2,0.1
		c0.4,0,0.5,0,0.6,0.1c0.2,0,0.3-0.1,0.7-0.1h0.3c0.1,0,0.1-0.1,0.2-0.1h0.3c0.2,0.1,0.3,0.1,0.5,0h0.4c0.3,0.1,0.4,0,0.5,0l0.3-0.2
		c0,0,0.1-0.1,0.2-0.1c0.1,0,0.2,0.2,0.2,0.2v0.6l-0.2,0.3l0.1,0.4c0,0.1-0.1,0.1-0.1,0.2c-0.1,0.1-0.2,0.3-0.2,0.4s-0.1,0.5,0,0.5
		c-0.1,0.2-0.1,0.5-0.1,0.5c0.1,0.1,0.1,0.1,0.1,0.5c-0.3,0.3-0.5,0.5-0.6,0.7V28L61.2,28.2L61.2,28.2z M57.4,28.3l-0.6-0.1
		c0-0.4,0.1-0.5,0.2-0.6l0.1-0.8c0-0.2,0.1-0.3,0.1-0.4L57,26.2c-0.1,0-0.2,0-0.3,0.1c-0.1,0.2-0.3,0.6-0.4,0.7c0,0,0,0.2,0,0.3
		l-0.2,0.3l-0.6-0.2c0.1-0.3,0.1-0.5,0.2-0.6l0.2-0.3c0.1-0.1,0.1-0.2,0.2-0.3C56,26.3,56,26.4,56,26.5c-0.1,0.2-0.1,0.3-0.2,0.3
		c-0.1,0.1-0.2,0.2-0.2,0.5l0.6,0.1l0.1-0.2c0-0.1,0-0.2,0-0.3c0.1-0.2,0.4-0.6,0.5-0.8c0.3-0.1,0.4-0.2,0.6-0.1
		c0.1,0.1,0.1,0.2,0,0.3c-0.1,0.1-0.1,0.2-0.1,0.4v0.7c-0.2,0.2-0.2,0.4-0.3,0.7L57.4,28.3c0-0.2,0.1-0.2,0.2-0.3l0.1-0.7
		c0-0.1,0.1-0.3,0.3-0.4c0.1-0.1,0.3-0.3,0.3-0.5h0.1h0.1h0.1h-0.3c0,0.2-0.1,0.3-0.3,0.5c-0.1,0.1-0.2,0.3-0.2,0.4V28
		C57.5,28.2,57.5,28.2,57.4,28.3L57.4,28.3L57.4,28.3z"/>
	<path class="st14" d="M56.4,22.3l0.2,0.1l0.1,0.1c0,0,0.1,0,0.1-0.1l0.2-0.1c-0.1,0-0.1-0.1-0.3-0.1C56.7,22.2,56.6,22.3,56.4,22.3
		L56.4,22.3L56.4,22.3z"/>
	<path class="st14" d="M56.8,22.5l-0.4-0.2l0,0l0,0l0,0c0.2-0.1,0.3-0.1,0.3-0.1l0.2,0.1h-0.2l-0.3,0.1L56.8,22.5L56.8,22.5
		L56.8,22.5l0.1-0.1l0.2-0.1h0.1L56.8,22.5L56.8,22.5z"/>
	<path class="st6" d="M56.8,25L56.8,25c-0.1-0.3-0.1-0.4-0.2-0.6C56.7,24.5,56.8,24.7,56.8,25L56.8,25L56.8,25z"/>
	<path class="st6" d="M58.2,25L58.2,25c0.1-0.1,0.1-0.1,0-0.2s-0.1-0.3-0.1-0.4H58C58.1,24.6,58.1,25,58.2,25L58.2,25L58.2,25z"/>
	<path class="st6" d="M58.9,24.9c0,0-0.1,0-0.1-0.1s-0.1-0.6-0.1-0.6s0.1,0.2,0.1,0.3C58.8,24.6,58.9,24.8,58.9,24.9L58.9,24.9
		L58.9,24.9z"/>
	<path class="st6" d="M58.8,26L58.8,26c0.2-0.2,0.3-0.3,0.3-0.4s0.1-0.5,0.1-0.5s-0.1,0.2-0.2,0.4C58.9,25.8,58.8,26,58.8,26
		L58.8,26L58.8,26z"/>
	<path class="st6" d="M58.8,26.1L58.8,26.1c0-0.1-0.1-0.1,0.2-0.6l0.1-0.3l0,0L59,25.5C58.9,25.9,58.8,26,58.8,26.1L58.8,26.1
		L58.8,26.1l0.2-0.3c0.1-0.1,0.2-0.4,0.2-0.5c0.1,0,0,0.4,0,0.4L58.8,26.1L58.8,26.1z"/>
	<path class="st6" d="M59.5,25.8l0.1-0.4c0-0.1,0-0.3,0.1-0.5C59.7,25.2,59.7,25.5,59.5,25.8L59.5,25.8L59.5,25.8z"/>
	<path class="st6" d="M59.5,25.8L59.5,25.8c-0.1-0.1-0.1-0.1,0-0.3l0.1-0.7C59.8,25.2,59.7,25.5,59.5,25.8L59.5,25.8L59.5,25.8z"/>
	<path class="st6" d="M59.9,24.6l-0.3-0.5c0,0,0.3,0.3,0.3,0.4C60,24.5,60,24.6,59.9,24.6L59.9,24.6L59.9,24.6z"/>
	<path class="st6" d="M60.7,25c0,0,0-0.2-0.1-0.4c0-0.2-0.1-0.4-0.1-0.4h0.1C60.6,24.4,60.7,24.7,60.7,25L60.7,25L60.7,25L60.7,25z"
		/>
	<path class="st6" d="M61.2,24.5c0,0,0.1,0.2,0.1,0.4c0.1,0.2,0.1,0.7,0.1,0.6c0,0,0-0.1,0.1-0.1s0.4,0,0.3,0
		c-0.2-0.1-0.3-0.3-0.4-0.4C61.3,24.9,61.2,24.7,61.2,24.5L61.2,24.5L61.2,24.5z"/>
	<path class="st6" d="M61.5,25.7L61.5,25.7l-0.1-0.2c0-0.1-0.1-0.3-0.1-0.5c0-0.1-0.1-0.2-0.1-0.3l0,0c0,0,0,0,0-0.1
		c0,0.1,0.1,0.1,0.1,0.2c0.1,0.1,0.1,0.2,0.2,0.3c0.1,0.1,0.2,0.2,0.4,0.4L61.5,25.7L61.5,25.7z"/>
	<path class="st0" d="M63.8,23.8c1.5,0.3,3,0.7,4.4,1.2c1.4,0.5,2.8,1,4.2,1.6L70,31.2c-1.3-0.5-2.6-0.9-3.8-1.3
		c-1.3-0.4-2.5-0.8-3.8-1.2L63.8,23.8L63.8,23.8z"/>
	<path class="st0" d="M63.8,23.8l-1.4,4.9l1.2,0.3c0.9,0.3,1.7,0.5,2.6,0.8l0.6,0.2c1.1,0.3,2.2,0.7,3.3,1.1l2.3-4.6
		c-1.2-0.5-2.6-1.1-4.1-1.6C66.8,24.5,65.3,24.1,63.8,23.8L63.8,23.8L63.8,23.8z M70.1,31.3L70.1,31.3c-1.1-0.4-2.2-0.8-3.3-1.1
		L66.2,30c-0.9-0.3-1.7-0.5-2.6-0.8l-1.2-0.4l1.4-5c1.6,0.3,3,0.7,4.4,1.1c1.5,0.5,3,1.1,4.2,1.6L70.1,31.3L70.1,31.3z"/>
	<path class="st2" d="M63.5,24.9c0,0,2.2,0.5,4.2,1.2c2.1,0.7,4.1,1.5,4.1,1.5l-1.3,2.7c-1.3-0.5-2.6-1-3.9-1.4s-2.6-0.8-4-1.1
		L63.5,24.9L63.5,24.9z"/>
	<path class="st9" d="M70.5,30.3L70.5,30.3c-1.2-0.5-2.5-1-3.9-1.4c-1.2-0.4-2.6-0.8-3.9-1.1l0.8-2.9c0.1,0,2.2,0.5,4.3,1.1
		c1.4,0.4,3.7,1.3,4.1,1.5c-0.2,0-2.1-0.8-4.1-1.5c-2.1-0.7-4.2-1.2-4.2-1.2l-0.8,2.8c1.4,0.3,2.7,0.7,3.9,1.1
		C68,29.2,69.3,29.7,70.5,30.3c1.1-2.4,1.2-2.7,1.3-2.7h0.1C71.8,27.6,70.9,29.5,70.5,30.3L70.5,30.3L70.5,30.3z"/>
	<path class="st15" d="M63.7,26.2c0.2-0.1,0.4-0.1,0.5-0.4H65v0.3c0.2,0.1,0.3,0.2,0.5,0.3c0.2,0.1,0.4,0.2,0.6,0.3l1.6,0.1
		c0.2,0,0.5,0.1,0.7,0.2s0.3,0.3,0.4,0.4c0.3,0.1,0.7,0.2,1,0.2c0.4,0,0.8,0.1,1.1,0.1c0.2,0.1,0.2,0.1,0.1,0.2c0,0-0.2,0.3-0.7,0.3
		S69.2,27.9,69,28c0,0.2,0.3,0.5,0.6,0.6v0.7l-0.1,0.1l-0.1-0.1c0.1-0.2,0.1-0.4,0-0.5c-0.1-0.2-0.1-0.2-0.3-0.2
		c-0.3,0-0.4-0.1-0.8-0.3h-0.1c-0.1,0.1-0.1,0.2-0.3,0.3h-0.3l-0.7-0.2v-0.1c0,0,0.2,0,0.3,0c0.2,0,0.5,0,0.5,0V28h0.5
		c-0.1-0.4-0.1-0.6-0.6-0.6h-1.5v0.2c-0.4,0-1,0-1.4,0.1c-0.2,0-0.5,0.1-0.6,0.1H64c-0.1,0-0.1-0.1-0.1-0.1c0.6,0,0.7-0.1,0.9-0.2
		c0-0.1-0.1-0.2-0.1-0.2c-0.4,0-0.7,0-0.8,0c-0.2,0-0.4-0.1-0.4-0.1V27c0,0,0.2,0.1,0.3,0.1c0.3,0.1,0.7,0,0.8,0v-0.2
		c0-0.1-0.1-0.2-0.1-0.2s-0.4-0.1-0.6-0.1C63.6,26.4,63.7,26.3,63.7,26.2L63.7,26.2L63.7,26.2z"/>
	<path class="st15" d="M64.1,27.6c0.4-0.1,0.5-0.2,0.6-0.2l-0.4-0.1h-0.2h-0.3c-0.1,0-0.4-0.1-0.4-0.2l0.1-0.1
		c0.1,0.1,0.3,0.1,0.4,0.2h0.3h0.2h0.3c0.1,0,0.1,0.2,0.1,0.2C64.6,27.5,64.5,27.5,64.1,27.6L64.1,27.6L64.1,27.6z M68,27.9
		c-0.1-0.3-0.2-0.5-0.6-0.6H66l0.1,0.2c-0.2,0-0.4,0-0.6,0c-0.3,0-0.6,0-0.8,0.1c-0.1,0-0.2,0-0.3,0.1c-0.1,0-0.2,0.1-0.3,0.1
		l-0.3-0.1h0.1l0.1,0.1l0,0c0.1,0,0.2,0,0.3,0s0.2-0.1,0.3-0.1c0.2-0.1,0.6-0.1,0.8-0.1c0.2,0,0.4,0,0.6,0l-0.1-0.2l1.5-0.1
		C67.9,27.4,68,27.6,68,27.9L68,27.9L68,27.9z M67.8,28.6h-0.3c-0.8-0.2-0.8-0.2-0.8-0.2c0-0.2,0.1-0.2,0.3-0.2c0.2,0,0.5,0,0.5,0
		V28h0.3h-0.3l0.1,0.2c-0.1,0-0.4,0-0.5,0s-0.2,0-0.3,0c0,0.1,0.7,0.2,0.7,0.2L67.8,28.6c0.1-0.1,0.2-0.2,0.3-0.3h0.1
		C68.1,28.4,68,28.5,67.8,28.6L67.8,28.6L67.8,28.6z M69.4,29.5l-0.2-0.1c0.1-0.2,0.1-0.4,0-0.6s-0.1-0.2-0.3-0.2
		c-0.2,0-0.4-0.1-0.7-0.3c0.3,0.1,0.5,0.2,0.7,0.2s0.2,0.1,0.3,0.2c0.1,0.3,0.1,0.5,0,0.6L69.4,29.5L69.4,29.5l0.1-0.2v-0.7
		C69.3,28.5,69,28.2,69,28c0.2,0,0.4,0,0.6,0.1c0.3,0.1,0.5,0.2,0.8,0.2c0.5,0,0.7-0.2,0.7-0.2c-0.4-0.2-0.8-0.2-1.2-0.3
		c-0.4,0-0.7-0.1-1-0.2c-0.1-0.2-0.2-0.3-0.4-0.4C68.3,27.1,68,27,67.8,27L66,26.7c-0.1,0-0.2-0.1-0.3-0.1c-0.1,0-0.2-0.1-0.3-0.1
		c-0.1,0-0.2-0.1-0.2-0.1c-0.1,0-0.1-0.1-0.2-0.1V26h-0.7c-0.1,0.1-0.2,0.2-0.3,0.3c-0.1,0.2-0.1,0.3,0.1,0.3c0,0,0.6,0,0.6,0.1
		c0,0,0.1,0.1,0.1,0.2v0.2c-0.2,0.1-0.7,0.1-0.9,0.1l-0.1-0.1l0,0c0.6,0.1,0.9,0.1,0.9,0v-0.2c-0.1-0.2-0.5-0.2-0.6-0.2
		c-0.3,0-0.2-0.2-0.2-0.3l0,0l0.1-0.1c0.1-0.1,0.2-0.1,0.3-0.3h0.8v0.3c0.1,0,0.1,0.1,0.2,0.1s0.1,0.1,0.2,0.1s0.2,0.1,0.3,0.1
		c0.1,0,0.2,0.1,0.3,0.1l1.6,0.1c0.2,0,0.5,0.1,0.7,0.3c0.2,0.1,0.3,0.2,0.4,0.4c0.3,0.1,0.7,0.2,1,0.2c0.4,0.1,0.8,0.1,1.1,0.1l0,0
		l0.1,0.1c-0.1,0.2-0.3,0.4-0.8,0.4c-0.3,0-0.6-0.1-0.8-0.1c-0.2-0.1-0.3-0.1-0.4-0.1c0,0.1,0.2,0.4,0.5,0.5v0.8L69.4,29.5
		L69.4,29.5z"/>
	<path class="st0" d="M66.8,27.9C67,28,67.2,28,67.5,28H68c-0.1-0.4-0.1-0.6-0.6-0.6h-1.5v0.2C66.4,27.7,66.7,27.8,66.8,27.9
		L66.8,27.9L66.8,27.9z"/>
	<path class="st15" d="M67.5,28L67.5,28c-0.3,0-0.5,0-0.7-0.1c-0.3-0.1-0.5-0.2-0.8-0.3l-0.1-0.2l1.5-0.1c0.5,0.1,0.5,0.3,0.6,0.6
		l0,0c-0.1-0.3-0.2-0.5-0.6-0.6H66l0.1,0.2c0.3,0.1,0.5,0.2,0.7,0.3C67,27.9,67.2,28,67.5,28l0.4-0.1L67.5,28L67.5,28z"/>
	<path class="st1" d="M38.1,30.4l-2.6-9.8l4-4.8L45,19l1,10.3C43.1,29.5,41.3,29.8,38.1,30.4L38.1,30.4L38.1,30.4z"/>
	<path class="st8" d="M39.4,15.8l-3.9,4.8l2.6,9.7c3.1-0.6,5-0.8,7.9-1.1L45,19L39.4,15.8L39.4,15.8z M38,30.4L38,30.4l-2.6-9.8
		l4-4.9l5.6,3.2l1,10.4C43.1,29.6,41.2,29.9,38,30.4L38,30.4L38,30.4z"/>
	<path class="st5" d="M28.7,22.3l1,0.7l-0.2,1.3l1.2-0.5l1,0.7l0.1-1.2l1-0.4L32,22.1l0.2-1.2L31,21.3l-0.9-0.7l-0.2,1.1L28.7,22.3
		L28.7,22.3z"/>
	<path class="st16" d="M30.7,23.7l1,0.7l0.1-1.1l1-0.4L32,22.2l0.2-1.2C31,21.4,31,21.4,31,21.4c-0.1-0.1-0.9-0.7-0.9-0.7L30,21.8
		l-1.2,0.5l1,0.7l-0.2,1.3L30.7,23.7L30.7,23.7z M31.7,24.6l-1-0.8l-1.2,0.5l0.1-1.3l-0.9-0.7l1.2-0.6c0.2-1.1,0.2-1.1,0.2-1.1
		c0.1,0,0.9,0.7,0.9,0.7l1.2-0.4L32,22.1l0.8,0.8l-1,0.5L31.7,24.6L31.7,24.6z"/>
	<path class="st17" d="M28.7,22.3l4.1,0.7l-1,0.4l-1-0.7c0,0,0.9,1.9,0.9,1.8c0,0-0.9-0.7-1-0.7l0.1-1.1c0,0-1.3,1.7-1.3,1.6
		l0.2-1.3L28.7,22.3L28.7,22.3z"/>
	<polygon class="st16" points="29.9,21.8 30.8,22.6 30.1,20.7 	"/>
	<path class="st16" d="M31,21.4l-0.1,1.2c0.1-0.1,1.4-1.6,1.3-1.6L31,21.4L31,21.4L31,21.4z"/>
	<path class="st5" d="M67.8,20.6l0.2,1.2l-1,0.9l1.3,0.4l0.3,1.2l0.9-0.8l1,0.3l-0.1-1.1l0.9-0.8l-1.2-0.4l-0.2-1.1L69,21.1
		L67.8,20.6L67.8,20.6z"/>
	<path class="st16" d="M67.8,20.6l0.3,1.1l-1,0.9l1.3,0.3l0.3,1.2l0.8-0.8l1.1,0.3l-0.2-1.1l0.9-0.8c-1.2-0.4-1.2-0.4-1.2-0.4
		c0-0.1-0.2-1.1-0.2-1.1L69,20.9L67.8,20.6L67.8,20.6z M68.6,24.3l-0.3-1.2L67,22.7l1-0.9l-0.2-1.1l1.3,0.3c0.9-0.7,0.9-0.7,0.9-0.7
		s0.3,1.1,0.2,1.2c0.1,0,1.2,0.4,1.2,0.4l-0.9,0.9l0.1,1.1l-1.1-0.3L68.6,24.3L68.6,24.3z"/>
	<path class="st16" d="M67.8,20.6l2.7,3.1l-1.1-0.3l-0.3-1.2l-0.6,2c0,0-0.3-1.1-0.3-1.2l0.8-0.8l-2.1,0.4l1-0.9L67.8,20.6
		L67.8,20.6z"/>
	<polygon class="st16" points="69,21 69.2,22.2 69.9,20.2 	"/>
	<path class="st16" d="M70.1,21.4l-0.9,0.8c0.1,0,2.1-0.4,2.1-0.4C71.3,21.8,70.1,21.4,70.1,21.4L70.1,21.4L70.1,21.4z"/>
	<path class="st2" d="M35.5,20.7c1.4-0.7,3-1.2,4.7-1.4c1.6-0.2,3.2-0.3,4.9-0.3c0,0,0.2,2.5,0.2,2.6c-1.3,0-2.3,0-4.6,0.3
		s-3.2,0.6-4.6,1.1L35.5,20.7L35.5,20.7z"/>
	<path class="st9" d="M45,19h-0.3c-1.7,0-3.1,0-4.6,0.2c-1.6,0.2-3.1,0.7-4.7,1.4l0.6,2.2c1.4-0.5,2.3-0.8,4.6-1.1
		c2.1-0.3,3.1-0.3,4.2-0.3h0.4C45.2,21.5,45,19,45,19L45,19L45,19z M36.1,23l-0.6-2.3c1.6-0.8,3.2-1.3,4.7-1.5
		c1.4-0.2,2.9-0.3,4.6-0.3h0.3l0.2,2.6h-0.4c-1.2,0-2.1,0-4.2,0.3C38.4,22.2,37.5,22.5,36.1,23L36.1,23L36.1,23z"/>
	<path class="st2" d="M36.7,25.2l0.7,2.7c1.4-0.3,2.8-0.6,4.1-0.8c1.4-0.2,2.9-0.3,4.2-0.4L45.5,24c-1.4-0.1-3-0.1-4.5,0.1
		C39.6,24.3,38.1,24.7,36.7,25.2L36.7,25.2L36.7,25.2z"/>
	<path class="st9" d="M43.8,24c-1,0-1.9,0.1-2.7,0.2c-1.4,0.2-2.8,0.5-4.3,1c0,0,0.4,1.6,0.7,2.6c1.3-0.3,2.7-0.6,4.1-0.8
		c1.4-0.2,2.9-0.3,4.2-0.4L45.5,24C44.9,24,44.4,24,43.8,24L43.8,24L43.8,24z M37.4,27.9L37.4,27.9c-0.7-2.7-0.7-2.7-0.7-2.8
		c1.5-0.5,2.9-0.9,4.4-1c1.3-0.2,3-0.2,4.5-0.1l0.3,2.7c-1.3,0.1-2.8,0.2-4.2,0.4C40.1,27.3,38.7,27.6,37.4,27.9L37.4,27.9
		L37.4,27.9z"/>
	<path class="st0" d="M30.2,33.5h39.6v25.4c-1,9.9-10.5,17.3-19.2,17.2c-9.4,0.4-19.8-7.3-20.5-17.3L30.2,33.5L30.2,33.5z"/>
	<path class="st2" d="M69.7,33.5l-39.5,0.1l0.1,25.2C31,69.2,41.7,76.4,50.6,76c8.3,0,18-7,19.1-17.1V33.5L69.7,33.5z M49.9,76.3
		c-8.8,0-19.2-7.2-19.9-17.5l0-25.3l39.8-0.1L70,58.9c-1,10.3-11,17.4-19.3,17.4C50.4,76.3,50.1,76.3,49.9,76.3L49.9,76.3L49.9,76.3
		z"/>
	<path class="st2" d="M31,34.4h38v24.4c-1,9.5-10.1,16.6-18.4,16.5c-9,0.4-18.9-7-19.7-16.6L31,34.4L31,34.4z"/>
	<path class="st2" d="M68.9,34.4L31,34.5v24.2c0.7,10,11,16.8,19.5,16.5c7.9,0,17.3-6.7,18.3-16.4L68.9,34.4L68.9,34.4z M49.9,75.4
		c-8.5,0-18.4-6.9-19.1-16.8l0.1-24.3L69,34.2l0.1,24.5c-1,9.8-10.5,16.7-18.5,16.7C50.4,75.4,50.1,75.4,49.9,75.4L49.9,75.4
		L49.9,75.4z"/>
	<polygon class="st0" points="38.6,34.5 46.2,34.5 46.2,42.6 38.6,42.6 	"/>
	<path class="st0" d="M61.4,58.9v8h4.3c2-3.1,3-6.1,3.1-8C68.7,58.9,61.4,58.9,61.4,58.9L61.4,58.9L61.4,58.9z"/>
	<path class="st0" d="M61.4,58.9v8h4.2c2.5-3.8,3-7.1,3.1-8h-3.8H61.4L61.4,58.9z M65.7,67h-4.3v-8.1H65h3.9
		C68.7,59.8,68.2,63.1,65.7,67L65.7,67L65.7,67z"/>
	<path class="st0" d="M53.8,67v7.7c3.3-0.7,6-2.3,7.5-3.4V67H53.8L53.8,67z"/>
	<path class="st0" d="M61.2,67h-7.5l0.1,7.6c3.1-0.6,5.8-2.2,7.4-3.4V67L61.2,67z M53.8,74.8V67h7.5v4.4
		C59.6,72.6,57,74.1,53.8,74.8L53.8,74.8L53.8,74.8z"/>
	<path class="st0" d="M38.7,67v4.3c2.6,1.8,5.5,2.9,7.5,3.3V67L38.7,67L38.7,67z"/>
	<path class="st0" d="M46.1,67h-7.4l0.1,4.3c2.6,1.8,5.5,2.9,7.4,3.3L46.1,67L46.1,67z M46.2,74.7L46.2,74.7
		c-1.9-0.4-4.9-1.5-7.5-3.3v-4.3h7.5V74.7L46.2,74.7z"/>
	<path class="st0" d="M31.1,58.9c0.2,3.2,1.7,6,3.1,7.9l4.4,0.1v-8H31.1L31.1,58.9z"/>
	<path class="st0" d="M34.7,58.9h-5.2c0.2,3.5,1.4,6.4,2.2,7.9l3,0.1V58.9L34.7,58.9z M34.8,67L34.8,67l-3.1-0.1
		c-0.7-1.5-2-4.4-2.2-8h5.3V67L34.8,67z"/>
	<polygon class="st0" points="31.1,42.6 38.6,42.6 38.6,50.7 31.1,50.7 	"/>
	<polygon class="st0" points="46.2,42.6 53.8,42.6 53.8,50.7 46.2,50.7 	"/>
	<polygon class="st0" points="53.8,34.5 61.3,34.5 61.3,42.6 53.8,42.6 	"/>
	<polygon class="st0" points="61.3,42.6 68.9,42.6 68.9,50.7 61.3,50.7 	"/>
	<polygon class="st0" points="38.6,50.7 46.2,50.7 46.2,58.9 38.6,58.9 	"/>
	<polygon class="st0" points="53.8,50.7 61.3,50.7 61.3,58.9 53.8,58.9 	"/>
	<polygon class="st0" points="46.2,58.9 53.8,58.9 53.8,67 46.2,67 	"/>
	<path class="st6" d="M57.5,24.9l-0.1-0.4c0-0.1-0.1-0.3-0.1-0.5C57.4,24.2,57.5,24.6,57.5,24.9L57.5,24.9L57.5,24.9z"/>
	<path class="st6" d="M57.5,24.9c0,0-0.1,0-0.1-0.3L57.2,24C57.4,24.2,57.5,24.6,57.5,24.9L57.5,24.9L57.5,24.9z"/>
</g>
</svg>
