<?xml version="1.0" encoding="utf-8"?>
<!-- Generator: Adobe Illustrator 21.0.2, SVG Export Plug-In . SVG Version: 6.00 Build 0)  -->
<svg version="1.1" id="Layer_1" xmlns="http://www.w3.org/2000/svg" xmlns:xlink="http://www.w3.org/1999/xlink" x="0px" y="0px"
	 viewBox="0 0 100 100" style="enable-background:new 0 0 100 100;" xml:space="preserve">
<style type="text/css">
	.st0{fill:url(#SVGID_1_);}
	.st1{fill:#FFFFFF;}
</style>
<linearGradient id="SVGID_1_" gradientUnits="userSpaceOnUse" x1="0.6268" y1="51.9694" x2="99.4407" y2="51.9694" gradientTransform="matrix(1 0 0 -1 0 102)">
	<stop  offset="0" style="stop-color:#CF1400"/>
	<stop  offset="1" style="stop-color:#CF1400"/>
</linearGradient>
<path class="st0" d="M2.1,38.1c6.5-26.5,33.3-42.6,59.8-36S104.5,35.4,98,61.9C91.4,88.4,64.7,104.5,38.2,98
	C11.7,91.4-4.5,64.6,2.1,38.1"/>
<path class="st1" d="M48.5,70c-11.2,0-20.3-9-20.3-20s9.1-20,20.3-20c5.6,0,10.7,2.2,14.3,5.8c-4.5-6.4-12.1-10.6-20.6-10.6
	c-13.9,0-25.1,11.1-25.1,24.7c0,13.7,11.3,24.7,25.1,24.7c8.5,0,16.1-4.2,20.6-10.6C59.1,67.7,54.1,70,48.5,70"/>
<polygon class="st1" points="72.8,39.4 77.5,46 85.4,43.7 80.4,50.1 85.1,56.8 77.3,54.1 72.3,60.6 72.5,52.5 64.7,49.8 72.6,47.5 
	"/>
</svg>
