<?xml version="1.0" encoding="utf-8"?>
<!-- Generator: Adobe Illustrator 21.1.0, SVG Export Plug-In . SVG Version: 6.00 Build 0)  -->
<svg version="1.1" id="Layer_1" xmlns="http://www.w3.org/2000/svg" xmlns:xlink="http://www.w3.org/1999/xlink" x="0px" y="0px"
	 viewBox="0 0 100 100" style="enable-background:new 0 0 100 100;" xml:space="preserve">
<g>
	<g>
		<g>
			<linearGradient id="SVGID_1_" gradientUnits="userSpaceOnUse" x1="0.352" y1="50.0001" x2="99.648" y2="50.0001">
				<stop  offset="0" style="stop-color:#CD2027"/>
				<stop  offset="1" style="stop-color:#CD2027"/>
			</linearGradient>
			<path style="fill:url(#SVGID_1_);" d="M1.8,38.1C8.4,11.5,35.3-4.8,61.9,1.8c26.6,6.6,42.8,33.5,36.3,60.1
				c-6.6,26.6-33.5,42.8-60.1,36.3C11.5,91.6-4.8,64.7,1.8,38.1"/>
			<path style="fill:#FFFFFF;" d="M3.2,33.3h93.5C91.3,18.2,78.7,6,61.9,1.8C36.9-4.4,11.7,9.6,3.2,33.3"/>
			<path style="fill:#1E429B;" d="M98.6,60.2c0-0.1,0-0.2,0.1-0.3c0-0.2,0.1-0.4,0.1-0.6c0-0.1,0-0.2,0.1-0.3c0-0.2,0.1-0.4,0.1-0.6
				c0-0.1,0-0.2,0-0.3c0-0.2,0.1-0.5,0.1-0.7c0,0,0-0.1,0-0.1c0-0.3,0.1-0.6,0.1-0.9c0-0.1,0-0.2,0-0.2c0-0.2,0.1-0.4,0.1-0.6
				c0-0.1,0-0.2,0-0.3c0-0.2,0-0.4,0.1-0.6c0-0.1,0-0.2,0-0.3c0-0.2,0-0.4,0-0.6c0-0.1,0-0.2,0-0.3c0-0.2,0-0.4,0-0.7
				c0-0.1,0-0.1,0-0.2c0-0.3,0-0.6,0-0.9c0,0,0-0.1,0-0.1c0-0.2,0-0.5,0-0.7c0-0.1,0-0.2,0-0.3c0-0.2,0-0.4,0-0.6c0-0.1,0-0.2,0-0.3
				c0-0.2,0-0.4,0-0.6c0-0.1,0-0.2,0-0.3c0-0.2,0-0.4,0-0.6c0-0.1,0-0.1,0-0.2c0-0.6-0.1-1.1-0.1-1.7c0-0.1,0-0.1,0-0.2
				c0-0.2,0-0.4-0.1-0.6c0-0.1,0-0.2,0-0.3c0-0.2,0-0.4-0.1-0.6c0-0.1,0-0.2,0-0.3c0-0.2,0-0.4-0.1-0.6c0-0.1,0-0.1,0-0.2
				c-0.1-0.6-0.2-1.1-0.2-1.7c0-0.1,0-0.1,0-0.2c0-0.2-0.1-0.5-0.1-0.7c0-0.1,0-0.2,0-0.2c0-0.2-0.1-0.4-0.1-0.6c0-0.1,0-0.2,0-0.2
				c0-0.2-0.1-0.4-0.1-0.6c0-0.1,0-0.1,0-0.2c-0.1-0.3-0.1-0.5-0.2-0.8l0-0.1c-0.1-0.3-0.1-0.5-0.2-0.8h0c-0.4-1.5-0.8-2.9-1.3-4.3
				H3.2c-0.5,1.5-1,3.1-1.4,4.7C0.2,44.7,0,51.4,1,57.8c0,0,0,0.1,0,0.1c0,0.2,0.1,0.5,0.1,0.7c0,0,0,0.1,0,0.1
				c0,0.2,0.1,0.4,0.1,0.7c0,0.1,0,0.1,0,0.2c0,0.2,0.1,0.4,0.1,0.6c0,0.1,0,0.2,0.1,0.2c0,0.2,0.1,0.4,0.1,0.6c0,0.1,0,0.2,0.1,0.3
				c0,0.2,0.1,0.4,0.1,0.5c0,0.1,0.1,0.3,0.1,0.4C1.9,62.4,2,62.6,2,62.8c0.1,0.2,0.1,0.4,0.2,0.6c0,0.1,0.1,0.2,0.1,0.3
				c0.1,0.2,0.1,0.4,0.2,0.6c0,0.1,0.1,0.2,0.1,0.3c0.1,0.2,0.1,0.4,0.2,0.6c0,0.1,0.1,0.2,0.1,0.3c0.1,0.2,0.1,0.4,0.2,0.6
				C3,66,3,66.1,3.1,66.2c0.1,0.2,0.1,0.4,0.2,0.6c0,0,0,0.1,0,0.1h0c0,0.1,0.1,0.2,0.1,0.3h93.1c0-0.1,0.1-0.2,0.1-0.3h0
				c0.1-0.3,0.2-0.6,0.3-0.9c0,0,0-0.1,0-0.1c0.1-0.4,0.3-0.8,0.4-1.2c0-0.1,0-0.1,0.1-0.2c0.1-0.4,0.2-0.7,0.3-1.1
				c0-0.1,0-0.2,0.1-0.2c0.1-0.4,0.2-0.9,0.3-1.3c0.1-0.3,0.1-0.6,0.2-0.9c0-0.1,0-0.2,0.1-0.3C98.5,60.6,98.5,60.4,98.6,60.2"/>
		</g>
	</g>
	<g>
		<linearGradient id="SVGID_2_" gradientUnits="userSpaceOnUse" x1="21.2981" y1="50.1061" x2="61.8893" y2="50.1061">
			<stop  offset="0" style="stop-color:#CD2027"/>
			<stop  offset="1" style="stop-color:#CD2027"/>
		</linearGradient>
		<path style="fill:url(#SVGID_2_);" d="M41.6,75.9c-8.3-4-20.2-12-20.2-27.7s-0.1-23.9-0.1-23.9h20.3h20.3c0,0-0.1,8.2-0.1,23.9
			S49.9,71.9,41.6,75.9L41.6,75.9z"/>
		<path style="fill:#FFFFFF;" d="M43.4,44.9c2.3,0,7.2,0.1,11.1-1.2c0,0-0.1,1.4-0.1,3c0,1.6,0.1,3,0.1,3c-3.6-1.2-8.5-1.2-11.1-1.2
			v28h-3.6v-28c-2.5,0-7.5,0-11.1,1.2c0,0,0.1-1.4,0.1-3c0-1.6-0.1-3-0.1-3c3.9,1.3,8.8,1.2,11.1,1.2v-6.3c-2.1,0-5.5,0.1-8.9,1.2
			c0,0,0.1-1.4,0.1-3c0-1.6-0.1-3-0.1-3c3.3,1.1,6.8,1.2,8.9,1.2c-0.1-3.5-1.1-7.5-1.1-7.5s2.1,0.2,2.9,0.2c0.8,0,2.9-0.2,2.9-0.2
			s-1,4-1.1,7.5c2.1,0,5.5-0.1,8.9-1.2c0,0-0.1,1.4-0.1,3c0,1.6,0.1,3,0.1,3c-3.3-1.1-6.8-1.2-8.9-1.2V44.9L43.4,44.9z"/>
		<g>
			<ellipse style="fill:#1E429B;" cx="41.6" cy="62.2" rx="6.4" ry="5.7"/>
			<ellipse style="fill:#1E429B;" cx="52.5" cy="63.6" rx="5.3" ry="4.4"/>
			<ellipse style="fill:#1E429B;" cx="30.7" cy="63.6" rx="5.3" ry="4.4"/>
			<polygon style="fill:#1E429B;" points="29.2,68.4 30.3,64.8 41.6,62.2 52.5,64.7 54.5,68 41.8,76.6 			"/>
		</g>
		<path style="fill:#FFFFFF;" d="M63.2,22.9H20c-0.2,2,0,10.3,0,25.1c0,12.7,7.3,22.7,21.6,29.7c14.3-7,21.6-16.9,21.6-29.7
			C63.2,33.2,63.3,24.9,63.2,22.9z M41.6,75.9L41.6,75.9c-8.3-4-20.2-12-20.2-27.7s-0.1-23.9-0.1-23.9h20.3h20.3
			c0,0-0.1,8.2-0.1,23.9S49.9,71.9,41.6,75.9z"/>
	</g>
</g>
</svg>
