<?xml version="1.0" encoding="utf-8"?>
<!-- Generator: Adobe Illustrator 21.0.2, SVG Export Plug-In . SVG Version: 6.00 Build 0)  -->
<svg version="1.1" id="Layer_1" xmlns="http://www.w3.org/2000/svg" xmlns:xlink="http://www.w3.org/1999/xlink" x="0px" y="0px"
	 viewBox="0 0 100 100" style="enable-background:new 0 0 100 100;" xml:space="preserve">
<style type="text/css">
	.st0{fill:#C3242D;}
	.st1{fill:#FFFFFF;}
	.st2{fill:#2B477F;}
</style>
<path class="st0" d="M49.1,99.1h1.7C77.6,98.7,99.1,76.9,99.1,50c0-27.1-22-49.1-49.1-49.1C22.9,0.9,0.9,22.9,0.9,50
	C0.9,76.9,22.4,98.7,49.1,99.1L49.1,99.1z"/>
<path class="st1" d="M0.9,50h98.3c0-27.1-22-49.1-49.1-49.1C22.9,0.9,0.9,22.9,0.9,50L0.9,50z"/>
<path class="st2" d="M0.9,50c0,12,4.3,23,11.4,31.5l47-31.5l-47-31.5C5.2,27.1,0.9,38,0.9,50z"/>
</svg>
